<svg width="26" height="26" viewBox="0 0 26 26" fill="none" xmlns="http://www.w3.org/2000/svg">
<path d="M6.93555 18.7266V15.6016M12.1439 18.7266V9.35156M17.3522 18.7266V14.5599" stroke="#F4F8FC" stroke-width="1.5625" stroke-linecap="round"/>
<path d="M22.5605 6.22656C22.5605 7.95245 21.1615 9.35156 19.4355 9.35156C17.7096 9.35156 16.3105 7.95245 16.3105 6.22656C16.3105 4.50068 17.7096 3.10156 19.4355 3.10156C21.1615 3.10156 22.5605 4.50068 22.5605 6.22656Z" stroke="#F4F8FC" stroke-width="1.5625"/>
<path d="M22.5565 11.9557C22.5565 11.9557 22.5612 12.3094 22.5612 12.9974C22.5612 17.6624 22.5612 19.9948 21.112 21.4441C19.6628 22.8932 17.3303 22.8932 12.6654 22.8932C8.00043 22.8932 5.66796 22.8932 4.21874 21.4441C2.76953 19.9948 2.76953 17.6624 2.76953 12.9974C2.76953 8.33249 2.76953 6.00002 4.21874 4.5508C5.66796 3.10159 8.00043 3.10159 12.6654 3.10159L13.707 3.10156" stroke="#F4F8FC" stroke-width="1.5625" stroke-linecap="round" stroke-linejoin="round"/>
</svg>
