<svg width="153" height="40" viewBox="0 0 153 40" fill="none" xmlns="http://www.w3.org/2000/svg">
<g clip-path="url(#clip0_2964_40020)">
<path d="M10.568 33.8447C8.76837 32.2037 8.243 28.7558 8.99278 26.2578C10.2929 27.8327 12.0942 28.3316 13.9601 28.6133C16.8406 29.0478 19.6695 28.8853 22.3453 27.572C22.6514 27.4216 22.9343 27.2217 23.2688 27.0192C23.5199 27.7458 23.5852 28.4794 23.4975 29.226C23.2843 31.0443 22.3771 32.4488 20.9343 33.5136C20.3574 33.9395 19.7469 34.3201 19.151 34.7217C17.3204 35.9559 16.8251 37.4031 17.513 39.5082C17.5293 39.5594 17.544 39.6107 17.5809 39.7359C16.6463 39.3187 15.9636 38.7112 15.4434 37.9124C14.8939 37.0693 14.6325 36.1367 14.6188 35.1276C14.6119 34.6365 14.6119 34.1411 14.5457 33.657C14.384 32.4766 13.8286 31.9482 12.7821 31.9178C11.7082 31.8865 10.8587 32.5488 10.6334 33.5918C10.6162 33.6717 10.5913 33.7509 10.5663 33.8438L10.568 33.8447Z" fill="#F4F8FC"/>
<path d="M0.296875 25.8427C0.296875 25.8427 5.62594 23.2531 10.9699 23.2531L14.9991 10.8146C15.1499 10.2131 15.5904 9.80425 16.0876 9.80425C16.5849 9.80425 17.0253 10.2131 17.1762 10.8146L21.2053 23.2531C27.5344 23.2531 31.8783 25.8427 31.8783 25.8427C31.8783 25.8427 22.8265 1.24497 22.8088 1.19562C22.549 0.468377 22.1104 0 21.5191 0H10.657C10.0657 0 9.64488 0.468377 9.36736 1.19562C9.34781 1.24404 0.296875 25.8427 0.296875 25.8427Z" fill="#F4F8FC"/>
<path d="M56.482 22.2557C56.482 24.4354 53.764 25.7372 50.0008 25.7372C47.5516 25.7372 46.6855 25.1317 46.6855 23.8602C46.6855 22.5282 47.7607 21.8924 50.2099 21.8924C52.4202 21.8924 54.3017 21.9227 56.482 22.1952V22.2557ZM56.5118 19.5614C55.168 19.2587 53.1372 19.0771 50.7174 19.0771C43.6689 19.0771 40.3535 20.7421 40.3535 24.6171C40.3535 28.6434 42.6234 30.1873 47.8802 30.1873C52.3306 30.1873 55.3473 29.0672 56.4521 26.3123H56.6313C56.6015 26.9783 56.5716 27.6443 56.5716 28.159C56.5716 29.5818 56.8106 29.7029 57.9756 29.7029H63.4713C63.1726 28.8553 62.9934 26.4637 62.9934 24.4051C62.9934 22.1952 63.083 20.5302 63.083 18.29C63.083 13.7187 60.3351 10.8125 51.7331 10.8125C48.0295 10.8125 43.9078 11.4482 40.7716 12.3867C41.0703 13.6279 41.4885 16.1406 41.6976 17.7753C44.4155 16.5038 48.2685 15.9589 51.2551 15.9589C55.3772 15.9589 56.5118 16.8974 56.5118 18.8046V19.5614Z" fill="#F4F8FC"/>
<path d="M71.5904 23.5282C70.8435 23.619 69.8284 23.619 68.7828 23.619C67.6775 23.619 66.6623 23.5888 65.9752 23.4979C65.9752 23.7402 65.9453 24.0126 65.9453 24.2548C65.9453 28.0389 68.4243 30.2489 77.1458 30.2489C85.3595 30.2489 88.0177 28.0692 88.0177 24.2245C88.0177 20.5918 86.2557 18.8056 78.4597 18.4121C72.397 18.1396 71.8592 17.4736 71.8592 16.7168C71.8592 15.8388 72.6359 15.3848 76.6977 15.3848C80.9094 15.3848 82.044 15.96 82.044 17.1708V17.4433C82.6415 17.4131 83.717 17.3828 84.8218 17.3828C85.8673 17.3828 87.002 17.4131 87.6592 17.4736C87.6592 17.2011 87.6891 16.9589 87.6891 16.747C87.6891 12.2969 83.9853 10.8438 76.8172 10.8438C68.7529 10.8438 66.0349 12.8115 66.0349 16.6562C66.0349 20.1073 68.2152 22.2568 75.9509 22.5898C81.6557 22.7714 82.283 23.4071 82.283 24.2851C82.283 25.2235 81.357 25.6473 77.3549 25.6473C72.7554 25.6473 71.5904 25.0116 71.5904 23.7099V23.5282Z" fill="#F4F8FC"/>
<path d="M97.8769 7.57812C95.6967 9.60643 91.7838 11.6347 89.6035 12.1796C89.6334 13.2997 89.6334 15.3583 89.6334 16.4784L91.6344 16.5087C91.6045 18.6581 91.5746 21.2616 91.5746 22.9871C91.5746 27.0135 93.6952 30.0408 100.296 30.0408C103.074 30.0408 104.926 29.7381 107.225 29.2537C106.986 27.7703 106.718 25.4998 106.628 23.7742C105.254 24.2284 103.522 24.4705 101.61 24.4705C98.9519 24.4705 97.8769 23.744 97.8769 21.6551C97.8769 19.8387 97.8769 18.1434 97.9068 16.5693C101.312 16.5995 104.716 16.66 106.718 16.7206C106.688 15.1464 106.748 12.8759 106.837 11.3623C103.94 11.4228 100.685 11.4531 97.9964 11.4531C98.0263 10.1211 98.0562 8.84957 98.086 7.57812H97.8769Z" fill="#F4F8FC"/>
<path d="M115.715 15.5756C115.745 14.0014 115.774 12.6694 115.804 11.3677H109.801C109.89 13.9712 109.89 16.6352 109.89 20.5404C109.89 24.4457 109.861 27.14 109.801 29.7132H116.67C116.551 27.8968 116.521 24.8392 116.521 22.2357C116.521 18.1186 118.194 16.9379 121.987 16.9379C123.749 16.9379 125.003 17.1499 126.109 17.5434C126.138 15.9995 126.437 13.0024 126.616 11.6704C125.481 11.3374 124.227 11.1255 122.704 11.1255C119.448 11.0952 117.059 12.4272 115.953 15.6059L115.715 15.5756Z" fill="#F4F8FC"/>
<path d="M145.622 20.4149C145.622 23.7147 143.232 25.2586 139.469 25.2586C135.735 25.2586 133.346 23.8055 133.346 20.4149C133.346 17.0243 135.765 15.7529 139.469 15.7529C143.202 15.7529 145.622 17.1152 145.622 20.4149ZM151.864 20.2636C151.864 13.6943 146.726 10.7578 139.469 10.7578C132.181 10.7578 127.223 13.6943 127.223 20.2636C127.223 26.8026 131.853 30.3143 139.439 30.3143C147.085 30.3143 151.864 26.8026 151.864 20.2636Z" fill="#F4F8FC"/>
</g>
<defs>
<clipPath id="clip0_2964_40020">
<rect width="152.405" height="40" fill="white" transform="translate(0.0429688)"/>
</clipPath>
</defs>
</svg>
