<svg width="18" height="19" viewBox="0 0 18 19" fill="none" xmlns="http://www.w3.org/2000/svg">
<path d="M1.50049 8V6.5C1.50049 5.79289 1.50049 5.43934 1.72016 5.21967C1.93983 5 2.29338 5 3.00049 5H5.25049C8.07889 5 9.49316 5 10.3718 5.87868C11.2505 6.75736 11.2505 8.1716 11.2505 11V12.5C11.2505 13.2071 11.2505 13.5606 11.0308 13.7803C10.8111 14 10.4576 14 9.75049 14H7.50049C4.67206 14 3.25785 14 2.37917 13.1213C1.50049 12.2427 1.50049 10.8284 1.50049 8Z" stroke="#F4F8FC" stroke-linecap="round" stroke-linejoin="round"/>
<path d="M13.4251 7.30262L13.9503 6.7962C15.0376 5.74756 15.5813 5.22324 16.0409 5.41305C16.5005 5.60286 16.5005 6.35172 16.5005 7.84943V11.1501C16.5005 12.6478 16.5005 13.3967 16.0409 13.5864C15.5813 13.7763 15.0376 13.2519 13.9503 12.2033L13.4251 11.6969C12.7596 11.0551 12.7505 11.0337 12.7505 10.1171V8.88243C12.7505 7.9658 12.7596 7.94444 13.4251 7.30262Z" stroke="#F4F8FC" stroke-linecap="round" stroke-linejoin="round"/>
</svg>
