<svg width="18" height="18" viewBox="0 0 18 18" fill="none" xmlns="http://www.w3.org/2000/svg">
<circle cx="9" cy="9" r="9" fill="#0F1014"/>
<g clip-path="url(#clip0_3085_7088)">
<path fill-rule="evenodd" clip-rule="evenodd" d="M12.6339 5.82862C12.8671 6.02129 12.8999 6.36646 12.7072 6.5996L8.30437 11.9275L8.30304 11.9291C8.20289 12.0494 8.0772 12.1458 7.93511 12.2114C7.79302 12.2769 7.63809 12.31 7.48161 12.3082H7.48112C7.32207 12.3062 7.16554 12.2682 7.02328 12.1972C6.88149 12.1262 6.75754 12.0243 6.66067 11.8988C6.66034 11.8984 6.66002 11.8979 6.65969 11.8975L5.2814 10.1254C5.09571 9.8867 5.13872 9.54264 5.37745 9.35696C5.61619 9.17127 5.96024 9.21428 6.14593 9.45301L7.49502 11.1876L11.8629 5.90192C12.0556 5.66878 12.4008 5.63597 12.6339 5.82862Z" fill="#F4F8FC"/>
</g>
<defs>
<clipPath id="clip0_3085_7088">
<rect width="8" height="8" fill="white" transform="translate(5 5)"/>
</clipPath>
</defs>
</svg>
