<svg width="26" height="26" viewBox="0 0 26 26" fill="none" xmlns="http://www.w3.org/2000/svg">
<path d="M12.6642 2.58594C9.69605 2.58594 7.77146 4.68905 5.49534 5.45563C4.56985 5.76732 4.10711 5.92317 3.91983 6.14286C3.73256 6.36256 3.67772 6.68359 3.56805 7.32566C2.3944 14.1964 4.95966 20.5484 11.0775 23.0208C11.7348 23.2865 12.0635 23.4193 12.6675 23.4193C13.2714 23.4193 13.6001 23.2865 14.2574 23.0208C20.3749 20.5483 22.9377 14.1964 21.7637 7.32566C21.6539 6.68348 21.5991 6.3624 21.4117 6.1427C21.2245 5.923 20.7617 5.76724 19.8363 5.45572C17.5593 4.68922 15.6326 2.58594 12.6642 2.58594Z" stroke="#F4F8FC" stroke-width="1.61458" stroke-linecap="round" stroke-linejoin="round"/>
<path d="M12.4917 13.1736C13.5907 14.2725 15.0381 15.3893 15.0381 15.3893L17.0221 13.4051C17.0221 13.4051 15.9055 11.9577 14.8066 10.8588C13.7077 9.7599 12.2603 8.64319 12.2603 8.64319L10.2761 10.6273C10.2761 10.6273 11.3929 12.0747 12.4917 13.1736ZM12.4917 13.1736L9.01953 16.6458M17.3529 13.0744L14.7073 15.7199M12.591 8.3125L9.94546 10.958" stroke="#F4F8FC" stroke-width="1.61458" stroke-linecap="round" stroke-linejoin="round"/>
</svg>
