<svg width="13" height="13" viewBox="0 0 13 13" fill="none" xmlns="http://www.w3.org/2000/svg">
<path fill-rule="evenodd" clip-rule="evenodd" d="M11.9829 1.87197C12.3093 1.5456 12.3093 1.01645 11.9829 0.690087C11.6566 0.363721 11.1274 0.363721 10.801 0.690087L6.17491 5.31622L1.54861 0.689918C1.22314 0.364447 0.695449 0.364446 0.369978 0.689917C0.0445076 1.01539 0.0445078 1.54308 0.369978 1.86855L4.99628 6.49485L0.368799 11.1223C0.0424324 11.4487 0.0424318 11.9778 0.368798 12.3042C0.695165 12.6306 1.22431 12.6306 1.55068 12.3042L6.17816 7.67673L10.8055 12.304C11.1309 12.6295 11.6586 12.6295 11.9841 12.304C12.3096 11.9786 12.3096 11.4509 11.9841 11.1254L7.35679 6.4981L11.9829 1.87197Z" fill="#F4F8FC"/>
</svg>
