<svg width="51" height="58" viewBox="0 0 51 58" fill="none" xmlns="http://www.w3.org/2000/svg">
<path d="M0 1.06293C0 1.44511 0.968252 12.6558 2.16583 25.9812C3.33792 39.2811 4.35714 50.5682 4.38262 51.0523L4.45906 51.9186L14.7786 54.7722L25.0726 57.6258L27.1365 57.0653C28.2577 56.7596 32.8696 55.4856 37.4051 54.2372C44.4377 52.3008 45.6353 51.8931 45.7372 51.46C45.8646 50.8485 50.1962 1.75085 50.1962 0.935533V0.375H0V1.06293ZM40.9469 11.8914C40.845 12.5029 40.1825 19.7389 39.469 28.0195C38.7301 36.2746 38.1186 43.1029 38.0676 43.1539C37.9657 43.2813 25.4548 46.7464 25.0981 46.7464C24.8433 46.7464 18.0146 44.8864 13.3517 43.5615L12.0522 43.1794L11.7464 39.8162C11.5935 37.9562 11.3897 35.7141 11.2878 34.8223L11.1349 33.2426H14.3199C17.9127 33.2426 17.8107 33.1917 17.8362 35.4083C17.8362 35.9689 17.9127 36.8351 17.9891 37.3447L18.142 38.262L21.6328 39.1792L25.0981 40.0964L28.538 39.1792C30.4235 38.6696 32.0033 38.2365 32.0033 38.2365C32.0288 38.211 32.1816 36.7077 32.3345 34.8988C32.4874 33.0643 32.6658 31.2808 32.7422 30.8731L32.8696 30.1852H11.0075L10.8801 29.5992C10.8037 29.2934 10.6508 27.8157 10.5489 26.2869L10.3705 23.5607H33.3283L33.4811 21.8281C33.5831 20.8854 33.7359 19.4331 33.8124 18.6178C33.9143 17.5732 33.8888 17.1655 33.685 17.2929C33.5321 17.3694 28.1048 17.3694 21.5818 17.2674L9.73348 17.1146L9.5806 15.3056C9.47868 14.3119 9.35128 12.8851 9.27484 12.1462L9.12195 10.8213H41.0743L40.9469 11.8914Z" fill="#F4F8FC"/>
</svg>
