<svg width="34" height="52" viewBox="0 0 34 52" fill="none" xmlns="http://www.w3.org/2000/svg">
<g clip-path="url(#clip0_2964_40035)">
<path d="M9.13368 51.021C13.7054 51.021 17.4158 47.2835 17.4158 42.6785V34.3359H9.13368C4.56195 34.3359 0.851562 38.0734 0.851562 42.6785C0.851562 47.2835 4.56195 51.021 9.13368 51.021Z" fill="#404452"/>
<path d="M0.851562 25.9988C0.851562 21.3937 4.56195 17.6562 9.13368 17.6562H17.4158V34.3413H9.13368C4.56195 34.3413 0.851562 30.6038 0.851562 25.9988Z" fill="#232733"/>
<path d="M0.851562 9.31127C0.851562 4.7062 4.56195 0.96875 9.13368 0.96875H17.4158V17.6538H9.13368C4.56195 17.6538 0.851562 13.9163 0.851562 9.31127Z" fill="#9199A1"/>
<path d="M17.416 0.96875H25.6981C30.2699 0.96875 33.9803 4.7062 33.9803 9.31127C33.9803 13.9163 30.2699 17.6538 25.6981 17.6538H17.416V0.96875Z" fill="#C7CCDA"/>
<path d="M33.9803 25.9988C33.9803 30.6038 30.2699 34.3413 25.6981 34.3413C21.1264 34.3413 17.416 30.6038 17.416 25.9988C17.416 21.3937 21.1264 17.6562 25.6981 17.6562C30.2699 17.6562 33.9803 21.3937 33.9803 25.9988Z" fill="#5D6274"/>
</g>
<defs>
<clipPath id="clip0_2964_40035">
<rect width="33.1351" height="50.0551" fill="white" transform="translate(0.847656 0.96875)"/>
</clipPath>
</defs>
</svg>
