<svg width="26" height="26" viewBox="0 0 26 26" fill="none" xmlns="http://www.w3.org/2000/svg">
<path d="M23.3284 11.4375C23.3478 11.5996 23.3628 11.7631 23.3735 11.9278C23.4293 12.7926 23.4293 13.6882 23.3735 14.553C23.0879 18.9721 19.617 22.4922 15.2597 22.7818C13.7732 22.8806 12.2212 22.8804 10.7377 22.7818C10.2268 22.7478 9.66995 22.6259 9.19037 22.4284C8.65679 22.2086 8.38995 22.0988 8.25436 22.1154C8.11877 22.1321 7.92203 22.2772 7.52857 22.5673C6.83482 23.0789 5.96085 23.4464 4.66477 23.4148C4.00938 23.3989 3.6817 23.3908 3.53499 23.1407C3.38829 22.8906 3.571 22.5444 3.93641 21.8519C4.44322 20.8915 4.76433 19.792 4.27777 18.911C3.43977 17.6527 2.72797 16.1625 2.62395 14.553C2.56806 13.6882 2.56806 12.7926 2.62395 11.9278C2.90954 7.50873 6.38035 3.98868 10.7377 3.69903C11.9902 3.61577 13.2916 3.60267 14.5612 3.66009" stroke="#F4F8FC" stroke-width="1.5625" stroke-linecap="round" stroke-linejoin="round"/>
<path d="M22.0255 5.85017L18.5799 9.29583L19.6847 10.4007L23.1304 6.95502L22.0255 5.85017ZM16.6976 7.41359L20.1432 3.96793L19.0384 2.86307L15.5927 6.30873L16.6976 7.41359ZM16.3225 9.99719C16.1398 10.0363 15.9937 10.0674 15.8682 10.0908C15.7416 10.1143 15.6586 10.1254 15.6024 10.129C15.5446 10.1327 15.5485 10.1258 15.5846 10.1351C15.6336 10.1478 15.7003 10.1794 15.7572 10.2362L14.6524 11.341C14.9896 11.6783 15.4109 11.7069 15.7015 11.6883C15.9781 11.6707 16.3152 11.5966 16.6491 11.5251L16.3225 9.99719ZM14.4683 9.34423C14.3969 9.67823 14.3227 10.0153 14.3051 10.2919C14.2865 10.5825 14.3151 11.0039 14.6524 11.341L15.7572 10.2362C15.814 10.2931 15.8456 10.3598 15.8583 10.4088C15.8676 10.4449 15.8607 10.4489 15.8645 10.3911C15.868 10.3348 15.8791 10.2518 15.9027 10.1252C15.926 9.99972 15.9572 9.8537 15.9962 9.67095L14.4683 9.34423ZM22.0255 3.96793C22.4083 4.35073 22.4865 4.43851 22.5264 4.50759L23.8797 3.72634C23.711 3.43421 23.4421 3.17474 23.1304 2.86307L22.0255 3.96793ZM23.1304 6.95502C23.4421 6.64334 23.711 6.38389 23.8797 6.09174L22.5264 5.31049C22.4865 5.37958 22.4083 5.46736 22.0255 5.85017L23.1304 6.95502ZM22.5264 4.50759C22.6699 4.75601 22.6699 5.06207 22.5264 5.31049L23.8797 6.09174C24.3022 5.35989 24.3022 4.45821 23.8797 3.72634L22.5264 4.50759ZM23.1304 2.86307C22.8186 2.5514 22.5592 2.28245 22.2671 2.11378L21.4858 3.46694C21.5549 3.50683 21.6427 3.58511 22.0255 3.96793L23.1304 2.86307ZM20.1432 3.96793C20.526 3.58513 20.6138 3.50683 20.6829 3.46694L19.9016 2.11378C19.6096 2.28245 19.3501 2.5514 19.0384 2.86307L20.1432 3.96793ZM22.2671 2.11378C21.5352 1.69124 20.6335 1.69124 19.9016 2.11378L20.6829 3.46694C20.9313 3.32351 21.2374 3.32351 21.4858 3.46694L22.2671 2.11378ZM18.5799 9.29583C18.3761 9.49951 18.0978 9.63121 17.7023 9.73219C17.5041 9.78277 17.2928 9.82188 17.0573 9.86257C16.8309 9.90168 16.5719 9.94388 16.3225 9.99719L16.6491 11.5251C16.8594 11.4802 17.0748 11.4452 17.3233 11.4023C17.5626 11.3609 17.8263 11.3131 18.0888 11.2461C18.6147 11.1119 19.2 10.8854 19.6847 10.4007L18.5799 9.29583ZM15.9962 9.67095C16.0496 9.4216 16.0917 9.16247 16.1308 8.93615C16.1715 8.70059 16.2106 8.48925 16.2612 8.29111C16.3622 7.89559 16.4939 7.61727 16.6976 7.41359L15.5927 6.30873C15.108 6.79344 14.8815 7.37878 14.7473 7.90459C14.6803 8.16713 14.6325 8.43088 14.5911 8.67013C14.5482 8.91862 14.5132 9.13402 14.4683 9.34423L15.9962 9.67095Z" fill="#F4F8FC"/>
<path d="M9.35547 16.1302H16.6471M9.35547 10.9219H11.9596" stroke="#F4F8FC" stroke-width="1.5625" stroke-linecap="round" stroke-linejoin="round"/>
</svg>
