<svg width="58" height="58" viewBox="0 0 58 58" fill="none" xmlns="http://www.w3.org/2000/svg">
<path d="M0.195312 0.375V57.6258H57.4461V0.375H0.195312ZM30.8654 44.8466C30.8654 50.4196 27.5735 53.1365 22.8081 53.1365C18.5041 53.1365 16.0057 50.9078 14.738 48.2178L19.1188 45.5661C19.9635 47.0651 20.605 48.3328 22.449 48.3328C23.9825 48.3328 25.2426 47.6414 25.2426 44.9514V26.9557H30.8654V44.8466ZM43.5615 53.0087C38.5662 53.0087 35.3381 50.7545 33.7625 47.6414L38.1496 45.1022C39.2997 46.9859 40.8012 48.2408 43.4529 48.2408C45.6816 48.2408 46.9761 47.2542 46.9761 45.7169C46.9761 43.8729 45.6433 43.2198 43.1833 42.1387L41.8389 41.5611C37.9566 39.91 35.3829 37.8347 35.3829 33.4527C35.3829 29.4183 38.4562 26.4714 43.26 26.4714C46.6809 26.4714 49.1384 27.5346 50.9083 30.6477L46.7116 33.3453C45.789 31.693 44.7947 31.0451 43.2536 31.0451C41.6779 31.0451 40.6786 32.0444 40.6786 33.3453C40.6786 34.9594 41.6779 35.6124 43.9833 36.6117L45.3276 37.1881C49.9013 39.1484 52.4763 41.1496 52.4763 45.6428C52.4776 50.4861 48.6732 53.0087 43.5615 53.0087Z" fill="#F4F8FC"/>
</svg>
