<svg width="16" height="17" viewBox="0 0 16 17" fill="none" xmlns="http://www.w3.org/2000/svg">
<path d="M1.33325 4.5L5.94193 7.11131C7.64098 8.074 8.35885 8.074 10.0579 7.11131L14.6666 4.5" stroke="#F4F8FC" stroke-linejoin="round"/>
<path d="M1.34377 9.48365C1.38735 11.5274 1.40914 12.5492 2.16323 13.3062C2.91731 14.0631 3.96681 14.0895 6.06581 14.1422C7.35945 14.1747 8.64039 14.1747 9.93405 14.1422C12.0331 14.0895 13.0825 14.0631 13.8367 13.3062C14.5907 12.5492 14.6125 11.5274 14.6561 9.48365C14.6701 8.82652 14.6701 8.17332 14.6561 7.51619C14.6125 5.47249 14.5907 4.45065 13.8367 3.69369C13.0825 2.93674 12.0331 2.91037 9.93405 2.85763C8.64039 2.82513 7.35945 2.82513 6.0658 2.85763C3.96681 2.91036 2.91731 2.93673 2.16322 3.69369C1.40913 4.45064 1.38735 5.47249 1.34376 7.51619C1.32975 8.17332 1.32975 8.82652 1.34377 9.48365Z" stroke="#F4F8FC" stroke-linejoin="round"/>
</svg>
