<svg width="147" height="30" viewBox="0 0 147 30" fill="none" xmlns="http://www.w3.org/2000/svg">
<path opacity="0.7" d="M109.802 11.0938V29.304H103.816V14.2033L109.802 11.0938Z" fill="#0C0E13"/>
<path opacity="0.7" d="M29.7012 29.7639L43.687 22.4503L41.9621 17.9844L32.7543 22.2778L29.7012 29.7639Z" fill="#0C0E13"/>
<path opacity="0.5" d="M103.818 14.1869L118.993 6.42172L116.429 2.08594L103.818 8.24855V14.1869Z" fill="#0C0E13"/>
<path opacity="0.7" d="M61.0829 9.64849V29.2998H55.375V1.3125L61.0829 9.64849Z" fill="#0C0E13"/>
<path opacity="0.5" d="M38.3506 8.5618L29.7026 29.7577L25.2539 25.9284L35.5579 1.3125L38.3506 8.5618Z" fill="#0C0E13"/>
<path d="M35.5586 1.3125H41.4546L52.3592 29.2998H46.3236L35.5586 1.3125Z" fill="#0C0E13"/>
<path d="M61.9657 1.3125L74.5355 20.4338V29.2998L55.375 1.3125H61.9657Z" fill="#0C0E13"/>
<path d="M91.2427 1.3125H85.3027V29.3045H91.2427V1.3125Z" fill="#0C0E13"/>
<path d="M103.819 6.41821H94.6738V1.3125H115.972L118.992 6.41821H109.803H103.819Z" fill="#0C0E13"/>
<path opacity="0.5" d="M136.531 18.6875V29.3066H130.635V18.6875" fill="#0C0E13"/>
<path d="M130.635 18.6791L140.611 1.3125H146.876L136.531 18.6791H130.635Z" fill="#0C0E13"/>
<path opacity="0.7" d="M130.632 18.6791L120.377 1.3125H126.828L133.775 13.2143L130.632 18.6791Z" fill="#0C0E13"/>
<path d="M3.12197 4.54688C3.12197 8.44359 5.57133 10.7628 10.4763 11.9859L15.673 13.1698C20.3146 14.2173 23.1403 16.8188 23.1403 21.0573C23.1763 22.903 22.5648 24.7063 21.4091 26.1631C21.4091 21.9339 19.1824 19.6492 13.8117 18.2755L8.70908 17.1355C4.62263 16.2198 1.46919 14.0809 1.46919 9.47696C1.45038 7.69874 2.03057 5.96443 3.12197 4.54688Z" fill="#0C0E13"/>
<path opacity="0.7" d="M74.5352 18.9959V1.3125H80.243V29.2998H74.5352V18.9959Z" fill="#0C0E13"/>
<path opacity="0.7" d="M18.219 20.0188C20.4348 21.4113 21.407 23.3604 21.407 26.1563C19.5723 28.4645 16.3483 29.7614 12.5598 29.7614C6.18235 29.7614 1.71955 26.6769 0.728516 21.3187H6.85192C7.64068 23.7791 9.72781 24.9191 12.5143 24.9191C15.9155 24.9191 18.1767 23.1362 18.2222 20.0078" fill="#0C0E13"/>
<path opacity="0.7" d="M6.30757 10.3244C5.29615 9.73322 4.46506 8.88488 3.90368 7.86719C3.34387 6.84949 3.07416 5.70322 3.12277 4.54753C4.89315 2.25811 7.97288 0.859375 11.7269 0.859375C18.2235 0.859375 21.9822 4.23078 22.909 8.97583H17.0176C16.3685 7.10509 14.7408 5.64834 11.7755 5.64834C8.60639 5.64834 6.44556 7.46105 6.32011 10.3244" fill="#0C0E13"/>
</svg>
