<svg width="51" height="58" viewBox="0 0 51 58" fill="none" xmlns="http://www.w3.org/2000/svg">
<path d="M0.222656 1.44574C0.222656 1.82792 1.19091 13.0386 2.38848 26.364C3.56058 39.6639 4.57979 50.951 4.60527 51.4351L4.68171 52.3014L15.0012 55.155L25.2953 58.0087L27.3592 57.4481C28.4803 57.1424 33.0923 55.8684 37.6278 54.62C44.6603 52.6836 45.8579 52.2759 45.9598 51.8428C46.0872 51.2313 50.4189 2.13367 50.4189 1.31835V0.757812H0.222656V1.44574ZM41.1695 12.2742C41.0676 12.8857 40.4051 20.1217 39.6917 28.4023C38.9527 36.6574 38.3412 43.4857 38.2903 43.5367C38.1883 43.6641 25.6775 47.1292 25.3208 47.1292C25.066 47.1292 18.2372 45.2693 13.5743 43.9444L12.2748 43.5622L11.9691 40.199C11.8162 38.339 11.6124 36.0969 11.5104 35.2051L11.3576 33.6255H14.5426C18.1353 33.6255 18.0334 33.5745 18.0589 35.7911C18.0589 36.3517 18.1353 37.218 18.2118 37.7275L18.3646 38.6448L21.8554 39.562L25.3208 40.4792L28.7606 39.562C30.6462 39.0524 32.2259 38.6193 32.2259 38.6193C32.2514 38.5938 32.4043 37.0906 32.5572 35.2816C32.7101 33.4471 32.8884 31.6636 32.9649 31.2559L33.0923 30.568H11.2302L11.1028 29.982C11.0263 29.6762 10.8734 28.1985 10.7715 26.6697L10.5931 23.9435H33.5509L33.7038 22.211C33.8057 21.2682 33.9586 19.8159 34.035 19.0006C34.137 17.956 34.1115 17.5483 33.9076 17.6757C33.7548 17.7522 28.3274 17.7522 21.8045 17.6503L9.95614 17.4974L9.80326 15.6884C9.70133 14.6947 9.57393 13.2679 9.49749 12.529L9.34461 11.2041H41.2969L41.1695 12.2742Z" fill="#0C0E13"/>
</svg>
