<svg width="57" height="57" viewBox="0 0 57 57" fill="none" xmlns="http://www.w3.org/2000/svg">
<g clip-path="url(#clip0_2717_3132)">
<path d="M24.7881 21.1319C25.1641 21.7827 25.3521 22.5299 25.3286 23.277C25.3286 24.3376 25.0936 25.157 24.6001 25.7596C24.0831 26.3622 23.4251 26.8201 22.6731 27.0371C21.8036 27.3263 20.8871 27.4709 19.9706 27.4709H18.7251C18.4431 27.4709 18.1376 27.4468 17.8086 27.4227V19.3242C17.9731 19.3001 18.3021 19.276 18.7721 19.3001C19.2186 19.276 19.7591 19.276 20.3701 19.276C21.3336 19.2519 22.2736 19.3965 23.1431 19.7581C23.8246 20.0232 24.3886 20.5052 24.7881 21.1319Z" fill="#0C0E13"/>
<path d="M46.4087 0.1875H9.98362C4.46111 0.1875 -0.00390625 4.767 -0.00390625 10.4311V46.3441C-0.00390625 52.0082 4.46111 56.5877 9.98362 56.5877H46.4087C51.9312 56.5877 56.3963 52.0082 56.3963 46.3441V10.4311C56.3963 4.767 51.9312 0.1875 46.4087 0.1875ZM29.0422 28.2671C28.1022 29.6168 26.7862 30.6291 25.2587 31.2076C23.6607 31.8102 21.8982 32.0271 19.9712 32.0271C19.4072 32.0271 19.0312 32.0271 18.7962 32.003C18.5611 31.9789 18.2321 31.9789 17.7856 31.9789V39.7158C17.8091 39.8845 17.6916 40.0292 17.5271 40.0533H12.9681C12.7801 40.0533 12.6861 39.9569 12.6861 39.7399V14.9383C12.6861 14.7696 12.7566 14.6732 12.9211 14.6732C13.3206 14.6732 13.6966 14.6732 14.2371 14.6491C14.8011 14.625 15.3886 14.625 16.0231 14.6009C16.6576 14.5768 17.3391 14.5768 18.0676 14.5527C18.7962 14.5286 19.5012 14.5286 20.2062 14.5286C22.1332 14.5286 23.7312 14.7696 25.0472 15.2758C26.2222 15.6855 27.3032 16.3604 28.1962 17.2522C28.9482 18.0235 29.5357 18.9635 29.9117 19.9999C30.2642 21.0122 30.4522 22.0486 30.4522 23.1332C30.4522 25.206 29.9822 26.9173 29.0422 28.2671ZM45.7037 37.643C45.0457 38.6071 44.1292 39.3543 43.0717 39.7881C41.9202 40.2943 40.5102 40.5594 38.8182 40.5594C37.7372 40.5594 36.6797 40.463 35.6222 40.2461C34.7997 40.1015 33.9772 39.8363 33.2252 39.4748C33.0607 39.3784 32.9432 39.2097 32.9667 39.0168V34.823C32.9667 34.7507 32.9902 34.6543 33.0607 34.6061C33.1312 34.5579 33.2017 34.582 33.2722 34.6302C34.1887 35.1845 35.1522 35.5702 36.1862 35.8112C37.0792 36.0522 38.0192 36.1727 38.9592 36.1727C39.8992 36.1727 40.4867 36.0522 40.9097 35.8353C41.2857 35.6666 41.5442 35.2568 41.5442 34.823C41.5442 34.4856 41.3562 34.1722 40.9802 33.8589C40.6042 33.5455 39.8287 33.184 38.6772 32.7261C37.4787 32.2922 36.3742 31.7138 35.3402 30.9907C34.6117 30.4604 34.0007 29.7614 33.5542 28.9419C33.1782 28.1707 32.9902 27.3271 33.0137 26.4835C33.0137 25.4471 33.2957 24.4589 33.8127 23.5671C34.4002 22.603 35.2697 21.8317 36.2802 21.3496C37.3847 20.7712 38.7712 20.506 40.4397 20.506C41.4032 20.506 42.3902 20.5783 43.3537 20.7229C44.0587 20.8194 44.7402 21.0122 45.3747 21.2773C45.4687 21.3014 45.5627 21.3978 45.6097 21.4942C45.6332 21.5906 45.6567 21.6871 45.6567 21.7835V25.7122C45.6567 25.8086 45.6097 25.905 45.5392 25.9532C45.3277 26.0014 45.2102 26.0014 45.1162 25.9532C44.4112 25.5676 43.6592 25.3024 42.8602 25.1337C41.9907 24.9409 41.1212 24.8204 40.2282 24.8204C39.7582 24.7963 39.2647 24.8686 38.8182 24.9891C38.5127 25.0614 38.2542 25.2301 38.0897 25.4712C37.9722 25.664 37.9017 25.905 37.9017 26.1219C37.9017 26.3389 37.9957 26.5558 38.1367 26.7486C38.3482 27.0137 38.6302 27.2307 38.9357 27.3994C39.4762 27.6886 40.0402 27.9537 40.6042 28.1948C41.8732 28.6286 43.0952 29.2312 44.2232 29.9543C44.9987 30.4604 45.6332 31.1353 46.0797 31.9548C46.4557 32.7261 46.6437 33.5697 46.6202 34.4373C46.6437 35.5702 46.3147 36.703 45.7037 37.643Z" fill="#0C0E13"/>
</g>
<defs>
<clipPath id="clip0_2717_3132">
<rect width="56.4002" height="56.4002" fill="white" transform="translate(0 0.1875)"/>
</clipPath>
</defs>
</svg>
