<svg width="58" height="58" viewBox="0 0 58 58" fill="none" xmlns="http://www.w3.org/2000/svg">
<path d="M0.390625 0.757812V58.0086H57.6415V0.757812H0.390625ZM31.0607 45.2294C31.0607 50.8025 27.7688 53.5193 23.0034 53.5193C18.6994 53.5193 16.2011 51.2906 14.9334 48.6006L19.3141 45.9489C20.1588 47.4479 20.8003 48.7156 22.6443 48.7156C24.1778 48.7156 25.4379 48.0243 25.4379 45.3342V27.3386H31.0607V45.2294ZM43.7569 53.3915C38.7615 53.3915 35.5334 51.1373 33.9578 48.0243L38.3449 45.485C39.495 47.3687 40.9965 48.6236 43.6482 48.6236C45.8769 48.6236 47.1715 47.637 47.1715 46.0997C47.1715 44.2557 45.8386 43.6026 43.3786 42.5215L42.0342 41.9439C38.1519 40.2928 35.5782 38.2175 35.5782 33.8355C35.5782 29.8011 38.6516 26.8542 43.4553 26.8542C46.8763 26.8542 49.3337 27.9175 51.1036 31.0305L46.9069 33.7282C45.9843 32.0758 44.99 31.4279 43.4489 31.4279C41.8732 31.4279 40.8739 32.4272 40.8739 33.7282C40.8739 35.3422 41.8732 35.9952 44.1786 36.9945L45.5229 37.5709C50.0966 39.5312 52.6716 41.5324 52.6716 46.0256C52.6729 50.8689 48.8685 53.3915 43.7569 53.3915Z" fill="#0C0E13"/>
</svg>
