<svg width="154" height="41" viewBox="0 0 154 41" fill="none" xmlns="http://www.w3.org/2000/svg">
<g clip-path="url(#clip0_2717_3124)">
<path d="M11.4977 34.2276C9.69806 32.5865 9.17269 29.1386 9.92246 26.6406C11.2226 28.2156 13.0239 28.7144 14.8898 28.9961C17.7703 29.4307 20.5992 29.2681 23.275 27.9548C23.5811 27.8044 23.864 27.6045 24.1985 27.402C24.4496 28.1286 24.5149 28.8622 24.4272 29.6088C24.214 31.4271 23.3068 32.8317 21.864 33.8964C21.2871 34.3223 20.6765 34.703 20.0807 35.1045C18.2501 36.3388 17.7548 37.7859 18.4427 39.891C18.459 39.9422 18.4737 39.9935 18.5106 40.1187C17.576 39.7015 16.8932 39.094 16.373 38.2952C15.8236 37.4521 15.5622 36.5195 15.5484 35.5104C15.5416 35.0194 15.5416 34.5239 15.4754 34.0398C15.3137 32.8595 14.7583 32.3311 13.7118 32.3006C12.6379 32.2693 11.7883 32.9316 11.5631 33.9746C11.5459 34.0545 11.5209 34.1337 11.496 34.2266L11.4977 34.2276Z" fill="#0C0E13"/>
<path d="M1.22656 26.2255C1.22656 26.2255 6.55563 23.6359 11.8996 23.6359L15.9288 11.1974C16.0796 10.5959 16.5201 10.1871 17.0173 10.1871C17.5146 10.1871 17.955 10.5959 18.1059 11.1974L22.135 23.6359C28.4641 23.6359 32.808 26.2255 32.808 26.2255C32.808 26.2255 23.7562 1.62778 23.7385 1.57843C23.4787 0.85119 23.0401 0.382812 22.4488 0.382812H11.5867C10.9954 0.382812 10.5746 0.85119 10.297 1.57843C10.2775 1.62685 1.22656 26.2255 1.22656 26.2255Z" fill="#0C0E13"/>
<path d="M57.4117 22.6464C57.4117 24.826 54.6937 26.1278 50.9305 26.1278C48.4813 26.1278 47.6152 25.5223 47.6152 24.2508C47.6152 22.9188 48.6904 22.2831 51.1396 22.2831C53.3499 22.2831 55.2314 22.3134 57.4117 22.5858V22.6464ZM57.4415 19.952C56.0977 19.6493 54.0669 19.4677 51.6471 19.4677C44.5985 19.4677 41.2832 21.1327 41.2832 25.0077C41.2832 29.034 43.5531 30.5779 48.8099 30.5779C53.2603 30.5779 56.277 29.4578 57.3818 26.703H57.561C57.5312 27.3689 57.5013 28.035 57.5013 28.5496C57.5013 29.9724 57.7403 30.0936 58.9053 30.0936H64.401C64.1023 29.2459 63.9231 26.8543 63.9231 24.7957C63.9231 22.5858 64.0127 20.9208 64.0127 18.6806C64.0127 14.1093 61.2648 11.2031 52.6628 11.2031C48.9592 11.2031 44.8375 11.8388 41.7013 12.7773C42 14.0185 42.4182 16.5312 42.6273 18.1659C45.3452 16.8945 49.1982 16.3496 52.1848 16.3496C56.3068 16.3496 57.4415 17.288 57.4415 19.1952V19.952Z" fill="#0C0E13"/>
<path d="M72.5201 23.9188C71.7732 24.0097 70.758 24.0097 69.7125 24.0097C68.6072 24.0097 67.592 23.9794 66.9049 23.8886C66.9049 24.1308 66.875 24.4032 66.875 24.6454C66.875 28.4296 69.354 30.6395 78.0755 30.6395C86.2892 30.6395 88.9474 28.4598 88.9474 24.6151C88.9474 20.9824 87.1854 19.1962 79.3894 18.8027C73.3266 18.5302 72.7889 17.8642 72.7889 17.1074C72.7889 16.2295 73.5656 15.7754 77.6274 15.7754C81.8391 15.7754 82.9737 16.3506 82.9737 17.5615V17.8339C83.5712 17.8037 84.6466 17.7734 85.7515 17.7734C86.797 17.7734 87.9317 17.8037 88.5889 17.8642C88.5889 17.5917 88.6188 17.3496 88.6188 17.1377C88.6188 12.6875 84.915 11.2344 77.7469 11.2344C69.6826 11.2344 66.9646 13.2022 66.9646 17.0468C66.9646 20.498 69.1449 22.6474 76.8806 22.9804C82.5854 23.162 83.2127 23.7978 83.2127 24.6757C83.2127 25.6141 82.2866 26.038 78.2846 26.038C73.6851 26.038 72.5201 25.4022 72.5201 24.1005V23.9188Z" fill="#0C0E13"/>
<path d="M98.8066 7.96094C96.6264 9.98924 92.7135 12.0175 90.5332 12.5625C90.5631 13.6826 90.5631 15.7411 90.5631 16.8612L92.5641 16.8915C92.5342 19.0409 92.5043 21.6444 92.5043 23.37C92.5043 27.3963 94.6248 30.4236 101.226 30.4236C104.004 30.4236 105.855 30.1209 108.155 29.6365C107.916 28.1531 107.648 25.8826 107.558 24.157C106.184 24.6112 104.452 24.8533 102.54 24.8533C99.8816 24.8533 98.8066 24.1268 98.8066 22.038C98.8066 20.2215 98.8066 18.5263 98.8365 16.9521C102.242 16.9823 105.646 17.0429 107.648 17.1034C107.618 15.5292 107.678 13.2587 107.767 11.7451C104.87 11.8056 101.614 11.8359 98.9261 11.8359C98.956 10.5039 98.9859 9.23238 99.0157 7.96094H98.8066Z" fill="#0C0E13"/>
<path d="M116.644 15.9506C116.674 14.3764 116.704 13.0444 116.734 11.7427H110.73C110.82 14.3462 110.82 17.0102 110.82 20.9154C110.82 24.8207 110.79 27.515 110.73 30.0882H117.6C117.48 28.2718 117.45 25.2142 117.45 22.6107C117.45 18.4936 119.123 17.3129 122.916 17.3129C124.679 17.3129 125.933 17.5249 127.038 17.9184C127.068 16.3745 127.367 13.3774 127.546 12.0454C126.411 11.7124 125.156 11.5005 123.633 11.5005C120.378 11.4702 117.988 12.8022 116.883 15.9809L116.644 15.9506Z" fill="#0C0E13"/>
<path d="M146.551 20.7977C146.551 24.0975 144.162 25.6414 140.398 25.6414C136.665 25.6414 134.275 24.1883 134.275 20.7977C134.275 17.4072 136.695 16.1357 140.398 16.1357C144.132 16.1357 146.551 17.498 146.551 20.7977ZM152.793 20.6464C152.793 14.0771 147.656 11.1406 140.398 11.1406C133.111 11.1406 128.152 14.0771 128.152 20.6464C128.152 27.1854 132.782 30.6971 140.369 30.6971C148.015 30.6971 152.793 27.1854 152.793 20.6464Z" fill="#0C0E13"/>
</g>
<defs>
<clipPath id="clip0_2717_3124">
<rect width="152.405" height="40" fill="white" transform="translate(0.972656 0.382812)"/>
</clipPath>
</defs>
</svg>
