<svg width="35" height="51" viewBox="0 0 35 51" fill="none" xmlns="http://www.w3.org/2000/svg">
<g clip-path="url(#clip0_2717_3139)">
<path d="M9.26845 50.4116C13.8402 50.4116 17.5506 46.6742 17.5506 42.0691V33.7266H9.26845C4.69672 33.7266 0.986328 37.464 0.986328 42.0691C0.986328 46.6742 4.69672 50.4116 9.26845 50.4116Z" fill="#404452"/>
<path d="M0.986328 25.3894C0.986328 20.7843 4.69672 17.0469 9.26845 17.0469H17.5506V33.7319H9.26845C4.69672 33.7319 0.986328 29.9945 0.986328 25.3894Z" fill="#232733"/>
<path d="M0.986328 8.7019C0.986328 4.09683 4.69672 0.359375 9.26845 0.359375H17.5506V17.0444H9.26845C4.69672 17.0444 0.986328 13.307 0.986328 8.7019Z" fill="#07080B"/>
<path d="M17.5508 0.359375H25.8329C30.4046 0.359375 34.115 4.09683 34.115 8.7019C34.115 13.307 30.4046 17.0444 25.8329 17.0444H17.5508V0.359375Z" fill="#C7CCDA"/>
<path d="M34.115 25.3894C34.115 29.9945 30.4046 33.7319 25.8329 33.7319C21.2612 33.7319 17.5508 29.9945 17.5508 25.3894C17.5508 20.7843 21.2612 17.0469 25.8329 17.0469C30.4046 17.0469 34.115 20.7843 34.115 25.3894Z" fill="#5D6274"/>
</g>
<defs>
<clipPath id="clip0_2717_3139">
<rect width="33.1351" height="50.0551" fill="white" transform="translate(0.982422 0.359375)"/>
</clipPath>
</defs>
</svg>
