<svg width="58" height="53" viewBox="0 0 58 53" fill="none" xmlns="http://www.w3.org/2000/svg">
<g clip-path="url(#clip0_2717_3159)">
<path d="M11.5419 18.8906L28.495 52.441L0 18.8906H11.5419Z" fill="#5D6274"/>
<path d="M45.4483 18.8906L28.4952 52.441L56.9902 18.8906H45.4483Z" fill="#5D6274"/>
<path d="M11.543 18.8906H45.4492L28.4961 52.441L11.543 18.8906Z" fill="#C7CCDA"/>
<path d="M28.4961 0.296875L12.4352 2.01365L11.543 18.8907L28.4961 0.296875Z" fill="#C7CCDA"/>
<path d="M28.4941 0.296875L44.555 2.01365L45.4473 18.8907L28.4941 0.296875Z" fill="#C7CCDA"/>
<path d="M56.9902 18.8927L44.5559 2.01562L45.4483 18.8927H56.9902Z" fill="#C7CCDA"/>
<path d="M0 18.8927L12.4341 2.01562L11.5419 18.8927H0Z" fill="#C7CCDA"/>
<path d="M28.4961 0.296875L11.543 18.8907H45.4492L28.4961 0.296875Z" fill="#5D6274"/>
</g>
<defs>
<clipPath id="clip0_2717_3159">
<rect width="57.1052" height="52.1702" fill="white" transform="translate(0 0.296875)"/>
</clipPath>
</defs>
</svg>
