<svg width="26" height="26" viewBox="0 0 26 26" fill="none" xmlns="http://www.w3.org/2000/svg">
<path d="M8.83398 21.3333C8.29852 22.0598 8.08128 22.3126 7.64098 22.3676C7.2007 22.4226 6.8963 22.1705 6.28749 21.6664C4.02262 19.7909 2.58398 16.9847 2.58398 13.8486C2.58398 8.2023 7.24768 3.625 13.0007 3.625C18.7536 3.625 23.4173 8.2023 23.4173 13.8486C23.4173 16.9847 21.9787 19.7909 19.7138 21.6664C19.105 22.1705 18.8007 22.4226 18.3603 22.3676C17.92 22.3126 17.7027 22.0598 17.1673 21.3333" stroke="#F4F8FC" stroke-width="1.5625" stroke-linecap="round" stroke-linejoin="round"/>
<path d="M14.5625 11.4401L19.25 5.71094" stroke="#F4F8FC" stroke-width="1.5625" stroke-linecap="round" stroke-linejoin="round"/>
<path d="M13 14.5625C13.8629 14.5625 14.5625 13.8629 14.5625 13C14.5625 12.1371 13.8629 11.4375 13 11.4375C12.1371 11.4375 11.4375 12.1371 11.4375 13C11.4375 13.8629 12.1371 14.5625 13 14.5625Z" stroke="#F4F8FC" stroke-width="1.5625" stroke-linecap="round" stroke-linejoin="round"/>
</svg>
