<svg width="43" height="58" viewBox="0 0 43 58" fill="none" xmlns="http://www.w3.org/2000/svg">
<path fill-rule="evenodd" clip-rule="evenodd" d="M0.447266 48.4738V21.3874C0.447266 10.0155 9.75861 0.796875 21.2448 0.796875C32.731 0.796875 42.0424 10.0155 42.0424 21.3874C42.0424 32.6096 32.9743 41.735 21.6969 41.9731V41.9779C18.4507 41.9779 15.8194 39.3728 15.8194 36.1589C15.8194 32.975 18.4021 30.3883 21.6065 30.3405V30.3328C26.4328 30.1448 30.2872 26.2117 30.2872 21.3874C30.2872 16.4432 26.2388 12.435 21.2448 12.435C16.2509 12.435 12.2024 16.4432 12.2024 21.3874V51.378C12.2024 54.5919 9.57107 57.197 6.32484 57.197C5.11567 57.199 3.9356 56.8299 2.94695 56.1407C4.63752 55.6515 5.87272 54.1052 5.87272 52.2732C5.87272 50.0484 4.05085 48.2446 1.80363 48.2446C1.328 48.2446 0.871536 48.3254 0.447266 48.4738ZM21.6969 40.1875C23.9442 40.1875 25.766 38.3837 25.766 36.1589C25.766 33.934 23.9442 32.1303 21.6969 32.1303C19.4497 32.1303 17.6279 33.934 17.6279 36.1589C17.6279 38.3837 19.4497 40.1875 21.6969 40.1875Z" fill="#F4F8FC"/>
</svg>
