<svg width="57" height="58" viewBox="0 0 57 58" fill="none" xmlns="http://www.w3.org/2000/svg">
<g clip-path="url(#clip0_2964_40028)">
<path d="M25.2354 21.7413C25.6114 22.3921 25.7994 23.1392 25.7759 23.8864C25.7759 24.9469 25.5409 25.7664 25.0474 26.369C24.5304 26.9716 23.8724 27.4295 23.1204 27.6464C22.2509 27.9357 21.3344 28.0803 20.4179 28.0803H19.1724C18.8904 28.0803 18.5849 28.0562 18.2559 28.0321V19.9336C18.4204 19.9095 18.7494 19.8854 19.2194 19.9095C19.6659 19.8854 20.2064 19.8854 20.8174 19.8854C21.7809 19.8613 22.7209 20.0059 23.5904 20.3674C24.2719 20.6326 24.8359 21.1146 25.2354 21.7413Z" fill="#F4F8FC"/>
<path d="M46.856 0.796875H10.4309C4.90837 0.796875 0.443359 5.37638 0.443359 11.0405V46.9534C0.443359 52.6175 4.90837 57.197 10.4309 57.197H46.856C52.3785 57.197 56.8435 52.6175 56.8435 46.9534V11.0405C56.8435 5.37638 52.3785 0.796875 46.856 0.796875ZM29.4894 28.8764C28.5494 30.2262 27.2334 31.2385 25.7059 31.817C24.1079 32.4195 22.3454 32.6365 20.4184 32.6365C19.8544 32.6365 19.4784 32.6365 19.2434 32.6124C19.0084 32.5883 18.6794 32.5883 18.2329 32.5883V40.3252C18.2564 40.4939 18.1389 40.6385 17.9744 40.6626H13.4154C13.2274 40.6626 13.1334 40.5662 13.1334 40.3493V15.5477C13.1334 15.379 13.2039 15.2826 13.3684 15.2826C13.7679 15.2826 14.1439 15.2826 14.6844 15.2585C15.2484 15.2344 15.8359 15.2344 16.4704 15.2103C17.1049 15.1861 17.7864 15.1861 18.5149 15.162C19.2434 15.1379 19.9484 15.1379 20.6534 15.1379C22.5804 15.1379 24.1784 15.379 25.4944 15.8851C26.6694 16.2949 27.7504 16.9697 28.6434 17.8615C29.3954 18.6328 29.9829 19.5728 30.3589 20.6092C30.7115 21.6216 30.8995 22.658 30.8995 23.7426C30.8995 25.8154 30.4294 27.5267 29.4894 28.8764ZM46.151 38.2524C45.493 39.2165 44.5765 39.9637 43.519 40.3975C42.3675 40.9037 40.9575 41.1688 39.2655 41.1688C38.1845 41.1688 37.127 41.0724 36.0695 40.8555C35.247 40.7108 34.4245 40.4457 33.6725 40.0842C33.508 39.9878 33.3905 39.819 33.414 39.6262V35.4324C33.414 35.3601 33.4375 35.2636 33.508 35.2154C33.5785 35.1672 33.649 35.1913 33.7195 35.2395C34.636 35.7939 35.5995 36.1795 36.6335 36.4206C37.5265 36.6616 38.4665 36.7821 39.4065 36.7821C40.3465 36.7821 40.934 36.6616 41.357 36.4447C41.733 36.276 41.9915 35.8662 41.9915 35.4324C41.9915 35.0949 41.8035 34.7816 41.4275 34.4683C41.0515 34.1549 40.276 33.7934 39.1245 33.3354C37.926 32.9016 36.8215 32.3231 35.7875 31.6C35.059 31.0698 34.448 30.3708 34.0015 29.5513C33.6255 28.78 33.4375 27.9364 33.461 27.0929C33.461 26.0564 33.743 25.0682 34.26 24.1764C34.8475 23.2123 35.717 22.441 36.7275 21.959C37.832 21.3805 39.2185 21.1154 40.887 21.1154C41.8505 21.1154 42.8375 21.1877 43.801 21.3323C44.506 21.4287 45.1875 21.6216 45.822 21.8867C45.916 21.9108 46.01 22.0072 46.057 22.1036C46.0805 22.2 46.104 22.2964 46.104 22.3928V26.3216C46.104 26.418 46.057 26.5144 45.9865 26.5626C45.775 26.6108 45.6575 26.6108 45.5635 26.5626C44.8585 26.177 44.1065 25.9118 43.3075 25.7431C42.438 25.5503 41.5685 25.4298 40.6755 25.4298C40.2055 25.4057 39.712 25.478 39.2655 25.5985C38.96 25.6708 38.7015 25.8395 38.537 26.0805C38.4195 26.2734 38.349 26.5144 38.349 26.7313C38.349 26.9482 38.443 27.1652 38.584 27.358C38.7955 27.6231 39.0775 27.84 39.383 28.0088C39.9235 28.298 40.4875 28.5631 41.0515 28.8041C42.3205 29.238 43.5425 29.8406 44.6705 30.5636C45.446 31.0698 46.0805 31.7447 46.527 32.5642C46.903 33.3354 47.091 34.179 47.0675 35.0467C47.091 36.1795 46.762 37.3124 46.151 38.2524Z" fill="#F4F8FC"/>
</g>
<defs>
<clipPath id="clip0_2964_40028">
<rect width="56.4002" height="56.4002" fill="white" transform="translate(0.447266 0.796875)"/>
</clipPath>
</defs>
</svg>
