<svg width="24" height="24" viewBox="0 0 24 24" fill="none" xmlns="http://www.w3.org/2000/svg">
<path d="M22.8006 12.8311C22.6411 14.835 21.9098 16.751 20.6935 18.3515C19.4771 19.952 17.827 21.1697 15.9389 21.8597C14.051 22.55 12.0045 22.6838 10.0427 22.2452C8.08099 21.8064 6.28637 20.8139 4.87211 19.3853C3.45784 17.9568 2.48338 16.1523 2.06449 14.1862C1.6456 12.2201 1.79989 10.1751 2.50903 8.29407C3.21817 6.41309 4.45235 4.77521 6.06495 3.57501C7.67755 2.37482 9.60077 1.66276 11.6061 1.52344" stroke="#F4F8FC" stroke-width="1.82" stroke-linecap="round" stroke-linejoin="round"/>
<path d="M16.8398 13.7599C16.5481 14.5107 16.0738 15.177 15.4599 15.6984C14.846 16.2199 14.1118 16.5801 13.3236 16.7465C12.5355 16.9128 11.7184 16.8802 10.9461 16.6514C10.1737 16.4225 9.47066 16.0048 8.90036 15.436C8.33005 14.8672 7.91055 14.1651 7.67974 13.3934C7.44896 12.6217 7.41416 11.8046 7.57851 11.016C7.74286 10.2275 8.10117 9.49234 8.62105 8.87707C9.14092 8.2618 9.80596 7.78583 10.556 7.49219" stroke="#F4F8FC" stroke-width="1.82" stroke-linecap="round" stroke-linejoin="round"/>
<path d="M12.334 11.9994L16.3724 7.96094" stroke="#F4F8FC" stroke-width="1.82" stroke-linecap="round" stroke-linejoin="round"/>
<path d="M19.6029 8.76921L16.3721 7.96152L15.5645 4.73076L18.7952 1.5L19.6029 4.73076L22.8336 5.53845L19.6029 8.76921Z" stroke="#F4F8FC" stroke-width="1.82" stroke-linecap="round" stroke-linejoin="round"/>
</svg>
