<svg width="135" height="27" viewBox="0 0 135 27" fill="none" xmlns="http://www.w3.org/2000/svg">
<g clip-path="url(#clip0_2964_40056)">
<path opacity="0.7" d="M100.418 9.21094V25.7936H94.8906V12.0425L100.418 9.21094Z" fill="#F4F8FC"/>
<path opacity="0.7" d="M26.7168 26.7192L39.6144 19.8554L38.0237 15.6641L29.5323 19.6935L26.7168 26.7192Z" fill="#F4F8FC"/>
<path opacity="0.5" d="M94.8906 11.977L108.71 4.88292L106.375 0.921875L94.8906 6.55186V11.977Z" fill="#F4F8FC"/>
<path opacity="0.7" d="M56.1975 7.68308V25.7953H50.6699V0L56.1975 7.68308Z" fill="#F4F8FC"/>
<path opacity="0.5" d="M35.0076 6.80874L27.0994 26.7165L23.0312 23.12L32.4538 0L35.0076 6.80874Z" fill="#F4F8FC"/>
<path d="M32.2441 0H37.7404L47.9056 25.7953H42.2792L32.2441 0Z" fill="#F4F8FC"/>
<path d="M56.6908 0L68.1739 17.6237V25.7953L50.6699 0H56.6908Z" fill="#F4F8FC"/>
<path d="M82.9143 0H77.3867V25.7953H82.9143V0Z" fill="#F4F8FC"/>
<path d="M94.9125 4.6063H86.5977V0H105.962L108.708 4.6063H100.353H94.9125Z" fill="#F4F8FC"/>
<path opacity="0.5" d="M125.291 16.5859V26.7198H119.764V16.5859" fill="#F4F8FC"/>
<path d="M119.764 15.6614L128.818 0H134.504L125.115 15.6614H119.764Z" fill="#F4F8FC"/>
<path opacity="0.7" d="M119.718 15.6614L110.551 0H116.317L122.527 10.7332L119.718 15.6614Z" fill="#F4F8FC"/>
<path d="M2.46789 3.6875C2.46789 7.34113 4.75844 9.51566 9.34539 10.6625L14.2051 11.7725C18.5457 12.7547 21.1882 15.1939 21.1882 19.168C21.2219 20.8985 20.65 22.5893 19.5693 23.9552C19.5693 19.9899 17.4869 17.8477 12.4645 16.5597L7.69274 15.4909C3.87125 14.6322 0.92229 12.6268 0.92229 8.31004C0.904693 6.64275 1.44727 5.01663 2.46789 3.6875Z" fill="#F4F8FC"/>
<path opacity="0.7" d="M68.1738 16.2984V0H73.7014V25.7953H68.1738V16.2984Z" fill="#F4F8FC"/>
<path opacity="0.7" d="M16.3639 17.5182C18.4369 18.8334 19.3465 20.6745 19.3465 23.3153C17.63 25.4955 14.6136 26.7204 11.0692 26.7204C5.10252 26.7204 0.927198 23.807 0 18.746H5.72897C6.46691 21.0699 8.4196 22.1467 11.0266 22.1467C14.2087 22.1467 16.3243 20.4627 16.3668 17.5078" fill="#F4F8FC"/>
<path opacity="0.7" d="M4.81188 8.29134C3.8703 7.77347 3.0966 7.03033 2.57398 6.13883C2.05283 5.24733 1.80174 4.24319 1.84699 3.23082C3.49513 1.22529 6.36221 0 9.85702 0C15.905 0 19.4042 2.95334 20.267 7.11H14.7824C14.1781 5.47124 12.6628 4.19512 9.90227 4.19512C6.95198 4.19512 4.94035 5.78306 4.82356 8.29134" fill="#F4F8FC"/>
</g>
<defs>
<clipPath id="clip0_2964_40056">
<rect width="134.504" height="26.7165" fill="white"/>
</clipPath>
</defs>
</svg>
