<svg width="58" height="54" viewBox="0 0 58 54" fill="none" xmlns="http://www.w3.org/2000/svg">
<g clip-path="url(#clip0_2964_40042)">
<path d="M12.2626 19.5156L29.2158 53.066L0.720703 19.5156H12.2626Z" fill="#5D6274"/>
<path d="M46.169 19.5156L29.2159 53.066L57.7109 19.5156H46.169Z" fill="#5D6274"/>
<path d="M12.2637 19.5156H46.1699L29.2168 53.066L12.2637 19.5156Z" fill="#C7CCDA"/>
<path d="M29.2168 0.921875L13.1559 2.63865L12.2637 19.5157L29.2168 0.921875Z" fill="#C7CCDA"/>
<path d="M29.2148 0.921875L45.2757 2.63865L46.168 19.5157L29.2148 0.921875Z" fill="#C7CCDA"/>
<path d="M57.7109 19.5177L45.2767 2.64062L46.169 19.5177H57.7109Z" fill="#C7CCDA"/>
<path d="M0.720703 19.5177L13.1548 2.64062L12.2626 19.5177H0.720703Z" fill="#C7CCDA"/>
<path d="M29.2168 0.921875L12.2637 19.5157H46.1699L29.2168 0.921875Z" fill="#5D6274"/>
</g>
<defs>
<clipPath id="clip0_2964_40042">
<rect width="57.1052" height="52.1702" fill="white" transform="translate(0.720703 0.914062)"/>
</clipPath>
</defs>
</svg>
