<svg width="20" height="20" viewBox="0 0 20 20" fill="none" xmlns="http://www.w3.org/2000/svg"  fill="#F4F8FC">
<path fill-rule="evenodd" clip-rule="evenodd" d="M14.2708 8.85677C14.2708 8.39652 14.6438 8.02344 15.1041 8.02344H16.2622C16.6608 8.02344 17.0263 8.03725 17.3458 8.08394C17.6613 8.13005 17.9927 8.21618 18.2842 8.40152C18.9728 8.83952 19.0809 9.57019 19.0594 10.2048C19.0252 11.22 18.7775 12.3897 18.0182 13.3994C17.2464 14.4254 16.0177 15.1911 14.2068 15.5108C13.7536 15.5908 13.3213 15.2882 13.2413 14.8349C13.1613 14.3818 13.4639 13.9494 13.9171 13.8694C15.3888 13.6097 16.2116 13.0285 16.6862 12.3975C17.1731 11.7502 17.3666 10.9528 17.3938 10.1484C17.3947 10.1208 17.3952 10.0949 17.3953 10.0709C17.3961 9.89685 17.277 9.75827 17.1048 9.7331C16.9054 9.70394 16.635 9.6901 16.2622 9.6901H15.1041C14.6438 9.6901 14.2708 9.31702 14.2708 8.85677Z"/>
<path d="M3.77856 6.5625C3.30885 6.5625 2.89853 6.58017 2.55197 6.63669C2.20689 6.69297 1.87409 6.7953 1.59763 7.00151C0.998634 7.44827 0.925592 8.16975 0.938876 8.86617C1.00037 12.0894 1.41239 15.4274 4.47018 17.7783C4.92749 18.13 5.37077 18.3558 5.87273 18.4872C6.36202 18.6153 6.8788 18.6458 7.46311 18.6458H8.99533C9.57967 18.6458 10.0965 18.6153 10.5858 18.4872C11.0877 18.3558 11.531 18.13 11.9883 17.7783C15.0461 15.4274 15.4581 12.0894 15.5196 8.86617C15.5329 8.16975 15.4598 7.44827 14.8608 7.00151C14.5844 6.7953 14.2516 6.69297 13.9065 6.63669C13.5599 6.58017 13.1496 6.5625 12.6799 6.5625H9.18767C9.0305 6.5625 8.95192 6.5625 8.90317 6.61132C8.85433 6.66013 8.85433 6.7387 8.85433 6.89583V10.6193C8.85433 10.7243 8.85433 10.7768 8.87742 10.816C8.9005 10.8552 8.95383 10.8847 9.0605 10.9437C9.46358 11.1666 9.77025 11.5517 9.848 12.0444L10.0913 13.5873C10.1373 13.8792 10.0504 14.1464 9.88217 14.3507C9.72992 14.5355 9.53067 14.6474 9.35892 14.7172C9.01525 14.8568 8.59575 14.9023 8.22223 14.8951C7.8463 14.8878 7.43533 14.8253 7.10188 14.6866C6.93719 14.6181 6.74635 14.5126 6.59658 14.3452C6.43213 14.1616 6.31659 13.8974 6.36548 13.5873L6.60875 12.0444C6.68654 11.551 6.99388 11.1656 7.39775 10.9428C7.5046 10.8839 7.55803 10.8544 7.58118 10.8152C7.60433 10.776 7.60433 10.7234 7.60433 10.6182V6.89583C7.60433 6.7387 7.60433 6.66013 7.55551 6.61132C7.50669 6.5625 7.42813 6.5625 7.27099 6.5625H3.77856Z" />
<path d="M7.84428 12.2365C7.86078 12.1319 7.98673 11.9766 8.22915 11.9766C8.47154 11.9766 8.59754 12.1319 8.61404 12.2365L8.78038 13.2916C8.80221 13.4301 8.81313 13.4993 8.76929 13.5561C8.72538 13.613 8.66371 13.6191 8.54038 13.6316C8.45138 13.6405 8.35263 13.6448 8.24728 13.6427C8.12659 13.6404 8.01233 13.6301 7.90994 13.6141C7.79039 13.5956 7.73061 13.5864 7.68984 13.5305C7.64908 13.4746 7.65967 13.4075 7.68083 13.2732L7.84428 12.2365Z"/>
<path d="M10.03 1.74627C10.2723 2.13756 10.1516 2.65118 9.76023 2.8935C9.7089 2.92528 9.52623 3.09255 9.35198 3.44302C9.18848 3.77196 9.06506 4.20019 9.06506 4.68501C9.06506 5.14525 8.69198 5.51835 8.23177 5.51835C7.77153 5.51835 7.39844 5.14525 7.39844 4.68501C7.39844 3.91984 7.5921 3.23916 7.85955 2.70114C8.11629 2.18466 8.47848 1.72691 8.88273 1.47653C9.27406 1.23421 9.78765 1.35498 10.03 1.74627Z" fill="#F4F8FC"/>
<path d="M12.272 2.99626C12.4876 3.34438 12.4158 3.78932 12.1218 4.0539C12.1063 4.08663 12.0859 4.13723 12.0646 4.20546C12.0079 4.38666 11.9792 4.57884 11.9792 4.68501C11.9792 5.14525 11.6061 5.51835 11.1458 5.51835C10.6856 5.51835 10.3125 5.14525 10.3125 4.68501C10.3125 4.37451 10.3787 4.01224 10.4739 3.70787C10.5226 3.55234 10.587 3.3852 10.6708 3.2318C10.7419 3.10166 10.8817 2.87711 11.1248 2.72653C11.5161 2.48421 12.0298 2.60498 12.272 2.99626Z" />
<path d="M6.79088 2.86856C7.09793 3.19998 7.08416 3.71413 6.7642 4.02876L6.75699 4.03737C6.74312 4.05451 6.71678 4.08993 6.68804 4.14319C6.63218 4.2467 6.56315 4.4243 6.56315 4.6849C6.56315 5.14514 6.19005 5.51824 5.72982 5.51824C5.26958 5.51824 4.89648 5.14514 4.89648 4.6849C4.89648 4.11217 5.05234 3.66477 5.22135 3.35161C5.30504 3.19654 5.43568 2.97086 5.61203 2.82471L5.61323 2.82359C5.95086 2.5108 6.47811 2.53094 6.79088 2.86856Z"/>
</svg>
