<svg width="20" height="20" viewBox="0 0 20 20" fill="none" xmlns="http://www.w3.org/2000/svg">
<path fill-rule="evenodd" clip-rule="evenodd" d="M4.96889 11.0391H5.02981C5.64577 11.0391 6.15202 11.0391 6.56161 11.078C6.98722 11.1185 7.37251 11.2053 7.72297 11.4201C8.0709 11.6333 8.36343 11.9258 8.57668 12.2738C8.79143 12.6242 8.87827 13.0096 8.91877 13.4351C8.95768 13.8447 8.95768 14.351 8.95768 14.9669V15.0279C8.95768 15.6438 8.95768 16.1501 8.91877 16.5596C8.87827 16.9852 8.79143 17.3706 8.57668 17.721C8.36343 18.069 8.0709 18.3615 7.72297 18.5747C7.37251 18.7895 6.98722 18.8763 6.56161 18.9168C6.15203 18.9557 5.64577 18.9557 5.02982 18.9557H4.96888C4.35293 18.9557 3.84667 18.9557 3.43709 18.9168C3.01148 18.8763 2.62619 18.7895 2.27573 18.5747C1.9278 18.3615 1.63527 18.069 1.42206 17.721C1.20729 17.3706 1.12041 16.9852 1.07994 16.5596C1.041 16.1501 1.04101 15.6438 1.04102 15.0278V14.967C1.04101 14.351 1.041 13.8447 1.07994 13.4351C1.12041 13.0096 1.20729 12.6242 1.42206 12.2738C1.63527 11.9258 1.9278 11.6333 2.27573 11.4201C2.62619 11.2053 3.01148 11.1185 3.43709 11.078C3.84667 11.0391 4.35294 11.0391 4.96889 11.0391Z" fill="#F4F8FC"/>
<path fill-rule="evenodd" clip-rule="evenodd" d="M14.9689 11.0391H15.0298C15.6458 11.0391 16.152 11.0391 16.5616 11.078C16.9872 11.1185 17.3725 11.2053 17.7229 11.4201C18.0709 11.6333 18.3634 11.9258 18.5767 12.2738C18.7914 12.6242 18.8783 13.0096 18.9188 13.4351C18.9577 13.8447 18.9577 14.351 18.9577 14.9669V15.0279C18.9577 15.6438 18.9577 16.1501 18.9188 16.5596C18.8783 16.9852 18.7914 17.3706 18.5767 17.721C18.3634 18.069 18.0709 18.3615 17.7229 18.5747C17.3725 18.7895 16.9872 18.8763 16.5616 18.9168C16.152 18.9557 15.6458 18.9557 15.0298 18.9557H14.9688C14.3529 18.9557 13.8467 18.9557 13.4371 18.9168C13.0115 18.8763 12.6262 18.7895 12.2758 18.5747C11.9278 18.3615 11.6353 18.069 11.422 17.721C11.2073 17.3706 11.1204 16.9852 11.0799 16.5596C11.041 16.1501 11.041 15.6438 11.041 15.0278V14.967C11.041 14.351 11.041 13.8447 11.0799 13.4351C11.1204 13.0096 11.2073 12.6242 11.422 12.2738C11.6353 11.9258 11.9278 11.6333 12.2758 11.4201C12.6262 11.2053 13.0115 11.1185 13.4371 11.078C13.8467 11.0391 14.3529 11.0391 14.9689 11.0391Z" fill="#F4F8FC"/>
<path fill-rule="evenodd" clip-rule="evenodd" d="M4.96889 1.03906H5.02981C5.64577 1.03905 6.15202 1.03905 6.56161 1.07799C6.98722 1.11845 7.37251 1.20534 7.72297 1.4201C8.0709 1.63331 8.36343 1.92585 8.57668 2.27378C8.79143 2.62424 8.87827 3.00953 8.91877 3.43514C8.95768 3.84471 8.95768 4.35098 8.95768 4.96693V5.02786C8.95768 5.64381 8.95768 6.15008 8.91877 6.55965C8.87827 6.98526 8.79143 7.37055 8.57668 7.72101C8.36343 8.06895 8.0709 8.36148 7.72297 8.57473C7.37251 8.78948 6.98722 8.87631 6.56161 8.91681C6.15203 8.95573 5.64577 8.95573 5.02982 8.95573H4.96888C4.35293 8.95573 3.84667 8.95573 3.43709 8.91681C3.01148 8.87631 2.62619 8.78948 2.27573 8.57473C1.9278 8.36148 1.63527 8.06895 1.42206 7.72101C1.20729 7.37055 1.12041 6.98526 1.07994 6.55965C1.041 6.15007 1.04101 5.64381 1.04102 5.02785V4.96694C1.04101 4.35099 1.041 3.84472 1.07994 3.43514C1.12041 3.00953 1.20729 2.62424 1.42206 2.27378C1.63527 1.92585 1.9278 1.63331 2.27573 1.4201C2.62619 1.20534 3.01148 1.11845 3.43709 1.07799C3.84667 1.03905 4.35294 1.03905 4.96889 1.03906Z" fill="#F4F8FC"/>
<path fill-rule="evenodd" clip-rule="evenodd" d="M14.9689 1.03906H15.0298C15.6458 1.03905 16.152 1.03905 16.5616 1.07799C16.9872 1.11845 17.3725 1.20534 17.7229 1.4201C18.0709 1.63331 18.3634 1.92585 18.5767 2.27378C18.7914 2.62424 18.8783 3.00953 18.9188 3.43514C18.9577 3.84471 18.9577 4.35098 18.9577 4.96693V5.02786C18.9577 5.64381 18.9577 6.15008 18.9188 6.55965C18.8783 6.98526 18.7914 7.37055 18.5767 7.72101C18.3634 8.06895 18.0709 8.36148 17.7229 8.57473C17.3725 8.78948 16.9872 8.87631 16.5616 8.91681C16.152 8.95573 15.6458 8.95573 15.0298 8.95573H14.9688C14.3529 8.95573 13.8467 8.95573 13.4371 8.91681C13.0115 8.87631 12.6262 8.78948 12.2758 8.57473C11.9278 8.36148 11.6353 8.06895 11.422 7.72101C11.2073 7.37055 11.1204 6.98526 11.0799 6.55965C11.041 6.15007 11.041 5.64381 11.041 5.02785V4.96694C11.041 4.35099 11.041 3.84472 11.0799 3.43514C11.1204 3.00953 11.2073 2.62424 11.422 2.27378C11.6353 1.92585 11.9278 1.63331 12.2758 1.4201C12.6262 1.20534 13.0115 1.11845 13.4371 1.07799C13.8467 1.03905 14.3529 1.03905 14.9689 1.03906Z" fill="#F4F8FC"/>
</svg>
