<svg width="17" height="16" viewBox="0 0 17 16" fill="none" xmlns="http://www.w3.org/2000/svg">
<g clip-path="url(#clip0_2759_1881)">
<path d="M8.95117 0C4.53992 0 0.951172 3.58875 0.951172 7.99991C0.951172 12.4111 4.53992 15.9998 8.95117 15.9998C13.3624 15.9998 16.9512 12.4111 16.9512 7.99991C16.9512 3.58875 13.3624 0 8.95117 0ZM14.1644 3.77295C15.0626 4.87846 15.6155 6.27383 15.6615 7.79491C13.9978 7.4505 12.4914 7.49092 11.1615 7.75167C10.9207 7.18855 10.6714 6.65207 10.4198 6.14504C11.8681 5.52112 13.129 4.72423 14.1644 3.77295ZM13.2633 2.85703C12.2354 3.79521 11.0443 4.48986 9.82462 5.00271C8.92942 3.36568 8.07293 2.13292 7.55117 1.43237C8.00297 1.33612 8.47112 1.28448 8.95117 1.28448C10.5916 1.28448 12.0958 1.87654 13.2633 2.85703ZM6.25385 1.85188C6.64784 2.36242 7.58628 3.64073 8.59434 5.45947C6.06083 6.28488 3.60251 6.42394 2.42122 6.43687C2.9136 4.37999 4.35402 2.68867 6.25385 1.85188ZM2.24267 7.72461C2.25535 7.72461 2.26759 7.72469 2.28052 7.72469C3.09677 7.72469 4.59225 7.6698 6.35284 7.34877C7.3573 7.1656 8.30979 6.91907 9.20353 6.61353C9.43619 7.07723 9.66748 7.56636 9.89175 8.07904C8.64033 8.48194 7.585 9.06167 6.74906 9.63728C5.34726 10.6026 4.36523 11.6736 3.82901 12.3358C2.83619 11.165 2.23565 9.65167 2.23565 7.99991C2.23565 7.9076 2.23891 7.81606 2.24267 7.72461ZM4.7546 13.2371C5.21625 12.6558 6.15589 11.5978 7.51512 10.6695C8.43884 10.0386 9.39449 9.56981 10.3783 9.26213C10.9491 10.7417 11.4365 12.3765 11.727 14.1123C10.8803 14.4984 9.94091 14.7153 8.95117 14.7153C7.36424 14.7153 5.90516 14.1609 4.7546 13.2371ZM12.9087 13.4207C12.6093 11.8265 12.1627 10.3275 11.6464 8.95754C12.9164 8.74329 14.2288 8.78747 15.5769 9.09027C15.2861 10.862 14.3003 12.402 12.9087 13.4207Z" fill="#F4F8FC"/>
</g>
<defs>
<clipPath id="clip0_2759_1881">
<rect width="16" height="16" fill="white" transform="translate(0.951172)"/>
</clipPath>
</defs>
</svg>
