<svg width="17" height="16" viewBox="0 0 17 16" fill="none" xmlns="http://www.w3.org/2000/svg">
<g clip-path="url(#clip0_2759_1876)">
<path d="M12.5356 0H5.36647C2.93188 0 0.951172 1.9808 0.951172 4.4154V11.5845C0.951172 14.0192 2.93188 15.9999 5.36647 15.9999H12.5356C14.9704 15.9999 16.9511 14.0191 16.9511 11.5845V4.4154C16.9512 1.9808 14.9704 0 12.5356 0ZM15.5316 11.5845C15.5316 13.2364 14.1876 14.5803 12.5357 14.5803H5.36647C3.71464 14.5804 2.37076 13.2364 2.37076 11.5845V4.4154C2.37076 2.76356 3.71464 1.41959 5.36647 1.41959H12.5356C14.1875 1.41959 15.5315 2.76356 15.5315 4.4154V11.5845H15.5316Z" fill="#F4F8FC"/>
<path d="M8.9509 3.875C6.67757 3.875 4.82812 5.72444 4.82812 7.99777C4.82812 10.271 6.67757 12.1204 8.9509 12.1204C11.2242 12.1204 13.0737 10.271 13.0737 7.99777C13.0737 5.72444 11.2242 3.875 8.9509 3.875ZM8.9509 10.7007C7.46042 10.7007 6.24771 9.48815 6.24771 7.99768C6.24771 6.50711 7.46033 5.29449 8.9509 5.29449C10.4415 5.29449 11.6541 6.50711 11.6541 7.99768C11.6541 9.48815 10.4414 10.7007 8.9509 10.7007Z" fill="#F4F8FC"/>
<path d="M13.2461 2.67188C12.9726 2.67188 12.7039 2.7826 12.5108 2.97661C12.3167 3.16968 12.2051 3.43845 12.2051 3.71291C12.2051 3.98651 12.3168 4.25519 12.5108 4.4492C12.7038 4.64226 12.9726 4.75394 13.2461 4.75394C13.5206 4.75394 13.7884 4.64226 13.9824 4.4492C14.1764 4.25519 14.2871 3.98641 14.2871 3.71291C14.2871 3.43845 14.1764 3.16968 13.9824 2.97661C13.7893 2.7826 13.5206 2.67188 13.2461 2.67188Z" fill="#F4F8FC"/>
</g>
<defs>
<clipPath id="clip0_2759_1876">
<rect width="16" height="16" fill="white" transform="translate(0.951172)"/>
</clipPath>
</defs>
</svg>
