<svg width="10" height="10" viewBox="0 0 10 10" fill="none" xmlns="http://www.w3.org/2000/svg">
<path d="M9.16992 9.10938V5.89548C9.16992 4.31596 8.81015 3.10938 6.86044 3.10938C5.92041 3.10938 5.29371 3.59201 5.03839 4.0527H5.01518V3.25197H3.16992V9.10938H5.09642V6.20261C5.09642 5.43479 5.24729 4.69987 6.24536 4.69987C7.23182 4.69987 7.24342 5.56641 7.24342 6.24649V9.09841H9.16992V9.10938Z" fill="#F4F8FC"/>
<path d="M0.169922 3.10938H2.16992V9.10938H0.169922V3.10938Z" fill="#F4F8FC"/>
<path d="M1.06055 0.109375C0.508464 0.109375 0.0605469 0.554971 0.0605469 1.10419C0.0605469 1.65342 0.508464 2.10938 1.06055 2.10938C1.61263 2.10938 2.06055 1.65342 2.06055 1.10419C2.06055 0.554971 1.61263 0.109375 1.06055 0.109375Z" fill="#F4F8FC"/>
</svg>
