<svg width="16" height="16" viewBox="0 0 16 16" fill="none" xmlns="http://www.w3.org/2000/svg">
<path d="M4.55856 11.8047C3.4155 12.062 2.68359 12.4574 2.68359 12.9007C2.68359 13.6761 4.92213 14.3046 7.6835 14.3046C10.4449 14.3046 12.6834 13.6761 12.6834 12.9007C12.6834 12.4574 11.9515 12.062 10.8084 11.8047" stroke="#858A97" stroke-width="0.937482"/>
<path d="M9.24408 6.17966C9.24408 7.04258 8.54453 7.74213 7.68161 7.74213C6.81869 7.74213 6.11914 7.04258 6.11914 6.17966C6.11914 5.31673 6.81869 4.61719 7.68161 4.61719C8.54453 4.61719 9.24408 5.31673 9.24408 6.17966Z" stroke="#858A97" stroke-width="0.937482"/>
<path d="M12.0584 6.32023C12.0584 9.82016 7.68351 11.8201 7.68351 11.8201C7.68351 11.8201 3.30859 9.82016 3.30859 6.32023C3.30859 3.83499 5.26731 1.82031 7.68351 1.82031C10.0997 1.82031 12.0584 3.83499 12.0584 6.32023Z" stroke="#858A97" stroke-width="0.937482"/>
</svg>
