<svg width="47" height="18" viewBox="0 0 47 18" fill="none" xmlns="http://www.w3.org/2000/svg">
<g clip-path="url(#clip0_2427_5330)">
<path d="M3.60313 17.9471C6.49747 18.3892 8.94974 15.9369 8.50767 13.0426C8.23241 11.2409 6.75605 9.76455 4.95438 9.48929C2.06003 9.04721 -0.392239 11.4995 0.0498371 14.3938C0.325092 16.1955 1.80146 17.6719 3.60313 17.9471Z" fill="#F4F8FC"/>
<path d="M46.618 17.9281H39.4113C38.0183 17.9281 36.7505 17.119 36.1583 15.8595L34.5234 12.348L39.2695 2.17188L46.618 17.9281Z" fill="#F4F8FC"/>
<path d="M23.9478 0H27.8681L20.4446 15.9314C19.8523 17.1993 18.5845 18 17.1916 18H10.2852L16.4492 4.77943C17.8088 1.86006 20.7365 0 23.9478 0Z" fill="#F4F8FC"/>
<path d="M34.7564 0H38.6767L31.2532 15.9314C30.6609 17.1993 29.3931 18 28.0001 18H21.0938L27.2578 4.77943C28.6174 1.86006 31.5451 0 34.7564 0Z" fill="#F4F8FC"/>
<path d="M15.2061 3.91818L10.6519 13.6772H10.6435L4.2793 0.03125H8.19959C11.0773 0.03125 13.713 1.51596 15.2061 3.91818Z" fill="#F4F8FC"/>
</g>
<defs>
<clipPath id="clip0_2427_5330">
<rect width="46.6182" height="18" fill="white"/>
</clipPath>
</defs>
</svg>
