<svg width="19" height="16" viewBox="0 0 19 16" fill="none" xmlns="http://www.w3.org/2000/svg">
<path d="M18.2848 6.45241L16.6708 5.99019C15.944 5.78483 15.2819 5.39598 14.7479 4.86085C14.2139 4.32571 13.8259 3.6622 13.621 2.9338L13.1598 1.31631C13.1366 1.25972 13.0971 1.21132 13.0464 1.17725C12.9957 1.14319 12.936 1.125 12.875 1.125C12.814 1.125 12.7543 1.14319 12.7036 1.17725C12.6529 1.21132 12.6134 1.25972 12.5902 1.31631L12.129 2.9338C11.9241 3.6622 11.5361 4.32571 11.0021 4.86085C10.4681 5.39598 9.80603 5.78483 9.0792 5.99019L7.4652 6.45241C7.40323 6.47004 7.34869 6.50745 7.30985 6.55895C7.27101 6.61046 7.25 6.67326 7.25 6.73782C7.25 6.80238 7.27101 6.86518 7.30985 6.91668C7.34869 6.96819 7.40323 7.0056 7.4652 7.02322L9.0792 7.48545C9.80603 7.69081 10.4681 8.07965 11.0021 8.61479C11.5361 9.14992 11.9241 9.81344 12.129 10.5418L12.5902 12.1593C12.6078 12.2214 12.6451 12.2761 12.6965 12.315C12.7479 12.3539 12.8106 12.375 12.875 12.375C12.9394 12.375 13.0021 12.3539 13.0535 12.315C13.1049 12.2761 13.1422 12.2214 13.1598 12.1593L13.621 10.5418C13.8259 9.81344 14.2139 9.14992 14.7479 8.61479C15.2819 8.07965 15.944 7.69081 16.6708 7.48545L18.2848 7.02322C18.3468 7.0056 18.4013 6.96819 18.4401 6.91668C18.479 6.86518 18.5 6.80238 18.5 6.73782C18.5 6.67326 18.479 6.61046 18.4401 6.55895C18.4013 6.50745 18.3468 6.47004 18.2848 6.45241Z" fill="#0F1014"/>
<path d="M8.22436 11.6042L7.09456 11.2806C6.58578 11.1369 6.12232 10.8647 5.74854 10.4901C5.37476 10.1155 5.10315 9.65104 4.95971 9.14116L4.63685 8.00892C4.62062 7.9693 4.59299 7.93542 4.5575 7.91158C4.522 7.88773 4.48023 7.875 4.4375 7.875C4.39477 7.875 4.353 7.88773 4.3175 7.91158C4.28201 7.93542 4.25439 7.9693 4.23815 8.00892L3.91529 9.14116C3.77185 9.65104 3.50024 10.1155 3.12646 10.4901C2.75268 10.8647 2.28922 11.1369 1.78044 11.2806L0.650643 11.6042C0.607263 11.6165 0.569083 11.6427 0.541896 11.6788C0.514709 11.7148 0.5 11.7588 0.5 11.804C0.5 11.8492 0.514709 11.8931 0.541896 11.9292C0.569083 11.9652 0.607263 11.9914 0.650643 12.0038L1.78044 12.3273C2.28922 12.4711 2.75268 12.7433 3.12646 13.1179C3.50024 13.4924 3.77185 13.9569 3.91529 14.4668L4.23815 15.599C4.25046 15.6425 4.27659 15.6808 4.31257 15.708C4.34854 15.7353 4.39241 15.75 4.4375 15.75C4.48259 15.75 4.52646 15.7353 4.56243 15.708C4.59841 15.6808 4.62454 15.6425 4.63685 15.599L4.95971 14.4668C5.10315 13.9569 5.37476 13.4924 5.74854 13.1179C6.12232 12.7433 6.58578 12.4711 7.09456 12.3273L8.22436 12.0038C8.26774 11.9914 8.30592 11.9652 8.3331 11.9292C8.36029 11.8931 8.375 11.8492 8.375 11.804C8.375 11.7588 8.36029 11.7148 8.3331 11.6788C8.30592 11.6427 8.26774 11.6165 8.22436 11.6042Z" fill="#0F1014"/>
<path d="M7.1424 2.66371L6.3354 2.43259C5.97199 2.32992 5.64095 2.13549 5.37396 1.86792C5.10697 1.60036 4.91296 1.2686 4.81051 0.904401L4.57989 0.0956543C4.5683 0.067359 4.54857 0.0431577 4.52321 0.0261257C4.49786 0.00909374 4.46802 0 4.4375 0C4.40698 0 4.37714 0.00909374 4.35179 0.0261257C4.32643 0.0431577 4.3067 0.067359 4.29511 0.0956543L4.06449 0.904401C3.96204 1.2686 3.76803 1.60036 3.50104 1.86792C3.23405 2.13549 2.90301 2.32992 2.5396 2.43259L1.7326 2.66371C1.70162 2.67252 1.67434 2.69122 1.65493 2.71698C1.63551 2.74273 1.625 2.77413 1.625 2.80641C1.625 2.83869 1.63551 2.87009 1.65493 2.89584C1.67434 2.9216 1.70162 2.9403 1.7326 2.94911L2.5396 3.18023C2.90301 3.2829 3.23405 3.47733 3.50104 3.74489C3.76803 4.01246 3.96204 4.34422 4.06449 4.70842L4.29511 5.51716C4.3039 5.54822 4.32256 5.57555 4.34826 5.59501C4.37396 5.61447 4.40529 5.625 4.4375 5.625C4.46971 5.625 4.50104 5.61447 4.52674 5.59501C4.55244 5.57555 4.5711 5.54822 4.57989 5.51716L4.81051 4.70842C4.91296 4.34422 5.10697 4.01246 5.37396 3.74489C5.64095 3.47733 5.97199 3.2829 6.3354 3.18023L7.1424 2.94911C7.17338 2.9403 7.20065 2.9216 7.22007 2.89584C7.23949 2.87009 7.25 2.83869 7.25 2.80641C7.25 2.77413 7.23949 2.74273 7.22007 2.71698C7.20065 2.69122 7.17338 2.67252 7.1424 2.66371Z" fill="#0F1014"/>
</svg>
