<svg width="174" height="49" viewBox="0 0 174 49" fill="none" xmlns="http://www.w3.org/2000/svg">
<g opacity="0.34" filter="url(#filter0_f_2674_2087)">
<path d="M24.2979 13.8463C24.4476 13.3857 25.0993 13.3857 25.249 13.8463L27.5799 21.0201C27.6468 21.2261 27.8388 21.3656 28.0554 21.3656H35.5983C36.0827 21.3656 36.2841 21.9854 35.8922 22.2701L29.7899 26.7037C29.6146 26.8311 29.5413 27.0567 29.6082 27.2627L31.9391 34.4365C32.0888 34.8972 31.5616 35.2802 31.1697 34.9955L25.0673 30.5619C24.8921 30.4346 24.6548 30.4346 24.4795 30.5619L18.3772 34.9955C17.9853 35.2802 17.4581 34.8972 17.6078 34.4365L19.9387 27.2627C20.0056 27.0567 19.9323 26.8311 19.757 26.7037L13.6547 22.2701C13.2628 21.9854 13.4642 21.3656 13.9485 21.3656H21.4915C21.7081 21.3656 21.9001 21.2261 21.967 21.0201L24.2979 13.8463Z" fill="#F4F8FC"/>
</g>
<path d="M24.2979 13.8463C24.4476 13.3857 25.0993 13.3857 25.249 13.8463L27.5799 21.0201C27.6468 21.2261 27.8388 21.3656 28.0554 21.3656H35.5983C36.0827 21.3656 36.2841 21.9854 35.8922 22.2701L29.7899 26.7037C29.6146 26.8311 29.5413 27.0567 29.6082 27.2627L31.9391 34.4365C32.0888 34.8972 31.5616 35.2802 31.1697 34.9955L25.0673 30.5619C24.8921 30.4346 24.6548 30.4346 24.4795 30.5619L18.3772 34.9955C17.9853 35.2802 17.4581 34.8972 17.6078 34.4365L19.9387 27.2627C20.0056 27.0567 19.9323 26.8311 19.757 26.7037L13.6547 22.2701C13.2628 21.9854 13.4642 21.3656 13.9485 21.3656H21.4915C21.7081 21.3656 21.9001 21.2261 21.967 21.0201L24.2979 13.8463Z" fill="#F4F8FC"/>
<path d="M28.0554 20.8656L25.7245 13.6918C25.4251 12.7705 24.1217 12.7705 23.8224 13.6918L21.4915 20.8656H13.9485C12.9798 20.8656 12.5771 22.1052 13.3608 22.6746L19.4631 27.1082L17.1322 34.282C16.8329 35.2033 17.8874 35.9694 18.6711 35.4L24.7734 30.9664L30.8758 35.4C31.6595 35.9694 32.714 35.2033 32.4146 34.282L30.0837 27.1082L36.1861 22.6746C36.9698 22.1052 36.5671 20.8656 35.5983 20.8656H28.0554Z" stroke="#F4F8FC" stroke-opacity="0.1"/>
<g opacity="0.34" filter="url(#filter1_f_2674_2087)">
<path d="M55.2979 13.8463C55.4476 13.3857 56.0993 13.3857 56.249 13.8463L58.5799 21.0201C58.6468 21.2261 58.8388 21.3656 59.0554 21.3656H66.5983C67.0827 21.3656 67.2841 21.9854 66.8922 22.2701L60.7899 26.7037C60.6146 26.8311 60.5413 27.0567 60.6082 27.2627L62.9391 34.4365C63.0888 34.8972 62.5616 35.2802 62.1697 34.9955L56.0673 30.5619C55.8921 30.4346 55.6548 30.4346 55.4795 30.5619L49.3772 34.9955C48.9853 35.2802 48.4581 34.8972 48.6078 34.4365L50.9387 27.2627C51.0056 27.0567 50.9323 26.8311 50.757 26.7037L44.6547 22.2701C44.2628 21.9854 44.4642 21.3656 44.9485 21.3656H52.4915C52.7081 21.3656 52.9001 21.2261 52.967 21.0201L55.2979 13.8463Z" fill="#F4F8FC"/>
</g>
<path d="M55.2979 13.8463C55.4476 13.3857 56.0993 13.3857 56.249 13.8463L58.5799 21.0201C58.6468 21.2261 58.8388 21.3656 59.0554 21.3656H66.5983C67.0827 21.3656 67.2841 21.9854 66.8922 22.2701L60.7899 26.7037C60.6146 26.8311 60.5413 27.0567 60.6082 27.2627L62.9391 34.4365C63.0888 34.8972 62.5616 35.2802 62.1697 34.9955L56.0673 30.5619C55.8921 30.4346 55.6548 30.4346 55.4795 30.5619L49.3772 34.9955C48.9853 35.2802 48.4581 34.8972 48.6078 34.4365L50.9387 27.2627C51.0056 27.0567 50.9323 26.8311 50.757 26.7037L44.6547 22.2701C44.2628 21.9854 44.4642 21.3656 44.9485 21.3656H52.4915C52.7081 21.3656 52.9001 21.2261 52.967 21.0201L55.2979 13.8463Z" fill="#F4F8FC"/>
<path d="M59.0554 20.8656L56.7245 13.6918C56.4251 12.7705 55.1217 12.7705 54.8224 13.6918L52.4915 20.8656H44.9485C43.9798 20.8656 43.5771 22.1052 44.3608 22.6746L50.4631 27.1082L48.1322 34.282C47.8329 35.2033 48.8874 35.9694 49.6711 35.4L55.7734 30.9664L61.8758 35.4C62.6595 35.9694 63.714 35.2033 63.4146 34.282L61.0837 27.1082L67.1861 22.6746C67.9698 22.1052 67.5671 20.8656 66.5983 20.8656H59.0554Z" stroke="#F4F8FC" stroke-opacity="0.1"/>
<g opacity="0.34" filter="url(#filter2_f_2674_2087)">
<path d="M86.2979 13.8463C86.4476 13.3857 87.0993 13.3857 87.249 13.8463L89.5799 21.0201C89.6468 21.2261 89.8388 21.3656 90.0554 21.3656H97.5983C98.0827 21.3656 98.2841 21.9854 97.8922 22.2701L91.7899 26.7037C91.6146 26.8311 91.5413 27.0567 91.6082 27.2627L93.9391 34.4365C94.0888 34.8972 93.5616 35.2802 93.1697 34.9955L87.0673 30.5619C86.8921 30.4346 86.6548 30.4346 86.4795 30.5619L80.3772 34.9955C79.9853 35.2802 79.4581 34.8972 79.6078 34.4365L81.9387 27.2627C82.0056 27.0567 81.9323 26.8311 81.757 26.7037L75.6547 22.2701C75.2628 21.9854 75.4642 21.3656 75.9485 21.3656H83.4915C83.7081 21.3656 83.9001 21.2261 83.967 21.0201L86.2979 13.8463Z" fill="#F4F8FC"/>
</g>
<path d="M86.2979 13.8463C86.4476 13.3857 87.0993 13.3857 87.249 13.8463L89.5799 21.0201C89.6468 21.2261 89.8388 21.3656 90.0554 21.3656H97.5983C98.0827 21.3656 98.2841 21.9854 97.8922 22.2701L91.7899 26.7037C91.6146 26.8311 91.5413 27.0567 91.6082 27.2627L93.9391 34.4365C94.0888 34.8972 93.5616 35.2802 93.1697 34.9955L87.0673 30.5619C86.8921 30.4346 86.6548 30.4346 86.4795 30.5619L80.3772 34.9955C79.9853 35.2802 79.4581 34.8972 79.6078 34.4365L81.9387 27.2627C82.0056 27.0567 81.9323 26.8311 81.757 26.7037L75.6547 22.2701C75.2628 21.9854 75.4642 21.3656 75.9485 21.3656H83.4915C83.7081 21.3656 83.9001 21.2261 83.967 21.0201L86.2979 13.8463Z" fill="#F4F8FC"/>
<path d="M90.0554 20.8656L87.7245 13.6918C87.4251 12.7705 86.1217 12.7705 85.8224 13.6918L83.4915 20.8656H75.9485C74.9798 20.8656 74.5771 22.1052 75.3608 22.6746L81.4631 27.1082L79.1322 34.282C78.8329 35.2033 79.8874 35.9694 80.6711 35.4L86.7734 30.9664L92.8758 35.4C93.6595 35.9694 94.714 35.2033 94.4146 34.282L92.0837 27.1082L98.1861 22.6746C98.9698 22.1052 98.5671 20.8656 97.5983 20.8656H90.0554Z" stroke="#F4F8FC" stroke-opacity="0.1"/>
<g opacity="0.34" filter="url(#filter3_f_2674_2087)">
<path d="M117.298 13.8463C117.448 13.3857 118.099 13.3857 118.249 13.8463L120.58 21.0201C120.647 21.2261 120.839 21.3656 121.055 21.3656H128.598C129.083 21.3656 129.284 21.9854 128.892 22.2701L122.79 26.7037C122.615 26.8311 122.541 27.0567 122.608 27.2627L124.939 34.4365C125.089 34.8972 124.562 35.2802 124.17 34.9955L118.067 30.5619C117.892 30.4346 117.655 30.4346 117.48 30.5619L111.377 34.9955C110.985 35.2802 110.458 34.8972 110.608 34.4365L112.939 27.2627C113.006 27.0567 112.932 26.8311 112.757 26.7037L106.655 22.2701C106.263 21.9854 106.464 21.3656 106.949 21.3656H114.491C114.708 21.3656 114.9 21.2261 114.967 21.0201L117.298 13.8463Z" fill="#F4F8FC"/>
</g>
<path d="M117.298 13.8463C117.448 13.3857 118.099 13.3857 118.249 13.8463L120.58 21.0201C120.647 21.2261 120.839 21.3656 121.055 21.3656H128.598C129.083 21.3656 129.284 21.9854 128.892 22.2701L122.79 26.7037C122.615 26.8311 122.541 27.0567 122.608 27.2627L124.939 34.4365C125.089 34.8972 124.562 35.2802 124.17 34.9955L118.067 30.5619C117.892 30.4346 117.655 30.4346 117.48 30.5619L111.377 34.9955C110.985 35.2802 110.458 34.8972 110.608 34.4365L112.939 27.2627C113.006 27.0567 112.932 26.8311 112.757 26.7037L106.655 22.2701C106.263 21.9854 106.464 21.3656 106.949 21.3656H114.491C114.708 21.3656 114.9 21.2261 114.967 21.0201L117.298 13.8463Z" fill="#F4F8FC"/>
<path d="M121.055 20.8656L118.724 13.6918C118.425 12.7705 117.122 12.7705 116.822 13.6918L114.491 20.8656H106.949C105.98 20.8656 105.577 22.1052 106.361 22.6746L112.463 27.1082L110.132 34.282C109.833 35.2033 110.887 35.9694 111.671 35.4L117.773 30.9664L123.876 35.4C124.66 35.9694 125.714 35.2033 125.415 34.282L123.084 27.1082L129.186 22.6746C129.97 22.1052 129.567 20.8656 128.598 20.8656H121.055Z" stroke="#F4F8FC" stroke-opacity="0.1"/>
<g opacity="0.34" filter="url(#filter4_f_2674_2087)">
<path d="M148.298 13.8463C148.448 13.3857 149.099 13.3857 149.249 13.8463L151.58 21.0201C151.647 21.2261 151.839 21.3656 152.055 21.3656H159.598C160.083 21.3656 160.284 21.9854 159.892 22.2701L153.79 26.7037C153.615 26.8311 153.541 27.0567 153.608 27.2627L155.939 34.4365C156.089 34.8972 155.562 35.2802 155.17 34.9955L149.067 30.5619C148.892 30.4346 148.655 30.4346 148.48 30.5619L142.377 34.9955C141.985 35.2802 141.458 34.8972 141.608 34.4365L143.939 27.2627C144.006 27.0567 143.932 26.8311 143.757 26.7037L137.655 22.2701C137.263 21.9854 137.464 21.3656 137.949 21.3656H145.491C145.708 21.3656 145.9 21.2261 145.967 21.0201L148.298 13.8463Z" fill="#F4F8FC"/>
</g>
<path d="M148.298 13.8463C148.448 13.3857 149.099 13.3857 149.249 13.8463L151.58 21.0201C151.647 21.2261 151.839 21.3656 152.055 21.3656H159.598C160.083 21.3656 160.284 21.9854 159.892 22.2701L153.79 26.7037C153.615 26.8311 153.541 27.0567 153.608 27.2627L155.939 34.4365C156.089 34.8972 155.562 35.2802 155.17 34.9955L149.067 30.5619C148.892 30.4346 148.655 30.4346 148.48 30.5619L142.377 34.9955C141.985 35.2802 141.458 34.8972 141.608 34.4365L143.939 27.2627C144.006 27.0567 143.932 26.8311 143.757 26.7037L137.655 22.2701C137.263 21.9854 137.464 21.3656 137.949 21.3656H145.491C145.708 21.3656 145.9 21.2261 145.967 21.0201L148.298 13.8463Z" fill="#F4F8FC"/>
<path d="M152.055 20.8656L149.724 13.6918C149.425 12.7705 148.122 12.7705 147.822 13.6918L145.491 20.8656H137.949C136.98 20.8656 136.577 22.1052 137.361 22.6746L143.463 27.1082L141.132 34.282C140.833 35.2033 141.887 35.9694 142.671 35.4L148.773 30.9664L154.876 35.4C155.66 35.9694 156.714 35.2033 156.415 34.282L154.084 27.1082L160.186 22.6746C160.97 22.1052 160.567 20.8656 159.598 20.8656H152.055Z" stroke="#F4F8FC" stroke-opacity="0.1"/>
<defs>
<filter id="filter0_f_2674_2087" x="0.447266" y="0.5" width="48.6523" height="47.5938" filterUnits="userSpaceOnUse" color-interpolation-filters="sRGB">
<feFlood flood-opacity="0" result="BackgroundImageFix"/>
<feBlend mode="normal" in="SourceGraphic" in2="BackgroundImageFix" result="shape"/>
<feGaussianBlur stdDeviation="6.5" result="effect1_foregroundBlur_2674_2087"/>
</filter>
<filter id="filter1_f_2674_2087" x="31.4473" y="0.5" width="48.6523" height="47.5938" filterUnits="userSpaceOnUse" color-interpolation-filters="sRGB">
<feFlood flood-opacity="0" result="BackgroundImageFix"/>
<feBlend mode="normal" in="SourceGraphic" in2="BackgroundImageFix" result="shape"/>
<feGaussianBlur stdDeviation="6.5" result="effect1_foregroundBlur_2674_2087"/>
</filter>
<filter id="filter2_f_2674_2087" x="62.4473" y="0.5" width="48.6523" height="47.5938" filterUnits="userSpaceOnUse" color-interpolation-filters="sRGB">
<feFlood flood-opacity="0" result="BackgroundImageFix"/>
<feBlend mode="normal" in="SourceGraphic" in2="BackgroundImageFix" result="shape"/>
<feGaussianBlur stdDeviation="6.5" result="effect1_foregroundBlur_2674_2087"/>
</filter>
<filter id="filter3_f_2674_2087" x="93.4473" y="0.5" width="48.6523" height="47.5938" filterUnits="userSpaceOnUse" color-interpolation-filters="sRGB">
<feFlood flood-opacity="0" result="BackgroundImageFix"/>
<feBlend mode="normal" in="SourceGraphic" in2="BackgroundImageFix" result="shape"/>
<feGaussianBlur stdDeviation="6.5" result="effect1_foregroundBlur_2674_2087"/>
</filter>
<filter id="filter4_f_2674_2087" x="124.447" y="0.5" width="48.6523" height="47.5938" filterUnits="userSpaceOnUse" color-interpolation-filters="sRGB">
<feFlood flood-opacity="0" result="BackgroundImageFix"/>
<feBlend mode="normal" in="SourceGraphic" in2="BackgroundImageFix" result="shape"/>
<feGaussianBlur stdDeviation="6.5" result="effect1_foregroundBlur_2674_2087"/>
</filter>
</defs>
</svg>
