<svg width="18" height="17" viewBox="0 0 18 17" fill="none" xmlns="http://www.w3.org/2000/svg">
<path d="M17.7848 7.22585L16.1708 6.76363C15.444 6.55827 14.7819 6.16942 14.2479 5.63429C13.7139 5.09915 13.3259 4.43564 13.121 3.70724L12.6598 2.08975C12.6366 2.03316 12.5971 1.98475 12.5464 1.95069C12.4957 1.91662 12.436 1.89844 12.375 1.89844C12.314 1.89844 12.2543 1.91662 12.2036 1.95069C12.1529 1.98475 12.1134 2.03316 12.0902 2.08975L11.629 3.70724C11.4241 4.43564 11.0361 5.09915 10.5021 5.63429C9.96811 6.16942 9.30603 6.55827 8.5792 6.76363L6.9652 7.22585C6.90323 7.24348 6.84869 7.28088 6.80985 7.33239C6.77101 7.3839 6.75 7.4467 6.75 7.51126C6.75 7.57582 6.77101 7.63861 6.80985 7.69012C6.84869 7.74163 6.90323 7.77903 6.9652 7.79666L8.5792 8.25889C9.30603 8.46424 9.96811 8.85309 10.5021 9.38823C11.0361 9.92336 11.4241 10.5869 11.629 11.3153L12.0902 12.9328C12.1078 12.9949 12.1451 13.0495 12.1965 13.0885C12.2479 13.1274 12.3106 13.1484 12.375 13.1484C12.4394 13.1484 12.5021 13.1274 12.5535 13.0885C12.6049 13.0495 12.6422 12.9949 12.6598 12.9328L13.121 11.3153C13.3259 10.5869 13.7139 9.92336 14.2479 9.38823C14.7819 8.85309 15.444 8.46424 16.1708 8.25889L17.7848 7.79666C17.8468 7.77903 17.9013 7.74163 17.9401 7.69012C17.979 7.63861 18 7.57582 18 7.51126C18 7.4467 17.979 7.3839 17.9401 7.33239C17.9013 7.28088 17.8468 7.24348 17.7848 7.22585Z" fill="#0F1014"/>
<path d="M7.72436 12.3776L6.59456 12.0541C6.08578 11.9103 5.62232 11.6381 5.24854 11.2635C4.87476 10.8889 4.60315 10.4245 4.45971 9.9146L4.13685 8.78235C4.12062 8.74274 4.09299 8.70886 4.0575 8.68501C4.022 8.66117 3.98023 8.64844 3.9375 8.64844C3.89477 8.64844 3.853 8.66117 3.8175 8.68501C3.78201 8.70886 3.75439 8.74274 3.73815 8.78235L3.41529 9.9146C3.27185 10.4245 3.00024 10.8889 2.62646 11.2635C2.25268 11.6381 1.78922 11.9103 1.28044 12.0541L0.150643 12.3776C0.107263 12.39 0.0690827 12.4162 0.0418959 12.4522C0.0147092 12.4883 0 12.5322 0 12.5774C0 12.6226 0.0147092 12.6666 0.0418959 12.7026C0.0690827 12.7387 0.107263 12.7649 0.150643 12.7772L1.28044 13.1008C1.78922 13.2445 2.25268 13.5167 2.62646 13.8913C3.00024 14.2659 3.27185 14.7303 3.41529 15.2402L3.73815 16.3725C3.75046 16.4159 3.77659 16.4542 3.81257 16.4815C3.84854 16.5087 3.89241 16.5234 3.9375 16.5234C3.98259 16.5234 4.02646 16.5087 4.06243 16.4815C4.09841 16.4542 4.12454 16.4159 4.13685 16.3725L4.45971 15.2402C4.60315 14.7303 4.87476 14.2659 5.24854 13.8913C5.62232 13.5167 6.08578 13.2445 6.59456 13.1008L7.72436 12.7772C7.76774 12.7649 7.80592 12.7387 7.8331 12.7026C7.86029 12.6666 7.875 12.6226 7.875 12.5774C7.875 12.5322 7.86029 12.4883 7.8331 12.4522C7.80592 12.4162 7.76774 12.39 7.72436 12.3776Z" fill="#0F1014"/>
<path d="M6.6424 3.43714L5.8354 3.20603C5.47199 3.10335 5.14095 2.90893 4.87396 2.64136C4.60697 2.37379 4.41296 2.04204 4.31051 1.67784L4.07989 0.869092C4.0683 0.840797 4.04857 0.816595 4.02321 0.799563C3.99786 0.782531 3.96802 0.773438 3.9375 0.773438C3.90698 0.773438 3.87714 0.782531 3.85179 0.799563C3.82643 0.816595 3.8067 0.840797 3.79511 0.869092L3.56449 1.67784C3.46204 2.04204 3.26803 2.37379 3.00104 2.64136C2.73405 2.90893 2.40301 3.10335 2.0396 3.20603L1.2326 3.43714C1.20162 3.44596 1.17434 3.46466 1.15493 3.49041C1.13551 3.51617 1.125 3.54757 1.125 3.57985C1.125 3.61213 1.13551 3.64353 1.15493 3.66928C1.17434 3.69503 1.20162 3.71374 1.2326 3.72255L2.0396 3.95366C2.40301 4.05634 2.73405 4.25076 3.00104 4.51833C3.26803 4.7859 3.46204 5.11766 3.56449 5.48186L3.79511 6.2906C3.8039 6.32166 3.82256 6.34899 3.84826 6.36845C3.87396 6.38791 3.90529 6.39844 3.9375 6.39844C3.96971 6.39844 4.00104 6.38791 4.02674 6.36845C4.05244 6.34899 4.0711 6.32166 4.07989 6.2906L4.31051 5.48186C4.41296 5.11766 4.60697 4.7859 4.87396 4.51833C5.14095 4.25076 5.47199 4.05634 5.8354 3.95366L6.6424 3.72255C6.67338 3.71374 6.70065 3.69503 6.72007 3.66928C6.73949 3.64353 6.75 3.61213 6.75 3.57985C6.75 3.54757 6.73949 3.51617 6.72007 3.49041C6.70065 3.46466 6.67338 3.44596 6.6424 3.43714Z" fill="#0F1014"/>
</svg>
