<svg width="43" height="33" viewBox="0 0 43 33" fill="none" xmlns="http://www.w3.org/2000/svg">
<path d="M16.0546 29.9729C15.9203 31.1586 14.9173 32.0545 13.724 32.0545H2.91611C1.40252 32.0545 0.285241 30.6422 0.633639 29.1692L7.10596 1.80558C7.35625 0.747392 8.30105 0 9.38844 0H16.8215C18.2213 0 19.3095 1.2183 19.152 2.60927L16.0546 29.9729ZM39.5583 29.9729C39.4241 31.1586 38.4211 32.0545 37.2278 32.0545H26.4199C24.9063 32.0545 23.789 30.6422 24.1374 29.1692L30.6097 1.80558C30.86 0.747392 31.8048 0 32.8922 0H40.3252C41.7251 0 42.8133 1.2183 42.6558 2.60927L39.5583 29.9729Z" fill="#0F1014"/>
</svg>
