<svg width="23" height="24" viewBox="0 0 23 24" fill="none" xmlns="http://www.w3.org/2000/svg">
<path d="M15.3613 2.1875C17.5108 3.40785 19.1268 5.38736 19.8921 7.73766C20.3745 9.36953 21.0623 12.229 20.2522 15.6457" stroke="#F4F8FC" stroke-width="1.5" stroke-linecap="round" stroke-linejoin="round"/>
<path d="M1.49057 13.9905C1.00351 12.5006 0.876808 10.9164 1.12086 9.36795C1.36491 7.81954 1.97276 6.35109 2.89449 5.08319C3.81622 3.8153 5.02554 2.78411 6.42316 2.07431C7.82078 1.36451 9.36682 0.996336 10.9343 1.00003" stroke="#F4F8FC" stroke-width="1.5" stroke-linecap="round" stroke-linejoin="round"/>
<path d="M9.08789 5.71639C10.5472 5.48006 11.2292 5.56714 12.5028 6.13707C13.7763 6.707 14.4916 7.42762 15.2846 8.97069C16.12 10.7924 16.225 12.1361 16.12 13.7663C16.015 15.3965 15.5621 16.9853 14.7918 18.4258" stroke="#F4F8FC" stroke-width="1.5" stroke-linecap="round" stroke-linejoin="round"/>
<path d="M6.28275 7.94531C5.91643 8.59633 5.6895 9.31642 5.61637 10.0598C5.54325 10.8033 5.62553 11.5538 5.85799 12.2637C6.13384 13.2677 6.1438 14.3263 5.88688 15.3353C5.62996 16.3444 5.115 17.2693 4.39258 18.0191" stroke="#F4F8FC" stroke-width="1.5" stroke-linecap="round" stroke-linejoin="round"/>
<path d="M8.87073 19.6562C8.56397 20.1282 8.21708 20.6002 7.83008 21.0721" stroke="#F4F8FC" stroke-width="1.5" stroke-linecap="round" stroke-linejoin="round"/>
<path d="M10.291 10.0078C11.4261 11.6033 12.0497 14.0184 10.4993 16.666" stroke="#F4F8FC" stroke-width="1.5" stroke-linecap="round" stroke-linejoin="round"/>
<path fill-rule="evenodd" clip-rule="evenodd" d="M17.9941 13.9922C15.3707 13.9922 13.2441 16.1188 13.2441 18.7422C13.2441 21.3656 15.3707 23.4922 17.9941 23.4922C20.6175 23.4922 22.7441 21.3656 22.7441 18.7422C22.7441 16.1188 20.6175 13.9922 17.9941 13.9922ZM19.6834 18.5141C20.0482 18.3177 20.1847 17.8629 19.9883 17.4982C19.792 17.1334 19.3371 16.9969 18.9724 17.1933C18.3146 17.5474 17.7514 18.2937 17.4205 18.7946C17.3108 18.7069 17.1276 18.5785 16.9842 18.5101C16.6103 18.3317 16.1627 18.4902 15.9844 18.8641C15.8076 19.2345 15.9616 19.6773 16.3281 19.8589C16.3281 19.8589 16.4318 19.924 16.4908 19.9718C16.6092 20.0677 16.767 20.2242 16.904 20.4566C17.0446 20.6954 17.3055 20.8371 17.5823 20.8252C17.8589 20.8133 18.1068 20.6494 18.2266 20.3999C18.2479 20.358 18.3093 20.2374 18.3512 20.1605C18.4355 20.006 18.5567 19.7957 18.7043 19.5723C19.022 19.0914 19.38 18.6774 19.6834 18.5141Z" fill="#F4F8FC"/>
</svg>
