<svg xmlns="http://www.w3.org/2000/svg" width="54" height="58" fill="none" xmlns:v="https://vecta.io/nano"><style><![CDATA[.B{color-interpolation-filters:sRGB}.C{flood-opacity:0}.D{stroke-opacity:.1}.E{fill-rule:evenodd}]]></style><g opacity=".5" filter="url(#A)"><rect x="19.246" y="13" width="20" height="28" rx="4" transform="rotate(15 19.246 13)" fill="url(#E)"/><rect x="19.6" y="13.612" width="19" height="27" rx="3.5" transform="rotate(15 19.6 13.612)" stroke="#fff" class="D"/></g><g filter="url(#B)"><rect x="19.246" y="13" width="20" height="28" rx="4" transform="rotate(15 19.246 13)" fill="url(#E)"/></g><rect x="19.6" y="13.612" width="19" height="27" rx="3.5" transform="rotate(15 19.6 13.612)" stroke="#fff" class="D"/><g filter="url(#C)" class="E"><path d="M24.815 14.661H18v-.357h6.814v.357z" fill="#fff"/></g><g filter="url(#D)" class="E"><path d="M21.585 11v6.945h-.357V11h.357z" fill="#fff"/></g><defs><filter id="A" x="-.104" y=".898" width="50.77" height="56.43" filterUnits="userSpaceOnUse" class="B"><feFlood class="C"/><feBlend in="SourceGraphic"/><feGaussianBlur stdDeviation="6.5"/></filter><filter id="B" x="12.897" y="13.898" width="26.77" height="32.43" filterUnits="userSpaceOnUse" class="B"><feFlood class="C"/><feBlend in="SourceGraphic" result="B"/><feColorMatrix in="SourceAlpha" values="0 0 0 0 0 0 0 0 0 0 0 0 0 0 0 0 0 0 127 0" result="C"/><feOffset dx="2" dy="2"/><feGaussianBlur stdDeviation="3"/><feComposite in2="C" operator="arithmetic" k2="-1" k3="1"/><feColorMatrix values="0 0 0 0 1 0 0 0 0 1 0 0 0 0 1 0 0 0 0.15 0"/><feBlend in2="B"/></filter><filter id="C" x="15.162" y="11.467" width="12.49" height="6.035" filterUnits="userSpaceOnUse" class="B"><feFlood class="C"/><feBlend in="SourceGraphic"/><feGaussianBlur stdDeviation="1.419"/></filter><filter id="D" x="18.391" y="8.162" width="6.033" height="12.621" filterUnits="userSpaceOnUse" class="B"><feFlood class="C"/><feBlend in="SourceGraphic"/><feGaussianBlur stdDeviation="1.419"/></filter><radialGradient id="E" cx="0" cy="0" r="1" gradientUnits="userSpaceOnUse" gradientTransform="translate(37.656 40.1606) rotate(-127.964) scale(32.039 22.885)"><stop stop-color="#4d229c"/><stop offset="1" stop-color="#7e5bc0"/></radialGradient></defs></svg>