<svg width="527" height="398" viewBox="0 0 527 398" fill="none" xmlns="http://www.w3.org/2000/svg">
<g clip-path="url(#clip0_2079_19259)">
<rect x="-75" y="95" width="140" height="94" rx="9" fill="url(#paint0_radial_2079_19259)"/>
<rect x="-74.5" y="95.5" width="139" height="93" rx="8.5" stroke="white" stroke-opacity="0.03"/>
<path fill-rule="evenodd" clip-rule="evenodd" d="M-14.7145 130.731C-15.0133 130.432 -14.9972 129.941 -14.665 129.68C-11.9899 127.576 -8.61535 126.32 -4.94771 126.32C3.10506 126.32 9.74441 132.371 10.6718 140.174C10.7216 140.594 10.3859 140.952 9.96346 140.952H1.40668C1.05639 140.952 0.760349 140.701 0.659725 140.366C-0.0636082 137.954 -2.3004 136.197 -4.94742 136.197C-5.95119 136.197 -6.8959 136.449 -7.72161 136.895C-8.02981 137.061 -8.41643 137.029 -8.66409 136.781L-14.7145 130.731ZM-16.2666 132.283C-16.5654 131.984 -17.0562 132 -17.3175 132.332C-19.4222 135.007 -20.6777 138.382 -20.6777 142.05C-20.6777 150.103 -14.6264 156.743 -6.82284 157.67C-6.40342 157.72 -6.04511 157.384 -6.04511 156.962V148.404C-6.04511 148.054 -6.29609 147.758 -6.63165 147.657C-9.04324 146.934 -10.8005 144.697 -10.8005 142.05C-10.8005 141.046 -10.5478 140.101 -10.1027 139.276C-9.93642 138.968 -9.96845 138.581 -10.2161 138.333L-16.2666 132.283ZM-3.26363 147.657C-3.59919 147.758 -3.85017 148.054 -3.85017 148.404V156.962C-3.85017 157.384 -3.49171 157.72 -3.0723 157.67C4.11641 156.816 9.8182 151.114 10.6719 143.925C10.7216 143.506 10.3861 143.147 9.9636 143.147H1.40683C1.05639 143.147 0.760349 143.398 0.659725 143.734C0.0963707 145.612 -1.38515 147.094 -3.26363 147.657Z" fill="#F4F8FC"/>
<rect x="85" y="95" width="140" height="94" rx="9" fill="url(#paint1_radial_2079_19259)"/>
<rect x="85.5" y="95.5" width="139" height="93" rx="8.5" stroke="white" stroke-opacity="0.03"/>
<path d="M139.33 134.68C139.33 131.659 141.779 129.211 144.799 129.211C147.819 129.211 150.268 131.659 150.268 134.68C150.268 137.7 147.819 140.148 144.799 140.148C141.779 140.148 139.33 137.7 139.33 134.68Z" fill="#F4F8FC"/>
<path d="M142.232 150.779C142.232 146.953 145.334 143.852 149.16 143.852C152.985 143.852 156.087 146.953 156.087 150.779C156.087 154.604 152.985 157.706 149.16 157.706C145.334 157.706 142.232 154.604 142.232 150.779Z" fill="#F4F8FC"/>
<path d="M153.906 134.737C153.906 130.106 157.661 126.352 162.292 126.352C166.923 126.352 170.677 130.106 170.677 134.737C170.677 139.368 166.923 143.122 162.292 143.122C157.661 143.122 153.906 139.368 153.906 134.737Z" fill="#F4F8FC"/>
<rect x="245" y="95" width="140" height="94" rx="9" fill="url(#paint2_radial_2079_19259)"/>
<rect x="245.5" y="95.5" width="139" height="93" rx="8.5" stroke="white" stroke-opacity="0.03"/>
<path fill-rule="evenodd" clip-rule="evenodd" d="M314.145 127.886C314.145 127.048 314.145 126.628 313.796 126.415C313.447 126.202 313.118 126.37 312.46 126.708C312.271 126.805 312.08 126.91 311.888 127.024C310.808 127.659 309.574 128.596 308.033 129.766L305.02 132.054C303.606 133.128 302.472 133.989 301.633 134.787C301.475 134.938 301.324 135.089 301.181 135.241C300.758 135.695 300.546 135.922 300.592 136.264C300.598 136.307 300.612 136.368 300.627 136.41C300.742 136.735 301.075 136.856 301.741 137.097L309.784 140.05C310.006 140.134 310.256 140.087 310.446 139.943C310.825 139.658 311.321 139.348 311.959 138.95L312.49 138.618C312.803 138.422 313.079 138.249 313.328 138.1C313.747 137.849 313.956 137.723 314.051 137.556C314.145 137.389 314.145 137.167 314.145 136.722V127.886ZM316.336 136.962C316.336 137.358 316.336 137.555 316.415 137.711C316.494 137.866 316.669 137.994 317.018 138.25C317.261 138.428 317.53 138.634 317.838 138.869L318.842 139.636C319.416 140.075 319.862 140.416 320.201 140.723C320.323 140.833 320.497 140.869 320.649 140.807L328.653 137.133L328.742 137.09C329.426 136.763 329.768 136.599 329.834 136.232C329.901 135.866 329.668 135.623 329.202 135.139C329.089 135.021 328.971 134.904 328.847 134.787C328.009 133.989 326.875 133.128 325.461 132.054L322.448 129.766C320.906 128.596 319.673 127.659 318.593 127.024C318.401 126.91 318.21 126.805 318.021 126.708C317.363 126.371 317.034 126.202 316.685 126.415C316.336 126.628 316.336 127.048 316.336 127.887V136.962ZM330.892 139.981C330.924 139.698 330.939 139.557 330.877 139.392C330.784 139.147 330.478 138.93 330.216 138.922C330.04 138.917 329.882 138.992 329.568 139.143L321.536 142.83C321.523 142.835 321.509 142.841 321.496 142.847C321.356 142.904 321.286 142.933 321.232 142.967C321.111 143.045 321.034 143.131 320.97 143.26C320.941 143.317 320.917 143.401 320.869 143.567C320.761 143.937 320.617 144.365 320.443 144.879L320.139 145.78C319.959 146.315 319.813 146.747 319.671 147.101C319.581 147.328 319.607 147.587 319.756 147.78L324.856 154.4C325.095 154.689 325.216 154.833 325.386 154.902C325.588 154.984 325.886 154.952 326.067 154.83C326.219 154.727 326.293 154.586 326.441 154.305C326.549 154.1 326.651 153.886 326.749 153.664C327.241 152.555 327.685 151.126 328.239 149.345L329.605 144.951C330.13 143.262 330.552 141.906 330.77 140.771C330.821 140.501 330.863 140.238 330.892 139.981ZM322.769 157.303C323.042 157.233 323.178 157.197 323.31 157.079C323.483 156.924 323.585 156.607 323.535 156.38C323.497 156.207 323.386 156.073 323.164 155.805C323.155 155.795 323.147 155.784 323.139 155.774L318.029 149.141L318.027 149.138C318.004 149.108 317.992 149.093 317.984 149.083C317.822 148.889 317.607 148.8 317.356 148.824C317.343 148.825 317.318 148.829 317.268 148.835C316.95 148.876 316.583 148.913 316.153 148.957L315.316 149.041C313.601 149.213 312.667 149.307 311.979 148.957C311.92 148.927 311.846 148.945 311.813 149.003L308.166 155.632C308.16 155.642 308.154 155.652 308.148 155.662C307.75 156.335 307.551 156.671 307.695 157.011C307.705 157.034 307.72 157.064 307.732 157.085C307.914 157.406 308.264 157.448 308.965 157.53C308.979 157.532 308.992 157.534 309.005 157.535C310.214 157.674 311.716 157.674 313.594 157.674H316.887C318.764 157.674 320.267 157.674 321.475 157.535C321.932 157.483 322.362 157.409 322.769 157.303ZM304.254 154.689C304.614 155.295 304.794 155.599 305.2 155.606C305.208 155.606 305.219 155.606 305.227 155.606C305.634 155.598 305.842 155.246 306.259 154.542L309.91 147.906L310.305 147.215C310.456 146.949 310.532 146.817 310.55 146.671C310.568 146.526 310.526 146.376 310.442 146.077C310.401 145.931 310.359 145.778 310.314 145.619L309.92 144.198C309.759 143.618 309.626 143.141 309.535 142.734C309.522 142.677 309.516 142.649 309.512 142.634C309.45 142.403 309.313 142.245 309.093 142.151C309.08 142.146 309.06 142.138 309.019 142.123L300.997 139.177L300.992 139.175C300.54 139.012 300.314 138.93 300.09 138.992C299.917 139.04 299.721 139.197 299.638 139.356C299.53 139.562 299.558 139.766 299.613 140.175C299.639 140.37 299.672 140.568 299.711 140.771C299.929 141.906 300.35 143.262 300.875 144.951L302.242 149.345C302.796 151.126 303.24 152.555 303.731 153.664C303.893 154.03 304.065 154.371 304.254 154.689Z" fill="#F4F8FC"/>
<rect x="405" y="95" width="140" height="94" rx="9" fill="url(#paint3_radial_2079_19259)"/>
<rect x="405.5" y="95.5" width="139" height="93" rx="8.5" stroke="white" stroke-opacity="0.03"/>
<path fill-rule="evenodd" clip-rule="evenodd" d="M477.862 126.997L477.787 126.98C477.056 126.815 476.383 126.663 475.803 126.643C475.133 126.62 474.512 126.766 473.934 127.23C473.328 127.715 473.065 128.348 472.949 129.043C472.845 129.667 472.845 130.443 472.845 131.321V131.396V141.249C472.845 141.936 472.845 142.28 473.059 142.493C473.272 142.707 473.616 142.707 474.303 142.707H485.702H485.782C486.655 142.707 487.436 142.707 488.066 142.593C488.778 142.464 489.41 142.171 489.885 141.525C490.331 140.919 490.466 140.292 490.404 139.611C490.352 139.035 490.153 138.389 489.942 137.708L489.919 137.63C488.294 132.362 483.648 128.304 477.862 126.997ZM469.723 135.349C465.606 135.349 462.101 138.182 462.101 141.858C462.101 142.327 462.507 142.707 463.008 142.707H469.723C470.223 142.707 470.629 142.327 470.629 141.858V136.198C470.629 135.729 470.223 135.349 469.723 135.349ZM463.614 144.895H463.526C462.686 144.895 461.91 144.895 461.282 145.023C460.544 145.174 459.933 145.513 459.496 146.19C459.101 146.802 458.981 147.398 459.12 148.046C459.233 148.57 459.519 149.109 459.797 149.634L459.836 149.708C461.561 152.967 465.347 155.176 469.677 155.176C470.203 155.176 470.629 154.77 470.629 154.269V145.803C470.629 145.562 470.529 145.331 470.35 145.161C470.172 144.991 469.93 144.895 469.677 144.895H463.614ZM472.845 145.838C472.845 145.318 473.267 144.895 473.786 144.895H486.334C486.853 144.895 487.275 145.318 487.275 145.838C487.275 151.411 483.209 156.033 477.758 157.557L477.683 157.578C477.004 157.768 476.367 157.946 475.806 157.986C475.147 158.033 474.541 157.898 473.961 157.457C473.347 156.99 473.073 156.373 472.952 155.684C472.845 155.072 472.845 154.312 472.845 153.458V153.382V145.838Z" fill="#F4F8FC"/>
<rect x="-29" y="209" width="140" height="94" rx="9" fill="url(#paint4_radial_2079_19259)"/>
<rect x="-28.5" y="209.5" width="139" height="93" rx="8.5" stroke="white" stroke-opacity="0.03"/>
<path fill-rule="evenodd" clip-rule="evenodd" d="M40.1453 241.886C40.1453 241.048 40.1453 240.628 39.7963 240.415C39.4475 240.202 39.1185 240.37 38.4603 240.708C38.2708 240.805 38.0802 240.91 37.8877 241.024C36.8081 241.659 35.5744 242.596 34.0328 243.766L31.0199 246.054C29.6058 247.128 28.4717 247.989 27.6332 248.787C27.4746 248.938 27.3239 249.089 27.1815 249.241C26.758 249.695 26.5462 249.922 26.592 250.264C26.5978 250.307 26.6125 250.368 26.6271 250.41C26.742 250.735 27.075 250.856 27.7408 251.097L35.7835 254.05C36.0062 254.134 36.2561 254.087 36.4463 253.943C36.8254 253.658 37.3212 253.348 37.9587 252.95L38.4895 252.618C38.8026 252.422 39.079 252.249 39.3281 252.1C39.7466 251.849 39.9559 251.723 40.0507 251.556C40.1453 251.389 40.1453 251.167 40.1453 250.722V241.886ZM42.336 250.962C42.336 251.358 42.336 251.555 42.4149 251.711C42.4937 251.866 42.6685 251.994 43.0182 252.25C43.2609 252.428 43.5304 252.634 43.8375 252.869L44.842 253.636C45.4159 254.075 45.8624 254.416 46.2009 254.723C46.3228 254.833 46.4968 254.869 46.6489 254.807L54.6534 251.133L54.7425 251.09C55.4262 250.763 55.7681 250.599 55.8345 250.232C55.9008 249.866 55.6681 249.623 55.2025 249.139C55.089 249.021 54.9706 248.904 54.8475 248.787C54.009 247.989 52.875 247.128 51.4608 246.054L48.4479 243.766C46.9063 242.596 45.6725 241.659 44.5929 241.024C44.4007 240.91 44.2104 240.805 44.0211 240.708C43.363 240.371 43.0338 240.202 42.6848 240.415C42.336 240.628 42.336 241.048 42.336 241.887V250.962ZM56.8918 253.981C56.9236 253.698 56.9395 253.557 56.8768 253.392C56.7837 253.147 56.4782 252.93 56.216 252.922C56.0395 252.917 55.8823 252.992 55.5682 253.143L47.5357 256.83C47.5226 256.835 47.5093 256.841 47.4959 256.847C47.3563 256.904 47.2865 256.933 47.2322 256.967C47.1106 257.045 47.0337 257.131 46.9699 257.26C46.9414 257.317 46.9171 257.401 46.8687 257.567C46.7612 257.937 46.6167 258.365 46.4431 258.879L46.1392 259.78C45.9588 260.315 45.8128 260.747 45.6711 261.101C45.5805 261.328 45.6071 261.587 45.7564 261.78L50.8556 268.4C51.0955 268.689 51.2155 268.833 51.386 268.902C51.5883 268.984 51.8863 268.952 52.0672 268.83C52.2194 268.727 52.2934 268.586 52.4412 268.305C52.5486 268.1 52.6507 267.886 52.7492 267.664C53.241 266.555 53.6851 265.126 54.2388 263.345L55.6051 258.951C56.1302 257.262 56.552 255.906 56.7696 254.771C56.8213 254.501 56.8626 254.238 56.8918 253.981ZM48.7693 271.303C49.0417 271.233 49.1779 271.197 49.3101 271.079C49.4827 270.924 49.585 270.607 49.5354 270.38C49.4975 270.207 49.3863 270.073 49.1639 269.805C49.1553 269.795 49.1469 269.784 49.1387 269.774L44.0294 263.141L44.0271 263.138C44.0039 263.108 43.9922 263.093 43.9839 263.083C43.8219 262.889 43.6074 262.8 43.3557 262.824C43.3427 262.825 43.3178 262.829 43.2679 262.835C42.9504 262.876 42.5835 262.913 42.1534 262.957L41.3165 263.041C39.6013 263.213 38.6671 263.307 37.9788 262.957C37.9195 262.927 37.8456 262.945 37.8127 263.003L34.1657 269.632C34.16 269.642 34.1542 269.652 34.1482 269.662C33.7498 270.335 33.5506 270.671 33.6951 271.011C33.7048 271.034 33.7196 271.064 33.7319 271.085C33.914 271.406 34.2645 271.448 34.9654 271.53C34.9787 271.532 34.9919 271.534 35.0052 271.535C36.2141 271.674 37.7163 271.674 39.5938 271.674H42.8868C44.7644 271.674 46.2665 271.674 47.4755 271.535C47.9322 271.483 48.3621 271.409 48.7693 271.303ZM30.2537 268.689C30.6137 269.295 30.7938 269.599 31.2002 269.606C31.2079 269.606 31.2194 269.606 31.2271 269.606C31.6335 269.598 31.8421 269.246 32.2592 268.542L35.9101 261.906L36.3048 261.215C36.4563 260.949 36.532 260.817 36.5499 260.671C36.5678 260.526 36.5258 260.376 36.4417 260.077C36.4008 259.931 36.3585 259.778 36.3143 259.619L35.9197 258.198C35.7585 257.618 35.626 257.141 35.535 256.734C35.5222 256.677 35.5158 256.649 35.512 256.634C35.4503 256.403 35.3133 256.245 35.0932 256.151C35.0796 256.146 35.0595 256.138 35.0194 256.123L26.9969 253.177L26.9921 253.175C26.5398 253.012 26.3137 252.93 26.0899 252.992C25.9166 253.04 25.7215 253.197 25.6381 253.356C25.5303 253.562 25.5579 253.766 25.613 254.175C25.6393 254.37 25.6723 254.568 25.7111 254.771C25.9287 255.906 26.3504 257.262 26.8755 258.951L28.2418 263.345C28.7955 265.126 29.2397 266.555 29.7314 267.664C29.8935 268.03 30.0651 268.371 30.2537 268.689Z" fill="#F4F8FC"/>
<rect x="131" y="209" width="140" height="94" rx="9" fill="url(#paint5_radial_2079_19259)"/>
<rect x="131.5" y="209.5" width="139" height="93" rx="8.5" stroke="white" stroke-opacity="0.03"/>
<path fill-rule="evenodd" clip-rule="evenodd" d="M191.286 244.731C190.987 244.432 191.003 243.941 191.335 243.68C194.01 241.576 197.385 240.32 201.052 240.32C209.105 240.32 215.744 246.371 216.672 254.174C216.722 254.594 216.386 254.952 215.963 254.952H207.407C207.056 254.952 206.76 254.701 206.66 254.366C205.936 251.954 203.7 250.197 201.053 250.197C200.049 250.197 199.104 250.449 198.278 250.895C197.97 251.061 197.584 251.029 197.336 250.781L191.286 244.731ZM189.733 246.283C189.435 245.984 188.944 246 188.682 246.332C186.578 249.007 185.322 252.382 185.322 256.05C185.322 264.103 191.374 270.743 199.177 271.67C199.597 271.72 199.955 271.384 199.955 270.962V262.404C199.955 262.054 199.704 261.758 199.368 261.657C196.957 260.934 195.199 258.697 195.199 256.05C195.199 255.046 195.452 254.101 195.897 253.276C196.064 252.968 196.032 252.581 195.784 252.333L189.733 246.283ZM202.736 261.657C202.401 261.758 202.15 262.054 202.15 262.404V270.962C202.15 271.384 202.508 271.72 202.928 271.67C210.116 270.816 215.818 265.114 216.672 257.925C216.722 257.506 216.386 257.147 215.964 257.147H207.407C207.056 257.147 206.76 257.398 206.66 257.734C206.096 259.612 204.615 261.094 202.736 261.657Z" fill="#F4F8FC"/>
<rect x="291" y="209" width="140" height="94" rx="9" fill="url(#paint6_radial_2079_19259)"/>
<rect x="291.5" y="209.5" width="139" height="93" rx="8.5" stroke="white" stroke-opacity="0.03"/>
<path d="M345.33 248.68C345.33 245.659 347.779 243.211 350.799 243.211C353.819 243.211 356.268 245.659 356.268 248.68C356.268 251.7 353.819 254.148 350.799 254.148C347.779 254.148 345.33 251.7 345.33 248.68Z" fill="#F4F8FC"/>
<path d="M348.232 264.779C348.232 260.953 351.334 257.852 355.16 257.852C358.985 257.852 362.087 260.953 362.087 264.779C362.087 268.604 358.985 271.706 355.16 271.706C351.334 271.706 348.232 268.604 348.232 264.779Z" fill="#F4F8FC"/>
<path d="M359.906 248.737C359.906 244.106 363.661 240.352 368.292 240.352C372.923 240.352 376.677 244.106 376.677 248.737C376.677 253.368 372.923 257.122 368.292 257.122C363.661 257.122 359.906 253.368 359.906 248.737Z" fill="#F4F8FC"/>
<rect x="451" y="209" width="140" height="94" rx="9" fill="url(#paint7_radial_2079_19259)"/>
<rect x="451.5" y="209.5" width="139" height="93" rx="8.5" stroke="white" stroke-opacity="0.03"/>
<path fill-rule="evenodd" clip-rule="evenodd" d="M511.286 244.731C510.987 244.432 511.003 243.941 511.335 243.68C514.01 241.576 517.385 240.32 521.052 240.32C529.105 240.32 535.744 246.371 536.672 254.174C536.722 254.594 536.386 254.952 535.963 254.952H527.407C527.056 254.952 526.76 254.701 526.66 254.366C525.936 251.954 523.7 250.197 521.053 250.197C520.049 250.197 519.104 250.449 518.278 250.895C517.97 251.061 517.584 251.029 517.336 250.781L511.286 244.731ZM509.733 246.283C509.435 245.984 508.944 246 508.682 246.332C506.578 249.007 505.322 252.382 505.322 256.05C505.322 264.103 511.374 270.743 519.177 271.67C519.597 271.72 519.955 271.384 519.955 270.962V262.404C519.955 262.054 519.704 261.758 519.368 261.657C516.957 260.934 515.199 258.697 515.199 256.05C515.199 255.046 515.452 254.101 515.897 253.276C516.064 252.968 516.032 252.581 515.784 252.333L509.733 246.283ZM522.736 261.657C522.401 261.758 522.15 262.054 522.15 262.404V270.962C522.15 271.384 522.508 271.72 522.928 271.67C530.116 270.816 535.818 265.114 536.672 257.925C536.722 257.506 536.386 257.147 535.964 257.147H527.407C527.056 257.147 526.76 257.398 526.66 257.734C526.096 259.612 524.615 261.094 522.736 261.657Z" fill="#F4F8FC"/>
</g>
<defs>
<radialGradient id="paint0_radial_2079_19259" cx="0" cy="0" r="1" gradientUnits="userSpaceOnUse" gradientTransform="translate(-5 142) rotate(90) scale(47 70)">
<stop stop-color="#15161A"/>
<stop offset="1" stop-color="#15161A"/>
</radialGradient>
<radialGradient id="paint1_radial_2079_19259" cx="0" cy="0" r="1" gradientUnits="userSpaceOnUse" gradientTransform="translate(97.3016 109.895) rotate(36.2322) scale(133.836 199.33)">
<stop stop-color="#1D1E23"/>
<stop offset="1" stop-color="#15161A"/>
</radialGradient>
<radialGradient id="paint2_radial_2079_19259" cx="0" cy="0" r="1" gradientUnits="userSpaceOnUse" gradientTransform="translate(257.302 109.895) rotate(36.2322) scale(133.836 199.33)">
<stop stop-color="#1D1E23"/>
<stop offset="1" stop-color="#15161A"/>
</radialGradient>
<radialGradient id="paint3_radial_2079_19259" cx="0" cy="0" r="1" gradientUnits="userSpaceOnUse" gradientTransform="translate(417.302 109.895) rotate(36.2322) scale(133.836 199.33)">
<stop stop-color="#1D1E23"/>
<stop offset="1" stop-color="#15161A"/>
</radialGradient>
<radialGradient id="paint4_radial_2079_19259" cx="0" cy="0" r="1" gradientUnits="userSpaceOnUse" gradientTransform="translate(-16.6984 223.895) rotate(36.2322) scale(133.836 199.33)">
<stop stop-color="#1D1E23"/>
<stop offset="1" stop-color="#15161A"/>
</radialGradient>
<radialGradient id="paint5_radial_2079_19259" cx="0" cy="0" r="1" gradientUnits="userSpaceOnUse" gradientTransform="translate(201 256) rotate(90) scale(47 70)">
<stop stop-color="#15161A"/>
<stop offset="1" stop-color="#15161A"/>
</radialGradient>
<radialGradient id="paint6_radial_2079_19259" cx="0" cy="0" r="1" gradientUnits="userSpaceOnUse" gradientTransform="translate(303.302 223.895) rotate(36.2322) scale(133.836 199.33)">
<stop stop-color="#1D1E23"/>
<stop offset="1" stop-color="#15161A"/>
</radialGradient>
<radialGradient id="paint7_radial_2079_19259" cx="0" cy="0" r="1" gradientUnits="userSpaceOnUse" gradientTransform="translate(521 256) rotate(90) scale(47 70)">
<stop stop-color="#15161A"/>
<stop offset="1" stop-color="#15161A"/>
</radialGradient>
<clipPath id="clip0_2079_19259">
<rect width="527" height="398" fill="white"/>
</clipPath>
</defs>
</svg>
