<svg xmlns="http://www.w3.org/2000/svg" xmlns:xlink="http://www.w3.org/1999/xlink" width="527" height="399" fill="none" xmlns:v="https://vecta.io/nano"><style><![CDATA[.B{fill:#f4f8fc}.C{color-interpolation-filters:sRGB}.D{flood-opacity:0}.E{opacity:.6}.F{stroke:#fff}.G{fill:#07080b}.H{fill:#797d89}.I{fill:#fff}.J{stroke-opacity:.1}.K{stroke-width:.611}.L{fill-rule:evenodd}.M{fill:#0f1014}.N{opacity:.12}.O{fill:#4d229c}.P{stroke-opacity:.03}]]></style><g clip-path="url(#p)"><rect x="278" y="79.406" width="332" height="348.287" rx="12.672" fill="url(#h)"/><rect x="278.634" y="80.04" width="330.733" height="347.02" rx="12.038" stroke-width="1.267" class="F P"/><g class="B"><rect x="376.348" y="142.047" width="135.306" height="11.276" rx="2.365"/><rect x="356.303" y="106.969" width="174.77" height="4.385" rx="1"/></g><rect x="295.539" y="175.875" width="296.294" height="45.728" rx="6.623" class="G"/><g opacity=".5" filter="url(#A)" class="O"><rect x="316.256" y="189.016" width="12.226" height="17.117" rx="2.445" transform="rotate(15 316.256 189.016)"/></g><g filter="url(#B)"><rect x="316.256" y="189.016" width="12.226" height="17.117" rx="2.445" transform="rotate(15 316.256 189.016)" fill="url(#i)"/></g><rect x="316.472" y="189.39" width="11.615" height="16.505" rx="2.14" transform="rotate(15 316.472 189.39)" class="F J K"/><g filter="url(#C)" class="I L"><path d="M319.658 190.038h-4.166v-.218h4.166v.218z"/></g><g filter="url(#D)" class="I L"><path d="M317.687 187.801v4.246h-.218v-4.246h.218z"/></g><rect x="346.279" y="188.398" width="85.674" height="8.143" rx="1.879" class="B"/><rect x="346.279" y="202.18" width="54.498" height="6.891" rx="1.879" class="H"/><rect x="499.75" y="184.016" width="44.476" height="30.068" rx="4.385" class="M"/><rect x="295.539" y="226.609" width="296.294" height="45.728" rx="6.623" class="G"/><g opacity=".5" filter="url(#E)"><rect width="12.23" height="17.12" rx="2.446" transform="matrix(.965933 .258793 -.258845 .965919 321.15 239.828)" class="O"/><rect width="12.23" height="17.12" rx="2.446" transform="matrix(.965933 -.258793 .258845 .965919 311.824 242.984)" fill="#194183"/></g><g filter="url(#F)"><rect width="12.23" height="17.12" rx="2.446" transform="matrix(.965933 .258793 -.258845 .965919 321.15 239.828)" fill="url(#j)"/></g><rect x=".216" y=".374" width="11.619" height="16.509" rx="2.14" transform="matrix(.965933 .258793 -.258845 .965919 321.255 239.785)" class="F J K"/><g filter="url(#G)"><rect width="12.23" height="17.12" rx="2.446" transform="matrix(.965933 -.258793 .258845 .965919 311.824 242.984)" fill="url(#k)"/><rect x=".374" y=".216" width="11.619" height="16.509" rx="2.14" transform="matrix(.965933 -.258793 .258845 .965919 311.781 243.089)" class="F J K"/></g><g filter="url(#H)" class="I L"><path d="M315.38 243.492h-4.167v-.219h4.167v.219z"/></g><g filter="url(#I)" class="I L"><path d="M313.404 241.238v4.246h-.218v-4.246h.218z"/></g><rect x="346.279" y="239.141" width="66.4" height="8.143" rx="1.879" class="B"/><rect x="346.279" y="252.922" width="90.204" height="6.891" rx="1.879" class="H"/><rect x="499.75" y="234.758" width="44.476" height="30.068" rx="4.385" class="M"/><rect x="295.539" y="277.352" width="296.294" height="45.728" rx="6.623" class="G"/><g opacity=".5" filter="url(#J)"><rect width="12.23" height="17.12" rx="2.446" transform="matrix(.965933 .258793 -.258845 .965919 321.15 290.562)" class="O"/><rect x="316.279" y="291.57" width="12.23" height="17.12" rx="2.446" fill="#194183"/><rect width="12.23" height="17.12" rx="2.446" transform="matrix(.965933 -.258793 .258845 .965919 311.824 293.727)" fill="#18258d"/></g><g filter="url(#K)"><rect width="12.23" height="17.12" rx="2.446" transform="matrix(.965933 .258793 -.258845 .965919 321.15 290.562)" fill="url(#j)"/></g><rect x=".216" y=".374" width="11.619" height="16.509" rx="2.14" transform="matrix(.965933 .258793 -.258845 .965919 321.255 290.519)" class="F J K"/><g filter="url(#L)"><rect x="316.279" y="291.57" width="12.23" height="17.12" rx="2.446" fill="url(#l)"/><rect x="316.585" y="291.876" width="11.619" height="16.509" rx="2.14" class="F J K"/></g><g filter="url(#M)"><rect width="12.23" height="17.12" rx="2.446" transform="matrix(.965933 -.258793 .258845 .965919 311.824 293.727)" fill="url(#m)"/><rect x=".374" y=".216" width="11.619" height="16.509" rx="2.14" transform="matrix(.965933 -.258793 .258845 .965919 311.781 293.831)" class="F J K"/></g><g filter="url(#N)" class="I L"><path d="M315.38 294.226h-4.167v-.218h4.167v.218z"/></g><g filter="url(#O)" class="I L"><path d="M313.404 291.996v4.246h-.218v-4.246h.218z"/></g><rect x="346.279" y="289.875" width="45.102" height="8.143" rx="1.879" class="B"/><rect x="346.279" y="303.656" width="68.279" height="6.891" rx="1.879" class="H"/><rect x="499.75" y="285.492" width="44.476" height="30.068" rx="4.385" class="M"/><rect x="295.539" y="375.062" width="142.445" height="35.706" rx="6.623" class="G"/><g class="B"><rect x="449.389" y="375.062" width="142.445" height="35.706" rx="6.623"/><rect x="298.045" y="348.125" width="61.389" height="10.023" rx="1.879"/></g><rect x="511.652" y="350.016" width="53.053" height="6.264" rx="1.253" class="H"/><rect x="-60" y="155.406" width="262" height="274.853" rx="10" fill="url(#n)"/><rect x="-59.5" y="155.906" width="261" height="273.853" rx="9.5" class="F P"/><g class="B"><rect x="17.611" y="204.836" width="106.777" height="8.898" rx="1.867"/><rect x="1.793" y="177.156" width="137.921" height="3.46" rx=".789"/></g><rect x="-46.158" y="231.531" width="233.823" height="36.087" rx="5.23" class="G"/><rect x="-6.117" y="241.414" width="41.03" height="6.426" rx="1.483" class="B"/><rect x="-6.117" y="252.289" width="43.008" height="5.438" rx="1.483" class="H"/><g class="M"><rect x="114.996" y="237.961" width="35.098" height="23.728" rx="3.46"/><rect x="158.004" y="237.961" width="23.728" height="23.728" rx="3.46"/></g><rect x="-46.158" y="271.57" width="233.823" height="36.087" rx="5.23" class="G"/><rect x="-6.117" y="281.461" width="52.4" height="6.426" rx="1.483" class="B"/><rect x="-6.117" y="292.336" width="71.185" height="5.438" rx="1.483" class="H"/><g class="M"><rect x="114.996" y="278" width="35.098" height="23.728" rx="3.46"/><rect x="158.004" y="278" width="23.728" height="23.728" rx="3.46"/></g><rect x="-46.158" y="311.617" width="233.823" height="36.087" rx="5.23" class="G"/><rect x="-6.117" y="321.5" width="35.593" height="6.426" rx="1.483" class="B"/><rect x="-6.117" y="332.375" width="53.883" height="5.438" rx="1.483" class="H"/><g class="M"><rect x="114.996" y="318.039" width="35.098" height="23.728" rx="3.46"/><rect x="158.004" y="318.039" width="23.728" height="23.728" rx="3.46"/></g><g class="G"><rect x="171.352" y="169.742" width="16.313" height="16.313" rx="2.613"/><rect x="-46.158" y="388.727" width="112.411" height="28.177" rx="5.227"/></g><g class="B"><rect x="75.254" y="388.727" width="112.411" height="28.177" rx="5.227"/><rect x="-25.947" y="367.469" width="30.211" height="7.909" rx="1.483"/></g><rect x="124.389" y="368.961" width="63.276" height="4.943" rx=".989" class="H"/><g opacity=".3"><g filter="url(#P)" class="E"><path d="M130.466 94.942l91.466-133.231h60.906l119.908 91.357 103.73 122.763-138.941-94.212L259.047-30.677l63.76 132.28 44.728 189.983-84.697-176.66-20.936-72.801 9.818 90.45v173.397l-30.755-120.57-6.918-159.695-12.115 98.736-71.034 230.918 40.581-240.435 39.018-145.602-76.238 145.603-78.308 117.09 54.515-137.073z" fill="url(#o)"/></g><g filter="url(#Q)" class="E"><ellipse cx="259.729" cy="-16.214" rx="179.821" ry="84.005" fill="#707585"/></g></g><circle cx="264" cy="129.516" r=".5" class="B N"/><g filter="url(#R)" class="E B"><circle cx="264" cy="129.516" r=".5"/></g><g filter="url(#S)" class="N B"><circle cx="206.409" cy="35.572" r=".5" transform="rotate(105 206.409 35.572)"/></g><g filter="url(#T)" class="E B"><circle cx="206.409" cy="35.572" r=".5" transform="rotate(105 206.409 35.572)"/></g><circle opacity=".72" cx="317.469" cy="103.965" r="1" transform="rotate(105 317.469 103.965)" class="B"/><g filter="url(#U)" class="E B"><circle cx="317.469" cy="103.965" r="1" transform="rotate(105 317.469 103.965)"/></g><circle cx="182.439" cy="101.52" r="1" transform="rotate(105 182.439 101.52)" class="B N"/><g filter="url(#V)" class="E B"><circle cx="182.439" cy="101.52" r="1" transform="rotate(105 182.439 101.52)"/></g><circle opacity=".72" cx="159.004" cy="18.297" r="1" class="B"/><g filter="url(#W)" class="E B"><circle cx="159.004" cy="18.297" r="1"/></g><g filter="url(#X)" class="N B"><circle cx="283.154" cy="30.664" r=".5"/></g><g filter="url(#Y)" class="E B"><circle cx="283.154" cy="30.664" r=".5"/></g><circle cx="255.999" cy="57.682" r=".5" transform="rotate(105 255.999 57.682)" class="B N"/><g filter="url(#Z)" class="E B"><circle cx="255.999" cy="57.682" r=".5" transform="rotate(105 255.999 57.682)"/></g><circle opacity=".2" cx="335.145" cy="54.463" r=".5" transform="rotate(105 335.145 54.463)" class="B"/><g filter="url(#a)" class="E B"><circle cx="335.145" cy="54.463" r=".5" transform="rotate(105 335.145 54.463)"/></g><g opacity=".42" filter="url(#b)" class="B"><circle cx="259.229" cy="198.234" r=".5"/></g><g filter="url(#c)" class="E B"><circle cx="259.229" cy="198.234" r=".5"/></g><g opacity=".53" filter="url(#d)" class="B"><circle cx="220.605" cy="145.844" r="1"/></g><g filter="url(#e)" class="E B"><circle cx="220.605" cy="145.844" r="1"/></g><circle opacity=".2" cx="140.213" cy="141.547" r=".5" class="B"/><g filter="url(#f)" class="E B"><circle cx="140.213" cy="141.547" r=".5"/></g><circle opacity=".2" cx="387.892" cy="43.606" r="1" transform="rotate(105 387.892 43.606)" class="B"/><g filter="url(#g)" class="E B"><circle cx="387.892" cy="43.606" r="1" transform="rotate(105 387.892 43.606)"/></g></g><defs><filter id="A" x="304.428" y="181.615" width="31.035" height="34.496" filterUnits="userSpaceOnUse" class="C"><feFlood class="D"/><feBlend in="SourceGraphic"/><feGaussianBlur stdDeviation="3.974"/></filter><filter id="B" x="312.375" y="189.562" width="16.363" height="19.824" filterUnits="userSpaceOnUse" class="C"><feFlood class="D"/><feBlend in="SourceGraphic" result="B"/><feColorMatrix in="SourceAlpha" values="0 0 0 0 0 0 0 0 0 0 0 0 0 0 0 0 0 0 127 0" result="C"/><feOffset dx="1.22262" dy="1.22262"/><feGaussianBlur stdDeviation="1.834"/><feComposite in2="C" operator="arithmetic" k2="-1" k3="1"/><feColorMatrix values="0 0 0 0 1 0 0 0 0 1 0 0 0 0 1 0 0 0 0.25 0"/><feBlend in2="B"/></filter><filter id="C" x="313.757" y="188.086" width="7.636" height="3.688" filterUnits="userSpaceOnUse" class="C"><feFlood class="D"/><feBlend in="SourceGraphic"/><feGaussianBlur stdDeviation=".867"/></filter><filter id="D" x="315.734" y="186.07" width="3.688" height="7.712" filterUnits="userSpaceOnUse" class="C"><feFlood class="D"/><feBlend in="SourceGraphic"/><feGaussianBlur stdDeviation=".867"/></filter><filter id="E" x="303.875" y="231.879" width="37.035" height="35.601" filterUnits="userSpaceOnUse" class="C"><feFlood class="D"/><feBlend in="SourceGraphic"/><feGaussianBlur stdDeviation="3.975"/></filter><filter id="F" x="317.268" y="240.375" width="16.369" height="19.832" filterUnits="userSpaceOnUse" class="C"><feFlood class="D"/><feBlend in="SourceGraphic" result="B"/><feColorMatrix in="SourceAlpha" values="0 0 0 0 0 0 0 0 0 0 0 0 0 0 0 0 0 0 127 0" result="C"/><feOffset dx="1.22293" dy="1.22293"/><feGaussianBlur stdDeviation="1.834"/><feComposite in2="C" operator="arithmetic" k2="-1" k3="1"/><feColorMatrix values="0 0 0 0 1 0 0 0 0 1 0 0 0 0 1 0 0 0 0.25 0"/><feBlend in2="B"/></filter><filter id="G" x="311.15" y="239.144" width="20.038" height="23.493" filterUnits="userSpaceOnUse" class="C"><feFlood result="A" class="D"/><feColorMatrix in="SourceAlpha" values="0 0 0 0 0 0 0 0 0 0 0 0 0 0 0 0 0 0 127 0" result="B"/><feOffset dx="1.22293" dy="1.22293"/><feGaussianBlur stdDeviation="1.223"/><feComposite in2="B" operator="out"/><feColorMatrix values="0 0 0 0 0.027451 0 0 0 0 0.0313726 0 0 0 0 0.0431373 0 0 0 0.25 0"/><feBlend in2="A"/><feBlend in="SourceGraphic" result="D"/><feColorMatrix in="SourceAlpha" values="0 0 0 0 0 0 0 0 0 0 0 0 0 0 0 0 0 0 127 0" result="B"/><feOffset dx="1.22293" dy="1.22293"/><feGaussianBlur stdDeviation="1.834"/><feComposite in2="B" operator="arithmetic" k2="-1" k3="1"/><feColorMatrix values="0 0 0 0 1 0 0 0 0 1 0 0 0 0 1 0 0 0 0.2 0"/><feBlend in2="D"/></filter><filter id="H" x="309.478" y="241.538" width="7.638" height="3.689" filterUnits="userSpaceOnUse" class="C"><feFlood class="D"/><feBlend in="SourceGraphic"/><feGaussianBlur stdDeviation=".868"/></filter><filter id="I" x="311.45" y="239.499" width="3.689" height="7.72" filterUnits="userSpaceOnUse" class="C"><feFlood class="D"/><feBlend in="SourceGraphic"/><feGaussianBlur stdDeviation=".868"/></filter><filter id="J" x="303.875" y="282.613" width="37.035" height="35.601" filterUnits="userSpaceOnUse" class="C"><feFlood class="D"/><feBlend in="SourceGraphic"/><feGaussianBlur stdDeviation="3.975"/></filter><filter id="K" x="317.268" y="291.109" width="16.369" height="19.832" filterUnits="userSpaceOnUse" class="C"><feFlood class="D"/><feBlend in="SourceGraphic" result="B"/><feColorMatrix in="SourceAlpha" values="0 0 0 0 0 0 0 0 0 0 0 0 0 0 0 0 0 0 127 0" result="C"/><feOffset dx="1.22294" dy="1.22294"/><feGaussianBlur stdDeviation="1.834"/><feComposite in2="C" operator="arithmetic" k2="-1" k3="1"/><feColorMatrix values="0 0 0 0 1 0 0 0 0 1 0 0 0 0 1 0 0 0 0.25 0"/><feBlend in2="B"/></filter><filter id="L" x="315.056" y="290.347" width="17.122" height="22.009" filterUnits="userSpaceOnUse" class="C"><feFlood result="A" class="D"/><feColorMatrix in="SourceAlpha" values="0 0 0 0 0 0 0 0 0 0 0 0 0 0 0 0 0 0 127 0" result="B"/><feOffset dx="1.22294" dy="1.22294"/><feGaussianBlur stdDeviation="1.223"/><feComposite in2="B" operator="out"/><feColorMatrix values="0 0 0 0 0.027451 0 0 0 0 0.0313726 0 0 0 0 0.0431373 0 0 0 0.25 0"/><feBlend in2="A"/><feBlend in="SourceGraphic" result="D"/><feColorMatrix in="SourceAlpha" values="0 0 0 0 0 0 0 0 0 0 0 0 0 0 0 0 0 0 127 0" result="B"/><feOffset dx="1.22294" dy="1.22294"/><feGaussianBlur stdDeviation="1.834"/><feComposite in2="B" operator="arithmetic" k2="-1" k3="1"/><feColorMatrix values="0 0 0 0 1 0 0 0 0 1 0 0 0 0 1 0 0 0 0.2 0"/><feBlend in2="D"/></filter><filter id="M" x="311.15" y="289.886" width="20.038" height="23.493" filterUnits="userSpaceOnUse" class="C"><feFlood result="A" class="D"/><feColorMatrix in="SourceAlpha" values="0 0 0 0 0 0 0 0 0 0 0 0 0 0 0 0 0 0 127 0" result="B"/><feOffset dx="1.22294" dy="1.22294"/><feGaussianBlur stdDeviation="1.223"/><feComposite in2="B" operator="out"/><feColorMatrix values="0 0 0 0 0.027451 0 0 0 0 0.0313726 0 0 0 0 0.0431373 0 0 0 0.25 0"/><feBlend in2="A"/><feBlend in="SourceGraphic" result="D"/><feColorMatrix in="SourceAlpha" values="0 0 0 0 0 0 0 0 0 0 0 0 0 0 0 0 0 0 127 0" result="B"/><feOffset dx="1.22294" dy="1.22294"/><feGaussianBlur stdDeviation="1.834"/><feComposite in2="B" operator="arithmetic" k2="-1" k3="1"/><feColorMatrix values="0 0 0 0 1 0 0 0 0 1 0 0 0 0 1 0 0 0 0.2 0"/><feBlend in2="D"/></filter><filter id="N" x="309.478" y="292.273" width="7.638" height="3.689" filterUnits="userSpaceOnUse" class="C"><feFlood class="D"/><feBlend in="SourceGraphic"/><feGaussianBlur stdDeviation=".868"/></filter><filter id="O" x="311.45" y="290.257" width="3.689" height="7.72" filterUnits="userSpaceOnUse" class="C"><feFlood class="D"/><feBlend in="SourceGraphic"/><feGaussianBlur stdDeviation=".868"/></filter><filter id="P" x="31.408" y="-82.832" width="519.611" height="482.734" filterUnits="userSpaceOnUse" class="C"><feFlood class="D"/><feBlend in="SourceGraphic"/><feGaussianBlur stdDeviation="22.272"/></filter><filter id="Q" x="-32.791" y="-212.918" width="585.039" height="393.406" filterUnits="userSpaceOnUse" class="C"><feFlood class="D"/><feBlend in="SourceGraphic"/><feGaussianBlur stdDeviation="56.35"/></filter><filter id="R" x="259.5" y="125.016" width="9" height="9" filterUnits="userSpaceOnUse" class="C"><feFlood class="D"/><feBlend in="SourceGraphic"/><feGaussianBlur stdDeviation="2"/></filter><filter id="S" x="205.508" y="34.67" width="1.802" height="1.8" filterUnits="userSpaceOnUse" class="C"><feFlood class="D"/><feBlend in="SourceGraphic"/><feGaussianBlur stdDeviation=".2"/></filter><filter id="T" x="201.908" y="31.07" width="9.002" height="9" filterUnits="userSpaceOnUse" class="C"><feFlood class="D"/><feBlend in="SourceGraphic"/><feGaussianBlur stdDeviation="2"/></filter><filter id="U" x="313.469" y="99.961" width="8" height="8.008" filterUnits="userSpaceOnUse" class="C"><feFlood class="D"/><feBlend in="SourceGraphic"/><feGaussianBlur stdDeviation="1.5"/></filter><filter id="V" x="177.439" y="96.516" width="10" height="10.008" filterUnits="userSpaceOnUse" class="C"><feFlood class="D"/><feBlend in="SourceGraphic"/><feGaussianBlur stdDeviation="2"/></filter><filter id="W" x="155.004" y="14.297" width="8" height="8" filterUnits="userSpaceOnUse" class="C"><feFlood class="D"/><feBlend in="SourceGraphic"/><feGaussianBlur stdDeviation="1.5"/></filter><filter id="X" x="282.254" y="29.764" width="1.8" height="1.8" filterUnits="userSpaceOnUse" class="C"><feFlood class="D"/><feBlend in="SourceGraphic"/><feGaussianBlur stdDeviation=".2"/></filter><filter id="Y" x="278.654" y="26.164" width="9" height="9" filterUnits="userSpaceOnUse" class="C"><feFlood class="D"/><feBlend in="SourceGraphic"/><feGaussianBlur stdDeviation="2"/></filter><filter id="Z" x="251.498" y="53.18" width="9.002" height="9" filterUnits="userSpaceOnUse" class="C"><feFlood class="D"/><feBlend in="SourceGraphic"/><feGaussianBlur stdDeviation="2"/></filter><filter id="a" x="331.645" y="50.961" width="7.002" height="7" filterUnits="userSpaceOnUse" class="C"><feFlood class="D"/><feBlend in="SourceGraphic"/><feGaussianBlur stdDeviation="1.5"/></filter><filter id="b" x="257.729" y="196.734" width="3" height="3" filterUnits="userSpaceOnUse" class="C"><feFlood class="D"/><feBlend in="SourceGraphic"/><feGaussianBlur stdDeviation=".5"/></filter><filter id="c" x="254.729" y="193.734" width="9" height="9" filterUnits="userSpaceOnUse" class="C"><feFlood class="D"/><feBlend in="SourceGraphic"/><feGaussianBlur stdDeviation="2"/></filter><filter id="d" x="219.105" y="144.344" width="3" height="3" filterUnits="userSpaceOnUse" class="C"><feFlood class="D"/><feBlend in="SourceGraphic"/><feGaussianBlur stdDeviation=".25"/></filter><filter id="e" x="215.605" y="140.844" width="10" height="10" filterUnits="userSpaceOnUse" class="C"><feFlood class="D"/><feBlend in="SourceGraphic"/><feGaussianBlur stdDeviation="2"/></filter><filter id="f" x="136.713" y="138.047" width="7" height="7" filterUnits="userSpaceOnUse" class="C"><feFlood class="D"/><feBlend in="SourceGraphic"/><feGaussianBlur stdDeviation="1.5"/></filter><filter id="g" x="383.893" y="39.602" width="8" height="8.008" filterUnits="userSpaceOnUse" class="C"><feFlood class="D"/><feBlend in="SourceGraphic"/><feGaussianBlur stdDeviation="1.5"/></filter><linearGradient id="h" x1="454.865" y1="-41.27" x2="454.865" y2="272.373" xlink:href="#q"><stop stop-color="#1d1e23"/><stop offset="1" stop-color="#0f1013"/></linearGradient><radialGradient id="i" cx="0" cy="0" r="1" gradientTransform="translate(327.51 205.619) rotate(-127.964) scale(19.5858 13.9899)" xlink:href="#q"><stop stop-color="#4d229c"/><stop offset="1" stop-color="#7e5bc0"/></radialGradient><radialGradient id="j" cx="0" cy="0" r="1" gradientTransform="translate(11.2576 16.6071) rotate(-127.966) scale(19.5906 13.9936)" xlink:href="#q"><stop stop-color="#4d229c"/><stop offset="1" stop-color="#7e5bc0"/></radialGradient><radialGradient id="k" cx="0" cy="0" r="1" gradientTransform="translate(11.2576 16.6071) rotate(-127.966) scale(19.5906 13.9936)" xlink:href="#q"><stop stop-color="#194183"/><stop offset="1" stop-color="#5f87c9"/></radialGradient><radialGradient id="l" cx="0" cy="0" r="1" gradientTransform="translate(327.537 308.177) rotate(-127.967) scale(19.5906 13.9936)" xlink:href="#q"><stop stop-color="#194183"/><stop offset="1" stop-color="#5f87c9"/></radialGradient><radialGradient id="m" cx="0" cy="0" r="1" gradientTransform="translate(11.2576 16.6071) rotate(-127.966) scale(19.5906 13.9936)" xlink:href="#q"><stop stop-color="#18258d"/><stop offset="1" stop-color="#525ebe"/></radialGradient><linearGradient id="n" x1="79.574" y1="60.174" x2="79.574" y2="307.687" xlink:href="#q"><stop stop-color="#1d1e23"/><stop offset="1" stop-color="#0f1013"/></linearGradient><linearGradient id="o" x1="291.214" y1="-25.989" x2="316.152" y2="295.652" xlink:href="#q"><stop offset=".095" stop-color="#fff"/><stop offset=".409" stop-color="#a0a4b4" stop-opacity=".938"/><stop offset="1" stop-color="#707585" stop-opacity=".72"/></linearGradient><clipPath id="p"><path transform="translate(0 .406)" d="M0 0h527v398H0z" class="I"/></clipPath><linearGradient id="q" gradientUnits="userSpaceOnUse"/></defs></svg>