<svg width="804" height="452" viewBox="0 0 804 452" fill="none" xmlns="http://www.w3.org/2000/svg">
<g clip-path="url(#clip0_3069_4458)">
<mask id="mask0_3069_4458" style="mask-type:alpha" maskUnits="userSpaceOnUse" x="2" y="0" width="802" height="446">
<rect x="2" width="802" height="446" fill="url(#paint0_radial_3069_4458)"/>
</mask>
<g mask="url(#mask0_3069_4458)">
<circle cx="402" cy="44" r="399.5" fill="#303136" fill-opacity="0.2" stroke="#26282E"/>
<circle cx="402.001" cy="43.9974" r="292.833" fill="#303136" fill-opacity="0.3" stroke="#26282E"/>
<circle cx="402.001" cy="43.9948" r="186.167" fill="#303136" fill-opacity="0.3" stroke="#26282E"/>
<circle cx="402" cy="44" r="79.5" fill="#303136" fill-opacity="0.3" stroke="#26282E"/>
</g>
<rect x="253" y="109" width="298" height="298.866" rx="6.06395" fill="url(#paint1_linear_3069_4458)"/>
<path fill-rule="evenodd" clip-rule="evenodd" d="M401.998 130.016C400.602 130.016 399.47 130.514 398.49 131.049C398.191 131.213 397.915 131.374 397.651 131.527C397.011 131.9 396.449 132.227 395.829 132.436C395.463 132.559 395.135 132.67 394.903 132.766C394.683 132.857 394.418 132.983 394.232 133.202C394.067 133.395 393.984 133.61 393.929 133.814C393.878 134 393.835 134.253 393.793 134.498C392.782 140.42 394.986 146.06 400.435 148.262C400.967 148.477 401.372 148.641 402.001 148.641C402.63 148.641 403.035 148.477 403.567 148.262C409.016 146.06 411.218 140.42 410.206 134.498C410.164 134.253 410.121 134 410.071 133.814C410.016 133.61 409.932 133.395 409.767 133.202C409.581 132.983 409.316 132.857 409.096 132.766C408.864 132.67 408.536 132.559 408.17 132.436C407.55 132.227 406.987 131.9 406.346 131.527C406.083 131.374 405.807 131.213 405.508 131.049C404.528 130.514 403.395 130.016 401.998 130.016ZM404.157 142.049C403.903 142.303 403.492 142.303 403.238 142.049C403.097 141.908 403.034 141.718 403.05 141.534C403.056 141.467 403.035 141.397 402.983 141.354C402.937 141.316 402.889 141.276 402.84 141.235C402.632 141.061 402.393 140.858 402.147 140.638C402.078 140.577 401.973 140.579 401.908 140.645L399.796 142.756C399.458 143.094 398.91 143.094 398.571 142.756C398.233 142.418 398.233 141.869 398.571 141.531L400.683 139.42C400.748 139.354 400.75 139.249 400.689 139.18C400.47 138.934 400.266 138.696 400.092 138.487C400.051 138.438 400.011 138.39 399.973 138.344C399.93 138.292 399.861 138.271 399.793 138.277C399.609 138.293 399.419 138.23 399.278 138.089C399.024 137.836 399.024 137.424 399.278 137.171L401.478 134.97C401.731 134.717 402.143 134.717 402.397 134.97C402.538 135.112 402.6 135.301 402.584 135.486C402.579 135.553 402.599 135.623 402.652 135.666C402.697 135.704 402.745 135.743 402.794 135.785C403.216 136.136 403.762 136.611 404.239 137.088C404.716 137.565 405.191 138.111 405.543 138.533C405.584 138.582 405.623 138.63 405.661 138.676C405.704 138.728 405.774 138.748 405.841 138.743C406.026 138.727 406.216 138.789 406.357 138.931C406.61 139.184 406.61 139.596 406.357 139.849L404.157 142.049Z" fill="#F4F8FC"/>
<path d="M359.947 176.914H356.958V168.094H360.007C360.883 168.094 361.635 168.27 362.264 168.624C362.895 168.974 363.381 169.478 363.72 170.135C364.058 170.793 364.228 171.579 364.228 172.495C364.228 173.414 364.057 174.204 363.715 174.864C363.376 175.524 362.887 176.031 362.247 176.384C361.609 176.737 360.843 176.914 359.947 176.914ZM358.556 175.532H359.869C360.484 175.532 360.996 175.42 361.407 175.196C361.817 174.969 362.126 174.631 362.333 174.184C362.539 173.733 362.643 173.17 362.643 172.495C362.643 171.821 362.539 171.261 362.333 170.816C362.126 170.368 361.82 170.033 361.415 169.812C361.013 169.588 360.514 169.476 359.917 169.476H358.556V175.532ZM368.562 177.043C367.916 177.043 367.357 176.901 366.883 176.617C366.409 176.333 366.042 175.935 365.78 175.424C365.522 174.913 365.393 174.316 365.393 173.632C365.393 172.949 365.522 172.35 365.78 171.836C366.042 171.322 366.409 170.923 366.883 170.639C367.357 170.355 367.916 170.213 368.562 170.213C369.209 170.213 369.768 170.355 370.242 170.639C370.716 170.923 371.082 171.322 371.34 171.836C371.602 172.35 371.732 172.949 371.732 173.632C371.732 174.316 371.602 174.913 371.34 175.424C371.082 175.935 370.716 176.333 370.242 176.617C369.768 176.901 369.209 177.043 368.562 177.043ZM368.571 175.794C368.921 175.794 369.214 175.698 369.45 175.506C369.685 175.311 369.86 175.049 369.975 174.722C370.093 174.395 370.152 174.03 370.152 173.628C370.152 173.223 370.093 172.857 369.975 172.53C369.86 172.2 369.685 171.937 369.45 171.742C369.214 171.546 368.921 171.449 368.571 171.449C368.212 171.449 367.914 171.546 367.675 171.742C367.44 171.937 367.263 172.2 367.146 172.53C367.031 172.857 366.973 173.223 366.973 173.628C366.973 174.03 367.031 174.395 367.146 174.722C367.263 175.049 367.44 175.311 367.675 175.506C367.914 175.698 368.212 175.794 368.571 175.794ZM375.941 177.043C375.281 177.043 374.714 176.898 374.24 176.608C373.769 176.318 373.406 175.918 373.15 175.407C372.898 174.893 372.771 174.301 372.771 173.632C372.771 172.96 372.901 172.368 373.159 171.854C373.417 171.337 373.782 170.935 374.253 170.648C374.727 170.358 375.286 170.213 375.932 170.213C376.469 170.213 376.945 170.312 377.358 170.51C377.774 170.705 378.106 170.982 378.353 171.341C378.6 171.697 378.741 172.113 378.775 172.59H377.285C377.225 172.271 377.081 172.006 376.854 171.793C376.63 171.578 376.33 171.47 375.954 171.47C375.635 171.47 375.355 171.556 375.114 171.729C374.873 171.898 374.685 172.142 374.55 172.461C374.418 172.78 374.352 173.161 374.352 173.606C374.352 174.057 374.418 174.445 374.55 174.769C374.682 175.091 374.867 175.339 375.106 175.514C375.347 175.687 375.63 175.773 375.954 175.773C376.184 175.773 376.389 175.73 376.57 175.644C376.754 175.555 376.907 175.427 377.031 175.26C377.154 175.094 377.239 174.891 377.285 174.653H378.775C378.738 175.121 378.6 175.536 378.362 175.898C378.123 176.257 377.799 176.538 377.388 176.742C376.978 176.943 376.495 177.043 375.941 177.043ZM384.271 174.132V170.299H385.831V176.914H384.319V175.738H384.25C384.101 176.109 383.855 176.412 383.513 176.647C383.175 176.882 382.757 177 382.26 177C381.827 177 381.443 176.904 381.11 176.712C380.78 176.516 380.522 176.234 380.335 175.863C380.148 175.49 380.055 175.039 380.055 174.511V170.299H381.614V174.27C381.614 174.689 381.729 175.022 381.959 175.269C382.188 175.516 382.49 175.639 382.863 175.639C383.093 175.639 383.315 175.583 383.531 175.471C383.746 175.359 383.923 175.193 384.06 174.972C384.201 174.748 384.271 174.468 384.271 174.132ZM387.434 176.914V170.299H388.924V171.423H389.001C389.139 171.044 389.367 170.748 389.686 170.536C390.005 170.32 390.385 170.213 390.827 170.213C391.275 170.213 391.653 170.322 391.96 170.54C392.27 170.755 392.488 171.05 392.615 171.423H392.684C392.83 171.055 393.077 170.763 393.424 170.544C393.775 170.323 394.19 170.213 394.669 170.213C395.278 170.213 395.775 170.405 396.159 170.79C396.544 171.175 396.736 171.736 396.736 172.474V176.914H395.173V172.715C395.173 172.304 395.064 172.004 394.846 171.815C394.628 171.622 394.36 171.526 394.045 171.526C393.669 171.526 393.374 171.644 393.162 171.879C392.952 172.112 392.847 172.415 392.847 172.788V176.914H391.318V172.65C391.318 172.309 391.215 172.036 391.008 171.832C390.805 171.628 390.538 171.526 390.207 171.526C389.983 171.526 389.78 171.584 389.596 171.699C389.412 171.811 389.266 171.97 389.156 172.177C389.047 172.38 388.993 172.619 388.993 172.892V176.914H387.434ZM401.247 177.043C400.583 177.043 400.011 176.905 399.528 176.63C399.049 176.351 398.68 175.958 398.421 175.45C398.163 174.939 398.034 174.337 398.034 173.645C398.034 172.965 398.163 172.368 398.421 171.854C398.683 171.337 399.047 170.935 399.515 170.648C399.983 170.358 400.533 170.213 401.165 170.213C401.573 170.213 401.957 170.279 402.319 170.411C402.684 170.54 403.005 170.741 403.284 171.014C403.565 171.287 403.786 171.634 403.947 172.056C404.108 172.475 404.188 172.975 404.188 173.555V174.033H398.766V172.982H402.694C402.691 172.683 402.626 172.418 402.5 172.185C402.374 171.95 402.197 171.765 401.97 171.63C401.746 171.495 401.485 171.427 401.186 171.427C400.868 171.427 400.588 171.505 400.347 171.66C400.105 171.812 399.917 172.013 399.782 172.263C399.65 172.51 399.583 172.781 399.58 173.077V173.994C399.58 174.379 399.65 174.709 399.791 174.985C399.932 175.257 400.128 175.467 400.381 175.613C400.634 175.757 400.929 175.829 401.268 175.829C401.495 175.829 401.7 175.797 401.884 175.734C402.068 175.668 402.227 175.572 402.362 175.445C402.497 175.319 402.599 175.163 402.668 174.976L404.124 175.14C404.032 175.524 403.857 175.86 403.598 176.147C403.343 176.432 403.015 176.653 402.616 176.811C402.217 176.966 401.761 177.043 401.247 177.043ZM407.066 173.038V176.914H405.507V170.299H406.997V171.423H407.075C407.227 171.053 407.47 170.758 407.803 170.54C408.139 170.322 408.554 170.213 409.047 170.213C409.504 170.213 409.902 170.31 410.24 170.506C410.582 170.701 410.846 170.984 411.033 171.354C411.222 171.724 411.316 172.174 411.313 172.702V176.914H409.754V172.943C409.754 172.501 409.639 172.155 409.409 171.905C409.182 171.655 408.868 171.531 408.466 171.531C408.193 171.531 407.951 171.591 407.738 171.711C407.528 171.829 407.363 172 407.243 172.224C407.125 172.448 407.066 172.719 407.066 173.038ZM416.201 170.299V171.505H412.398V170.299H416.201ZM413.337 168.714H414.896V174.924C414.896 175.134 414.928 175.295 414.991 175.407C415.057 175.516 415.143 175.59 415.249 175.631C415.355 175.671 415.473 175.691 415.602 175.691C415.7 175.691 415.789 175.684 415.869 175.669C415.953 175.655 416.016 175.642 416.059 175.631L416.322 176.849C416.238 176.878 416.119 176.91 415.964 176.944C415.812 176.979 415.625 176.999 415.404 177.005C415.014 177.016 414.662 176.957 414.349 176.828C414.036 176.696 413.788 176.492 413.604 176.216C413.423 175.941 413.334 175.596 413.337 175.183V168.714ZM422.072 168.094V176.914H420.513V168.094H422.072ZM426.604 177.043C425.941 177.043 425.368 176.905 424.886 176.63C424.406 176.351 424.037 175.958 423.779 175.45C423.52 174.939 423.391 174.337 423.391 173.645C423.391 172.965 423.52 172.368 423.779 171.854C424.04 171.337 424.405 170.935 424.873 170.648C425.341 170.358 425.89 170.213 426.522 170.213C426.93 170.213 427.315 170.279 427.676 170.411C428.041 170.54 428.363 170.741 428.641 171.014C428.922 171.287 429.144 171.634 429.304 172.056C429.465 172.475 429.545 172.975 429.545 173.555V174.033H424.123V172.982H428.051C428.048 172.683 427.984 172.418 427.857 172.185C427.731 171.95 427.554 171.765 427.327 171.63C427.104 171.495 426.842 171.427 426.544 171.427C426.225 171.427 425.945 171.505 425.704 171.66C425.463 171.812 425.275 172.013 425.14 172.263C425.008 172.51 424.94 172.781 424.937 173.077V173.994C424.937 174.379 425.008 174.709 425.148 174.985C425.289 175.257 425.486 175.467 425.738 175.613C425.991 175.757 426.287 175.829 426.625 175.829C426.852 175.829 427.058 175.797 427.241 175.734C427.425 175.668 427.584 175.572 427.719 175.445C427.854 175.319 427.956 175.163 428.025 174.976L429.481 175.14C429.389 175.524 429.214 175.86 428.955 176.147C428.7 176.432 428.373 176.653 427.974 176.811C427.574 176.966 427.118 177.043 426.604 177.043ZM433.741 179.533C433.181 179.533 432.701 179.457 432.299 179.304C431.897 179.155 431.574 178.954 431.33 178.701C431.086 178.449 430.916 178.169 430.821 177.862L432.225 177.521C432.289 177.651 432.38 177.778 432.501 177.905C432.622 178.034 432.784 178.14 432.988 178.223C433.194 178.309 433.454 178.353 433.767 178.353C434.209 178.353 434.575 178.245 434.865 178.03C435.155 177.817 435.3 177.467 435.3 176.979V175.725H435.223C435.143 175.886 435.025 176.051 434.87 176.221C434.718 176.39 434.515 176.532 434.263 176.647C434.013 176.762 433.698 176.819 433.319 176.819C432.811 176.819 432.35 176.7 431.937 176.462C431.526 176.221 431.199 175.862 430.955 175.385C430.714 174.906 430.593 174.306 430.593 173.585C430.593 172.859 430.714 172.246 430.955 171.746C431.199 171.243 431.528 170.863 431.941 170.605C432.355 170.343 432.815 170.213 433.324 170.213C433.711 170.213 434.03 170.279 434.28 170.411C434.532 170.54 434.733 170.697 434.883 170.88C435.032 171.061 435.145 171.232 435.223 171.393H435.309V170.299H436.847V177.022C436.847 177.587 436.712 178.055 436.442 178.426C436.172 178.796 435.803 179.073 435.335 179.257C434.867 179.441 434.336 179.533 433.741 179.533ZM433.754 175.596C434.084 175.596 434.366 175.516 434.598 175.355C434.831 175.194 435.008 174.963 435.128 174.662C435.249 174.36 435.309 173.998 435.309 173.576C435.309 173.16 435.249 172.795 435.128 172.482C435.01 172.169 434.835 171.927 434.603 171.755C434.373 171.579 434.09 171.492 433.754 171.492C433.407 171.492 433.117 171.582 432.884 171.763C432.652 171.944 432.477 172.192 432.359 172.508C432.241 172.821 432.182 173.177 432.182 173.576C432.182 173.981 432.241 174.336 432.359 174.64C432.479 174.942 432.656 175.177 432.889 175.346C433.124 175.513 433.413 175.596 433.754 175.596ZM440.348 177.048C439.929 177.048 439.551 176.973 439.215 176.824C438.882 176.671 438.618 176.447 438.423 176.152C438.23 175.856 438.134 175.491 438.134 175.058C438.134 174.685 438.203 174.376 438.341 174.132C438.479 173.888 438.667 173.693 438.905 173.546C439.144 173.4 439.412 173.289 439.711 173.215C440.012 173.137 440.324 173.081 440.645 173.047C441.033 173.006 441.347 172.97 441.588 172.939C441.83 172.904 442.005 172.853 442.114 172.784C442.226 172.712 442.282 172.602 442.282 172.452V172.426C442.282 172.102 442.186 171.851 441.993 171.673C441.801 171.495 441.524 171.406 441.162 171.406C440.78 171.406 440.477 171.489 440.253 171.655C440.032 171.822 439.883 172.019 439.805 172.246L438.35 172.039C438.464 171.637 438.654 171.301 438.918 171.031C439.182 170.758 439.505 170.554 439.887 170.419C440.269 170.282 440.691 170.213 441.153 170.213C441.472 170.213 441.789 170.25 442.105 170.325C442.421 170.399 442.71 170.523 442.971 170.695C443.232 170.864 443.442 171.096 443.6 171.388C443.76 171.681 443.841 172.047 443.841 172.487V176.914H442.342V176.005H442.29C442.196 176.189 442.062 176.361 441.89 176.522C441.72 176.68 441.507 176.808 441.248 176.905C440.993 177 440.693 177.048 440.348 177.048ZM440.753 175.902C441.066 175.902 441.337 175.84 441.567 175.717C441.797 175.59 441.973 175.424 442.097 175.217C442.223 175.01 442.286 174.785 442.286 174.541V173.761C442.237 173.802 442.154 173.839 442.036 173.873C441.921 173.908 441.792 173.938 441.649 173.964C441.505 173.99 441.363 174.013 441.222 174.033C441.082 174.053 440.96 174.07 440.856 174.085C440.624 174.116 440.415 174.168 440.232 174.24C440.048 174.311 439.903 174.412 439.797 174.541C439.69 174.667 439.637 174.831 439.637 175.032C439.637 175.319 439.742 175.536 439.952 175.682C440.161 175.829 440.428 175.902 440.753 175.902ZM446.968 168.094V176.914H445.408V168.094H446.968Z" fill="white"/>
<g clip-path="url(#clip1_3069_4458)">
<rect x="279.854" y="203.43" width="243.424" height="12.9942" fill="#0F1014"/>
<rect x="279.854" y="216.43" width="168.058" height="49.3779" fill="#15171D"/>
<rect x="447.912" y="216.43" width="75.3663" height="49.3779" fill="#181A20"/>
</g>
<rect x="281.588" y="283.125" width="241.692" height="7.79651" fill="#16171D"/>
<rect x="281.588" y="296.125" width="241.692" height="7.79651" fill="#16171D"/>
<rect x="281.588" y="309.117" width="241.692" height="7.79651" fill="#16171D"/>
<rect x="281.588" y="322.109" width="203.576" height="7.79651" fill="#16171D"/>
<path d="M403.877 312.328C313.89 314.939 216.526 296.918 143.524 244.388L392.024 -96.1857L673.815 244.43C638.967 272.662 594.11 288.98 546.696 298.566C499.107 308.187 448.979 311.019 403.877 312.328Z" fill="url(#paint2_radial_3069_4458)" stroke="url(#paint3_linear_3069_4458)"/>
<g opacity="0.1" filter="url(#filter0_f_3069_4458)">
<path d="M308 279.473C335.66 324.576 372.587 340.025 406.692 337.791C440.798 335.557 482.545 328.121 509 279.473L402.197 -12L308 279.473Z" fill="#707585"/>
</g>
<g opacity="0.6" filter="url(#filter1_f_3069_4458)">
<path d="M671.642 229.942C669.173 224.468 522.117 42.7422 448.898 -47.4363L349.419 -131.731L425.341 -21.6104L653.007 238.382L725.026 311.959C708.26 286.901 674.111 235.416 671.642 229.942Z" fill="#707585"/>
</g>
<g opacity="0.6" filter="url(#filter2_f_3069_4458)">
<path d="M196.986 204.411C201.553 200.511 334.975 8.55249 401.115 -86.9394L454.271 -206.003L369.737 -102.346L183.677 188.874L133.143 278.577C152.521 255.48 192.42 208.31 196.986 204.411Z" fill="#707585"/>
</g>
</g>
<defs>
<filter id="filter0_f_3069_4458" x="253" y="-67" width="311" height="460" filterUnits="userSpaceOnUse" color-interpolation-filters="sRGB">
<feFlood flood-opacity="0" result="BackgroundImageFix"/>
<feBlend mode="normal" in="SourceGraphic" in2="BackgroundImageFix" result="shape"/>
<feGaussianBlur stdDeviation="27.5" result="effect1_foregroundBlur_3069_4458"/>
</filter>
<filter id="filter1_f_3069_4458" x="290.128" y="-191.027" width="494.19" height="562.28" filterUnits="userSpaceOnUse" color-interpolation-filters="sRGB">
<feFlood flood-opacity="0" result="BackgroundImageFix"/>
<feBlend mode="normal" in="SourceGraphic" in2="BackgroundImageFix" result="shape"/>
<feGaussianBlur stdDeviation="29.6462" result="effect1_foregroundBlur_3069_4458"/>
</filter>
<filter id="filter2_f_3069_4458" x="73.8503" y="-265.292" width="439.714" height="603.163" filterUnits="userSpaceOnUse" color-interpolation-filters="sRGB">
<feFlood flood-opacity="0" result="BackgroundImageFix"/>
<feBlend mode="normal" in="SourceGraphic" in2="BackgroundImageFix" result="shape"/>
<feGaussianBlur stdDeviation="29.6462" result="effect1_foregroundBlur_3069_4458"/>
</filter>
<radialGradient id="paint0_radial_3069_4458" cx="0" cy="0" r="1" gradientUnits="userSpaceOnUse" gradientTransform="translate(403 13.6642) rotate(90) scale(432.336 976.785)">
<stop stop-color="#D9D9D9" stop-opacity="0.7"/>
<stop offset="1" stop-color="#D9D9D9" stop-opacity="0"/>
</radialGradient>
<linearGradient id="paint1_linear_3069_4458" x1="402" y1="109" x2="402" y2="388.5" gradientUnits="userSpaceOnUse">
<stop stop-color="#07080B"/>
<stop offset="1" stop-color="#0D0F14" stop-opacity="0"/>
</linearGradient>
<radialGradient id="paint2_radial_3069_4458" cx="0" cy="0" r="1" gradientUnits="userSpaceOnUse" gradientTransform="translate(392.002 -96.9944) rotate(90) scale(382.994 382.995)">
<stop stop-color="#707585" stop-opacity="0.2"/>
<stop offset="1" stop-color="#707585" stop-opacity="0"/>
</radialGradient>
<linearGradient id="paint3_linear_3069_4458" x1="379.983" y1="237" x2="379.983" y2="70" gradientUnits="userSpaceOnUse">
<stop stop-color="#F4F8FC" stop-opacity="0"/>
<stop offset="0.5" stop-color="#F4F8FC" stop-opacity="0.21"/>
<stop offset="1" stop-color="#F4F8FC" stop-opacity="0"/>
</linearGradient>
<clipPath id="clip0_3069_4458">
<rect width="804" height="452" fill="white"/>
</clipPath>
<clipPath id="clip1_3069_4458">
<rect x="279.854" y="203.43" width="243.424" height="62.3721" rx="4.3314" fill="white"/>
</clipPath>
</defs>
</svg>
