<svg width="527" height="398" viewBox="0 0 527 398" fill="none" xmlns="http://www.w3.org/2000/svg">
<g clip-path="url(#clip0_2017_85606)">
<g filter="url(#filter0_f_2017_85606)">
<rect x="185" y="128" width="350" height="261" fill="#2B2E38"/>
</g>
<g clip-path="url(#clip1_2017_85606)">
<rect x="172" y="115.141" width="451" height="282.86" rx="10" fill="url(#paint0_linear_2017_85606)"/>
<circle cx="188" cy="132.141" r="4" fill="#37393F"/>
<circle cx="203.361" cy="132.141" r="4" fill="#37393F"/>
<circle cx="218.361" cy="132.141" r="4" fill="#37393F"/>
<line x1="172" y1="146.641" x2="623" y2="146.641" stroke="#24262C"/>
<rect x="203" y="242.141" width="131" height="79" rx="3.50291" fill="#08090C"/>
<rect x="203.5" y="242.641" width="130" height="78" rx="3.00291" stroke="white" stroke-opacity="0.03"/>
<rect x="202.65" y="330.141" width="131.359" height="8.75728" rx="3.50291" fill="url(#paint1_radial_2017_85606)"/>
<rect x="203" y="180.141" width="238" height="17" rx="3.50291" fill="url(#paint2_radial_2017_85606)"/>
<rect x="203" y="207.141" width="127" height="7" rx="1" fill="url(#paint3_radial_2017_85606)"/>
<rect x="203" y="220.141" width="127" height="7" rx="1" fill="url(#paint4_radial_2017_85606)"/>
<rect x="202.65" y="345.023" width="75.3126" height="8.75728" rx="3.50291" fill="url(#paint5_radial_2017_85606)"/>
<rect x="348" y="242.141" width="131" height="79" rx="3.50291" fill="url(#paint6_radial_2017_85606)"/>
<rect x="348.5" y="242.641" width="130" height="78" rx="3.00291" stroke="white" stroke-opacity="0.03"/>
<rect x="493" y="242.141" width="132" height="79" rx="3.50291" fill="url(#paint7_radial_2017_85606)"/>
<rect x="493.5" y="242.641" width="131" height="78" rx="3.00291" stroke="white" stroke-opacity="0.03"/>
<rect x="348" y="330.141" width="102" height="9" rx="3.50291" fill="url(#paint8_radial_2017_85606)"/>
<rect x="493.393" y="330.141" width="131.359" height="8.75728" rx="3.50291" fill="url(#paint9_radial_2017_85606)"/>
<rect x="348.021" y="345.461" width="75.3126" height="8.75728" rx="3.50291" fill="url(#paint10_radial_2017_85606)"/>
<rect x="493.393" y="345.023" width="75.3126" height="8.75728" rx="3.50291" fill="url(#paint11_radial_2017_85606)"/>
<g opacity="0.3">
<g opacity="0.72" filter="url(#filter1_f_2017_85606)">
<circle cx="1" cy="1" r="1" transform="matrix(0.999894 -0.0145771 0.0142721 0.999898 290.885 153.836)" fill="#F4F8FC"/>
</g>
<g opacity="0.6" filter="url(#filter2_f_2017_85606)">
<circle cx="1" cy="1" r="1" transform="matrix(0.999894 -0.0145771 0.0142721 0.999898 290.885 153.836)" fill="#F4F8FC"/>
</g>
</g>
<g opacity="0.6" filter="url(#filter3_f_2017_85606)">
<circle cx="0.5" cy="0.5" r="0.5" transform="matrix(0.999894 -0.0145771 0.0142721 0.999898 241 136.648)" fill="#F4F8FC"/>
</g>
<g opacity="0.6" filter="url(#filter4_f_2017_85606)">
<circle cx="1" cy="1" r="1" transform="matrix(0.999894 -0.0145771 0.0142721 0.999898 276.08 111.055)" fill="#F4F8FC"/>
</g>
</g>
<rect x="172.5" y="115.641" width="450" height="281.86" rx="9.5" stroke="white" stroke-opacity="0.03"/>
<g filter="url(#filter5_d_2017_85606)">
<rect x="75.6035" y="205.883" width="162.938" height="110.798" rx="4" transform="rotate(-9.15735 75.6035 205.883)" fill="#EAEDF0" shape-rendering="crispEdges"/>
<rect x="76.1767" y="206.297" width="161.938" height="109.798" rx="3.5" transform="rotate(-9.15735 76.1767 206.297)" stroke="#E4E5E7" stroke-opacity="0.3" shape-rendering="crispEdges"/>
<path d="M106.434 224.627L107.943 233.986L106.234 234.261L101.213 229.027L101.144 229.038L102.094 234.929L100.115 235.248L98.6061 225.888L100.343 225.609L105.331 230.843L105.414 230.83L104.465 224.944L106.434 224.627ZM112.735 233.354C112.025 233.468 111.387 233.417 110.82 233.198C110.256 232.977 109.791 232.617 109.423 232.12C109.055 231.62 108.813 231.01 108.697 230.291C108.58 229.566 108.618 228.91 108.811 228.323C109.003 227.732 109.332 227.245 109.799 226.86C110.267 226.472 110.857 226.22 111.567 226.106C112.277 225.992 112.913 226.045 113.477 226.267C114.044 226.485 114.511 226.844 114.88 227.344C115.247 227.841 115.49 228.453 115.606 229.178C115.722 229.897 115.684 230.551 115.492 231.142C115.299 231.729 114.968 232.217 114.499 232.605C114.033 232.99 113.445 233.239 112.735 233.354ZM112.501 231.844C112.824 231.792 113.079 231.657 113.266 231.44C113.452 231.219 113.574 230.94 113.632 230.602C113.694 230.264 113.691 229.891 113.625 229.483C113.56 229.075 113.445 228.72 113.28 228.418C113.119 228.116 112.915 227.889 112.669 227.738C112.423 227.587 112.138 227.538 111.815 227.59C111.489 227.642 111.23 227.779 111.038 228.001C110.848 228.222 110.723 228.502 110.662 228.84C110.604 229.178 110.607 229.551 110.673 229.959C110.739 230.367 110.853 230.722 111.014 231.024C111.178 231.326 111.385 231.552 111.634 231.703C111.886 231.85 112.175 231.897 112.501 231.844ZM122.465 226.497L120.701 226.894C120.646 226.746 120.558 226.62 120.438 226.514C120.317 226.405 120.169 226.328 119.992 226.281C119.819 226.231 119.619 226.224 119.393 226.26C119.092 226.309 118.848 226.414 118.661 226.575C118.474 226.734 118.398 226.918 118.432 227.128C118.459 227.296 118.548 227.426 118.701 227.521C118.854 227.615 119.099 227.671 119.436 227.688L120.748 227.739C121.453 227.769 121.998 227.913 122.383 228.17C122.768 228.426 123.002 228.808 123.083 229.313C123.157 229.773 123.087 230.199 122.872 230.59C122.66 230.98 122.335 231.311 121.897 231.582C121.462 231.849 120.94 232.031 120.33 232.13C119.401 232.279 118.63 232.205 118.016 231.907C117.404 231.606 116.998 231.127 116.795 230.472L118.694 230.063C118.797 230.337 118.972 230.531 119.219 230.644C119.465 230.755 119.761 230.782 120.109 230.726C120.45 230.671 120.713 230.561 120.9 230.397C121.088 230.229 121.167 230.039 121.136 229.829C121.105 229.653 121.007 229.52 120.842 229.431C120.677 229.339 120.438 229.287 120.123 229.275L118.869 229.228C118.161 229.202 117.612 229.047 117.223 228.762C116.836 228.478 116.601 228.073 116.516 227.549C116.443 227.098 116.503 226.69 116.694 226.325C116.888 225.959 117.193 225.652 117.61 225.404C118.029 225.155 118.539 224.982 119.139 224.885C120.026 224.742 120.753 224.817 121.323 225.11C121.895 225.402 122.276 225.864 122.465 226.497ZM132.67 224.852L130.905 225.249C130.85 225.101 130.763 224.975 130.642 224.869C130.522 224.76 130.373 224.683 130.197 224.636C130.023 224.586 129.824 224.579 129.598 224.615C129.296 224.664 129.052 224.769 128.866 224.93C128.679 225.089 128.602 225.273 128.636 225.483C128.663 225.651 128.753 225.782 128.906 225.876C129.058 225.97 129.303 226.026 129.641 226.043L130.952 226.094C131.657 226.124 132.203 226.268 132.588 226.525C132.973 226.781 133.206 227.163 133.288 227.668C133.362 228.128 133.292 228.554 133.076 228.945C132.864 229.335 132.539 229.666 132.102 229.937C131.666 230.204 131.144 230.386 130.535 230.485C129.606 230.634 128.834 230.56 128.22 230.262C127.609 229.961 127.202 229.482 127 228.827L128.898 228.418C129.002 228.692 129.177 228.886 129.423 228.999C129.669 229.11 129.966 229.137 130.313 229.081C130.654 229.026 130.918 228.916 131.104 228.752C131.293 228.584 131.372 228.395 131.341 228.184C131.309 228.008 131.211 227.875 131.047 227.786C130.882 227.694 130.642 227.642 130.328 227.63L129.073 227.583C128.366 227.557 127.817 227.402 127.427 227.117C127.041 226.833 126.805 226.428 126.721 225.904C126.648 225.453 126.707 225.045 126.898 224.68C127.093 224.314 127.398 224.007 127.814 223.759C128.234 223.51 128.743 223.337 129.344 223.24C130.23 223.097 130.958 223.172 131.527 223.465C132.1 223.757 132.48 224.219 132.67 224.852ZM138.085 229.267C137.363 229.384 136.718 229.338 136.15 229.129C135.585 228.917 135.118 228.564 134.751 228.07C134.383 227.573 134.14 226.954 134.021 226.214C133.904 225.492 133.942 224.836 134.134 224.245C134.327 223.655 134.653 223.166 135.113 222.779C135.575 222.392 136.151 222.143 136.839 222.032C137.303 221.957 137.746 221.963 138.169 222.047C138.595 222.129 138.981 222.293 139.327 222.541C139.676 222.788 139.97 223.121 140.21 223.542C140.45 223.96 140.617 224.468 140.714 225.065L140.8 225.599L134.873 226.555L134.678 225.348L138.773 224.688C138.728 224.408 138.627 224.17 138.47 223.973C138.313 223.776 138.117 223.634 137.881 223.547C137.647 223.457 137.389 223.434 137.106 223.48C136.81 223.528 136.559 223.639 136.353 223.812C136.149 223.983 136.001 224.193 135.91 224.442C135.819 224.688 135.794 224.95 135.835 225.227L136.02 226.375C136.076 226.722 136.189 227.012 136.357 227.244C136.529 227.476 136.745 227.641 137.005 227.74C137.264 227.838 137.557 227.862 137.883 227.809C138.1 227.774 138.293 227.712 138.463 227.622C138.633 227.532 138.772 227.416 138.88 227.273C138.988 227.131 139.062 226.966 139.1 226.778L140.92 226.607C140.898 227.054 140.772 227.462 140.541 227.831C140.312 228.196 139.99 228.504 139.574 228.756C139.16 229.003 138.664 229.174 138.085 229.267ZM142.556 228.406L141.424 221.387L143.311 221.083L143.509 222.307L143.582 222.295C143.64 221.839 143.801 221.476 144.067 221.205C144.333 220.93 144.662 220.762 145.055 220.698C145.152 220.683 145.258 220.672 145.373 220.666C145.488 220.66 145.589 220.661 145.678 220.668L145.957 222.396C145.861 222.383 145.73 222.379 145.565 222.384C145.401 222.388 145.251 222.402 145.117 222.423C144.831 222.469 144.585 222.573 144.379 222.734C144.177 222.892 144.028 223.091 143.932 223.332C143.839 223.572 143.816 223.835 143.862 224.121L144.502 228.092L142.556 228.406ZM153.448 219.449L152.125 226.864L149.931 227.217L146.346 220.593L148.402 220.262L150.67 225.049L150.743 225.037L151.387 219.781L153.448 219.449ZM155.575 226.307L154.444 219.288L156.391 218.974L157.522 225.994L155.575 226.307ZM155.276 218.225C154.986 218.272 154.723 218.216 154.485 218.058C154.249 217.896 154.109 217.679 154.066 217.408C154.022 217.14 154.087 216.893 154.261 216.668C154.436 216.44 154.669 216.303 154.958 216.256C155.248 216.209 155.51 216.267 155.746 216.429C155.984 216.588 156.125 216.801 156.168 217.069C156.212 217.34 156.146 217.59 155.97 217.818C155.797 218.043 155.565 218.179 155.276 218.225ZM162.275 225.368C161.556 225.484 160.913 225.431 160.346 225.21C159.782 224.985 159.317 224.623 158.952 224.122C158.59 223.621 158.351 223.015 158.237 222.306C158.121 221.587 158.158 220.934 158.348 220.347C158.54 219.756 158.869 219.267 159.335 218.879C159.8 218.489 160.388 218.236 161.098 218.122C161.71 218.023 162.264 218.048 162.76 218.196C163.256 218.344 163.67 218.598 164.003 218.957C164.336 219.316 164.56 219.764 164.675 220.302L162.838 220.598C162.73 220.256 162.547 219.996 162.29 219.819C162.036 219.638 161.731 219.576 161.374 219.634C161.073 219.682 160.822 219.807 160.623 220.008C160.427 220.205 160.291 220.469 160.217 220.8C160.142 221.131 160.14 221.517 160.211 221.959C160.283 222.407 160.406 222.778 160.578 223.072C160.754 223.366 160.967 223.577 161.219 223.705C161.471 223.833 161.748 223.873 162.05 223.824C162.272 223.788 162.464 223.711 162.626 223.591C162.791 223.47 162.918 223.314 163.006 223.122C163.096 222.926 163.139 222.702 163.136 222.449L164.973 222.153C165.029 222.694 164.959 223.19 164.763 223.64C164.569 224.087 164.262 224.462 163.842 224.764C163.422 225.066 162.9 225.267 162.275 225.368ZM169.856 224.146C169.134 224.262 168.488 224.216 167.92 224.008C167.355 223.796 166.888 223.443 166.521 222.949C166.153 222.452 165.91 221.833 165.791 221.093C165.674 220.371 165.712 219.714 165.905 219.124C166.097 218.533 166.423 218.045 166.883 217.658C167.345 217.271 167.921 217.022 168.609 216.911C169.073 216.836 169.516 216.841 169.939 216.926C170.365 217.008 170.751 217.172 171.097 217.419C171.446 217.666 171.741 218 171.98 218.421C172.22 218.839 172.387 219.346 172.484 219.943L172.57 220.478L166.643 221.433L166.448 220.227L170.543 219.567C170.498 219.287 170.397 219.048 170.24 218.852C170.083 218.655 169.887 218.513 169.651 218.426C169.417 218.336 169.159 218.313 168.876 218.359C168.58 218.406 168.329 218.517 168.123 218.691C167.919 218.862 167.772 219.071 167.68 219.32C167.589 219.566 167.564 219.828 167.605 220.106L167.79 221.253C167.846 221.6 167.959 221.89 168.127 222.122C168.299 222.354 168.515 222.52 168.775 222.618C169.034 222.717 169.327 222.74 169.653 222.688C169.87 222.653 170.063 222.59 170.233 222.5C170.403 222.411 170.542 222.294 170.65 222.152C170.758 222.009 170.832 221.844 170.87 221.657L172.69 221.485C172.668 221.933 172.542 222.341 172.311 222.709C172.082 223.074 171.76 223.383 171.344 223.634C170.93 223.882 170.434 224.053 169.856 224.146ZM179.357 217.326L177.593 217.723C177.538 217.575 177.45 217.449 177.33 217.343C177.209 217.234 177.061 217.157 176.884 217.11C176.711 217.06 176.511 217.053 176.285 217.089C175.984 217.138 175.74 217.243 175.553 217.404C175.366 217.563 175.29 217.747 175.324 217.957C175.351 218.125 175.44 218.255 175.593 218.35C175.746 218.444 175.991 218.5 176.328 218.517L177.64 218.568C178.345 218.598 178.89 218.742 179.275 218.999C179.66 219.255 179.894 219.637 179.975 220.142C180.049 220.602 179.979 221.028 179.764 221.419C179.552 221.809 179.227 222.14 178.789 222.411C178.354 222.678 177.832 222.86 177.222 222.959C176.293 223.108 175.522 223.034 174.908 222.736C174.296 222.435 173.89 221.956 173.687 221.301L175.586 220.892C175.689 221.166 175.864 221.36 176.111 221.473C176.357 221.584 176.653 221.611 177.001 221.555C177.342 221.5 177.606 221.39 177.792 221.226C177.98 221.058 178.059 220.868 178.028 220.658C177.997 220.482 177.899 220.349 177.734 220.26C177.569 220.168 177.33 220.116 177.015 220.104L175.761 220.057C175.053 220.031 174.504 219.875 174.115 219.591C173.728 219.307 173.493 218.902 173.408 218.378C173.335 217.927 173.395 217.519 173.586 217.154C173.78 216.788 174.085 216.481 174.502 216.233C174.921 215.984 175.431 215.811 176.031 215.714C176.918 215.571 177.645 215.646 178.215 215.939C178.787 216.231 179.168 216.693 179.357 217.326Z" fill="black"/>
<rect x="101.27" y="249.062" width="108.625" height="8.69001" rx="2.1725" transform="rotate(-9.15735 101.27 249.062)" fill="#E4E5E7"/>
<rect x="103.861" y="265.148" width="108.625" height="8.69001" rx="2.1725" transform="rotate(-9.15735 103.861 265.148)" fill="#E4E5E7"/>
<rect x="106.453" y="281.227" width="78.2101" height="8.69001" rx="2.1725" transform="rotate(-9.15735 106.453 281.227)" fill="#D6D8DC"/>
</g>
<g filter="url(#filter6_d_2017_85606)">
<rect x="63" y="163.141" width="163" height="108" rx="4" fill="#F4F8FC" shape-rendering="crispEdges"/>
<rect x="63.5" y="163.641" width="162" height="107" rx="3.5" stroke="#E4E5E7" stroke-opacity="0.3" shape-rendering="crispEdges"/>
<path d="M87.5287 183.743V191.016H86.2006L83.0365 186.438H82.9832V191.016H81.4456V183.743H82.795L85.9342 188.317H85.9981V183.743H87.5287ZM91.2352 191.122C90.6836 191.122 90.2065 191.005 89.8041 190.771C89.404 190.534 89.095 190.205 88.8772 189.783C88.6594 189.36 88.5505 188.868 88.5505 188.31C88.5505 187.746 88.6594 187.254 88.8772 186.832C89.095 186.409 89.404 186.08 89.8041 185.845C90.2065 185.608 90.6836 185.49 91.2352 185.49C91.7868 185.49 92.2626 185.608 92.6627 185.845C93.0652 186.08 93.3753 186.409 93.5931 186.832C93.8109 187.254 93.9198 187.746 93.9198 188.31C93.9198 188.868 93.8109 189.36 93.5931 189.783C93.3753 190.205 93.0652 190.534 92.6627 190.771C92.2626 191.005 91.7868 191.122 91.2352 191.122ZM91.2423 189.95C91.4932 189.95 91.7027 189.879 91.8708 189.737C92.0389 189.593 92.1656 189.396 92.2508 189.148C92.3384 188.899 92.3822 188.616 92.3822 188.299C92.3822 187.982 92.3384 187.699 92.2508 187.45C92.1656 187.202 92.0389 187.005 91.8708 186.861C91.7027 186.716 91.4932 186.644 91.2423 186.644C90.989 186.644 90.7759 186.716 90.6031 186.861C90.4326 187.005 90.3036 187.202 90.216 187.45C90.1308 187.699 90.0882 187.982 90.0882 188.299C90.0882 188.616 90.1308 188.899 90.216 189.148C90.3036 189.396 90.4326 189.593 90.6031 189.737C90.7759 189.879 90.989 189.95 91.2423 189.95ZM99.4419 187.116L98.0569 187.202C98.0332 187.083 97.9823 186.977 97.9042 186.882C97.8261 186.785 97.7231 186.708 97.5953 186.651C97.4698 186.592 97.3195 186.562 97.1443 186.562C96.9099 186.562 96.7122 186.612 96.5512 186.712C96.3902 186.809 96.3097 186.939 96.3097 187.102C96.3097 187.232 96.3618 187.343 96.466 187.433C96.5702 187.522 96.7489 187.595 97.0022 187.649L97.9894 187.848C98.5197 187.957 98.9151 188.132 99.1755 188.374C99.4359 188.615 99.5661 188.932 99.5661 189.325C99.5661 189.683 99.4608 189.996 99.2501 190.266C99.0418 190.536 98.7553 190.747 98.3907 190.898C98.0285 191.048 97.6106 191.122 97.1372 191.122C96.4151 191.122 95.8398 190.972 95.4113 190.671C94.9852 190.368 94.7354 189.956 94.662 189.435L96.1499 189.357C96.1949 189.577 96.3038 189.746 96.4767 189.862C96.6495 189.975 96.8708 190.032 97.1407 190.032C97.4059 190.032 97.6189 189.981 97.7799 189.879C97.9433 189.775 98.0261 189.641 98.0285 189.478C98.0261 189.341 97.9681 189.228 97.8545 189.141C97.7409 189.051 97.5657 188.982 97.3289 188.935L96.3843 188.746C95.8517 188.64 95.4551 188.455 95.1947 188.192C94.9366 187.93 94.8076 187.595 94.8076 187.188C94.8076 186.837 94.9023 186.535 95.0917 186.282C95.2835 186.029 95.5522 185.833 95.8978 185.696C96.2458 185.559 96.653 185.49 97.1194 185.49C97.8083 185.49 98.3505 185.636 98.7458 185.927C99.1436 186.218 99.3756 186.615 99.4419 187.116ZM107.372 187.116L105.987 187.202C105.963 187.083 105.912 186.977 105.834 186.882C105.756 186.785 105.653 186.708 105.525 186.651C105.399 186.592 105.249 186.562 105.074 186.562C104.84 186.562 104.642 186.612 104.481 186.712C104.32 186.809 104.239 186.939 104.239 187.102C104.239 187.232 104.292 187.343 104.396 187.433C104.5 187.522 104.679 187.595 104.932 187.649L105.919 187.848C106.449 187.957 106.845 188.132 107.105 188.374C107.366 188.615 107.496 188.932 107.496 189.325C107.496 189.683 107.39 189.996 107.18 190.266C106.971 190.536 106.685 190.747 106.32 190.898C105.958 191.048 105.54 191.122 105.067 191.122C104.345 191.122 103.77 190.972 103.341 190.671C102.915 190.368 102.665 189.956 102.592 189.435L104.08 189.357C104.125 189.577 104.234 189.746 104.406 189.862C104.579 189.975 104.801 190.032 105.07 190.032C105.336 190.032 105.549 189.981 105.71 189.879C105.873 189.775 105.956 189.641 105.958 189.478C105.956 189.341 105.898 189.228 105.784 189.141C105.671 189.051 105.495 188.982 105.259 188.935L104.314 188.746C103.781 188.64 103.385 188.455 103.124 188.192C102.866 187.93 102.737 187.595 102.737 187.188C102.737 186.837 102.832 186.535 103.021 186.282C103.213 186.029 103.482 185.833 103.828 185.696C104.176 185.559 104.583 185.49 105.049 185.49C105.738 185.49 106.28 185.636 106.676 185.927C107.073 186.218 107.305 186.615 107.372 187.116ZM110.934 191.122C110.373 191.122 109.89 191.009 109.485 190.781C109.083 190.552 108.773 190.227 108.555 189.808C108.337 189.387 108.228 188.888 108.228 188.313C108.228 187.752 108.337 187.26 108.555 186.836C108.773 186.412 109.079 186.082 109.475 185.845C109.872 185.608 110.339 185.49 110.874 185.49C111.234 185.49 111.569 185.548 111.879 185.664C112.191 185.778 112.464 185.949 112.696 186.179C112.93 186.409 113.112 186.697 113.242 187.045C113.373 187.391 113.438 187.796 113.438 188.26V188.675H108.832V187.738H112.014C112.014 187.52 111.966 187.327 111.872 187.159C111.777 186.991 111.646 186.86 111.478 186.765C111.312 186.668 111.119 186.619 110.899 186.619C110.669 186.619 110.465 186.673 110.288 186.779C110.113 186.883 109.975 187.024 109.876 187.202C109.777 187.377 109.726 187.572 109.723 187.788V188.679C109.723 188.949 109.773 189.182 109.872 189.379C109.974 189.575 110.117 189.727 110.302 189.833C110.487 189.94 110.706 189.993 110.959 189.993C111.127 189.993 111.281 189.969 111.421 189.922C111.56 189.875 111.68 189.804 111.779 189.709C111.879 189.614 111.955 189.498 112.007 189.361L113.406 189.453C113.335 189.789 113.189 190.083 112.969 190.334C112.751 190.582 112.469 190.777 112.124 190.916C111.781 191.054 111.384 191.122 110.934 191.122ZM114.425 191.016V185.561H115.892V186.513H115.948C116.048 186.174 116.215 185.919 116.449 185.746C116.684 185.571 116.953 185.483 117.259 185.483C117.335 185.483 117.416 185.488 117.504 185.497C117.591 185.507 117.668 185.52 117.735 185.536V186.879C117.664 186.857 117.565 186.838 117.44 186.822C117.314 186.805 117.2 186.797 117.095 186.797C116.873 186.797 116.674 186.845 116.499 186.942C116.326 187.037 116.189 187.17 116.087 187.34C115.987 187.511 115.938 187.707 115.938 187.93V191.016H114.425ZM123.768 185.561L121.861 191.016H120.157L118.25 185.561H119.848L120.98 189.464H121.037L122.166 185.561H123.768ZM124.542 191.016V185.561H126.055V191.016H124.542ZM125.302 184.858C125.077 184.858 124.884 184.783 124.723 184.634C124.565 184.483 124.485 184.302 124.485 184.091C124.485 183.883 124.565 183.704 124.723 183.555C124.884 183.403 125.077 183.327 125.302 183.327C125.527 183.327 125.719 183.403 125.877 183.555C126.038 183.704 126.119 183.883 126.119 184.091C126.119 184.302 126.038 184.483 125.877 184.634C125.719 184.783 125.527 184.858 125.302 184.858ZM129.731 191.122C129.173 191.122 128.692 191.004 128.29 190.767C127.889 190.528 127.582 190.196 127.366 189.773C127.153 189.349 127.047 188.861 127.047 188.31C127.047 187.751 127.154 187.261 127.37 186.839C127.588 186.416 127.897 186.085 128.297 185.849C128.697 185.61 129.173 185.49 129.724 185.49C130.2 185.49 130.617 185.576 130.974 185.749C131.332 185.922 131.615 186.165 131.823 186.477C132.031 186.79 132.146 187.157 132.167 187.578H130.74C130.7 187.306 130.593 187.087 130.42 186.921C130.25 186.753 130.026 186.669 129.749 186.669C129.515 186.669 129.31 186.733 129.135 186.861C128.962 186.986 128.827 187.17 128.73 187.411C128.633 187.653 128.584 187.945 128.584 188.288C128.584 188.636 128.632 188.932 128.726 189.176C128.823 189.42 128.959 189.606 129.135 189.734C129.31 189.862 129.515 189.925 129.749 189.925C129.922 189.925 130.077 189.89 130.214 189.819C130.354 189.748 130.469 189.645 130.559 189.51C130.651 189.373 130.711 189.208 130.74 189.016H132.167C132.144 189.433 132.03 189.8 131.826 190.117C131.625 190.432 131.347 190.678 130.992 190.856C130.637 191.033 130.217 191.122 129.731 191.122ZM135.622 191.122C135.061 191.122 134.578 191.009 134.173 190.781C133.77 190.552 133.46 190.227 133.242 189.808C133.025 189.387 132.916 188.888 132.916 188.313C132.916 187.752 133.025 187.26 133.242 186.836C133.46 186.412 133.767 186.082 134.162 185.845C134.56 185.608 135.026 185.49 135.561 185.49C135.921 185.49 136.256 185.548 136.566 185.664C136.879 185.778 137.151 185.949 137.383 186.179C137.617 186.409 137.8 186.697 137.93 187.045C138.06 187.391 138.125 187.796 138.125 188.26V188.675H133.519V187.738H136.701C136.701 187.52 136.654 187.327 136.559 187.159C136.465 186.991 136.333 186.86 136.165 186.765C135.999 186.668 135.806 186.619 135.586 186.619C135.357 186.619 135.153 186.673 134.975 186.779C134.8 186.883 134.663 187.024 134.563 187.202C134.464 187.377 134.413 187.572 134.411 187.788V188.679C134.411 188.949 134.46 189.182 134.56 189.379C134.662 189.575 134.805 189.727 134.99 189.833C135.174 189.94 135.393 189.993 135.647 189.993C135.815 189.993 135.969 189.969 136.108 189.922C136.248 189.875 136.367 189.804 136.467 189.709C136.566 189.614 136.642 189.498 136.694 189.361L138.093 189.453C138.022 189.789 137.877 190.083 137.657 190.334C137.439 190.582 137.157 190.777 136.811 190.916C136.468 191.054 136.072 191.122 135.622 191.122ZM143.651 187.116L142.266 187.202C142.242 187.083 142.191 186.977 142.113 186.882C142.035 186.785 141.932 186.708 141.804 186.651C141.679 186.592 141.528 186.562 141.353 186.562C141.119 186.562 140.921 186.612 140.76 186.712C140.599 186.809 140.519 186.939 140.519 187.102C140.519 187.232 140.571 187.343 140.675 187.433C140.779 187.522 140.958 187.595 141.211 187.649L142.198 187.848C142.729 187.957 143.124 188.132 143.384 188.374C143.645 188.615 143.775 188.932 143.775 189.325C143.775 189.683 143.67 189.996 143.459 190.266C143.251 190.536 142.964 190.747 142.6 190.898C142.237 191.048 141.82 191.122 141.346 191.122C140.624 191.122 140.049 190.972 139.62 190.671C139.194 190.368 138.944 189.956 138.871 189.435L140.359 189.357C140.404 189.577 140.513 189.746 140.686 189.862C140.858 189.975 141.08 190.032 141.35 190.032C141.615 190.032 141.828 189.981 141.989 189.879C142.152 189.775 142.235 189.641 142.237 189.478C142.235 189.341 142.177 189.228 142.063 189.141C141.95 189.051 141.775 188.982 141.538 188.935L140.593 188.746C140.061 188.64 139.664 188.455 139.404 188.192C139.146 187.93 139.017 187.595 139.017 187.188C139.017 186.837 139.111 186.535 139.301 186.282C139.492 186.029 139.761 185.833 140.107 185.696C140.455 185.559 140.862 185.49 141.328 185.49C142.017 185.49 142.559 185.636 142.955 185.927C143.353 186.218 143.585 186.615 143.651 187.116Z" fill="black"/>
<rect x="80.4688" y="199.812" width="108.625" height="8.69001" rx="2.1725" fill="#D6D8DC"/>
<rect x="80.4688" y="217.297" width="88.7787" height="8.69001" rx="2.1725" fill="#D6D8DC"/>
<rect x="80.4688" y="234.781" width="73.0478" height="17.5836" rx="2.1725" fill="#0F1014"/>
<path d="M102.079 246.375L102.079 241.284L103.894 241.284C104.288 241.284 104.616 241.352 104.876 241.488C105.138 241.624 105.333 241.812 105.462 242.052C105.592 242.291 105.656 242.567 105.656 242.88C105.656 243.192 105.591 243.466 105.46 243.703C105.331 243.938 105.135 244.121 104.873 244.252C104.613 244.383 104.286 244.449 103.891 244.449L102.517 244.449L102.517 243.787L103.822 243.787C104.07 243.787 104.272 243.752 104.428 243.681C104.586 243.609 104.701 243.506 104.774 243.37C104.847 243.234 104.883 243.071 104.883 242.88C104.883 242.688 104.846 242.521 104.771 242.381C104.698 242.24 104.583 242.132 104.426 242.057C104.27 241.981 104.065 241.943 103.812 241.943L102.847 241.943L102.847 246.375L102.079 246.375ZM104.592 244.078L105.85 246.375L104.975 246.375L103.742 244.078L104.592 244.078ZM108.129 246.452C107.753 246.452 107.429 246.372 107.157 246.211C106.887 246.049 106.678 245.821 106.53 245.528C106.385 245.233 106.312 244.887 106.312 244.491C106.312 244.1 106.385 243.755 106.531 243.457C106.678 243.159 106.884 242.926 107.147 242.759C107.412 242.591 107.722 242.507 108.077 242.508C108.292 242.508 108.501 242.543 108.703 242.614C108.905 242.686 109.087 242.798 109.248 242.95C109.408 243.103 109.535 243.301 109.628 243.544C109.721 243.786 109.767 244.08 109.767 244.427L109.767 244.69L106.732 244.69L106.732 244.133L109.039 244.133C109.039 243.938 108.999 243.765 108.919 243.614C108.84 243.461 108.728 243.341 108.584 243.253C108.441 243.165 108.274 243.122 108.082 243.122C107.873 243.121 107.691 243.173 107.535 243.276C107.381 243.377 107.261 243.509 107.177 243.673C107.094 243.836 107.053 244.012 107.053 244.203L107.053 244.638C107.053 244.893 107.097 245.11 107.187 245.289C107.278 245.468 107.405 245.605 107.567 245.699C107.729 245.792 107.919 245.838 108.136 245.838C108.277 245.838 108.406 245.819 108.522 245.779C108.638 245.737 108.738 245.676 108.822 245.595C108.907 245.514 108.972 245.413 109.016 245.294L109.72 245.421C109.663 245.628 109.562 245.81 109.416 245.965C109.272 246.119 109.091 246.24 108.872 246.326C108.655 246.41 108.407 246.452 108.129 246.452ZM107.741 242.048L108.323 240.902L109.106 240.902L108.335 242.048L107.741 242.048ZM113.453 243.49L112.779 243.609C112.751 243.523 112.706 243.441 112.645 243.363C112.585 243.285 112.504 243.221 112.401 243.172C112.299 243.122 112.17 243.097 112.016 243.097C111.806 243.097 111.63 243.144 111.489 243.239C111.348 243.331 111.278 243.451 111.278 243.599C111.278 243.727 111.325 243.829 111.42 243.907C111.514 243.985 111.666 244.049 111.877 244.099L112.483 244.238C112.835 244.319 113.097 244.444 113.269 244.613C113.441 244.782 113.527 245.002 113.527 245.272C113.527 245.501 113.461 245.705 113.329 245.884C113.198 246.061 113.014 246.2 112.779 246.301C112.545 246.402 112.274 246.453 111.966 246.453C111.539 246.453 111.19 246.362 110.92 246.179C110.65 245.995 110.484 245.734 110.423 245.396L111.141 245.287C111.186 245.474 111.278 245.616 111.417 245.712C111.556 245.806 111.738 245.854 111.961 245.854C112.205 245.854 112.4 245.803 112.545 245.702C112.691 245.599 112.764 245.474 112.764 245.327C112.764 245.207 112.72 245.107 112.63 245.026C112.542 244.945 112.407 244.883 112.225 244.842L111.579 244.7C111.222 244.619 110.959 244.49 110.788 244.312C110.619 244.135 110.535 243.91 110.535 243.639C110.535 243.413 110.598 243.216 110.724 243.047C110.85 242.878 111.024 242.746 111.246 242.652C111.468 242.556 111.722 242.508 112.009 242.508C112.421 242.508 112.746 242.597 112.983 242.776C113.22 242.954 113.377 243.191 113.453 243.49ZM115.99 246.453C115.614 246.453 115.29 246.373 115.018 246.212C114.748 246.049 114.539 245.821 114.392 245.528C114.246 245.233 114.173 244.888 114.173 244.492C114.173 244.1 114.246 243.756 114.392 243.457C114.539 243.159 114.745 242.926 115.008 242.759C115.274 242.592 115.584 242.508 115.938 242.508C116.154 242.508 116.362 242.544 116.565 242.615C116.767 242.686 116.948 242.798 117.109 242.951C117.27 243.103 117.396 243.301 117.489 243.545C117.582 243.787 117.628 244.081 117.628 244.427L117.628 244.691L114.593 244.69L114.593 244.134L116.9 244.134C116.9 243.938 116.86 243.765 116.781 243.614C116.701 243.462 116.589 243.342 116.445 243.254C116.303 243.166 116.135 243.122 115.943 243.122C115.734 243.122 115.552 243.173 115.396 243.276C115.242 243.377 115.123 243.51 115.038 243.674C114.955 243.836 114.914 244.013 114.914 244.203L114.914 244.638C114.914 244.893 114.959 245.111 115.048 245.29C115.139 245.469 115.266 245.605 115.428 245.7C115.591 245.793 115.781 245.839 115.998 245.839C116.138 245.839 116.267 245.819 116.383 245.779C116.499 245.738 116.599 245.677 116.684 245.595C116.768 245.514 116.833 245.414 116.878 245.295L117.581 245.421C117.525 245.629 117.424 245.81 117.278 245.966C117.134 246.12 116.952 246.24 116.733 246.326C116.516 246.411 116.269 246.453 115.99 246.453ZM118.453 246.376L118.453 242.558L119.172 242.558L119.172 243.164L119.211 243.164C119.281 242.959 119.404 242.797 119.579 242.68C119.757 242.56 119.957 242.501 120.181 242.501C120.227 242.501 120.282 242.502 120.345 242.506C120.41 242.509 120.46 242.513 120.497 242.518L120.496 243.229C120.467 243.221 120.414 243.212 120.337 243.202C120.261 243.19 120.185 243.184 120.109 243.184C119.933 243.184 119.776 243.222 119.639 243.296C119.503 243.369 119.395 243.471 119.316 243.602C119.236 243.731 119.196 243.879 119.196 244.044L119.196 246.376L118.453 246.376ZM124.522 242.558L123.137 246.376L122.342 246.376L120.955 242.558L121.753 242.558L122.72 245.496L122.76 245.496L123.724 242.558L124.522 242.558ZM126.736 246.454C126.36 246.454 126.036 246.373 125.764 246.212C125.494 246.05 125.285 245.822 125.138 245.529C124.992 245.234 124.919 244.888 124.919 244.492C124.919 244.101 124.992 243.756 125.138 243.458C125.286 243.16 125.491 242.927 125.755 242.76C126.02 242.592 126.33 242.509 126.684 242.509C126.9 242.509 127.109 242.544 127.311 242.616C127.513 242.687 127.694 242.799 127.855 242.951C128.016 243.104 128.143 243.302 128.235 243.545C128.328 243.787 128.375 244.081 128.374 244.428L128.374 244.691L125.339 244.691L125.339 244.134L127.646 244.134C127.646 243.939 127.606 243.766 127.527 243.615C127.447 243.462 127.336 243.342 127.191 243.254C127.049 243.167 126.881 243.123 126.689 243.123C126.48 243.123 126.298 243.174 126.142 243.277C125.988 243.378 125.869 243.51 125.784 243.674C125.701 243.837 125.66 244.013 125.66 244.204L125.66 244.639C125.66 244.894 125.705 245.111 125.794 245.29C125.885 245.469 126.012 245.606 126.174 245.7C126.337 245.793 126.527 245.84 126.744 245.84C126.885 245.84 127.013 245.82 127.129 245.78C127.245 245.739 127.345 245.677 127.43 245.596C127.514 245.515 127.579 245.415 127.624 245.295L128.327 245.422C128.271 245.629 128.17 245.811 128.024 245.967C127.88 246.121 127.698 246.241 127.479 246.327C127.262 246.411 127.015 246.454 126.736 246.454ZM129.199 246.377L129.199 242.559L129.918 242.559L129.918 243.165L129.957 243.165C130.027 242.96 130.15 242.798 130.325 242.68C130.503 242.561 130.703 242.501 130.927 242.502C130.973 242.502 131.028 242.503 131.091 242.506C131.156 242.51 131.206 242.514 131.243 242.519L131.243 243.23C131.213 243.222 131.16 243.212 131.083 243.203C131.007 243.191 130.931 243.185 130.855 243.185C130.679 243.185 130.523 243.222 130.385 243.297C130.249 243.37 130.141 243.472 130.062 243.603C129.982 243.732 129.942 243.879 129.942 244.045L129.942 246.377L129.199 246.377Z" fill="white"/>
</g>
<g opacity="0.2" filter="url(#filter7_f_2017_85606)">
<circle cx="0.5" cy="0.5" r="0.5" transform="matrix(0.999894 -0.0145771 0.0142721 0.999898 148.699 132.945)" fill="#F4F8FC"/>
</g>
<g opacity="0.6" filter="url(#filter8_f_2017_85606)">
<circle cx="0.5" cy="0.5" r="0.5" transform="matrix(0.999894 -0.0145771 0.0142721 0.999898 148.699 132.945)" fill="#F4F8FC"/>
</g>
<g opacity="0.09" filter="url(#filter9_f_2017_85606)">
<circle cx="1" cy="1" r="1" transform="matrix(0.999894 -0.0145771 0.0142721 0.999898 141 90.0547)" fill="#F4F8FC"/>
</g>
<g opacity="0.6" filter="url(#filter10_f_2017_85606)">
<circle cx="1" cy="1" r="1" transform="matrix(0.999894 -0.0145771 0.0142721 0.999898 141 90.0547)" fill="#F4F8FC"/>
</g>
<g opacity="0.72" filter="url(#filter11_f_2017_85606)">
<circle cx="1" cy="1" r="1" transform="matrix(0.999894 -0.0145771 0.0142721 0.999898 254 90.0547)" fill="#F4F8FC"/>
</g>
<g opacity="0.6" filter="url(#filter12_f_2017_85606)">
<circle cx="1" cy="1" r="1" transform="matrix(0.999894 -0.0145771 0.0142721 0.999898 254 90.0547)" fill="#F4F8FC"/>
</g>
</g>
<defs>
<filter id="filter0_f_2017_85606" x="133" y="76" width="454" height="365" filterUnits="userSpaceOnUse" color-interpolation-filters="sRGB">
<feFlood flood-opacity="0" result="BackgroundImageFix"/>
<feBlend mode="normal" in="SourceGraphic" in2="BackgroundImageFix" result="shape"/>
<feGaussianBlur stdDeviation="26" result="effect1_foregroundBlur_2017_85606"/>
</filter>
<filter id="filter1_f_2017_85606" x="289.898" y="152.82" width="4" height="4" filterUnits="userSpaceOnUse" color-interpolation-filters="sRGB">
<feFlood flood-opacity="0" result="BackgroundImageFix"/>
<feBlend mode="normal" in="SourceGraphic" in2="BackgroundImageFix" result="shape"/>
<feGaussianBlur stdDeviation="0.5" result="effect1_foregroundBlur_2017_85606"/>
</filter>
<filter id="filter2_f_2017_85606" x="286.898" y="149.82" width="10" height="10" filterUnits="userSpaceOnUse" color-interpolation-filters="sRGB">
<feFlood flood-opacity="0" result="BackgroundImageFix"/>
<feBlend mode="normal" in="SourceGraphic" in2="BackgroundImageFix" result="shape"/>
<feGaussianBlur stdDeviation="2" result="effect1_foregroundBlur_2017_85606"/>
</filter>
<filter id="filter3_f_2017_85606" x="237.008" y="132.641" width="9" height="9" filterUnits="userSpaceOnUse" color-interpolation-filters="sRGB">
<feFlood flood-opacity="0" result="BackgroundImageFix"/>
<feBlend mode="normal" in="SourceGraphic" in2="BackgroundImageFix" result="shape"/>
<feGaussianBlur stdDeviation="2" result="effect1_foregroundBlur_2017_85606"/>
</filter>
<filter id="filter4_f_2017_85606" x="272.094" y="107.039" width="10" height="10" filterUnits="userSpaceOnUse" color-interpolation-filters="sRGB">
<feFlood flood-opacity="0" result="BackgroundImageFix"/>
<feBlend mode="normal" in="SourceGraphic" in2="BackgroundImageFix" result="shape"/>
<feGaussianBlur stdDeviation="2" result="effect1_foregroundBlur_2017_85606"/>
</filter>
<filter id="filter5_d_2017_85606" x="54.9647" y="173.436" width="219.772" height="176.59" filterUnits="userSpaceOnUse" color-interpolation-filters="sRGB">
<feFlood flood-opacity="0" result="BackgroundImageFix"/>
<feColorMatrix in="SourceAlpha" type="matrix" values="0 0 0 0 0 0 0 0 0 0 0 0 0 0 0 0 0 0 127 0" result="hardAlpha"/>
<feOffset dy="14.1213"/>
<feGaussianBlur stdDeviation="10.3194"/>
<feComposite in2="hardAlpha" operator="out"/>
<feColorMatrix type="matrix" values="0 0 0 0 0.0588235 0 0 0 0 0.0627451 0 0 0 0 0.0784314 0 0 0 0.2 0"/>
<feBlend mode="normal" in2="BackgroundImageFix" result="effect1_dropShadow_2017_85606"/>
<feBlend mode="normal" in="SourceGraphic" in2="effect1_dropShadow_2017_85606" result="shape"/>
</filter>
<filter id="filter6_d_2017_85606" x="42.3612" y="156.623" width="204.278" height="149.278" filterUnits="userSpaceOnUse" color-interpolation-filters="sRGB">
<feFlood flood-opacity="0" result="BackgroundImageFix"/>
<feColorMatrix in="SourceAlpha" type="matrix" values="0 0 0 0 0 0 0 0 0 0 0 0 0 0 0 0 0 0 127 0" result="hardAlpha"/>
<feOffset dy="14.1213"/>
<feGaussianBlur stdDeviation="10.3194"/>
<feComposite in2="hardAlpha" operator="out"/>
<feColorMatrix type="matrix" values="0 0 0 0 0.0588235 0 0 0 0 0.0627451 0 0 0 0 0.0784314 0 0 0 0.15 0"/>
<feBlend mode="normal" in2="BackgroundImageFix" result="effect1_dropShadow_2017_85606"/>
<feBlend mode="normal" in="SourceGraphic" in2="effect1_dropShadow_2017_85606" result="shape"/>
</filter>
<filter id="filter7_f_2017_85606" x="147.707" y="131.938" width="3" height="3" filterUnits="userSpaceOnUse" color-interpolation-filters="sRGB">
<feFlood flood-opacity="0" result="BackgroundImageFix"/>
<feBlend mode="normal" in="SourceGraphic" in2="BackgroundImageFix" result="shape"/>
<feGaussianBlur stdDeviation="0.5" result="effect1_foregroundBlur_2017_85606"/>
</filter>
<filter id="filter8_f_2017_85606" x="144.707" y="128.938" width="9" height="9" filterUnits="userSpaceOnUse" color-interpolation-filters="sRGB">
<feFlood flood-opacity="0" result="BackgroundImageFix"/>
<feBlend mode="normal" in="SourceGraphic" in2="BackgroundImageFix" result="shape"/>
<feGaussianBlur stdDeviation="2" result="effect1_foregroundBlur_2017_85606"/>
</filter>
<filter id="filter9_f_2017_85606" x="140.014" y="89.0391" width="4" height="4" filterUnits="userSpaceOnUse" color-interpolation-filters="sRGB">
<feFlood flood-opacity="0" result="BackgroundImageFix"/>
<feBlend mode="normal" in="SourceGraphic" in2="BackgroundImageFix" result="shape"/>
<feGaussianBlur stdDeviation="0.5" result="effect1_foregroundBlur_2017_85606"/>
</filter>
<filter id="filter10_f_2017_85606" x="137.014" y="86.0391" width="10" height="10" filterUnits="userSpaceOnUse" color-interpolation-filters="sRGB">
<feFlood flood-opacity="0" result="BackgroundImageFix"/>
<feBlend mode="normal" in="SourceGraphic" in2="BackgroundImageFix" result="shape"/>
<feGaussianBlur stdDeviation="2" result="effect1_foregroundBlur_2017_85606"/>
</filter>
<filter id="filter11_f_2017_85606" x="253.014" y="89.0391" width="4" height="4" filterUnits="userSpaceOnUse" color-interpolation-filters="sRGB">
<feFlood flood-opacity="0" result="BackgroundImageFix"/>
<feBlend mode="normal" in="SourceGraphic" in2="BackgroundImageFix" result="shape"/>
<feGaussianBlur stdDeviation="0.5" result="effect1_foregroundBlur_2017_85606"/>
</filter>
<filter id="filter12_f_2017_85606" x="250.014" y="86.0391" width="10" height="10" filterUnits="userSpaceOnUse" color-interpolation-filters="sRGB">
<feFlood flood-opacity="0" result="BackgroundImageFix"/>
<feBlend mode="normal" in="SourceGraphic" in2="BackgroundImageFix" result="shape"/>
<feGaussianBlur stdDeviation="2" result="effect1_foregroundBlur_2017_85606"/>
</filter>
<linearGradient id="paint0_linear_2017_85606" x1="397.5" y1="115.141" x2="397.5" y2="357.673" gradientUnits="userSpaceOnUse">
<stop stop-color="#1D1E23"/>
<stop offset="1" stop-color="#0F1013"/>
</linearGradient>
<radialGradient id="paint1_radial_2017_85606" cx="0" cy="0" r="1" gradientUnits="userSpaceOnUse" gradientTransform="translate(214.193 331.528) rotate(4.16125) scale(101.561 22.9612)">
<stop stop-color="#07080B"/>
<stop offset="1" stop-color="#07080B"/>
</radialGradient>
<radialGradient id="paint2_radial_2017_85606" cx="0" cy="0" r="1" gradientUnits="userSpaceOnUse" gradientTransform="translate(223.913 182.834) rotate(4.45732) scale(184.082 44.5559)">
<stop stop-color="#07080B"/>
<stop offset="1" stop-color="#07080B"/>
</radialGradient>
<radialGradient id="paint3_radial_2017_85606" cx="0" cy="0" r="1" gradientUnits="userSpaceOnUse" gradientTransform="translate(214.159 208.25) rotate(3.44232) scale(98.1086 18.369)">
<stop stop-color="#07080B"/>
<stop offset="1" stop-color="#07080B"/>
</radialGradient>
<radialGradient id="paint4_radial_2017_85606" cx="0" cy="0" r="1" gradientUnits="userSpaceOnUse" gradientTransform="translate(214.159 221.25) rotate(3.44232) scale(98.1086 18.369)">
<stop stop-color="#07080B"/>
<stop offset="1" stop-color="#07080B"/>
</radialGradient>
<radialGradient id="paint5_radial_2017_85606" cx="0" cy="0" r="1" gradientUnits="userSpaceOnUse" gradientTransform="translate(209.268 346.411) rotate(7.23213) scale(58.5404 22.8387)">
<stop stop-color="#07080B"/>
<stop offset="1" stop-color="#07080B"/>
</radialGradient>
<radialGradient id="paint6_radial_2017_85606" cx="0" cy="0" r="1" gradientUnits="userSpaceOnUse" gradientTransform="translate(359.511 254.659) rotate(33.3502) scale(120.93 173.482)">
<stop stop-color="#07080B"/>
<stop offset="1" stop-color="#07080B"/>
</radialGradient>
<radialGradient id="paint7_radial_2017_85606" cx="0" cy="0" r="1" gradientUnits="userSpaceOnUse" gradientTransform="translate(504.599 254.659) rotate(33.1504) scale(121.575 173.879)">
<stop stop-color="#07080B"/>
<stop offset="1" stop-color="#07080B"/>
</radialGradient>
<radialGradient id="paint8_radial_2017_85606" cx="0" cy="0" r="1" gradientUnits="userSpaceOnUse" gradientTransform="translate(356.963 331.567) rotate(5.50028) scale(79.0175 23.551)">
<stop stop-color="#07080B"/>
<stop offset="1" stop-color="#07080B"/>
</radialGradient>
<radialGradient id="paint9_radial_2017_85606" cx="0" cy="0" r="1" gradientUnits="userSpaceOnUse" gradientTransform="translate(504.935 331.528) rotate(4.16125) scale(101.561 22.9612)">
<stop stop-color="#07080B"/>
<stop offset="1" stop-color="#07080B"/>
</radialGradient>
<radialGradient id="paint10_radial_2017_85606" cx="0" cy="0" r="1" gradientUnits="userSpaceOnUse" gradientTransform="translate(354.639 346.849) rotate(7.23213) scale(58.5404 22.8387)">
<stop stop-color="#07080B"/>
<stop offset="1" stop-color="#07080B"/>
</radialGradient>
<radialGradient id="paint11_radial_2017_85606" cx="0" cy="0" r="1" gradientUnits="userSpaceOnUse" gradientTransform="translate(500.01 346.411) rotate(7.23213) scale(58.5404 22.8387)">
<stop stop-color="#07080B"/>
<stop offset="1" stop-color="#07080B"/>
</radialGradient>
<clipPath id="clip0_2017_85606">
<rect width="527" height="398" fill="white"/>
</clipPath>
<clipPath id="clip1_2017_85606">
<rect x="172" y="115.141" width="451" height="282.86" rx="10" fill="white"/>
</clipPath>
</defs>
</svg>
