<svg width="679" height="377" viewBox="0 0 679 377" fill="none" xmlns="http://www.w3.org/2000/svg">
<g clip-path="url(#clip0_3034_2655)">
<mask id="mask0_3034_2655" style="mask-type:alpha" maskUnits="userSpaceOnUse" x="3" y="0" width="654" height="390">
<rect x="3" width="654" height="390" fill="url(#paint0_radial_3034_2655)"/>
</mask>
<g mask="url(#mask0_3034_2655)">
<circle opacity="0.4" cx="329" cy="359" r="323.5" fill="#6B7988" stroke="#A4A9AD"/>
<circle opacity="0.4" cx="329" cy="359" r="247.5" fill="#6B7988" stroke="#A4A9AD"/>
<circle opacity="0.4" cx="329" cy="359" r="181.5" fill="#6B7988" stroke="#A4A9AD"/>
</g>
<g clip-path="url(#clip1_3034_2655)">
<rect x="103" y="262.062" width="214.795" height="169.391" rx="7.08114" transform="rotate(-9.39507 103 262.062)" fill="#F4F8FC"/>
<rect x="127.078" y="295.258" width="89.0612" height="9.60464" rx="1.7463" transform="rotate(-9.39507 127.078 295.258)" fill="#CED0D7"/>
<rect x="136.912" y="354.688" width="54.1352" height="44.5306" rx="1.7463" transform="rotate(-9.39507 136.912 354.688)" fill="#CED0D7"/>
<rect x="198.074" y="344.57" width="54.1352" height="44.5306" rx="1.7463" transform="rotate(-9.39507 198.074 344.57)" fill="#CED0D7"/>
<rect x="259.236" y="334.445" width="54.1352" height="44.5306" rx="1.7463" transform="rotate(-9.39507 259.236 334.445)" fill="#CED0D7"/>
<rect x="130.07" y="313.336" width="166.771" height="4.36574" rx="1.7463" transform="rotate(-9.39507 130.07 313.336)" fill="#CED0D7"/>
<rect x="131.494" y="321.961" width="124.86" height="4.36574" rx="1.7463" transform="rotate(-9.39507 131.494 321.961)" fill="#CED0D7"/>
<circle cx="113.756" cy="268.25" r="2.61945" transform="rotate(-9.39507 113.756 268.25)" fill="#CED0D7"/>
<circle cx="122.369" cy="266.821" r="2.61945" transform="rotate(-9.39507 122.369 266.821)" fill="#CED0D7"/>
<circle cx="130.987" cy="265.399" r="2.61945" transform="rotate(-9.39507 130.987 265.399)" fill="#CED0D7"/>
</g>
<g clip-path="url(#clip2_3034_2655)">
<rect x="369.049" y="216.336" width="203.057" height="160.134" rx="6.69418" transform="rotate(16.9138 369.049 216.336)" fill="#F4F8FC"/>
<rect x="375.545" y="254.547" width="84.1943" height="9.07978" rx="1.65087" transform="rotate(16.9138 375.545 254.547)" fill="#CED0D7"/>
<rect x="358.975" y="309.039" width="51.1769" height="42.0972" rx="1.65087" transform="rotate(16.9138 358.975 309.039)" fill="#CED0D7"/>
<rect x="415.045" y="326.086" width="51.1769" height="42.0972" rx="1.65087" transform="rotate(16.9138 415.045 326.086)" fill="#CED0D7"/>
<rect x="471.115" y="343.141" width="51.1769" height="42.0972" rx="1.65087" transform="rotate(16.9138 471.115 343.141)" fill="#CED0D7"/>
<rect x="370.504" y="271.133" width="157.658" height="4.12717" rx="1.65087" transform="rotate(16.9138 370.504 271.133)" fill="#CED0D7"/>
<rect x="368.102" y="279.023" width="118.037" height="4.12717" rx="1.65087" transform="rotate(16.9138 368.102 279.023)" fill="#CED0D7"/>
<circle cx="375.411" cy="225.776" r="2.23139" transform="rotate(16.9138 375.411 225.776)" fill="#CED0D7"/>
<circle cx="383.306" cy="228.175" r="2.23139" transform="rotate(16.9138 383.306 228.175)" fill="#CED0D7"/>
<circle cx="391.204" cy="230.581" r="2.23139" transform="rotate(16.9138 391.204 230.581)" fill="#CED0D7"/>
</g>
<rect x="369.42" y="217.032" width="201.941" height="159.019" rx="6.13634" transform="rotate(16.9138 369.42 217.032)" stroke="url(#paint1_radial_3034_2655)" stroke-width="1.1157"/>
<rect x="206.5" y="193.5" width="245" height="193" rx="9.5" fill="url(#paint2_linear_3034_2655)"/>
<rect x="206.5" y="193.5" width="245" height="193" rx="9.5" stroke="url(#paint3_linear_3034_2655)"/>
<g filter="url(#filter0_f_3034_2655)">
<rect x="227" y="254" width="191" height="5" rx="2" fill="url(#paint4_linear_3034_2655)"/>
</g>
<g filter="url(#filter1_f_3034_2655)">
<rect x="227" y="235" width="102" height="9" rx="4" fill="url(#paint5_linear_3034_2655)"/>
</g>
<rect x="227" y="235" width="102" height="9" rx="4" fill="#F4F8FC"/>
<rect x="227" y="304" width="62" height="51" rx="2" fill="#0F1014"/>
<rect x="298" y="304" width="62" height="51" rx="2" fill="#0F1014"/>
<rect x="369" y="304" width="62" height="51" rx="2" fill="#0F1014"/>
<rect x="227" y="254" width="191" height="5" rx="2" fill="#F4F8FC"/>
<rect x="227" y="265" width="143" height="5" rx="2" fill="#F4F8FC"/>
<circle cx="216.5" cy="203.5" r="2.5" fill="#37393F"/>
<circle cx="224.5" cy="203.5" r="2.5" fill="#37393F"/>
<circle cx="232.5" cy="203.5" r="2.5" fill="#37393F"/>
<g opacity="0.2" filter="url(#filter2_f_3034_2655)">
<path d="M442.712 153.123L605.158 11.6725L684.59 123.093L501.299 224.813L353.742 308.891L442.712 153.123Z" fill="#707585"/>
</g>
<g opacity="0.2" filter="url(#filter3_f_3034_2655)">
<path d="M466.966 192.088L613.001 63.4615L672.605 63.4623L506.575 177.328L372.631 269.449L466.966 192.088Z" fill="#707585"/>
</g>
<g opacity="0.12" filter="url(#filter4_f_3034_2655)">
<circle cx="492.405" cy="163.275" r="0.5" transform="rotate(105 492.405 163.275)" fill="#F4F8FC"/>
</g>
<g opacity="0.6" filter="url(#filter5_f_3034_2655)">
<circle cx="492.405" cy="163.275" r="0.5" transform="rotate(105 492.405 163.275)" fill="#F4F8FC"/>
</g>
<circle opacity="0.72" cx="445" cy="146" r="1" fill="#F4F8FC"/>
<g opacity="0.6" filter="url(#filter6_f_3034_2655)">
<circle cx="445" cy="146" r="1" fill="#F4F8FC"/>
</g>
<circle opacity="0.12" cx="545.439" cy="117.52" r="1" transform="rotate(105 545.439 117.52)" fill="#F4F8FC"/>
<g opacity="0.6" filter="url(#filter7_f_3034_2655)">
<circle cx="545.439" cy="117.52" r="1" transform="rotate(105 545.439 117.52)" fill="#F4F8FC"/>
</g>
<g opacity="0.42" filter="url(#filter8_f_3034_2655)">
<circle cx="532.5" cy="109.5" r="0.5" fill="#F4F8FC"/>
</g>
<g opacity="0.6" filter="url(#filter9_f_3034_2655)">
<circle cx="532.5" cy="109.5" r="0.5" fill="#F4F8FC"/>
</g>
<g opacity="0.53" filter="url(#filter10_f_3034_2655)">
<circle cx="583.605" cy="161.844" r="1" fill="#F4F8FC"/>
</g>
<g opacity="0.6" filter="url(#filter11_f_3034_2655)">
<circle cx="583.605" cy="161.844" r="1" fill="#F4F8FC"/>
</g>
<circle opacity="0.12" cx="452.613" cy="263.352" r="0.5" fill="#F4F8FC"/>
<g opacity="0.6" filter="url(#filter12_f_3034_2655)">
<circle cx="452.613" cy="263.352" r="0.5" fill="#F4F8FC"/>
</g>
<circle opacity="0.72" cx="506.082" cy="237.801" r="1" transform="rotate(105 506.082 237.801)" fill="#F4F8FC"/>
<g opacity="0.6" filter="url(#filter13_f_3034_2655)">
<circle cx="506.082" cy="237.801" r="1" transform="rotate(105 506.082 237.801)" fill="#F4F8FC"/>
</g>
<g opacity="0.12" filter="url(#filter14_f_3034_2655)">
<circle cx="471.768" cy="164.5" r="0.5" fill="#F4F8FC"/>
</g>
<g opacity="0.6" filter="url(#filter15_f_3034_2655)">
<circle cx="471.768" cy="164.5" r="0.5" fill="#F4F8FC"/>
</g>
<circle opacity="0.12" cx="444.612" cy="191.518" r="0.5" transform="rotate(105 444.612 191.518)" fill="#F4F8FC"/>
<g opacity="0.6" filter="url(#filter16_f_3034_2655)">
<circle cx="444.612" cy="191.518" r="0.5" transform="rotate(105 444.612 191.518)" fill="#F4F8FC"/>
</g>
<circle opacity="0.2" cx="523.759" cy="188.299" r="0.5" transform="rotate(105 523.759 188.299)" fill="#F4F8FC"/>
<g opacity="0.6" filter="url(#filter17_f_3034_2655)">
<circle cx="523.759" cy="188.299" r="0.5" transform="rotate(105 523.759 188.299)" fill="#F4F8FC"/>
</g>
<circle opacity="0.2" cx="515.224" cy="135.223" r="1" transform="rotate(105 515.224 135.223)" fill="#F4F8FC"/>
<g opacity="0.6" filter="url(#filter18_f_3034_2655)">
<circle cx="515.224" cy="135.223" r="1" transform="rotate(105 515.224 135.223)" fill="#F4F8FC"/>
</g>
<circle opacity="0.2" cx="430.5" cy="211.5" r="0.5" fill="#F4F8FC"/>
<g opacity="0.6" filter="url(#filter19_f_3034_2655)">
<circle cx="430.5" cy="211.5" r="0.5" fill="#F4F8FC"/>
</g>
<g opacity="0.4">
<g filter="url(#filter20_f_3034_2655)">
<path fill-rule="evenodd" clip-rule="evenodd" d="M454 197H445V196H454V197Z" fill="#F4F8FC"/>
</g>
<g filter="url(#filter21_f_3034_2655)">
<path fill-rule="evenodd" clip-rule="evenodd" d="M450 192L450 201L449 201L449 192L450 192Z" fill="#F4F8FC"/>
</g>
</g>
</g>
<defs>
<filter id="filter0_f_3034_2655" x="223" y="250" width="199" height="13" filterUnits="userSpaceOnUse" color-interpolation-filters="sRGB">
<feFlood flood-opacity="0" result="BackgroundImageFix"/>
<feBlend mode="normal" in="SourceGraphic" in2="BackgroundImageFix" result="shape"/>
<feGaussianBlur stdDeviation="2" result="effect1_foregroundBlur_3034_2655"/>
</filter>
<filter id="filter1_f_3034_2655" x="223" y="231" width="110" height="17" filterUnits="userSpaceOnUse" color-interpolation-filters="sRGB">
<feFlood flood-opacity="0" result="BackgroundImageFix"/>
<feBlend mode="normal" in="SourceGraphic" in2="BackgroundImageFix" result="shape"/>
<feGaussianBlur stdDeviation="2" result="effect1_foregroundBlur_3034_2655"/>
</filter>
<filter id="filter2_f_3034_2655" x="301.742" y="-40.3281" width="434.848" height="401.219" filterUnits="userSpaceOnUse" color-interpolation-filters="sRGB">
<feFlood flood-opacity="0" result="BackgroundImageFix"/>
<feBlend mode="normal" in="SourceGraphic" in2="BackgroundImageFix" result="shape"/>
<feGaussianBlur stdDeviation="26" result="effect1_foregroundBlur_3034_2655"/>
</filter>
<filter id="filter3_f_3034_2655" x="340.631" y="31.4609" width="363.975" height="269.984" filterUnits="userSpaceOnUse" color-interpolation-filters="sRGB">
<feFlood flood-opacity="0" result="BackgroundImageFix"/>
<feBlend mode="normal" in="SourceGraphic" in2="BackgroundImageFix" result="shape"/>
<feGaussianBlur stdDeviation="16" result="effect1_foregroundBlur_3034_2655"/>
</filter>
<filter id="filter4_f_3034_2655" x="491.504" y="162.373" width="1.80195" height="1.8" filterUnits="userSpaceOnUse" color-interpolation-filters="sRGB">
<feFlood flood-opacity="0" result="BackgroundImageFix"/>
<feBlend mode="normal" in="SourceGraphic" in2="BackgroundImageFix" result="shape"/>
<feGaussianBlur stdDeviation="0.2" result="effect1_foregroundBlur_3034_2655"/>
</filter>
<filter id="filter5_f_3034_2655" x="487.904" y="158.773" width="9.00195" height="9" filterUnits="userSpaceOnUse" color-interpolation-filters="sRGB">
<feFlood flood-opacity="0" result="BackgroundImageFix"/>
<feBlend mode="normal" in="SourceGraphic" in2="BackgroundImageFix" result="shape"/>
<feGaussianBlur stdDeviation="2" result="effect1_foregroundBlur_3034_2655"/>
</filter>
<filter id="filter6_f_3034_2655" x="441" y="142" width="8" height="8" filterUnits="userSpaceOnUse" color-interpolation-filters="sRGB">
<feFlood flood-opacity="0" result="BackgroundImageFix"/>
<feBlend mode="normal" in="SourceGraphic" in2="BackgroundImageFix" result="shape"/>
<feGaussianBlur stdDeviation="1.5" result="effect1_foregroundBlur_3034_2655"/>
</filter>
<filter id="filter7_f_3034_2655" x="540.439" y="112.516" width="10" height="10.0078" filterUnits="userSpaceOnUse" color-interpolation-filters="sRGB">
<feFlood flood-opacity="0" result="BackgroundImageFix"/>
<feBlend mode="normal" in="SourceGraphic" in2="BackgroundImageFix" result="shape"/>
<feGaussianBlur stdDeviation="2" result="effect1_foregroundBlur_3034_2655"/>
</filter>
<filter id="filter8_f_3034_2655" x="531" y="108" width="3" height="3" filterUnits="userSpaceOnUse" color-interpolation-filters="sRGB">
<feFlood flood-opacity="0" result="BackgroundImageFix"/>
<feBlend mode="normal" in="SourceGraphic" in2="BackgroundImageFix" result="shape"/>
<feGaussianBlur stdDeviation="0.5" result="effect1_foregroundBlur_3034_2655"/>
</filter>
<filter id="filter9_f_3034_2655" x="528" y="105" width="9" height="9" filterUnits="userSpaceOnUse" color-interpolation-filters="sRGB">
<feFlood flood-opacity="0" result="BackgroundImageFix"/>
<feBlend mode="normal" in="SourceGraphic" in2="BackgroundImageFix" result="shape"/>
<feGaussianBlur stdDeviation="2" result="effect1_foregroundBlur_3034_2655"/>
</filter>
<filter id="filter10_f_3034_2655" x="582.105" y="160.344" width="3" height="3" filterUnits="userSpaceOnUse" color-interpolation-filters="sRGB">
<feFlood flood-opacity="0" result="BackgroundImageFix"/>
<feBlend mode="normal" in="SourceGraphic" in2="BackgroundImageFix" result="shape"/>
<feGaussianBlur stdDeviation="0.25" result="effect1_foregroundBlur_3034_2655"/>
</filter>
<filter id="filter11_f_3034_2655" x="578.605" y="156.844" width="10" height="10" filterUnits="userSpaceOnUse" color-interpolation-filters="sRGB">
<feFlood flood-opacity="0" result="BackgroundImageFix"/>
<feBlend mode="normal" in="SourceGraphic" in2="BackgroundImageFix" result="shape"/>
<feGaussianBlur stdDeviation="2" result="effect1_foregroundBlur_3034_2655"/>
</filter>
<filter id="filter12_f_3034_2655" x="448.113" y="258.852" width="9" height="9" filterUnits="userSpaceOnUse" color-interpolation-filters="sRGB">
<feFlood flood-opacity="0" result="BackgroundImageFix"/>
<feBlend mode="normal" in="SourceGraphic" in2="BackgroundImageFix" result="shape"/>
<feGaussianBlur stdDeviation="2" result="effect1_foregroundBlur_3034_2655"/>
</filter>
<filter id="filter13_f_3034_2655" x="502.082" y="233.797" width="8" height="8.00781" filterUnits="userSpaceOnUse" color-interpolation-filters="sRGB">
<feFlood flood-opacity="0" result="BackgroundImageFix"/>
<feBlend mode="normal" in="SourceGraphic" in2="BackgroundImageFix" result="shape"/>
<feGaussianBlur stdDeviation="1.5" result="effect1_foregroundBlur_3034_2655"/>
</filter>
<filter id="filter14_f_3034_2655" x="470.868" y="163.6" width="1.8" height="1.8" filterUnits="userSpaceOnUse" color-interpolation-filters="sRGB">
<feFlood flood-opacity="0" result="BackgroundImageFix"/>
<feBlend mode="normal" in="SourceGraphic" in2="BackgroundImageFix" result="shape"/>
<feGaussianBlur stdDeviation="0.2" result="effect1_foregroundBlur_3034_2655"/>
</filter>
<filter id="filter15_f_3034_2655" x="467.268" y="160" width="9" height="9" filterUnits="userSpaceOnUse" color-interpolation-filters="sRGB">
<feFlood flood-opacity="0" result="BackgroundImageFix"/>
<feBlend mode="normal" in="SourceGraphic" in2="BackgroundImageFix" result="shape"/>
<feGaussianBlur stdDeviation="2" result="effect1_foregroundBlur_3034_2655"/>
</filter>
<filter id="filter16_f_3034_2655" x="440.111" y="187.016" width="9.00195" height="9" filterUnits="userSpaceOnUse" color-interpolation-filters="sRGB">
<feFlood flood-opacity="0" result="BackgroundImageFix"/>
<feBlend mode="normal" in="SourceGraphic" in2="BackgroundImageFix" result="shape"/>
<feGaussianBlur stdDeviation="2" result="effect1_foregroundBlur_3034_2655"/>
</filter>
<filter id="filter17_f_3034_2655" x="520.258" y="184.797" width="7.00195" height="7" filterUnits="userSpaceOnUse" color-interpolation-filters="sRGB">
<feFlood flood-opacity="0" result="BackgroundImageFix"/>
<feBlend mode="normal" in="SourceGraphic" in2="BackgroundImageFix" result="shape"/>
<feGaussianBlur stdDeviation="1.5" result="effect1_foregroundBlur_3034_2655"/>
</filter>
<filter id="filter18_f_3034_2655" x="511.225" y="131.219" width="8" height="8.00781" filterUnits="userSpaceOnUse" color-interpolation-filters="sRGB">
<feFlood flood-opacity="0" result="BackgroundImageFix"/>
<feBlend mode="normal" in="SourceGraphic" in2="BackgroundImageFix" result="shape"/>
<feGaussianBlur stdDeviation="1.5" result="effect1_foregroundBlur_3034_2655"/>
</filter>
<filter id="filter19_f_3034_2655" x="427" y="208" width="7" height="7" filterUnits="userSpaceOnUse" color-interpolation-filters="sRGB">
<feFlood flood-opacity="0" result="BackgroundImageFix"/>
<feBlend mode="normal" in="SourceGraphic" in2="BackgroundImageFix" result="shape"/>
<feGaussianBlur stdDeviation="1.5" result="effect1_foregroundBlur_3034_2655"/>
</filter>
<filter id="filter20_f_3034_2655" x="442" y="193" width="15" height="7" filterUnits="userSpaceOnUse" color-interpolation-filters="sRGB">
<feFlood flood-opacity="0" result="BackgroundImageFix"/>
<feBlend mode="normal" in="SourceGraphic" in2="BackgroundImageFix" result="shape"/>
<feGaussianBlur stdDeviation="1.5" result="effect1_foregroundBlur_3034_2655"/>
</filter>
<filter id="filter21_f_3034_2655" x="446" y="189" width="7" height="15" filterUnits="userSpaceOnUse" color-interpolation-filters="sRGB">
<feFlood flood-opacity="0" result="BackgroundImageFix"/>
<feBlend mode="normal" in="SourceGraphic" in2="BackgroundImageFix" result="shape"/>
<feGaussianBlur stdDeviation="1.5" result="effect1_foregroundBlur_3034_2655"/>
</filter>
<radialGradient id="paint0_radial_3034_2655" cx="0" cy="0" r="1" gradientUnits="userSpaceOnUse" gradientTransform="translate(344.684 390) rotate(-90) scale(194.334 945.657)">
<stop stop-color="#D9D9D9" stop-opacity="0.37"/>
<stop offset="1" stop-color="#D9D9D9" stop-opacity="0.05"/>
</radialGradient>
<radialGradient id="paint1_radial_3034_2655" cx="0" cy="0" r="1" gradientUnits="userSpaceOnUse" gradientTransform="translate(607.187 157.73) rotate(119.626) scale(197.036 249.849)">
<stop stop-color="#F4F8FC"/>
<stop offset="0.622318" stop-color="#F4F8FC" stop-opacity="0"/>
</radialGradient>
<linearGradient id="paint2_linear_3034_2655" x1="329" y1="193" x2="329" y2="359.341" gradientUnits="userSpaceOnUse">
<stop stop-color="#1D1E23"/>
<stop offset="1" stop-color="#0F1013"/>
</linearGradient>
<linearGradient id="paint3_linear_3034_2655" x1="329" y1="190.384" x2="329" y2="387" gradientUnits="userSpaceOnUse">
<stop stop-color="white" stop-opacity="0.1"/>
<stop offset="0.10087" stop-color="white" stop-opacity="0.06"/>
<stop offset="0.2148" stop-color="white" stop-opacity="0.03"/>
</linearGradient>
<linearGradient id="paint4_linear_3034_2655" x1="418" y1="244.626" x2="412.702" y2="273.252" gradientUnits="userSpaceOnUse">
<stop stop-color="#F4F8FC"/>
<stop offset="0.716473" stop-color="#F4F8FC" stop-opacity="0"/>
</linearGradient>
<linearGradient id="paint5_linear_3034_2655" x1="341.385" y1="231.778" x2="307.656" y2="242.937" gradientUnits="userSpaceOnUse">
<stop stop-color="#F4F8FC"/>
<stop offset="1" stop-color="#F4F8FC" stop-opacity="0"/>
</linearGradient>
<clipPath id="clip0_3034_2655">
<rect width="679" height="377" fill="white"/>
</clipPath>
<clipPath id="clip1_3034_2655">
<rect x="103" y="262.062" width="214.795" height="169.391" rx="7.08114" transform="rotate(-9.39507 103 262.062)" fill="white"/>
</clipPath>
<clipPath id="clip2_3034_2655">
<rect x="369.049" y="216.336" width="203.057" height="160.134" rx="6.69418" transform="rotate(16.9138 369.049 216.336)" fill="white"/>
</clipPath>
</defs>
</svg>
