<svg xmlns="http://www.w3.org/2000/svg" width="527" height="398" fill="none" xmlns:v="https://vecta.io/nano"><style><![CDATA[.B{fill:#f4f8fc}.C{color-interpolation-filters:sRGB}.D{flood-opacity:0}.E{opacity:.6}.F{opacity:.12}.G{fill:#dadeea}.H{fill:#07080b}.I{fill:#5c5e64}.J{stroke-opacity:.03}]]></style><g clip-path="url(#S)"><g filter="url(#A)"><path fill="#32343d" d="M73 125.812h383.951V294H73z"/></g><g clip-path="url(#T)"><rect x="38" y="104" width="361.381" height="211" rx="10" fill="url(#R)"/><g class="H"><rect x="67.832" y="280.938" width="78.105" height="50.127" rx="4.513"/><rect x="160.604" y="280.938" width="78.105" height="50.127" rx="4.513"/><rect x="253.377" y="280.938" width="78.105" height="50.127" rx="4.513"/><rect x="228.016" y="141" width="69.945" height="47.796" rx="6"/><rect x="228" y="194.172" width="70" height="44.008" rx="6"/></g><rect x="66" y="141" width="120" height="9" rx="3.76" class="B"/><g class="H"><rect x="66" y="164.898" width="120.072" height="5.829" rx="2.251"/><rect x="66" y="175.727" width="90.928" height="5.829" rx="2.251"/><rect x="68" y="255.867" width="90.928" height="8.688" rx="2.251"/></g><g fill="#37393f"><circle cx="49.5" cy="114.5" r="2.5"/><circle cx="57.5" cy="114.5" r="2.5"/><circle cx="65.5" cy="114.5" r="2.5"/></g></g><rect x="38.5" y="104.5" width="360.381" height="210" rx="9.5" stroke="#fff" class="J"/><g clip-path="url(#U)"><g clip-path="url(#V)"><rect x="180" y="103.648" width="308" height="211.167" rx="10.112" fill="#0b0c0f"/><path fill="#0f1014" d="M216.166 119.984h64.167v194.833h-64.167z"/><g class="B"><rect x="232.5" y="177.148" width="42" height="2.333" rx="1.167"/><rect x="240.684" y="190.57" width="33.833" height="2.333" rx="1.167"/><rect x="240.666" y="225.57" width="26.833" height="2.333" rx="1.167"/><rect x="240.666" y="259.406" width="28" height="2.333" rx="1.167"/><path d="M289.058 125.932c.06.129.154.237.27.313a.7.7 0 0 0 .386.113c.276 0 .452-.145.452-.346 0-.241-.181-.326-.484-.466l-.167-.075c-.48-.216-.799-.486-.799-1.057 0-.527.381-.927.975-.927a.94.94 0 0 1 .554.131c.168.1.305.25.393.432l-.518.351c-.034-.09-.093-.167-.17-.221a.43.43 0 0 0-.258-.08c-.04-.004-.08 0-.119.013s-.073.035-.103.063-.054.063-.071.102-.025.08-.026.123c0 .21.124.295.409.426l.166.075c.566.255.885.516.885 1.102 0 .632-.471.978-1.103.978a1.23 1.23 0 0 1-.707-.17 1.32 1.32 0 0 1-.505-.548l.54-.332zm-2.35.061c.104.196.199.361.427.361.219 0 .357-.09.357-.44v-2.386h.665v2.395c0 .727-.404 1.057-.993 1.057-.208.012-.415-.043-.593-.157s-.319-.283-.405-.483l.542-.347z"/><rect x="294.35" y="124.07" width="29.167" height="2.333" rx="1.167"/></g><path d="M176.5 97.82h322v21h-322z" class="H"/><path fill="#14151b" d="M328 119.5h160v10H328z"/><g class="B"><rect x="286.166" y="137.484" width="8.167" height="3.5" rx="1.75"/><rect x="286.166" y="149.148" width="8.167" height="3.5" rx="1.75"/><rect x="286.166" y="160.82" width="8.167" height="3.5" rx="1.75"/><rect x="286.166" y="172.484" width="8.167" height="3.5" rx="1.75"/><rect x="286.166" y="184.148" width="8.167" height="3.5" rx="1.75"/><rect x="286.166" y="195.82" width="8.167" height="3.5" rx="1.75"/><rect x="286.166" y="207.484" width="8.167" height="3.5" rx="1.75"/><rect x="286.166" y="219.148" width="8.167" height="3.5" rx="1.75"/><rect x="286.166" y="230.82" width="8.167" height="3.5" rx="1.75"/><rect x="286.166" y="242.484" width="8.167" height="3.5" rx="1.75"/><rect x="286.166" y="254.148" width="8.167" height="3.5" rx="1.75"/><rect x="286.166" y="265.82" width="8.167" height="3.5" rx="1.75"/><rect x="286.166" y="277.484" width="8.167" height="3.5" rx="1.75"/><rect x="286.166" y="289.148" width="8.167" height="3.5" rx="1.75"/><rect x="286.166" y="300.82" width="8.167" height="3.5" rx="1.75"/><rect x="286.166" y="312.484" width="8.167" height="3.5" rx="1.75"/></g><g class="G"><rect x="307.166" y="149.148" width="56" height="3.5" rx="1.75"/><rect x="307.166" y="160.82" width="3.5" height="3.5" rx="1.75"/><rect x="307.166" y="195.82" width="3.5" height="3.5" rx="1.75"/><rect x="307.166" y="230.82" width="21" height="3.5" rx="1.75"/><rect x="332.832" y="230.82" width="28" height="3.5" rx="1.75"/></g><rect x="365.5" y="230.82" width="52.5" height="3.5" rx="1.75" class="I"/><g filter="url(#B)"><rect x="422.666" y="230.82" width="10.5" height="3.5" rx="1.75" fill="#3f4044"/></g><rect x="307.166" y="219.148" width="52.5" height="3.5" rx="1.75" class="G"/><rect x="364.332" y="219.148" width="52.5" height="3.5" rx="1.75" fill="#1f1f21"/><rect x="307.166" y="207.484" width="25.667" height="3.5" rx="1.75" class="I"/><g class="G"><rect x="337.5" y="207.484" width="8.167" height="3.5" rx="1.75"/><rect x="307.166" y="172.484" width="37.333" height="3.5" rx="1.75"/></g><rect x="349.166" y="172.484" width="22.167" height="3.5" rx="1.75" fill="#1f1f21"/><rect x="307.166" y="137.484" width="43.167" height="3.5" rx="1.75" class="G"/><rect x="355" y="137.484" width="15.167" height="3.5" rx="1.75" class="I"/><rect x="374.832" y="137.484" width="60.667" height="3.5" rx="1.75" fill="#3f4044"/></g><rect x="180.347" y="103.995" width="307.307" height="210.474" rx="9.765" stroke="#f4f8fc" stroke-width=".693" class="J"/><g filter="url(#C)"><path stroke="#f4f8fc" stroke-width="6" d="M260 401.375v-401"/></g></g><g class="B"><path d="M265 401V-10h-4v411h4z" mask="url(#path-16-inside-1_2922_39322)"/><circle opacity=".72" cx="305.832" cy="91.898" r="1"/></g><g filter="url(#D)" class="E B"><circle cx="305.832" cy="91.898" r="1"/></g><circle cx="293.291" cy="178.824" r="1" transform="rotate(105 293.291 178.824)" class="B F"/><g filter="url(#E)" class="E B"><circle cx="293.291" cy="178.824" r="1" transform="rotate(105 293.291 178.824)"/></g><g opacity=".53" filter="url(#F)" class="B"><circle cx="331.457" cy="223.148" r="1"/></g><g filter="url(#G)" class="E B"><circle cx="331.457" cy="223.148" r="1"/></g><circle opacity=".72" cx="275.742" cy="219.145" r="1" transform="rotate(105 275.742 219.145)" class="B"/><g filter="url(#H)" class="E B"><circle cx="275.742" cy="219.145" r="1" transform="rotate(105 275.742 219.145)"/></g><circle opacity=".2" cx="274.517" cy="279.941" r="1" transform="rotate(105 274.517 279.941)" class="B"/><g filter="url(#I)" class="E B"><circle cx="274.517" cy="279.941" r="1" transform="rotate(105 274.517 279.941)"/></g><g filter="url(#J)" class="F B"><circle cx="384.967" cy="179.852" r=".5"/></g><g filter="url(#K)" class="E B"><circle cx="384.967" cy="179.852" r=".5"/></g><circle cx="357.811" cy="206.869" r=".5" transform="rotate(105 357.811 206.869)" class="B F"/><g filter="url(#L)" class="E B"><circle cx="357.811" cy="206.869" r=".5" transform="rotate(105 357.811 206.869)"/></g><circle cx="275.242" cy="153.477" r=".5" class="B F"/><g filter="url(#M)" class="E B"><circle cx="275.242" cy="153.477" r=".5"/></g><circle opacity=".2" cx="269.471" cy="168.164" r=".5" class="B"/><g filter="url(#N)" class="E B"><circle cx="269.471" cy="168.164" r=".5"/></g><g filter="url(#O)" class="F B"><circle cx="320.472" cy="182.166" r=".5" transform="rotate(105 320.472 182.166)"/></g><g filter="url(#P)" class="E B"><circle cx="320.472" cy="182.166" r=".5" transform="rotate(105 320.472 182.166)"/></g><circle opacity=".2" cx="331.192" cy="198.4" r=".5" transform="rotate(105 331.192 198.4)" class="B"/><g filter="url(#Q)" class="E B"><circle cx="331.192" cy="198.4" r=".5" transform="rotate(105 331.192 198.4)"/></g></g><defs><filter id="A" x="-17" y="35.813" width="563.951" height="348.188" filterUnits="userSpaceOnUse" class="C"><feFlood class="D"/><feBlend in="SourceGraphic"/><feGaussianBlur stdDeviation="45"/></filter><filter id="B" x="422.666" y="230.82" width="11.379" height="4.379" filterUnits="userSpaceOnUse" class="C"><feFlood class="D"/><feBlend in="SourceGraphic" result="B"/><feColorMatrix in="SourceAlpha" values="0 0 0 0 0 0 0 0 0 0 0 0 0 0 0 0 0 0 127 0" result="C"/><feOffset dx="0.879303" dy="0.879303"/><feGaussianBlur stdDeviation="1.319"/><feComposite in2="C" operator="arithmetic" k2="-1" k3="1"/><feColorMatrix values="0 0 0 0 1 0 0 0 0 1 0 0 0 0 1 0 0 0 0.2 0"/><feBlend in2="B"/></filter><filter id="C" x="162" y="-94.625" width="196" height="591" filterUnits="userSpaceOnUse" class="C"><feFlood class="D"/><feBlend in="SourceGraphic"/><feGaussianBlur stdDeviation="47.5"/></filter><filter id="D" x="301.832" y="87.898" width="8" height="8" filterUnits="userSpaceOnUse" class="C"><feFlood class="D"/><feBlend in="SourceGraphic"/><feGaussianBlur stdDeviation="1.5"/></filter><filter id="E" x="288.291" y="173.82" width="10" height="10.008" filterUnits="userSpaceOnUse" class="C"><feFlood class="D"/><feBlend in="SourceGraphic"/><feGaussianBlur stdDeviation="2"/></filter><filter id="F" x="329.957" y="221.648" width="3" height="3" filterUnits="userSpaceOnUse" class="C"><feFlood class="D"/><feBlend in="SourceGraphic"/><feGaussianBlur stdDeviation=".25"/></filter><filter id="G" x="326.457" y="218.148" width="10" height="10" filterUnits="userSpaceOnUse" class="C"><feFlood class="D"/><feBlend in="SourceGraphic"/><feGaussianBlur stdDeviation="2"/></filter><filter id="H" x="271.742" y="215.141" width="8" height="8.008" filterUnits="userSpaceOnUse" class="C"><feFlood class="D"/><feBlend in="SourceGraphic"/><feGaussianBlur stdDeviation="1.5"/></filter><filter id="I" x="270.518" y="275.938" width="8" height="8.008" filterUnits="userSpaceOnUse" class="C"><feFlood class="D"/><feBlend in="SourceGraphic"/><feGaussianBlur stdDeviation="1.5"/></filter><filter id="J" x="384.067" y="178.952" width="1.8" height="1.8" filterUnits="userSpaceOnUse" class="C"><feFlood class="D"/><feBlend in="SourceGraphic"/><feGaussianBlur stdDeviation=".2"/></filter><filter id="K" x="380.467" y="175.352" width="9" height="9" filterUnits="userSpaceOnUse" class="C"><feFlood class="D"/><feBlend in="SourceGraphic"/><feGaussianBlur stdDeviation="2"/></filter><filter id="L" x="353.311" y="202.367" width="9.002" height="9" filterUnits="userSpaceOnUse" class="C"><feFlood class="D"/><feBlend in="SourceGraphic"/><feGaussianBlur stdDeviation="2"/></filter><filter id="M" x="270.742" y="148.977" width="9" height="9" filterUnits="userSpaceOnUse" class="C"><feFlood class="D"/><feBlend in="SourceGraphic"/><feGaussianBlur stdDeviation="2"/></filter><filter id="N" x="265.971" y="164.664" width="7" height="7" filterUnits="userSpaceOnUse" class="C"><feFlood class="D"/><feBlend in="SourceGraphic"/><feGaussianBlur stdDeviation="1.5"/></filter><filter id="O" x="319.571" y="181.264" width="1.802" height="1.8" filterUnits="userSpaceOnUse" class="C"><feFlood class="D"/><feBlend in="SourceGraphic"/><feGaussianBlur stdDeviation=".2"/></filter><filter id="P" x="315.971" y="177.664" width="9.002" height="9" filterUnits="userSpaceOnUse" class="C"><feFlood class="D"/><feBlend in="SourceGraphic"/><feGaussianBlur stdDeviation="2"/></filter><filter id="Q" x="327.691" y="194.898" width="7.002" height="7" filterUnits="userSpaceOnUse" class="C"><feFlood class="D"/><feBlend in="SourceGraphic"/><feGaussianBlur stdDeviation="1.5"/></filter><linearGradient id="R" x1="230.517" y1="30.892" x2="230.517" y2="220.904" gradientUnits="userSpaceOnUse"><stop stop-color="#1d1e23"/><stop offset="1" stop-color="#0f1013"/></linearGradient><clipPath id="S"><path fill="#fff" d="M0 0h527v398H0z"/></clipPath><clipPath id="T"><rect x="38" y="104" width="361.381" height="211" rx="10" fill="#fff"/></clipPath><clipPath id="U"><path d="M263-10h263v411H263V-10z" fill="#fff"/></clipPath><clipPath id="V"><rect x="180" y="103.648" width="308" height="211.167" rx="10.112" fill="#fff"/></clipPath></defs></svg>