<svg xmlns="http://www.w3.org/2000/svg" width="345" height="278" fill="none" xmlns:v="https://vecta.io/nano"><style><![CDATA[.B{fill:#f4f8fc}.C{color-interpolation-filters:sRGB}.D{flood-opacity:0}.E{opacity:.6}]]></style><g class="E"><g filter="url(#A)" class="E"><path fill-rule="evenodd" d="M167.109 174.812c-9.289 7.552-21.136 12.079-34.041 12.079-29.823 0-54-24.177-54-54s24.177-54 54-54c18.757 0 35.28 9.563 44.96 24.078a53.77 53.77 0 0 1 34.04-12.078c29.824 0 54 24.176 54 54s-24.176 54-54 54c-18.756 0-35.279-9.563-44.959-24.079z" fill="url(#R)"/></g><g opacity=".12" filter="url(#B)" class="B"><circle cx="79.568" cy="108.062" r=".5"/></g><g filter="url(#C)" class="E B"><circle cx="79.568" cy="108.062" r=".5"/></g><g opacity=".42" filter="url(#D)" class="B"><circle cx="72.473" cy="140.719" r=".5"/></g><g filter="url(#E)" class="E B"><circle cx="72.473" cy="140.719" r=".5"/></g><circle opacity=".2" cx="81.568" cy="84.063" r=".5" class="B"/><g filter="url(#F)" class="E B"><circle cx="81.568" cy="84.063" r=".5"/></g><g opacity=".12" filter="url(#G)" class="B"><circle cx="263.079" cy="157.611" r=".5" transform="rotate(105 263.079 157.611)"/></g><g filter="url(#H)" class="E B"><circle cx="263.079" cy="157.611" r=".5" transform="rotate(105 263.079 157.611)"/></g><g opacity=".42" filter="url(#I)" class="B"><circle cx="268.567" cy="130.979" r=".5" transform="rotate(105 268.567 130.979)"/></g><g filter="url(#J)" class="E B"><circle cx="268.567" cy="130.979" r=".5" transform="rotate(105 268.567 130.979)"/></g><circle opacity=".72" cx="285.773" cy="170.09" r="1" transform="rotate(105 285.773 170.09)" class="B"/><g filter="url(#K)" class="E B"><circle cx="285.773" cy="170.09" r="1" transform="rotate(105 285.773 170.09)"/></g><g opacity=".53" filter="url(#L)" class="B"><circle cx="277.775" cy="104.012" r="1" transform="rotate(105 277.775 104.012)"/></g><g filter="url(#M)" class="E B"><circle cx="277.775" cy="104.012" r="1" transform="rotate(105 277.775 104.012)"/></g><circle opacity=".12" cx="63.568" cy="83.063" r=".5" class="B"/><g filter="url(#N)" class="E B"><circle cx="63.568" cy="83.063" r=".5"/></g><circle opacity=".72" cx="82.529" cy="63.852" r="1" class="B"/><g filter="url(#O)" class="E B"><circle cx="82.529" cy="63.852" r="1"/></g><g opacity=".53" filter="url(#P)" class="B"><circle cx="52.352" cy="119.672" r="1"/></g><g filter="url(#Q)" class="E B"><circle cx="52.352" cy="119.672" r="1"/></g></g><defs><filter id="A" x=".368" y=".191" width="344.4" height="277.4" filterUnits="userSpaceOnUse" class="C"><feFlood class="D"/><feBlend in="SourceGraphic"/><feGaussianBlur stdDeviation="39.35"/></filter><filter id="B" x="78.668" y="107.162" width="1.8" height="1.8" filterUnits="userSpaceOnUse" class="C"><feFlood class="D"/><feBlend in="SourceGraphic"/><feGaussianBlur stdDeviation=".2"/></filter><filter id="C" x="75.068" y="103.562" width="9" height="9" filterUnits="userSpaceOnUse" class="C"><feFlood class="D"/><feBlend in="SourceGraphic"/><feGaussianBlur stdDeviation="2"/></filter><filter id="D" x="70.973" y="139.219" width="3" height="3" filterUnits="userSpaceOnUse" class="C"><feFlood class="D"/><feBlend in="SourceGraphic"/><feGaussianBlur stdDeviation=".5"/></filter><filter id="E" x="67.973" y="136.219" width="9" height="9" filterUnits="userSpaceOnUse" class="C"><feFlood class="D"/><feBlend in="SourceGraphic"/><feGaussianBlur stdDeviation="2"/></filter><filter id="F" x="78.068" y="80.563" width="7" height="7" filterUnits="userSpaceOnUse" class="C"><feFlood class="D"/><feBlend in="SourceGraphic"/><feGaussianBlur stdDeviation="1.5"/></filter><filter id="G" x="262.178" y="156.709" width="1.802" height="1.8" filterUnits="userSpaceOnUse" class="C"><feFlood class="D"/><feBlend in="SourceGraphic"/><feGaussianBlur stdDeviation=".2"/></filter><filter id="H" x="258.578" y="153.109" width="9.002" height="9" filterUnits="userSpaceOnUse" class="C"><feFlood class="D"/><feBlend in="SourceGraphic"/><feGaussianBlur stdDeviation="2"/></filter><filter id="I" x="267.066" y="129.477" width="3.002" height="3" filterUnits="userSpaceOnUse" class="C"><feFlood class="D"/><feBlend in="SourceGraphic"/><feGaussianBlur stdDeviation=".5"/></filter><filter id="J" x="264.066" y="126.477" width="9.002" height="9" filterUnits="userSpaceOnUse" class="C"><feFlood class="D"/><feBlend in="SourceGraphic"/><feGaussianBlur stdDeviation="2"/></filter><filter id="K" x="281.773" y="166.086" width="8" height="8.008" filterUnits="userSpaceOnUse" class="C"><feFlood class="D"/><feBlend in="SourceGraphic"/><feGaussianBlur stdDeviation="1.5"/></filter><filter id="L" x="276.275" y="102.508" width="3" height="3.008" filterUnits="userSpaceOnUse" class="C"><feFlood class="D"/><feBlend in="SourceGraphic"/><feGaussianBlur stdDeviation=".25"/></filter><filter id="M" x="272.775" y="99.008" width="10" height="10.008" filterUnits="userSpaceOnUse" class="C"><feFlood class="D"/><feBlend in="SourceGraphic"/><feGaussianBlur stdDeviation="2"/></filter><filter id="N" x="59.068" y="78.563" width="9" height="9" filterUnits="userSpaceOnUse" class="C"><feFlood class="D"/><feBlend in="SourceGraphic"/><feGaussianBlur stdDeviation="2"/></filter><filter id="O" x="78.529" y="59.852" width="8" height="8" filterUnits="userSpaceOnUse" class="C"><feFlood class="D"/><feBlend in="SourceGraphic"/><feGaussianBlur stdDeviation="1.5"/></filter><filter id="P" x="50.852" y="118.172" width="3" height="3" filterUnits="userSpaceOnUse" class="C"><feFlood class="D"/><feBlend in="SourceGraphic"/><feGaussianBlur stdDeviation=".25"/></filter><filter id="Q" x="47.352" y="114.672" width="10" height="10" filterUnits="userSpaceOnUse" class="C"><feFlood class="D"/><feBlend in="SourceGraphic"/><feGaussianBlur stdDeviation="2"/></filter><linearGradient id="R" x1="172.568" y1="82.64" x2="177.92" y2="180.988" gradientUnits="userSpaceOnUse"><stop offset=".409" stop-color="#a0a4b4" stop-opacity=".938"/><stop offset="1" stop-color="#707585" stop-opacity=".72"/></linearGradient></defs></svg>