<svg xmlns="http://www.w3.org/2000/svg" width="374" height="231" fill="none" xmlns:v="https://vecta.io/nano"><style><![CDATA[.B{fill:#f4f8fc}.C{fill:#33353e}.D{fill-rule:evenodd}]]></style><g clip-path="url(#C)"><g clip-path="url(#D)"><mask id="A" fill="#fff"><path d="M136.564 1.551c-4.091-.865-8.109 1.749-8.975 5.84L87.825 195.354a1.9 1.9 0 0 0 1.464 2.25h0c1.023.217 2-.492 2.684-1.283.872-1.009 2.253-1.526 3.65-1.23 1.55.328 2.675 1.56 2.942 3.027.144.791.617 1.579 1.403 1.746h0c.787.166 1.538-.363 1.99-1.028.838-1.234 2.367-1.904 3.916-1.576s2.676 1.56 2.943 3.027c.144.791.617 1.579 1.403 1.745h0c.786.167 1.538-.362 1.99-1.027.838-1.234 2.367-1.905 3.916-1.577s2.675 1.56 2.942 3.028c.144.79.617 1.579 1.403 1.745h0c.787.167 1.538-.363 1.99-1.027.839-1.234 2.367-1.905 3.917-1.577s2.675 1.56 2.942 3.028c.144.79.617 1.579 1.403 1.745h0c.786.166 1.538-.363 1.99-1.028.838-1.233 2.367-1.904 3.916-1.576s2.676 1.56 2.942 3.027c.144.791.617 1.579 1.404 1.746h0c.786.166 1.538-.363 1.989-1.028.839-1.234 2.367-1.904 3.917-1.576s2.675 1.56 2.942 3.027c.144.791.617 1.579 1.403 1.746h0c.786.166 1.538-.363 1.99-1.028.838-1.234 2.367-1.904 3.916-1.577s2.676 1.56 2.943 3.028c.143.791.616 1.579 1.403 1.745h0c.786.167 1.538-.363 1.99-1.027.838-1.234 2.366-1.905 3.916-1.577s2.675 1.56 2.942 3.028c.144.79.617 1.579 1.403 1.745h0c.787.166 1.538-.363 1.99-1.028.838-1.233 2.367-1.904 3.916-1.576s2.676 1.56 2.943 3.027c.144.791.617 1.58 1.403 1.746h0c.786.166 1.538-.363 1.99-1.028.838-1.233 2.367-1.904 3.916-1.576s2.675 1.56 2.942 3.027c.144.791.617 1.579 1.403 1.746h0c.787.166 1.539-.363 1.99-1.028a3.79 3.79 0 0 1 6.859 1.451c.144.791.617 1.579 1.403 1.745h0c.786.167 1.538-.363 1.99-1.027.838-1.234 2.367-1.905 3.916-1.577s2.676 1.56 2.943 3.028c.143.79.616 1.579 1.403 1.745h0c.786.167 1.538-.363 1.989-1.027.839-1.234 2.367-1.905 3.917-1.577s2.675 1.56 2.942 3.028c.144.79.617 1.579 1.403 1.745h0c.787.166 1.538-.363 1.99-1.028.838-1.233 2.367-1.904 3.916-1.576s2.676 1.56 2.943 3.027c.144.791.617 1.579 1.403 1.746h0c.786.166 1.538-.363 1.99-1.028.838-1.234 2.366-1.904 3.916-1.576 1.563.33 2.695 1.581 2.949 3.065.132.771.593 1.538 1.359 1.7h0a1.42 1.42 0 0 0 1.684-1.096l39.864-188.43c.865-4.091-1.75-8.109-5.841-8.975L136.564 1.551z" class="D"/></mask><path d="M136.564 1.551c-4.091-.865-8.109 1.749-8.975 5.84L87.825 195.354a1.9 1.9 0 0 0 1.464 2.25h0c1.023.217 2-.492 2.684-1.283.872-1.009 2.253-1.526 3.65-1.23 1.55.328 2.675 1.56 2.942 3.027.144.791.617 1.579 1.403 1.746h0c.787.166 1.538-.363 1.99-1.028.838-1.234 2.367-1.904 3.916-1.576s2.676 1.56 2.943 3.027c.144.791.617 1.579 1.403 1.745h0c.786.167 1.538-.362 1.99-1.027.838-1.234 2.367-1.905 3.916-1.577s2.675 1.56 2.942 3.028c.144.79.617 1.579 1.403 1.745h0c.787.167 1.538-.363 1.99-1.027.839-1.234 2.367-1.905 3.917-1.577s2.675 1.56 2.942 3.028c.144.79.617 1.579 1.403 1.745h0c.786.166 1.538-.363 1.99-1.028.838-1.233 2.367-1.904 3.916-1.576s2.676 1.56 2.942 3.027c.144.791.617 1.579 1.404 1.746h0c.786.166 1.538-.363 1.989-1.028.839-1.234 2.367-1.904 3.917-1.576s2.675 1.56 2.942 3.027c.144.791.617 1.579 1.403 1.746h0c.786.166 1.538-.363 1.99-1.028.838-1.234 2.367-1.904 3.916-1.577s2.676 1.56 2.943 3.028c.143.791.616 1.579 1.403 1.745h0c.786.167 1.538-.363 1.99-1.027.838-1.234 2.366-1.905 3.916-1.577s2.675 1.56 2.942 3.028c.144.79.617 1.579 1.403 1.745h0c.787.166 1.538-.363 1.99-1.028.838-1.233 2.367-1.904 3.916-1.576s2.676 1.56 2.943 3.027c.144.791.617 1.58 1.403 1.746h0c.786.166 1.538-.363 1.99-1.028.838-1.233 2.367-1.904 3.916-1.576s2.675 1.56 2.942 3.027c.144.791.617 1.579 1.403 1.746h0c.787.166 1.539-.363 1.99-1.028a3.79 3.79 0 0 1 6.859 1.451c.144.791.617 1.579 1.403 1.745h0c.786.167 1.538-.363 1.99-1.027.838-1.234 2.367-1.905 3.916-1.577s2.676 1.56 2.943 3.028c.143.79.616 1.579 1.403 1.745h0c.786.167 1.538-.363 1.989-1.027.839-1.234 2.367-1.905 3.917-1.577s2.675 1.56 2.942 3.028c.144.79.617 1.579 1.403 1.745h0c.787.166 1.538-.363 1.99-1.028.838-1.233 2.367-1.904 3.916-1.576s2.676 1.56 2.943 3.027c.144.791.617 1.579 1.403 1.746h0c.786.166 1.538-.363 1.99-1.028.838-1.234 2.366-1.904 3.916-1.576 1.563.33 2.695 1.581 2.949 3.065.132.771.593 1.538 1.359 1.7h0a1.42 1.42 0 0 0 1.684-1.096l39.864-188.43c.865-4.091-1.75-8.109-5.841-8.975L136.564 1.551z" fill="url(#B)" class="D"/><path d="M127.589 7.392l.489.103-.489-.103zm8.975-5.84l-.104.489.104-.489zM279.16 31.718l.104-.489-.104.489zm-37.066 196.801l-.493.084.493-.084zm-6.865-1.489l-.414-.281.414.281zm-3.393-.718l.492-.089-.492.089zm-6.859-1.451l-.414-.281.414.281zm-3.393-.717l.492-.09-.492.09zm-6.859-1.451l.414.281-.414-.281zm-3.392-.718l.491-.09-.491.09zm-6.859-1.451l-.414-.281.414.281zm-10.252-2.169l-.413-.281.413.281zm-10.251-2.169l-.414-.281.414.281zm-10.252-2.169l.414.281-.414-.281zm-10.251-2.168l-.414-.281.414.281zm-3.393-.718l-.492.089.492-.089zm-10.252-2.169l-.492.09.492-.09zm-6.859-1.451l.414.281-.414-.281zm-10.251-2.169l.413.281-.413-.281zm68.368 14.464l-.492.089.492-.089zm-78.62-16.632l.414.281-.414-.281zm-3.393-.718l-.492.089.492-.089zm71.761 15.181l.492-.089-.492.089zm-78.619-16.632l-.414-.281.414.281zm27.361 5.788l-.491.09.491-.09zm41.007 8.675l-.492.09.492-.09zm-78.62-16.632l.414.281-.414-.281zm-3.393-.718l-.492.09.492-.09zm10.252 2.169l.492-.089-.492.089zm20.503 4.338l.492-.09-.492.09zm41.006 8.675l.492-.09-.492.09zm-78.353-16.979l-.378-.327.378.327zM128.078 7.495c.809-3.821 4.561-6.263 8.382-5.455l.207-.978c-4.361-.923-8.644 1.865-9.567 6.226l.978.207zM88.314 195.458L128.078 7.495l-.978-.207-39.764 187.963.978.207zm4.037 1.19c.758-.877 1.956-1.325 3.168-1.068l.207-.978c-1.583-.335-3.145.25-4.132 1.392l.756.654zm3.168-1.068c1.344.284 2.322 1.353 2.554 2.628l.984-.179c-.302-1.661-1.576-3.056-3.331-3.427l-.207.978zm6.853 3.537c.728-1.071 2.055-1.653 3.399-1.368l.207-.979c-1.755-.371-3.485.389-4.433 1.785l.827.562zm3.399-1.368c1.344.284 2.322 1.353 2.554 2.627l.984-.178c-.302-1.661-1.576-3.056-3.331-3.428l-.207.979zm10.458 1.19c-1.754-.371-3.484.389-4.433 1.785l.827.562c.728-1.072 2.055-1.653 3.399-1.369l.207-.978zm3.331 3.427c-.302-1.66-1.576-3.056-3.331-3.427l-.207.978c1.345.285 2.323 1.354 2.554 2.628l.984-.179zm3.315 1.089c.728-1.072 2.055-1.653 3.399-1.369l.207-.978c-1.755-.371-3.485.389-4.433 1.785l.827.562zm3.399-1.369a3.29 3.29 0 0 1 2.554 2.628l.984-.179c-.302-1.66-1.576-3.056-3.331-3.427l-.207.978zm10.459 1.191c-1.755-.372-3.485.389-4.434 1.784l.827.562a3.29 3.29 0 0 1 3.4-1.368l.207-.978zm3.33 3.427c-.302-1.66-1.576-3.056-3.33-3.427l-.207.978c1.344.284 2.322 1.353 2.554 2.628l.983-.179zm3.315 1.088c.728-1.071 2.055-1.653 3.399-1.368l.207-.979c-1.755-.371-3.485.389-4.433 1.785l.827.562zm3.399-1.368c1.344.284 2.322 1.353 2.554 2.628l.984-.179c-.302-1.661-1.576-3.056-3.331-3.428l-.207.979zm10.459 1.19a4.29 4.29 0 0 0-4.434 1.785l.828.562c.728-1.072 2.055-1.653 3.399-1.368l.207-.979zm3.331 3.427c-.302-1.66-1.576-3.056-3.331-3.427l-.207.979c1.344.284 2.322 1.353 2.554 2.627l.984-.179zm3.314 1.089c.728-1.072 2.055-1.653 3.399-1.369l.207-.978c-1.755-.371-3.485.389-4.433 1.785l.827.562zm3.399-1.369a3.29 3.29 0 0 1 2.554 2.628l.984-.179c-.302-1.66-1.576-3.056-3.331-3.427l-.207.978zm10.459 1.191c-1.755-.371-3.485.389-4.433 1.784l.827.562c.728-1.071 2.055-1.652 3.399-1.368l.207-.978zm3.331 3.427c-.302-1.66-1.576-3.056-3.331-3.427l-.207.978c1.344.284 2.322 1.353 2.554 2.628l.984-.179zm3.314 1.088a3.29 3.29 0 0 1 3.4-1.368l.207-.978c-1.755-.372-3.485.388-4.434 1.784l.827.562zm3.4-1.368c1.344.284 2.322 1.353 2.553 2.628l.984-.179c-.302-1.661-1.576-3.056-3.33-3.427l-.207.978zm10.458 1.19c-1.755-.371-3.485.389-4.433 1.785l.827.562c.728-1.072 2.055-1.653 3.399-1.368l.207-.979zm3.331 3.428c-.302-1.661-1.576-3.056-3.331-3.428l-.207.979c1.344.284 2.322 1.353 2.554 2.627l.984-.178zm3.314 1.088a3.29 3.29 0 0 1 3.4-1.369l.207-.978a4.29 4.29 0 0 0-4.434 1.785l.827.562zm3.4-1.369a3.29 3.29 0 0 1 2.554 2.628l.983-.179c-.302-1.66-1.575-3.056-3.33-3.427l-.207.978zm10.458 1.191c-1.755-.371-3.485.389-4.433 1.785l.827.562c.728-1.072 2.055-1.653 3.399-1.369l.207-.978zm3.331 3.427c-.302-1.66-1.576-3.056-3.331-3.427l-.207.978a3.29 3.29 0 0 1 2.554 2.628l.984-.179zm3.315 1.088c.728-1.071 2.055-1.652 3.399-1.368l.207-.978c-1.755-.372-3.485.389-4.434 1.784l.828.562zm3.399-1.368c1.344.284 2.322 1.353 2.554 2.628l.984-.179c-.302-1.66-1.576-3.056-3.331-3.427l-.207.978zm10.458 1.19c-1.754-.371-3.484.389-4.433 1.785l.827.562c.728-1.071 2.055-1.653 3.399-1.368l.207-.979zm3.339 3.47a4.29 4.29 0 0 0-3.339-3.47l-.207.979c1.356.287 2.339 1.371 2.56 2.66l.986-.169zM284.511 40.59l-39.863 188.429.978.207L285.49 40.797l-.979-.207zm-5.454-8.382c3.82.808 6.263 4.561 5.454 8.382l.979.207c.922-4.361-1.865-8.645-6.226-9.567l-.207.978zM136.46 2.041l142.597 30.167.207-.978L136.667 1.062l-.207.978zm106.89 228.667a1.92 1.92 0 0 0 2.276-1.482l-.978-.207a.92.92 0 0 1-1.092.71l-.206.979zm-1.749-2.105c.148.86.69 1.881 1.749 2.105l.206-.979c-.472-.1-.852-.612-.969-1.295l-.986.169zm-8.466-.056c1.08.228 2.008-.501 2.507-1.236l-.827-.562c-.404.594-.979.924-1.473.82l-.207.978zm-1.791-2.145c.159.874.712 1.917 1.791 2.145l.207-.978c-.493-.105-.886-.639-1.014-1.346l-.984.179zm-8.46-.024c1.079.229 2.007-.5 2.507-1.236l-.828-.562c-.403.595-.979.924-1.472.82l-.207.978zm-1.792-2.145c.159.875.713 1.917 1.792 2.145l.207-.978c-.494-.105-.886-.639-1.015-1.346l-.984.179zm-8.46-.024c1.079.229 2.007-.5 2.507-1.235l-.827-.562c-.404.594-.98.923-1.473.819l-.207.978zm-1.791-2.145c.159.875.712 1.917 1.791 2.145l.207-.978c-.493-.104-.886-.639-1.015-1.346l-.983.179zm-8.46-.023c1.079.228 2.007-.501 2.506-1.236l-.827-.562c-.404.594-.979.924-1.472.819l-.207.979zm-10.252-2.169c1.079.228 2.007-.501 2.507-1.236l-.827-.562c-.404.594-.98.924-1.473.82l-.207.978zm-10.252-2.169c1.08.228 2.008-.501 2.507-1.236l-.827-.562c-.404.594-.979.924-1.473.82l-.207.978zm-10.251-2.169c1.079.229 2.007-.5 2.507-1.236l-.827-.562c-.404.595-.98.924-1.473.82l-.207.978zm-10.252-2.168c1.079.228 2.007-.501 2.507-1.236l-.827-.562c-.404.594-.979.924-1.473.819l-.207.979zm-1.791-2.146c.159.875.712 1.917 1.791 2.146l.207-.979c-.493-.104-.886-.639-1.014-1.346l-.984.179zm-8.46-.023c1.079.228 2.007-.501 2.507-1.236l-.828-.562c-.403.594-.979.924-1.472.819l-.207.979zm-1.792-2.145c.159.874.712 1.916 1.792 2.145l.207-.979c-.494-.104-.886-.639-1.015-1.345l-.984.179zm-8.46-.024c1.079.228 2.007-.501 2.507-1.236l-.827-.562c-.404.594-.98.924-1.473.82l-.207.978zm-10.251-2.169c1.079.229 2.007-.5 2.506-1.236l-.827-.562c-.404.595-.979.924-1.473.82l-.206.978zm69.969 13.036c.159.875.712 1.917 1.792 2.146l.207-.979c-.494-.104-.887-.639-1.015-1.345l-.984.178zm-80.221-15.205c1.079.229 2.007-.5 2.507-1.235l-.827-.562c-.404.594-.98.923-1.473.819l-.207.978zm-1.792-2.145c.159.875.713 1.917 1.792 2.145l.207-.978c-.493-.104-.886-.639-1.015-1.346l-.984.179zm71.761 15.182c.16.874.713 1.917 1.792 2.145l.207-.978c-.493-.105-.886-.639-1.015-1.346l-.984.179zm-80.221-15.205c1.08.228 2.008-.501 2.507-1.236l-.827-.562c-.404.594-.979.924-1.473.819l-.207.979zm28.964 4.361c.159.874.712 1.917 1.791 2.145l.207-.978c-.493-.105-.886-.639-1.015-1.346l-.983.179zm41.006 8.675c.159.874.712 1.917 1.791 2.145l.207-.978c-.493-.105-.886-.639-1.014-1.346l-.984.179zm-80.221-15.205c1.079.228 2.007-.501 2.507-1.236l-.827-.562c-.404.594-.98.924-1.473.82l-.207.978zm-1.792-2.145c.159.874.712 1.917 1.792 2.145l.207-.978c-.494-.105-.886-.639-1.015-1.346l-.984.179zm10.252 2.168c.159.875.712 1.917 1.791 2.146l.207-.979c-.493-.104-.886-.639-1.014-1.345l-.984.178zm20.503 4.338c.159.875.712 1.917 1.792 2.145l.206-.978c-.493-.105-.886-.639-1.014-1.346l-.984.179zm41.006 8.675c.159.875.713 1.917 1.792 2.145l.207-.978c-.494-.104-.886-.639-1.015-1.346l-.984.179zm-80.648-15.295c.66.139 1.282-.026 1.811-.315s.987-.707 1.354-1.131l-.756-.654c-.317.366-.687.696-1.075.907s-.764.291-1.126.214l-.207.979zm-1.85-2.843a2.4 2.4 0 0 0 1.85 2.843l.207-.979a1.4 1.4 0 0 1-1.079-1.657l-.978-.207z" fill="#15161c" mask="url(#A)"/></g><g clip-path="url(#E)" class="B"><path d="M253.778 45.911a1.63 1.63 0 0 0 2.208-1.445 1.64 1.64 0 0 0-1.046-1.6 1.63 1.63 0 0 0-2.209 1.445 1.64 1.64 0 0 0 1.047 1.6zm16.022 3.328l-2.684-.561a1.37 1.37 0 0 1-1.051-1.023l-.335-1.435 2.559-3.421 1.511 6.44zm-7.049-8.442l1.46.305-4.005 5.356a1.36 1.36 0 0 1-1.372.517l-2.572-.537 3.324-4.444a3.15 3.15 0 0 1 3.165-1.197zm4.025.852l1.46.305-4.004 5.356c-.32.426-.854.626-1.373.517l-2.572-.537 3.324-4.444a3.15 3.15 0 0 1 3.165-1.197zm-7.585-.062l-2.456 3.28h-.003l-1.308-5.577 1.46.305c1.072.224 1.938.982 2.307 1.993z"/></g><path d="M193.092 185.696l2.31.488-3.031 14.331-2.31-.489 3.031-14.33zm-16.168-3.418l-1.54-.326-3.032 14.33 1.54.326 3.032-14.33zm-3.082-.649l.77.162-3.334 15.764-.77-.163 3.334-15.763zm-32.339-6.841l-.77-.163-3.032 14.331.77.162 3.032-14.33zm-4.621-.971l.926.196-3.36 15.885-.926-.196 3.36-15.885zm.925.2l.926.196-3.36 15.884-.926-.196 3.36-15.884zm5.236 1.1l1.54.326-3.032 14.33-1.54-.326 3.032-14.33zm5.389 1.143l-3.08-.651-3.032 14.33 3.08.651 3.032-14.33zm.771.163l.77.163-3.032 14.331-.77-.163 3.032-14.331zm2.309.486l-.77-.163-3.032 14.331.77.163 3.032-14.331zm3.081.652l.77.163-3.032 14.33-.77-.162 3.032-14.331zm3.85.811l-1.54-.326-3.032 14.33 1.54.326 3.032-14.33zm1.539.334l.77.163-3.031 14.33-.77-.163 3.031-14.33zm3.85.811l-1.54-.326-3.031 14.33 1.54.326 3.031-14.33zm.77.165l1.54.326-3.032 14.331-1.54-.326 3.032-14.331zm3.079.655l-.77-.163-3.031 14.33.77.163 3.031-14.33zm3.081.645l.77.163-3.031 14.33-.77-.163 3.031-14.33zm2.311.486l-.77-.163-3.335 15.764.77.163 3.335-15.764zm5.391 1.137l1.54.326-3.032 14.33-1.54-.326 3.032-14.33zm3.849.818l-1.54-.326-3.031 14.33 1.54.326 3.031-14.33zm.77.165l1.54.326-3.032 14.33-1.54-.326 3.032-14.33zm3.85.816l-.77-.163-3.032 14.331.77.162 3.032-14.33zm3.081.652l.77.163-3.032 14.33-.77-.163 3.032-14.33zm2.309.486l-.77-.163-3.032 14.331.77.162 3.032-14.33zm6.16 1.308l-1.54-.326-3.032 14.33 1.54.326 3.032-14.33zm.769.159l1.54.326-3.031 14.33-1.54-.326 3.031-14.33zm3.851.816l-.77-.163-3.032 14.33.77.163 3.032-14.33zm2.31.484l.77.162-3.032 14.331-.77-.163 3.032-14.33zm3.079.654l-.77-.163-3.334 15.763.77.163 3.334-15.763zm.77.16l.77.163-3.335 15.763-.77-.163 3.335-15.763z" class="B D"/><path stroke="#33353e" stroke-width=".946" stroke-dasharray="2.84 2.84" d="M257.154 186.057L94.187 151.58"/><g class="B"><path d="M141.253 36.909l.998-4.714 3.02.639-.152.716-2.166-.458-.27 1.28 1.958.414-.151.716-1.959-.414-.424 2.002-.854-.181zm4.732 1.076a1.51 1.51 0 0 1-.58-.248 1 1 0 0 1-.347-.449c-.07-.18-.08-.386-.031-.617.042-.2.114-.357.215-.471s.224-.198.368-.249.3-.08.468-.086a3.55 3.55 0 0 1 .518.016l.517.049c.132.009.232.001.298-.023s.11-.078.127-.158l.003-.014c.037-.173.014-.319-.069-.436s-.221-.196-.414-.237c-.204-.043-.375-.033-.514.031s-.239.152-.306.265l-.755-.275c.107-.202.247-.36.418-.474s.368-.188.587-.217.453-.02.7.033c.171.036.336.092.496.167s.301.174.421.296a1.02 1.02 0 0 1 .258.442c.053.175.054.379.004.614l-.5 2.366-.801-.169.103-.486-.028-.006c-.071.087-.162.164-.272.231s-.238.109-.387.132-.313.013-.497-.026zm.346-.566c.167.035.319.033.456-.007a.75.75 0 0 0 .34-.207c.09-.096.15-.209.177-.34l.088-.417c-.03.016-.079.026-.146.032s-.137.007-.217.005l-.236-.011-.201-.014c-.128-.009-.245-.005-.352.012s-.195.055-.266.112-.118.137-.141.244c-.032.154-.001.281.095.383s.23.171.403.208zm3.901 1.463c-.353-.075-.639-.216-.86-.425s-.367-.463-.446-.765-.078-.634-.002-.991.212-.661.408-.907.437-.421.721-.521.602-.116.947-.042c.287.061.53.167.728.32s.347.337.438.557.12.457.084.715l-.796-.168a.78.78 0 0 0-.14-.475c-.096-.14-.244-.232-.445-.274a.77.77 0 0 0-.478.043c-.148.063-.276.172-.384.328s-.185.352-.235.59a1.68 1.68 0 0 0-.026.644c.034.187.105.34.213.461s.25.197.424.234c.123.026.237.026.344.001s.204-.078.289-.153a.81.81 0 0 0 .205-.296l.796.168c-.073.246-.193.452-.362.619a1.34 1.34 0 0 1-.615.341c-.242.061-.512.06-.808-.002zm4.727-2.766l-.136.645-2.033-.43.137-.645 2.032.43zm-1.351-1.171l.833.176-.702 3.319c-.024.112-.025.202-.004.269a.28.28 0 0 0 .112.149.55.55 0 0 0 .182.072.86.86 0 0 0 .146.019h.105l.003.681a1.92 1.92 0 0 1-.202.01c-.085.001-.187-.009-.306-.031a1.39 1.39 0 0 1-.544-.214.9.9 0 0 1-.329-.411c-.066-.168-.074-.362-.026-.583l.732-3.457zm3.868 3.843l.433-2.049.833.176-.748 3.535-.807-.171.133-.628-.037-.008c-.122.181-.287.315-.497.402s-.444.103-.709.047a1.23 1.23 0 0 1-.582-.284c-.155-.142-.261-.322-.319-.541s-.056-.472.004-.754l.476-2.251.833.176-.449 2.122c-.047.224-.024.415.071.573s.242.258.442.3c.122.026.248.021.375-.014s.241-.105.34-.207.17-.245.208-.425zm1.375 1.844l.748-3.535.808.171-.125.589.037.008c.108-.19.252-.324.432-.402a.93.93 0 0 1 .576-.054l.153.04c.057.015.105.031.141.047l-.162.767c-.032-.02-.086-.042-.161-.068s-.145-.047-.215-.062c-.152-.032-.296-.028-.431.012a.74.74 0 0 0-.34.209.78.78 0 0 0-.188.376l-.439 2.079-.834-.176zm3.975.913c-.354-.075-.645-.213-.871-.415a1.53 1.53 0 0 1-.459-.756c-.08-.302-.081-.638-.003-1.008.077-.364.214-.668.41-.914s.438-.42.721-.521.593-.117.931-.046c.218.046.416.125.594.236a1.43 1.43 0 0 1 .448.431c.119.178.198.388.236.632s.025.518-.04.828l-.054.255-2.898-.613.119-.562 2.099.444a.92.92 0 0 0-.014-.448.77.77 0 0 0-.22-.357.82.82 0 0 0-.396-.197.83.83 0 0 0-.475.029c-.146.054-.27.14-.37.258s-.165.254-.2.412l-.104.49c-.043.206-.043.39.001.553s.126.296.244.403.269.177.45.215a1.03 1.03 0 0 0 .34.019.74.74 0 0 0 .288-.1.65.65 0 0 0 .216-.216l.76.252a1.24 1.24 0 0 1-.395.479c-.169.123-.368.204-.6.243s-.483.028-.758-.031zm7.244-1.257l-.777-.078c-.005-.081-.028-.161-.067-.24s-.097-.148-.177-.208-.185-.104-.314-.131c-.173-.037-.327-.03-.461.02s-.211.136-.235.256c-.023.102-.003.194.06.275s.182.161.353.241l.576.257c.319.143.544.31.673.501s.171.414.119.667c-.049.222-.156.405-.321.548a1.28 1.28 0 0 1-.615.283c-.247.047-.518.039-.813-.023-.433-.092-.762-.256-.987-.493s-.329-.526-.311-.862l.829.094c.003.167.056.304.158.411s.25.18.442.221c.198.042.365.035.502-.021s.22-.143.246-.263a.32.32 0 0 0-.065-.276c-.062-.082-.171-.158-.327-.228l-.576-.254c-.324-.142-.55-.314-.677-.516s-.162-.433-.106-.691a.92.92 0 0 1 .297-.529c.155-.136.349-.224.583-.266s.494-.035.776.025c.414.088.722.245.922.472s.3.497.293.81zm1.763 3.163c-.354-.075-.645-.213-.871-.415s-.378-.455-.458-.756-.082-.638-.004-1.008c.077-.364.214-.668.41-.914s.439-.42.721-.521.593-.117.931-.046c.218.046.416.125.594.236a1.42 1.42 0 0 1 .448.431 1.55 1.55 0 0 1 .236.632c.039.242.025.518-.04.828l-.054.256-2.898-.613.119-.562 2.099.444a.91.91 0 0 0-.014-.448.76.76 0 0 0-.22-.357.81.81 0 0 0-.396-.197.83.83 0 0 0-.475.029.88.88 0 0 0-.37.258c-.098.117-.165.254-.2.412l-.104.49c-.043.206-.043.39.001.553s.126.296.244.403.269.177.45.215a1.03 1.03 0 0 0 .34.019c.106-.014.202-.048.288-.1s.159-.124.217-.216l.759.252a1.23 1.23 0 0 1-.395.479c-.168.123-.368.204-.599.243s-.484.028-.759-.03zm2.011 1.738l1.029-4.861.819.173-.123.585.048.01a1.55 1.55 0 0 1 .24-.235c.099-.082.222-.143.37-.184s.327-.042.534.002c.273.058.504.18.694.366s.324.427.395.726.069.643-.015 1.036-.215.705-.4.949-.402.415-.652.511-.513.115-.791.056c-.202-.043-.363-.112-.482-.208s-.21-.2-.271-.312a1.61 1.61 0 0 1-.128-.313l-.035-.007-.398 1.883-.834-.176zm1.472-2.921c-.048.229-.058.436-.03.621s.095.34.198.463.244.201.42.238c.185.039.349.023.494-.049s.268-.189.367-.348.175-.35.222-.571.056-.421.029-.605a.89.89 0 0 0-.196-.46.75.75 0 0 0-.434-.243c-.178-.038-.339-.023-.483.044a.88.88 0 0 0-.366.334c-.099.156-.173.348-.221.576zm5.373-.71l-.136.645-2.032-.43.136-.644 2.032.43zm-1.351-1.171l.833.176-.702 3.319c-.024.112-.025.201-.004.268a.28.28 0 0 0 .113.149.54.54 0 0 0 .182.072c.052.011.1.017.145.019l.106.001.002.681a1.89 1.89 0 0 1-.202.01c-.085.001-.187-.009-.306-.031a1.39 1.39 0 0 1-.544-.214.9.9 0 0 1-.329-.411c-.065-.168-.074-.362-.025-.583l.731-3.457zm2.813 5.246c-.355-.075-.645-.213-.872-.415a1.53 1.53 0 0 1-.458-.756c-.08-.302-.081-.638-.003-1.008.077-.364.213-.668.41-.914s.438-.42.721-.521.593-.117.93-.046a1.83 1.83 0 0 1 .595.236c.18.11.329.254.447.431s.199.388.237.632a2.29 2.29 0 0 1-.041.828l-.054.255-2.898-.613.119-.562 2.099.444a.91.91 0 0 0-.013-.448.77.77 0 0 0-.22-.357.82.82 0 0 0-.396-.197c-.171-.036-.329-.026-.476.029a.87.87 0 0 0-.369.258c-.099.117-.165.254-.2.412l-.104.49c-.044.206-.043.39.001.553s.125.296.244.403.269.177.45.215a1.03 1.03 0 0 0 .34.019c.105-.014.201-.048.288-.1a.66.66 0 0 0 .216-.216l.76.252a1.25 1.25 0 0 1-.395.479c-.169.123-.369.204-.6.243s-.484.028-.758-.031zm2.291.413l.748-3.535.797.169-.127.601.041.009a.96.96 0 0 1 .466-.397c.195-.079.411-.094.647-.044s.429.152.568.303a.93.93 0 0 1 .25.546l.037.008a.99.99 0 0 1 .495-.386c.212-.079.447-.091.703-.037.325.069.569.228.731.477s.202.571.118.965l-.502 2.373-.835-.177.474-2.244c.047-.219.022-.392-.073-.518s-.226-.209-.395-.245c-.201-.043-.372-.013-.512.089s-.229.251-.271.45l-.466 2.205-.817-.173.482-2.279a.6.6 0 0 0-.074-.472.59.59 0 0 0-.393-.254c-.12-.025-.235-.018-.346.023s-.208.108-.289.206a.81.81 0 0 0-.169.364l-.454 2.15-.834-.176zm5.854 1.238l.998-4.714.833.176-.373 1.763.034.007a1.55 1.55 0 0 1 .24-.235c.099-.082.223-.143.371-.184s.326-.042.533.002a1.38 1.38 0 0 1 .695.366c.191.185.323.427.394.726s.069.643-.014 1.036-.216.705-.401.949-.402.415-.651.511-.514.115-.791.056c-.203-.043-.364-.112-.483-.208s-.209-.2-.271-.312a1.61 1.61 0 0 1-.128-.313l-.048-.01-.118.557-.82-.173zm1.191-1.595c-.048.229-.058.436-.03.621s.096.34.198.463.244.201.421.238a.74.74 0 0 0 .494-.049c.145-.073.267-.189.367-.348s.175-.35.221-.571.057-.421.03-.605-.093-.337-.196-.46-.249-.204-.435-.243c-.178-.038-.339-.023-.483.044a.88.88 0 0 0-.366.334 1.75 1.75 0 0 0-.221.576zm2.855 2.451l.748-3.536.808.171-.125.589.037.008c.108-.191.252-.324.431-.402s.374-.096.577-.054l.153.04c.057.015.104.031.141.047l-.162.767c-.033-.02-.086-.042-.161-.068s-.145-.047-.215-.062c-.152-.032-.296-.028-.431.012a.74.74 0 0 0-.34.209c-.094.1-.156.226-.188.376l-.44 2.078-.833-.176zm3.975.913c-.355-.075-.645-.213-.872-.415s-.377-.455-.458-.756-.081-.639-.003-1.008c.077-.364.214-.668.41-.914a1.6 1.6 0 0 1 .721-.521c.283-.102.593-.117.931-.046.217.046.416.125.594.236s.329.254.447.431.199.388.237.632.025.518-.041.828l-.054.255-2.897-.613.118-.562 2.1.444a.92.92 0 0 0-.014-.448.77.77 0 0 0-.22-.357c-.105-.098-.237-.163-.396-.197-.171-.036-.329-.026-.475.029a.87.87 0 0 0-.37.259c-.099.117-.165.254-.2.412l-.104.49a1.17 1.17 0 0 0 .001.553c.044.162.125.296.244.403s.269.177.45.215a1.03 1.03 0 0 0 .34.019c.105-.014.201-.048.288-.1a.66.66 0 0 0 .216-.216l.76.252a1.24 1.24 0 0 1-.395.479c-.169.123-.369.204-.6.243s-.483.028-.758-.031zm3.89.751l.131-.617 1.976-1.258.48-.338c.13-.101.234-.203.31-.307s.129-.221.156-.352c.032-.149.025-.283-.02-.404a.69.69 0 0 0-.226-.308.92.92 0 0 0-.384-.173c-.155-.033-.298-.029-.428.01a.68.68 0 0 0-.329.212.89.89 0 0 0-.182.397l-.813-.172c.064-.299.187-.545.37-.737s.408-.323.673-.394a1.86 1.86 0 0 1 .867-.007c.316.067.581.185.795.353a1.39 1.39 0 0 1 .455.604 1.29 1.29 0 0 1 .051.747c-.037.176-.108.343-.211.499s-.263.32-.477.491-.503.372-.87.602l-.988.654-.006.032 2.053.434-.151.714-3.232-.684zm5.749 1.31c-.379-.08-.684-.245-.915-.494s-.378-.573-.447-.967-.046-.851.063-1.365.275-.936.496-1.266.489-.564.799-.697a1.69 1.69 0 0 1 1.034-.079c.378.08.682.244.913.491s.381.568.449.961.049.846-.059 1.358-.275.941-.498 1.275-.488.567-.8.701-.656.162-1.035.082zm.153-.72c.294.062.557-.033.789-.288s.41-.666.53-1.232c.079-.375.107-.697.082-.969s-.094-.486-.209-.645-.271-.262-.465-.303c-.293-.062-.556.035-.788.29s-.408.662-.528 1.223c-.081.376-.11.7-.088.972s.094.489.209.65.271.259.468.301zm2.447 1.177l.13-.617 1.976-1.258.481-.339a1.57 1.57 0 0 0 .31-.307c.077-.104.129-.221.156-.352.032-.149.025-.283-.02-.404a.69.69 0 0 0-.226-.307.92.92 0 0 0-.384-.173c-.155-.033-.298-.029-.428.011a.68.68 0 0 0-.329.212.89.89 0 0 0-.182.397l-.813-.172c.063-.299.187-.545.37-.737s.408-.323.673-.394.555-.072.867-.007.581.185.795.354a1.39 1.39 0 0 1 .455.603 1.29 1.29 0 0 1 .051.747c-.037.176-.108.343-.211.499s-.263.32-.477.491-.503.372-.87.602l-.988.654-.007.032 2.054.434-.151.714-3.232-.684zm4.024-.062l.144-.679 2.669-2.737.566.12-.205.967-.345-.073-1.798 1.849-.008.037 2.792.591-.148.702-3.667-.776zm2.064 1.35l.229-1.082.073-.302.705-3.328.805.17-.997 4.714-.815-.172z"/><rect x="137.293" y="51.656" width="44.425" height="4.155" rx=".946" transform="rotate(11.945 137.293 51.656)"/></g><rect x="135.605" y="59.633" width="86.459" height="4.355" rx=".946" transform="rotate(11.945 135.605 59.633)" class="C"/><rect x="131.807" y="77.594" width="21.748" height="4.155" rx=".946" transform="rotate(11.945 131.807 77.594)" class="B"/><rect x="129.084" y="90.461" width="31.097" height="4.155" rx=".946" transform="rotate(11.945 129.084 90.461)" class="C"/><path d="M128.455 99.389l-.855 4.041-.854-.181.855-4.04.854.181zm4.083.864l-.855 4.04-.738-.156-1.22-2.915-.03-.006-.538 2.543-.854-.181.855-4.04.75.159 1.206 2.91.036.007.537-2.541.851.18zm3.971 2.318l-.864-.183c.008-.115-.003-.221-.034-.318a.76.76 0 0 0-.14-.265c-.063-.078-.141-.144-.234-.198a1.04 1.04 0 0 0-.311-.117.98.98 0 0 0-.579.04 1.02 1.02 0 0 0-.457.374c-.127.178-.22.407-.279.687-.061.288-.069.539-.025.753s.135.388.269.521.303.22.507.263a1.05 1.05 0 0 0 .327.022c.105-.009.202-.035.29-.076a.79.79 0 0 0 .235-.175c.069-.074.125-.162.168-.266l.863.187c-.062.181-.155.348-.281.501s-.276.28-.455.384-.377.172-.6.207a2 2 0 0 1-.721-.031c-.36-.076-.665-.226-.915-.449s-.422-.506-.521-.85-.1-.735-.007-1.175.255-.797.486-1.071a1.77 1.77 0 0 1 .825-.564 1.93 1.93 0 0 1 1.01-.042c.234.05.444.128.63.237a1.67 1.67 0 0 1 .474.401 1.5 1.5 0 0 1 .282.54 1.75 1.75 0 0 1 .057.663zm.057 2.756l.855-4.041.854.181-.706 3.336 1.733.366-.149.705-2.587-.547zm6.503-2.846l.854.181-.555 2.624c-.062.294-.187.537-.375.728s-.418.323-.695.393-.583.069-.917-.002-.615-.194-.841-.37a1.43 1.43 0 0 1-.476-.641c-.093-.25-.108-.523-.046-.817l.555-2.624.854.181-.539 2.551c-.033.153-.028.297.014.431a.75.75 0 0 0 .228.343c.109.095.246.16.41.194s.317.032.454-.011a.74.74 0 0 0 .346-.221c.094-.106.157-.235.189-.389l.54-2.551zm3.503 1.955a.51.51 0 0 0-.125-.414c-.101-.113-.254-.192-.459-.235-.139-.03-.261-.035-.366-.016a.51.51 0 0 0-.254.113.4.4 0 0 0-.125.217c-.018.072-.016.138.006.199s.059.118.11.17a1.03 1.03 0 0 0 .184.144 2.33 2.33 0 0 0 .234.124l.344.163a2.61 2.61 0 0 1 .452.261c.134.097.244.205.332.323a1.03 1.03 0 0 1 .178.393 1.08 1.08 0 0 1-.002.467c-.053.247-.162.448-.325.603s-.37.257-.626.307-.545.039-.873-.03-.6-.179-.821-.33-.376-.339-.47-.564-.112-.484-.057-.776l.827.175c-.019.137-.005.258.045.364a.66.66 0 0 0 .235.262c.107.069.235.119.382.151s.275.036.39.016a.59.59 0 0 0 .288-.122.42.42 0 0 0 .144-.24c.019-.091.008-.173-.033-.246s-.106-.142-.199-.207a2.33 2.33 0 0 0-.348-.197l-.417-.204c-.323-.155-.564-.341-.724-.559s-.208-.476-.144-.775c.051-.245.161-.445.331-.6a1.36 1.36 0 0 1 .637-.312c.253-.054.527-.049.822.013s.551.17.753.32a1.27 1.27 0 0 1 .434.539 1.16 1.16 0 0 1 .059.676l-.819-.173z" class="B"/><rect x="199.619" y="105.383" width="31.097" height="4.155" rx=".946" transform="rotate(11.945 199.619 105.383)" class="C"/><path d="M198.99 114.311l-.855 4.041-.854-.181.855-4.041.854.181zm4.083.864l-.855 4.04-.738-.156-1.22-2.915-.029-.006-.538 2.543-.855-.181.855-4.04.75.158 1.206 2.911.036.007.537-2.541.851.18zm3.971 2.318l-.864-.183c.008-.115-.003-.221-.034-.318s-.076-.187-.139-.265-.142-.144-.235-.198-.195-.093-.311-.117a.98.98 0 0 0-.579.04c-.177.07-.329.194-.456.374s-.221.406-.28.687c-.061.288-.069.539-.025.753a1 1 0 0 0 .269.52.99.99 0 0 0 .507.264 1.05 1.05 0 0 0 .327.022c.105-.009.202-.035.29-.077a.76.76 0 0 0 .235-.175c.069-.073.125-.161.168-.265l.863.187c-.062.18-.155.348-.281.501a1.66 1.66 0 0 1-.454.384 1.72 1.72 0 0 1-.601.207c-.221.034-.462.024-.721-.031-.36-.076-.665-.226-.915-.449s-.422-.506-.521-.85-.1-.735-.007-1.175.255-.798.487-1.072.505-.461.824-.563a1.93 1.93 0 0 1 1.01-.042c.234.05.444.128.63.236a1.67 1.67 0 0 1 .474.402c.129.157.223.337.282.539a1.76 1.76 0 0 1 .057.664zm.057 2.755l.855-4.04.854.181-.705 3.336 1.732.366-.149.705-2.587-.548zm6.503-2.845l.854.18-.555 2.624c-.062.295-.187.538-.375.729a1.43 1.43 0 0 1-.695.393c-.277.069-.582.069-.917-.002s-.615-.194-.841-.37-.384-.39-.476-.641-.108-.523-.046-.817l.555-2.624.855.181-.54 2.55c-.033.154-.028.298.014.432a.75.75 0 0 0 .228.343c.109.095.246.159.41.194s.317.032.454-.011a.73.73 0 0 0 .346-.222c.094-.105.157-.234.189-.388l.54-2.551zm3.503 1.955c.018-.163-.023-.301-.125-.414s-.254-.192-.459-.235c-.139-.03-.261-.035-.366-.016a.51.51 0 0 0-.254.113c-.065.058-.106.13-.125.217-.017.072-.016.138.006.199s.059.118.11.17a1.07 1.07 0 0 0 .184.144 2.33 2.33 0 0 0 .234.124l.344.163a2.61 2.61 0 0 1 .452.261c.134.097.244.205.332.323a1.03 1.03 0 0 1 .178.393 1.08 1.08 0 0 1-.002.467c-.053.247-.162.448-.325.603s-.37.257-.626.307-.544.039-.873-.03-.6-.179-.821-.331a1.27 1.27 0 0 1-.47-.563c-.093-.225-.111-.484-.056-.776l.826.174a.64.64 0 0 0 .045.364c.051.105.129.192.235.262a1.12 1.12 0 0 0 .382.151c.145.031.275.037.391.017s.212-.06.287-.123.123-.142.144-.239c.019-.091.008-.173-.033-.246s-.106-.142-.199-.207-.208-.131-.348-.198l-.417-.203c-.323-.155-.564-.341-.724-.559s-.208-.477-.144-.775c.051-.245.161-.445.331-.6a1.35 1.35 0 0 1 .637-.312c.254-.054.528-.05.822.013.3.063.551.17.753.32a1.27 1.27 0 0 1 .434.539 1.16 1.16 0 0 1 .059.676l-.819-.173z" class="B"/><rect x="123.289" y="117.852" width="31.097" height="4.155" rx=".946" transform="rotate(11.945 123.289 117.852)" class="C"/><path d="M122.66 126.78l-.855 4.04-.854-.18.855-4.041.854.181zm4.083.864l-.855 4.04-.738-.156-1.22-2.915-.029-.006-.538 2.543-.855-.181.855-4.04.75.158 1.206 2.91.036.008.537-2.541.851.18zm3.971 2.318l-.864-.183c.008-.115-.003-.221-.034-.319s-.076-.186-.139-.264-.142-.144-.235-.198-.195-.093-.311-.117c-.209-.045-.402-.031-.579.04s-.329.194-.457.373-.22.407-.279.687c-.061.288-.069.539-.025.753s.135.388.269.521a.99.99 0 0 0 .507.264 1.08 1.08 0 0 0 .327.022c.105-.009.202-.035.29-.077a.77.77 0 0 0 .235-.175.87.87 0 0 0 .168-.265l.863.187c-.062.18-.155.347-.281.501s-.276.28-.455.384-.377.171-.6.207-.462.024-.721-.031c-.36-.076-.665-.226-.915-.449a1.78 1.78 0 0 1-.521-.851c-.098-.343-.1-.735-.007-1.174s.255-.798.486-1.072.506-.462.825-.563a1.93 1.93 0 0 1 1.01-.042c.234.049.444.128.63.236s.346.242.474.401.223.338.282.54a1.76 1.76 0 0 1 .057.664zm.057 2.755l.855-4.04.854.18-.705 3.337 1.732.366-.149.704-2.587-.547zm6.503-2.845l.854.18-.555 2.624c-.062.295-.187.538-.375.729a1.45 1.45 0 0 1-.695.393 2.04 2.04 0 0 1-.917-.002c-.335-.071-.615-.195-.841-.37s-.384-.39-.476-.641-.108-.523-.046-.817l.555-2.624.855.18-.54 2.551c-.033.154-.028.298.014.432s.119.248.228.343.246.159.41.194.317.031.454-.011.253-.116.346-.222a.82.82 0 0 0 .189-.389l.54-2.55zm3.503 1.955a.51.51 0 0 0-.125-.414c-.101-.114-.254-.192-.459-.235-.139-.03-.261-.035-.366-.016a.51.51 0 0 0-.254.113c-.065.058-.106.13-.125.217-.018.072-.016.138.006.199s.059.118.11.17.113.098.184.144a2.14 2.14 0 0 0 .234.123l.344.164c.168.077.319.164.452.26s.244.205.332.324.147.25.178.392.033.299-.002.468c-.053.247-.162.448-.325.603s-.37.256-.626.307-.545.039-.873-.031-.6-.179-.821-.33-.376-.338-.47-.563-.111-.485-.057-.777l.827.175a.64.64 0 0 0 .045.364.66.66 0 0 0 .235.262 1.12 1.12 0 0 0 .382.151 1.05 1.05 0 0 0 .39.017c.117-.019.213-.06.288-.123s.123-.142.144-.239c.019-.091.008-.173-.033-.246s-.106-.142-.199-.208a2.52 2.52 0 0 0-.348-.197l-.417-.203c-.323-.155-.564-.342-.724-.56s-.208-.476-.144-.774c.051-.245.161-.445.331-.6a1.34 1.34 0 0 1 .637-.312c.254-.054.527-.05.822.013.3.063.551.17.753.32s.348.329.434.539a1.16 1.16 0 0 1 .059.676l-.819-.173z" class="B"/><rect x="193.824" y="132.773" width="31.097" height="4.155" rx=".946" transform="rotate(11.945 193.824 132.773)" class="C"/><path d="M193.195 141.702l-.854 4.04-.855-.18.855-4.041.854.181zm4.083.863l-.855 4.041-.738-.156-1.22-2.915-.029-.006-.538 2.543-.855-.181.855-4.041.75.159 1.206 2.91.036.008.537-2.541.851.179zm3.971 2.319l-.864-.183a.87.87 0 0 0-.033-.319.78.78 0 0 0-.14-.264.84.84 0 0 0-.235-.198 1.03 1.03 0 0 0-.311-.118.98.98 0 0 0-.579.041 1.01 1.01 0 0 0-.456.373c-.127.178-.22.407-.28.687-.061.288-.069.539-.025.753s.135.388.269.521a.99.99 0 0 0 .507.264c.114.024.223.031.327.022s.202-.035.29-.077a.76.76 0 0 0 .235-.175.87.87 0 0 0 .168-.265l.863.186a1.59 1.59 0 0 1-.281.502 1.66 1.66 0 0 1-.454.384c-.177.102-.378.171-.601.207s-.462.023-.721-.031c-.36-.077-.665-.226-.915-.45a1.77 1.77 0 0 1-.521-.85c-.097-.343-.1-.735-.007-1.174s.256-.798.487-1.072a1.77 1.77 0 0 1 .824-.564c.318-.103.655-.116 1.01-.041a2.1 2.1 0 0 1 .631.236c.187.108.345.242.473.401s.223.338.282.54.079.424.057.664zm.057 2.755l.855-4.04.854.18-.705 3.336 1.732.367-.149.704-2.587-.547zm6.503-2.846l.854.181-.555 2.624c-.062.295-.187.538-.374.729s-.418.322-.696.393-.582.068-.916-.003a2.03 2.03 0 0 1-.842-.369 1.44 1.44 0 0 1-.476-.641 1.45 1.45 0 0 1-.046-.818l.555-2.624.855.181-.54 2.551c-.033.154-.028.298.014.432s.119.248.228.343.246.159.411.194.317.031.453-.011a.74.74 0 0 0 .346-.222.82.82 0 0 0 .189-.389l.54-2.551zm3.503 1.956a.51.51 0 0 0-.124-.414c-.101-.114-.255-.192-.46-.236a.96.96 0 0 0-.365-.015c-.105.018-.189.055-.255.113s-.106.13-.124.217c-.018.072-.017.138.005.199s.059.118.11.17.113.098.184.144a2.14 2.14 0 0 0 .234.123l.344.164a2.61 2.61 0 0 1 .452.26c.134.097.244.205.332.324a1.05 1.05 0 0 1 .179.392 1.12 1.12 0 0 1-.002.468c-.054.247-.163.448-.326.603s-.37.256-.625.307-.545.039-.874-.031-.6-.179-.821-.33-.376-.339-.47-.563-.111-.485-.056-.777l.826.175a.64.64 0 0 0 .045.364.66.66 0 0 0 .235.262 1.12 1.12 0 0 0 .382.151c.145.031.275.036.391.017s.212-.06.287-.123.123-.142.144-.24c.019-.09.008-.172-.033-.246s-.106-.142-.199-.207a2.52 2.52 0 0 0-.348-.197l-.417-.203c-.323-.155-.564-.342-.724-.56s-.208-.476-.144-.774c.051-.245.161-.445.331-.6a1.35 1.35 0 0 1 .638-.313c.253-.053.527-.049.821.013.3.064.551.171.753.32a1.27 1.27 0 0 1 .434.54 1.16 1.16 0 0 1 .059.676l-.819-.173z" class="B"/></g><defs><linearGradient id="B" x1="207.862" y1="16.635" x2="172.086" y2="185.743" gradientUnits="userSpaceOnUse"><stop stop-color="#1d1e23"/><stop offset="1" stop-color="#0f1013"/></linearGradient><clipPath id="C"><path fill="#fff" transform="matrix(.978346 .206974 -.206974 .978346 129.156 0)" d="M0 0h160.895v201.592H0z"/></clipPath><clipPath id="D"><path fill="#fff" transform="matrix(.978346 .206974 -.206974 .978346 129.156 0)" d="M0 0h160.895v205.378H0z"/></clipPath><clipPath id="E"><path fill="#fff" transform="matrix(.978867 .204496 -.204496 .978867 253.832 38.9453)" d="M0 0h17.737v6.849H0z"/></clipPath></defs></svg>