<svg xmlns="http://www.w3.org/2000/svg" xmlns:xlink="http://www.w3.org/1999/xlink" width="528" height="210" fill="none" xmlns:v="https://vecta.io/nano"><style><![CDATA[.B{fill:#f4f8fc}.C{fill:#797c80}.D{color-interpolation-filters:sRGB}.E{flood-opacity:0}.F{opacity:.6}.G{fill:#33353e}.H{fill:#1a1b20}.I{stroke:#1c1e20}.J{fill:#fff}.K{opacity:.2}.L{opacity:.12}]]></style><g clip-path="url(#Y)"><path fill="#0f1014" d="M0 0h528v210H0z"/><g filter="url(#B)" class="K B"><path d="M183.291 81.297h162.217v35.133H183.291z"/></g><rect x="147.902" y="70.5" width="232.196" height="59.143" rx="9.5" fill="url(#W)"/><rect x="147.902" y="70.5" width="232.196" height="59.143" rx="9.5" stroke="#1f2026"/><g class="B"><path fill-rule="evenodd" d="M189.37 93h-2.691c-2.204 0-4.214 1.343-5.147 3.452L177.301 106h4.741c.956 0 1.826-.578 2.232-1.494L189.37 93zm12.87 12.942h-4.947c-.957 0-1.827-.584-2.233-1.494l-1.122-2.536 3.257-7.35 5.045 11.379zm-29.527.024c1.987.319 3.67-1.452 3.367-3.542-.189-1.301-1.203-2.367-2.44-2.566-1.986-.319-3.67 1.452-3.366 3.542.189 1.301 1.202 2.367 2.439 2.566zM194.099 93h2.691l-5.096 11.506c-.406.916-1.276 1.494-2.233 1.494h-4.74l4.231-9.548c.933-2.108 2.943-3.452 5.147-3.452zm-16.547 9.879l3.126-7.048c-1.025-1.735-2.834-2.807-4.809-2.807h-2.691l4.368 9.856h.006z"/><rect x="227.24" y="87.5" width="63" height="8" rx="2"/></g><rect x="227.24" y="103.5" width="130" height="8" rx="2" class="G"/><g filter="url(#C)" class="K B"><path d="M166.554 82c0 8.284 18.285 17.5 10 17.5s-22-1.716-22-10-28.784-31-20.5-31 32.5 15.216 32.5 23.5z"/></g><g filter="url(#D)" class="L B"><circle cx="370.716" cy="132.893" r=".5" transform="rotate(105 370.716 132.893)"/></g><g filter="url(#E)" class="F B"><circle cx="370.716" cy="132.893" r=".5" transform="rotate(105 370.716 132.893)"/></g><g filter="url(#F)" class="L B"><circle cx="160.5" cy="97.5" r=".5"/></g><g filter="url(#G)" class="F B"><circle cx="160.5" cy="97.5" r=".5"/></g><circle cx="384.102" cy="129.291" r=".5" transform="rotate(105 384.102 129.291)" class="B L"/><g filter="url(#H)" class="F B"><circle cx="384.102" cy="129.291" r=".5" transform="rotate(105 384.102 129.291)"/></g><circle cx="153.557" cy="85.5" r=".5" class="B L"/><g filter="url(#I)" class="F B"><circle cx="153.557" cy="85.5" r=".5"/></g><g opacity=".42" filter="url(#J)" class="B"><circle cx="364.526" cy="125.08" r=".5" transform="rotate(105 364.526 125.08)"/></g><g filter="url(#K)" class="F B"><circle cx="364.526" cy="125.08" r=".5" transform="rotate(105 364.526 125.08)"/></g><g opacity=".42" filter="url(#L)" class="B"><circle cx="154.557" cy="105.5" r=".5"/></g><g filter="url(#M)" class="F B"><circle cx="154.557" cy="105.5" r=".5"/></g><circle opacity=".72" cx="380.918" cy="139.254" r="1" transform="rotate(105 380.918 139.254)" class="B"/><g filter="url(#N)" class="F B"><circle cx="380.918" cy="139.254" r="1" transform="rotate(105 380.918 139.254)"/></g><circle opacity=".72" cx="164" cy="86" r="1" class="B"/><g filter="url(#O)" class="F B"><circle cx="164" cy="86" r="1"/></g><g opacity=".53" filter="url(#P)" class="B"><circle cx="379.592" cy="117.152" r="1" transform="rotate(105 379.592 117.152)"/></g><g filter="url(#Q)" class="F B"><circle cx="379.592" cy="117.152" r="1" transform="rotate(105 379.592 117.152)"/></g><g opacity=".53" filter="url(#R)" class="B"><circle cx="143" cy="93" r="1"/></g><g filter="url(#S)" class="F B"><circle cx="143" cy="93" r="1"/></g><circle cx="395.177" cy="134.33" r=".5" transform="rotate(105 395.177 134.33)" class="B K"/><g filter="url(#T)" class="F B"><circle cx="395.177" cy="134.33" r=".5" transform="rotate(105 395.177 134.33)"/></g><circle cx="155.557" cy="73.5" r=".5" class="B K"/><g filter="url(#U)" class="F B"><circle cx="155.557" cy="73.5" r=".5"/></g><g filter="url(#V)" class="K B"><path d="M382.379 126.269c.548 8.266 19.402 16.251 11.136 16.799s-22.065-.256-22.613-8.522-30.773-29.026-22.507-29.575 33.436 13.031 33.984 21.298z"/></g><mask id="A" maskUnits="userSpaceOnUse" x="-46" y="7" width="616" height="188" mask-type="alpha"><path fill="url(#X)" d="M-45.238 7.367h614.291v187.469H-45.238z"/></mask><g mask="url(#A)"><rect x="164.785" y="5.813" width="191.788" height="50.525" rx="8.5" class="H"/><rect x="164.785" y="5.813" width="191.788" height="50.525" rx="8.5" class="I"/><g clip-path="url(#Z)" class="C"><path d="M183.816 36.401c1.635.263 3.02-1.195 2.77-2.915-.155-1.071-.989-1.948-2.007-2.112-1.635-.263-3.02 1.195-2.77 2.915.155 1.071.989 1.948 2.007 2.112zm24.299-.021h-4.071c-.787 0-1.503-.481-1.837-1.23l-.924-2.087 2.681-6.048 4.151 9.365z"/><use xlink:href="#g"/><path d="M201.415 25.727h2.215l-4.194 9.469c-.334.753-1.051 1.229-1.837 1.229h-3.902l3.482-7.858c.768-1.735 2.422-2.841 4.236-2.841zm-11.043 2.333l-2.573 5.8h-.005l-3.595-8.11h2.215c1.625 0 3.114.882 3.958 2.31z"/></g><rect x="221.598" y="18.438" width="86.798" height="7.584" rx="2" class="C"/><rect x="221.598" y="36.133" width="117.978" height="7.584" rx="2" class="G"/><rect x="164.785" y="143.812" width="191.788" height="50.525" rx="8.5" class="H"/><rect x="164.785" y="143.812" width="191.788" height="50.525" rx="8.5" class="I"/><g clip-path="url(#a)" class="C"><path d="M183.816 174.401c1.635.263 3.02-1.194 2.77-2.915-.155-1.07-.989-1.948-2.007-2.111-1.635-.263-3.02 1.194-2.77 2.915.155 1.07.989 1.948 2.007 2.111zm24.299-.021h-4.071c-.787 0-1.503-.481-1.837-1.229l-.924-2.087 2.681-6.048 4.151 9.364z"/><use xlink:href="#h"/><path d="M201.415 163.727h2.215l-4.194 9.468c-.334.754-1.051 1.23-1.837 1.23h-3.902l3.482-7.858c.768-1.735 2.422-2.84 4.236-2.84zm-11.043 2.333l-2.573 5.8h-.005l-3.595-8.11h2.215c1.625 0 3.114.882 3.958 2.31z"/></g><rect x="221.598" y="156.438" width="86.798" height="7.584" rx="2" class="C"/><rect x="221.598" y="174.133" width="117.978" height="7.584" rx="2" class="G"/><rect x="394.262" y="74.813" width="191.788" height="50.525" rx="8.5" class="H"/><rect x="394.262" y="74.813" width="191.788" height="50.525" rx="8.5" class="I"/><g clip-path="url(#b)" class="C"><use xlink:href="#i"/><path d="M437.592 105.38h-4.071c-.787 0-1.503-.481-1.838-1.229l-.923-2.087 2.681-6.048 4.151 9.364zm-12.806-10.653h2.215l-4.194 9.468c-.334.754-1.05 1.23-1.837 1.23h-3.902l3.482-7.858c.768-1.735 2.422-2.841 4.236-2.841zm6.106 0h2.214l-4.193 9.468c-.335.754-1.051 1.23-1.838 1.23h-3.901l3.482-7.858c.768-1.735 2.422-2.841 4.236-2.841z"/><use xlink:href="#j"/></g><rect x="451.074" y="87.438" width="86.798" height="7.584" rx="2" class="C"/><rect x="451.074" y="105.133" width="117.978" height="7.584" rx="2" class="G"/><rect x="-64.738" y="74.813" width="197.476" height="50.525" rx="8.5" class="H"/><rect x="-64.738" y="74.813" width="197.476" height="50.525" rx="8.5" class="I"/><rect x="-2.236" y="87.438" width="86.798" height="7.584" rx="2" class="C"/><rect x="-2.236" y="105.133" width="117.978" height="7.584" rx="2" class="G"/><rect x="-45.738" y="5.813" width="196.126" height="50.525" rx="8.5" class="H"/><rect x="-45.738" y="5.813" width="196.126" height="50.525" rx="8.5" class="I"/><g clip-path="url(#c)" class="C"><path d="M1.471 36.703h-4.754a.74.74 0 0 1-.663-.423l-1.602-3.439a.63.63 0 0 1 0-.548l2.552-5.48a.32.32 0 0 1 .574 0l4.306 9.238a.46.46 0 0 1-.418.647l.005.005z"/></g><rect x="15.412" y="18.438" width="86.798" height="7.584" rx="2" class="C"/><rect x="15.412" y="36.133" width="117.978" height="7.584" rx="2" class="G"/><rect x="-44.738" y="143.812" width="196.126" height="50.525" rx="8.5" class="H"/><rect x="-44.738" y="143.812" width="196.126" height="50.525" rx="8.5" class="I"/><g clip-path="url(#d)" class="C"><path d="M2.471 174.703h-4.754c-.282 0-.543-.167-.663-.423l-1.602-3.439a.63.63 0 0 1 0-.548l2.552-5.48a.32.32 0 0 1 .574 0l4.306 9.237a.46.46 0 0 1-.418.648l.005.005z"/></g><rect x="16.412" y="156.438" width="86.798" height="7.584" rx="2" class="C"/><rect x="16.412" y="174.133" width="117.978" height="7.584" rx="2" class="G"/><rect x="375.262" y="143.812" width="191.788" height="50.525" rx="8.5" class="H"/><rect x="375.262" y="143.812" width="191.788" height="50.525" rx="8.5" class="I"/><g clip-path="url(#e)" class="C"><path d="M394.292 174.401c1.635.263 3.021-1.194 2.771-2.915-.156-1.07-.99-1.948-2.007-2.111-1.635-.263-3.021 1.194-2.771 2.915.156 1.07.99 1.948 2.007 2.111zm24.3-.021h-4.071c-.787 0-1.503-.481-1.838-1.229l-.923-2.087 2.681-6.048 4.151 9.364zm-12.806-10.653h2.215l-4.194 9.468c-.334.754-1.05 1.23-1.837 1.23h-3.902l3.482-7.858c.768-1.735 2.422-2.84 4.236-2.84zm6.106 0h2.214l-4.193 9.468c-.335.754-1.051 1.23-1.838 1.23h-3.901l3.482-7.858c.768-1.735 2.422-2.84 4.236-2.84zm-11.044 2.333l-2.572 5.8h-.005l-3.595-8.11h2.214c1.626 0 3.115.882 3.958 2.31z"/></g><rect x="432.074" y="156.438" width="86.798" height="7.584" rx="2" class="C"/><rect x="432.074" y="174.133" width="117.978" height="7.584" rx="2" class="G"/><rect x="375.262" y="5.813" width="191.788" height="50.525" rx="8.5" class="H"/><rect x="375.262" y="5.813" width="191.788" height="50.525" rx="8.5" class="I"/><g clip-path="url(#f)" class="C"><path d="M394.292 36.401c1.635.263 3.021-1.195 2.771-2.915-.156-1.071-.99-1.948-2.007-2.112-1.635-.263-3.021 1.195-2.771 2.915.156 1.071.99 1.948 2.007 2.112zm24.3-.021h-4.071c-.787 0-1.503-.481-1.838-1.23l-.923-2.087 2.681-6.048 4.151 9.365zm-12.806-10.653h2.215l-4.194 9.469c-.334.753-1.05 1.229-1.837 1.229h-3.902l3.482-7.858c.768-1.735 2.422-2.841 4.236-2.841zm6.106 0h2.214l-4.193 9.469c-.335.753-1.051 1.229-1.838 1.229h-3.901l3.482-7.858c.768-1.735 2.422-2.841 4.236-2.841zm-11.044 2.333l-2.572 5.8h-.005l-3.595-8.11h2.214c1.626 0 3.115.882 3.958 2.31z"/></g><rect x="432.074" y="18.438" width="86.798" height="7.584" rx="2" class="C"/><rect x="432.074" y="36.133" width="117.978" height="7.584" rx="2" class="G"/></g></g><defs><filter id="B" x="139.291" y="37.297" width="250.217" height="123.133" filterUnits="userSpaceOnUse" class="D"><feFlood class="E"/><feBlend in="SourceGraphic"/><feGaussianBlur stdDeviation="22"/></filter><filter id="C" x="88.557" y="14.5" width="134.152" height="129" filterUnits="userSpaceOnUse" class="D"><feFlood class="E"/><feBlend in="SourceGraphic"/><feGaussianBlur stdDeviation="22"/></filter><filter id="D" x="369.815" y="131.991" width="1.802" height="1.8" filterUnits="userSpaceOnUse" class="D"><feFlood class="E"/><feBlend in="SourceGraphic"/><feGaussianBlur stdDeviation=".2"/></filter><filter id="E" x="366.215" y="128.391" width="9.002" height="9" filterUnits="userSpaceOnUse" class="D"><feFlood class="E"/><feBlend in="SourceGraphic"/><feGaussianBlur stdDeviation="2"/></filter><filter id="F" x="159.6" y="96.6" width="1.8" height="1.8" filterUnits="userSpaceOnUse" class="D"><feFlood class="E"/><feBlend in="SourceGraphic"/><feGaussianBlur stdDeviation=".2"/></filter><filter id="G" x="156" y="93" width="9" height="9" filterUnits="userSpaceOnUse" class="D"><feFlood class="E"/><feBlend in="SourceGraphic"/><feGaussianBlur stdDeviation="2"/></filter><filter id="H" x="379.602" y="124.789" width="9.002" height="9" filterUnits="userSpaceOnUse" class="D"><feFlood class="E"/><feBlend in="SourceGraphic"/><feGaussianBlur stdDeviation="2"/></filter><filter id="I" x="149.057" y="81" width="9" height="9" filterUnits="userSpaceOnUse" class="D"><feFlood class="E"/><feBlend in="SourceGraphic"/><feGaussianBlur stdDeviation="2"/></filter><filter id="J" x="363.025" y="123.578" width="3.002" height="3" filterUnits="userSpaceOnUse" class="D"><feFlood class="E"/><feBlend in="SourceGraphic"/><feGaussianBlur stdDeviation=".5"/></filter><filter id="K" x="360.025" y="120.578" width="9.002" height="9" filterUnits="userSpaceOnUse" class="D"><feFlood class="E"/><feBlend in="SourceGraphic"/><feGaussianBlur stdDeviation="2"/></filter><filter id="L" x="153.057" y="104" width="3" height="3" filterUnits="userSpaceOnUse" class="D"><feFlood class="E"/><feBlend in="SourceGraphic"/><feGaussianBlur stdDeviation=".5"/></filter><filter id="M" x="150.057" y="101" width="9" height="9" filterUnits="userSpaceOnUse" class="D"><feFlood class="E"/><feBlend in="SourceGraphic"/><feGaussianBlur stdDeviation="2"/></filter><filter id="N" x="376.918" y="135.25" width="8" height="8.008" filterUnits="userSpaceOnUse" class="D"><feFlood class="E"/><feBlend in="SourceGraphic"/><feGaussianBlur stdDeviation="1.5"/></filter><filter id="O" x="160" y="82" width="8" height="8" filterUnits="userSpaceOnUse" class="D"><feFlood class="E"/><feBlend in="SourceGraphic"/><feGaussianBlur stdDeviation="1.5"/></filter><filter id="P" x="378.092" y="115.648" width="3" height="3.008" filterUnits="userSpaceOnUse" class="D"><feFlood class="E"/><feBlend in="SourceGraphic"/><feGaussianBlur stdDeviation=".25"/></filter><filter id="Q" x="374.592" y="112.148" width="10" height="10.008" filterUnits="userSpaceOnUse" class="D"><feFlood class="E"/><feBlend in="SourceGraphic"/><feGaussianBlur stdDeviation="2"/></filter><filter id="R" x="141.5" y="91.5" width="3" height="3" filterUnits="userSpaceOnUse" class="D"><feFlood class="E"/><feBlend in="SourceGraphic"/><feGaussianBlur stdDeviation=".25"/></filter><filter id="S" x="138" y="88" width="10" height="10" filterUnits="userSpaceOnUse" class="D"><feFlood class="E"/><feBlend in="SourceGraphic"/><feGaussianBlur stdDeviation="2"/></filter><filter id="T" x="391.676" y="130.828" width="7.002" height="7" filterUnits="userSpaceOnUse" class="D"><feFlood class="E"/><feBlend in="SourceGraphic"/><feGaussianBlur stdDeviation="1.5"/></filter><filter id="U" x="152.057" y="70" width="7" height="7" filterUnits="userSpaceOnUse" class="D"><feFlood class="E"/><feBlend in="SourceGraphic"/><feGaussianBlur stdDeviation="1.5"/></filter><filter id="V" x="315.365" y="73.353" width="111.843" height="101.45" filterUnits="userSpaceOnUse" class="D"><feFlood class="E"/><feBlend in="SourceGraphic"/><feGaussianBlur stdDeviation="15.8"/></filter><linearGradient id="W" x1="264" y1="70" x2="264.402" y2="140.5" gradientUnits="userSpaceOnUse"><stop stop-color="#1d1e23"/><stop offset="1" stop-color="#0f1013"/></linearGradient><radialGradient id="X" cx="0" cy="0" r="1" gradientUnits="userSpaceOnUse" gradientTransform="translate(261.907 101.102) rotate(90) scale(110.644 362.553)"><stop stop-color="#d9d9d9" stop-opacity=".15"/><stop offset="1" stop-color="#d9d9d9" stop-opacity="0"/></radialGradient><clipPath id="Y"><path d="M0 0h528v210H0z" class="J"/></clipPath><clipPath id="Z"><path transform="translate(181.781 25.727)" d="M0 0h26.334v10.698H0z" class="J"/></clipPath><clipPath id="a"><path transform="translate(181.781 163.727)" d="M0 0h26.334v10.698H0z" class="J"/></clipPath><clipPath id="b"><path transform="translate(411.258 94.727)" d="M0 0h26.334v10.698H0z" class="J"/></clipPath><clipPath id="c"><path transform="translate(-28.742 25.438)" d="M0 0h30.672v11.283H0z" class="J"/></clipPath><clipPath id="d"><path transform="translate(-27.742 163.438)" d="M0 0h30.672v11.283H0z" class="J"/></clipPath><clipPath id="e"><path transform="translate(392.258 163.727)" d="M0 0h26.334v10.698H0z" class="J"/></clipPath><clipPath id="f"><path transform="translate(392.258 25.727)" d="M0 0h26.334v10.698H0z" class="J"/></clipPath><path id="g" d="M195.31 25.727h2.214l-4.193 9.469c-.335.753-1.051 1.229-1.838 1.229h-3.901l3.482-7.858c.768-1.735 2.422-2.841 4.236-2.841z"/><path id="h" d="M195.31 163.727h2.214l-4.193 9.468c-.335.754-1.051 1.23-1.838 1.23h-3.901l3.482-7.858c.768-1.735 2.422-2.84 4.236-2.84z"/><path id="i" d="M413.292 105.401c1.635.263 3.021-1.194 2.771-2.915-.156-1.07-.99-1.948-2.007-2.111-1.635-.263-3.021 1.194-2.771 2.915.156 1.07.99 1.948 2.007 2.111z"/><path id="j" d="M419.848 97.06l-2.572 5.8h-.005l-3.595-8.11h2.214c1.626 0 3.115.882 3.958 2.31z"/></defs></svg>