<svg width="1225" height="491" viewBox="0 0 1225 491" fill="none" xmlns="http://www.w3.org/2000/svg">
<g clip-path="url(#clip0_3147_7260)">
<mask id="mask0_3147_7260" style="mask-type:alpha" maskUnits="userSpaceOnUse" x="23" y="0" width="1202" height="608">
<rect x="23" width="1202" height="608" fill="url(#paint0_radial_3147_7260)"/>
</mask>
<g mask="url(#mask0_3147_7260)">
<mask id="path-2-inside-1_3147_7260" fill="white">
<path fill-rule="evenodd" clip-rule="evenodd" d="M760.945 26H659.531C576.459 26 500.723 74.0309 465.552 149.416L306.096 490.802H484.756C520.79 490.802 553.587 470.125 568.907 437.386L760.945 26ZM1246 488.878H1059.57C1023.54 488.878 990.74 467.986 975.42 435.463L933.129 344.786L1055.9 82.0156L1246 488.878ZM133.259 489.504C208.132 500.919 271.569 437.596 260.133 362.857C253.013 316.334 214.821 278.211 168.214 271.103C93.341 259.688 29.9038 323.011 41.3397 397.75C48.4602 444.273 86.652 482.396 133.259 489.504ZM939.174 26H1040.59L848.549 437.386C833.23 470.125 800.432 490.802 764.398 490.802H585.738L745.194 149.416C780.365 74.0309 856.101 26 939.174 26ZM315.589 379.23L433.4 127.229C394.777 65.198 326.593 26.8594 252.151 26.8594H150.738L315.373 379.23H315.589Z"/>
</mask>
<path fill-rule="evenodd" clip-rule="evenodd" d="M760.945 26H659.531C576.459 26 500.723 74.0309 465.552 149.416L306.096 490.802H484.756C520.79 490.802 553.587 470.125 568.907 437.386L760.945 26ZM1246 488.878H1059.57C1023.54 488.878 990.74 467.986 975.42 435.463L933.129 344.786L1055.9 82.0156L1246 488.878ZM133.259 489.504C208.132 500.919 271.569 437.596 260.133 362.857C253.013 316.334 214.821 278.211 168.214 271.103C93.341 259.688 29.9038 323.011 41.3397 397.75C48.4602 444.273 86.652 482.396 133.259 489.504ZM939.174 26H1040.59L848.549 437.386C833.23 470.125 800.432 490.802 764.398 490.802H585.738L745.194 149.416C780.365 74.0309 856.101 26 939.174 26ZM315.589 379.23L433.4 127.229C394.777 65.198 326.593 26.8594 252.151 26.8594H150.738L315.373 379.23H315.589Z" fill="url(#paint1_radial_3147_7260)"/>
<path d="M760.945 26L761.851 26.423L762.515 25H760.945V26ZM465.552 149.416L466.458 149.839L466.458 149.839L465.552 149.416ZM306.096 490.802L305.19 490.378L304.525 491.802H306.096V490.802ZM568.907 437.386L569.813 437.81L569.813 437.809L568.907 437.386ZM1246 488.878V489.878H1247.57L1246.91 488.455L1246 488.878ZM975.42 435.463L974.514 435.886L974.516 435.889L975.42 435.463ZM933.129 344.786L932.223 344.362L932.025 344.785L932.223 345.208L933.129 344.786ZM1055.9 82.0156L1056.81 81.5923L1055.9 79.6533L1055 81.5923L1055.9 82.0156ZM260.133 362.857L261.122 362.706L261.122 362.706L260.133 362.857ZM133.259 489.504L133.108 490.492L133.108 490.492L133.259 489.504ZM168.214 271.103L168.365 270.114L168.365 270.114L168.214 271.103ZM41.3397 397.75L40.3513 397.901L40.3513 397.901L41.3397 397.75ZM1040.59 26L1041.49 26.423L1042.16 25H1040.59V26ZM848.549 437.386L849.455 437.81L849.456 437.809L848.549 437.386ZM585.738 490.802L584.832 490.378L584.167 491.802H585.738V490.802ZM745.194 149.416L746.1 149.839L746.1 149.839L745.194 149.416ZM433.4 127.229L434.306 127.652L434.536 127.161L434.249 126.7L433.4 127.229ZM315.589 379.23V380.23H316.225L316.495 379.653L315.589 379.23ZM150.738 26.8594V25.8594H149.167L149.832 27.2827L150.738 26.8594ZM315.373 379.23L314.467 379.653L314.736 380.23H315.373V379.23ZM659.531 27H760.945V25H659.531V27ZM466.458 149.839C501.464 74.8071 576.846 27 659.531 27V25C576.072 25 499.981 73.2547 464.646 148.993L466.458 149.839ZM307.002 491.225L466.458 149.839L464.646 148.993L305.19 490.378L307.002 491.225ZM484.756 489.802H306.096V491.802H484.756V489.802ZM568.001 436.962C552.847 469.347 520.404 489.802 484.756 489.802V491.802C521.175 491.802 554.327 470.903 569.813 437.81L568.001 436.962ZM760.038 25.577L568.001 436.963L569.813 437.809L761.851 26.423L760.038 25.577ZM1059.57 489.878H1246V487.878H1059.57V489.878ZM974.516 435.889C990 468.761 1023.15 489.878 1059.57 489.878V487.878C1023.93 487.878 991.48 467.211 976.325 435.037L974.516 435.889ZM932.223 345.208L974.514 435.886L976.327 435.04L934.035 344.363L932.223 345.208ZM1055 81.5923L932.223 344.362L934.035 345.209L1056.81 82.4389L1055 81.5923ZM1246.91 488.455L1056.81 81.5923L1055 82.4389L1245.09 489.302L1246.91 488.455ZM259.145 363.008C270.478 437.078 207.618 499.829 133.41 488.515L133.108 490.492C208.646 502.009 272.66 438.114 261.122 362.706L259.145 363.008ZM168.063 272.092C214.239 279.133 252.091 316.918 259.145 363.008L261.122 362.706C253.935 315.749 215.403 277.288 168.365 270.114L168.063 272.092ZM42.3282 397.598C30.9947 323.529 93.8547 260.777 168.063 272.092L168.365 270.114C92.8273 258.598 28.8128 322.493 40.3513 397.901L42.3282 397.598ZM133.41 488.515C87.234 481.473 49.3824 443.688 42.3282 397.598L40.3513 397.901C47.5381 444.857 86.07 483.319 133.108 490.492L133.41 488.515ZM1040.59 25H939.174V27H1040.59V25ZM849.456 437.809L1041.49 26.423L1039.68 25.577L847.643 436.963L849.456 437.809ZM764.398 491.802C800.817 491.802 833.97 470.903 849.455 437.81L847.644 436.962C832.49 469.347 800.047 489.802 764.398 489.802V491.802ZM585.738 491.802H764.398V489.802H585.738V491.802ZM744.288 148.993L584.832 490.378L586.644 491.225L746.1 149.839L744.288 148.993ZM939.174 25C855.714 25 779.624 73.2547 744.288 148.993L746.1 149.839C781.107 74.8071 856.489 27 939.174 27V25ZM432.495 126.805L314.683 378.806L316.495 379.653L434.306 127.652L432.495 126.805ZM252.151 27.8594C326.247 27.8594 394.11 66.019 432.552 127.758L434.249 126.7C395.444 64.3769 326.939 25.8594 252.151 25.8594V27.8594ZM150.738 27.8594H252.151V25.8594H150.738V27.8594ZM316.279 378.807L151.644 26.4361L149.832 27.2827L314.467 379.653L316.279 378.807ZM315.589 378.23H315.373V380.23H315.589V378.23Z" fill="url(#paint2_linear_3147_7260)" mask="url(#path-2-inside-1_3147_7260)"/>
<mask id="mask1_3147_7260" style="mask-type:alpha" maskUnits="userSpaceOnUse" x="21" y="-10" width="1202" height="485">
<rect x="21" y="-10" width="1202" height="485" fill="url(#paint3_linear_3147_7260)"/>
</mask>
<g mask="url(#mask1_3147_7260)">
<g filter="url(#filter0_i_3147_7260)">
<path fill-rule="evenodd" clip-rule="evenodd" d="M760.945 26H659.531C576.459 26 500.723 74.0309 465.552 149.416L306.096 490.802H484.756C520.79 490.802 553.587 470.125 568.907 437.386L760.945 26ZM1246 488.878H1059.57C1023.54 488.878 990.74 467.986 975.42 435.463L933.129 344.786L1055.9 82.0156L1246 488.878ZM133.259 489.504C208.132 500.919 271.569 437.596 260.133 362.857C253.013 316.334 214.821 278.211 168.214 271.103C93.341 259.688 29.9038 323.011 41.3397 397.75C48.4602 444.273 86.652 482.396 133.259 489.504ZM939.174 26H1040.59L848.549 437.386C833.23 470.125 800.432 490.802 764.398 490.802H585.738L745.194 149.416C780.365 74.0309 856.101 26 939.174 26ZM315.589 379.23L433.4 127.229C394.777 65.198 326.593 26.8594 252.151 26.8594H150.738L315.373 379.23H315.589Z" fill="#07080B" fill-opacity="0.01"/>
</g>
</g>
</g>
</g>
<defs>
<filter id="filter0_i_3147_7260" x="40" y="26" width="1206" height="470.844" filterUnits="userSpaceOnUse" color-interpolation-filters="sRGB">
<feFlood flood-opacity="0" result="BackgroundImageFix"/>
<feBlend mode="normal" in="SourceGraphic" in2="BackgroundImageFix" result="shape"/>
<feColorMatrix in="SourceAlpha" type="matrix" values="0 0 0 0 0 0 0 0 0 0 0 0 0 0 0 0 0 0 127 0" result="hardAlpha"/>
<feOffset dy="6"/>
<feGaussianBlur stdDeviation="5.4"/>
<feComposite in2="hardAlpha" operator="arithmetic" k2="-1" k3="1"/>
<feColorMatrix type="matrix" values="0 0 0 0 0.439216 0 0 0 0 0.458824 0 0 0 0 0.521569 0 0 0 0.25 0"/>
<feBlend mode="normal" in2="shape" result="effect1_innerShadow_3147_7260"/>
</filter>
<radialGradient id="paint0_radial_3147_7260" cx="0" cy="0" r="1" gradientUnits="userSpaceOnUse" gradientTransform="translate(830.5 320.5) rotate(-179.136) scale(1094.12 613.199)">
<stop stop-color="#D9D9D9"/>
<stop offset="1" stop-color="#D9D9D9" stop-opacity="0"/>
</radialGradient>
<radialGradient id="paint1_radial_3147_7260" cx="0" cy="0" r="1" gradientUnits="userSpaceOnUse" gradientTransform="translate(610 -175.5) rotate(83.4728) scale(879.704 1558.4)">
<stop stop-color="#141519"/>
<stop offset="0.699055" stop-color="#0F1014" stop-opacity="0"/>
</radialGradient>
<linearGradient id="paint2_linear_3147_7260" x1="664.5" y1="26" x2="663.5" y2="75.0001" gradientUnits="userSpaceOnUse">
<stop stop-color="#F4F8FC" stop-opacity="0.06"/>
<stop offset="1" stop-color="#F4F8FC" stop-opacity="0"/>
</linearGradient>
<linearGradient id="paint3_linear_3147_7260" x1="622" y1="-10" x2="622" y2="163" gradientUnits="userSpaceOnUse">
<stop stop-color="#D9D9D9"/>
<stop offset="1" stop-color="#D9D9D9" stop-opacity="0"/>
</linearGradient>
<clipPath id="clip0_3147_7260">
<rect width="1225" height="491" fill="white"/>
</clipPath>
</defs>
</svg>
