<svg width="1333" height="519" viewBox="0 0 1333 519" fill="none" xmlns="http://www.w3.org/2000/svg">
<g clip-path="url(#clip0_3132_7189)">
<path fill-rule="evenodd" clip-rule="evenodd" d="M1332.71 516.577H1120.83C1079.69 516.577 1041.76 492.507 1024.21 455.247L976.93 353.877L1116.82 54.4766L1332.71 516.577Z" fill="#D9D9D9"/>
<path fill-rule="evenodd" clip-rule="evenodd" d="M1107.9 0L894.41 457.35C876.97 494.62 839.04 518.7 797.78 518.7H594.39L772.23 137.96C791.51 96.64 822.05 61.86 860.57 37.38C899.04 12.92 943.47 0 989.06 0H1107.9Z" fill="#D9D9D9"/>
<path fill-rule="evenodd" clip-rule="evenodd" d="M801.85 0L588.36 457.35C570.92 494.62 532.99 518.7 491.73 518.7H288.34L466.18 137.96C485.45 96.64 516 61.86 554.52 37.38C592.98 12.92 637.42 0 683.01 0H801.85Z" fill="#D9D9D9"/>
<path fill-rule="evenodd" clip-rule="evenodd" d="M222.03 474.759C198.03 502.709 163.09 518.749 126.2 518.749C119.61 518.749 112.91 518.229 106.29 517.229C80.5802 513.309 55.9702 500.719 37.0102 481.789C18.0402 462.859 5.43016 438.289 1.50016 412.619C-4.12984 375.789 6.37016 338.669 30.3102 310.789C54.3102 282.829 89.2502 266.789 126.15 266.789C132.74 266.789 139.44 267.309 146.06 268.319C171.77 272.239 196.38 284.819 215.34 303.749C234.31 322.679 246.92 347.249 250.85 372.919C256.48 409.759 245.98 446.869 222.04 474.759H222.03Z" fill="#D9D9D9"/>
<path fill-rule="evenodd" clip-rule="evenodd" d="M441.2 115.447L309.77 396.587H303.17L118.31 0.9375H237.16C277.85 0.9375 318.07 11.3375 353.47 31.0275C388.67 50.5975 418.51 78.9975 439.77 113.137L441.2 115.447Z" fill="#D9D9D9"/>
</g>
<defs>
<clipPath id="clip0_3132_7189">
<rect width="1332.71" height="518.75" fill="white"/>
</clipPath>
</defs>
</svg>
