<svg width="691" height="267" viewBox="0 0 691 267" fill="none" xmlns="http://www.w3.org/2000/svg">
<mask id="path-1-inside-1_2841_2083" fill="white">
<path fill-rule="evenodd" clip-rule="evenodd" d="M413.479 0.8125H355.455C307.924 0.8125 264.59 28.3 244.467 71.4418L153.232 266.812H255.455C276.072 266.812 294.837 254.979 303.603 236.243L413.479 0.8125ZM690.999 265.757H584.332C563.715 265.757 544.949 253.8 536.184 235.187L511.986 183.294L582.233 32.9141L690.999 265.757ZM54.3318 266.035C97.1713 272.567 133.468 236.328 126.924 193.556C122.85 166.932 100.998 145.114 74.3318 141.047C31.4923 134.514 -4.804 170.753 1.73921 213.525C5.81328 240.149 27.6651 261.967 54.3318 266.035ZM515.433 0.8125H573.458L463.581 236.243C454.816 254.979 436.05 266.812 415.433 266.812H313.211L404.445 71.4418C424.569 28.3 467.902 0.8125 515.433 0.8125ZM158.661 202.931L226.068 58.7137C203.969 23.2141 164.957 1.27344 122.365 1.27344H64.3398L158.537 202.931H158.661Z"/>
</mask>
<path fill-rule="evenodd" clip-rule="evenodd" d="M413.479 0.8125H355.455C307.924 0.8125 264.59 28.3 244.467 71.4418L153.232 266.812H255.455C276.072 266.812 294.837 254.979 303.603 236.243L413.479 0.8125ZM690.999 265.757H584.332C563.715 265.757 544.949 253.8 536.184 235.187L511.986 183.294L582.233 32.9141L690.999 265.757ZM54.3318 266.035C97.1713 272.567 133.468 236.328 126.924 193.556C122.85 166.932 100.998 145.114 74.3318 141.047C31.4923 134.514 -4.804 170.753 1.73921 213.525C5.81328 240.149 27.6651 261.967 54.3318 266.035ZM515.433 0.8125H573.458L463.581 236.243C454.816 254.979 436.05 266.812 415.433 266.812H313.211L404.445 71.4418C424.569 28.3 467.902 0.8125 515.433 0.8125ZM158.661 202.931L226.068 58.7137C203.969 23.2141 164.957 1.27344 122.365 1.27344H64.3398L158.537 202.931H158.661Z" fill="#0F1014"/>
<path d="M413.479 0.8125L414.386 1.23541L415.05 -0.1875H413.479V0.8125ZM244.467 71.4418L245.373 71.8649L245.373 71.8645L244.467 71.4418ZM153.232 266.812L152.326 266.389L151.662 267.812H153.232V266.812ZM303.603 236.243L304.509 236.667L304.509 236.666L303.603 236.243ZM690.999 265.757V266.757H692.57L691.905 265.333L690.999 265.757ZM536.184 235.187L535.278 235.61L535.279 235.614L536.184 235.187ZM511.986 183.294L511.08 182.871L510.883 183.294L511.08 183.717L511.986 183.294ZM582.233 32.9141L583.139 32.4908L582.233 30.5513L581.327 32.4908L582.233 32.9141ZM126.924 193.556L127.913 193.405L127.913 193.405L126.924 193.556ZM54.3318 266.035L54.181 267.023L54.1811 267.023L54.3318 266.035ZM74.3318 141.047L74.4826 140.058L74.4826 140.058L74.3318 141.047ZM1.73921 213.525L0.750708 213.676L0.750714 213.676L1.73921 213.525ZM573.458 0.8125L574.364 1.23541L575.028 -0.1875H573.458V0.8125ZM463.581 236.243L464.487 236.667L464.487 236.666L463.581 236.243ZM313.211 266.812L312.305 266.389L311.64 267.812H313.211V266.812ZM404.445 71.4418L405.352 71.8649L405.352 71.8645L404.445 71.4418ZM226.068 58.7137L226.974 59.1371L227.204 58.6457L226.917 58.1852L226.068 58.7137ZM158.661 202.931V203.931H159.297L159.567 203.354L158.661 202.931ZM64.3398 1.27344V0.273438H62.769L63.4338 1.69666L64.3398 1.27344ZM158.537 202.931L157.631 203.354L157.901 203.931H158.537V202.931ZM355.455 1.8125H413.479V-0.1875H355.455V1.8125ZM245.373 71.8645C265.332 29.0761 308.311 1.8125 355.455 1.8125V-0.1875C307.537 -0.1875 263.849 27.5239 243.561 71.0191L245.373 71.8645ZM154.138 267.236L245.373 71.8649L243.561 71.0187L152.326 266.389L154.138 267.236ZM255.455 265.812H153.232V267.812H255.455V265.812ZM302.697 235.82C294.097 254.201 275.687 265.812 255.455 265.812V267.812C276.457 267.812 295.577 255.757 304.509 236.667L302.697 235.82ZM412.573 0.389587L302.697 235.821L304.509 236.666L414.386 1.23541L412.573 0.389587ZM584.332 266.757H690.999V264.757H584.332V266.757ZM535.279 235.614C544.209 254.575 563.326 266.757 584.332 266.757V264.757C564.103 264.757 545.69 253.025 537.089 234.761L535.279 235.614ZM511.08 183.717L535.278 235.61L537.09 234.765L512.893 182.871L511.08 183.717ZM581.327 32.4908L511.08 182.871L512.892 183.717L583.139 33.3373L581.327 32.4908ZM691.905 265.333L583.139 32.4908L581.327 33.3373L690.093 266.18L691.905 265.333ZM125.936 193.708C132.377 235.81 96.6573 271.478 54.4826 265.046L54.1811 267.023C97.6853 273.657 134.558 236.846 127.913 193.405L125.936 193.708ZM74.181 142.035C100.416 146.037 121.928 167.516 125.936 193.708L127.913 193.405C123.773 166.347 101.581 144.191 74.4826 140.058L74.181 142.035ZM2.72771 213.374C-3.71312 171.271 32.0063 135.604 74.181 142.035L74.4826 140.058C30.9783 133.424 -5.89488 170.235 0.750708 213.676L2.72771 213.374ZM54.4826 265.046C28.2473 261.044 6.7355 239.565 2.7277 213.374L0.750714 213.676C4.89107 240.734 27.083 262.89 54.181 267.023L54.4826 265.046ZM573.458 -0.1875H515.433V1.8125H573.458V-0.1875ZM464.487 236.666L574.364 1.23541L572.552 0.389587L462.675 235.821L464.487 236.666ZM415.433 267.812C436.436 267.812 455.556 255.757 464.487 236.667L462.676 235.82C454.076 254.201 435.665 265.812 415.433 265.812V267.812ZM313.211 267.812H415.433V265.812H313.211V267.812ZM403.539 71.0187L312.305 266.389L314.117 267.236L405.352 71.8649L403.539 71.0187ZM515.433 -0.1875C467.515 -0.1875 423.828 27.5239 403.539 71.0191L405.352 71.8645C425.31 29.0761 468.29 1.8125 515.433 1.8125V-0.1875ZM225.162 58.2902L157.755 202.507L159.567 203.354L226.974 59.1371L225.162 58.2902ZM122.365 2.27344C164.611 2.27344 203.303 24.0351 225.219 59.2421L226.917 58.1852C204.636 22.3932 165.303 0.273438 122.365 0.273438V2.27344ZM64.3398 2.27344H122.365V0.273438H64.3398V2.27344ZM159.443 202.507L65.2459 0.850217L63.4338 1.69666L157.631 203.354L159.443 202.507ZM158.661 201.931H158.537V203.931H158.661V201.931Z" fill="white" fill-opacity="0.03" mask="url(#path-1-inside-1_2841_2083)"/>
</svg>
