<svg xmlns="http://www.w3.org/2000/svg" xmlns:xlink="http://www.w3.org/1999/xlink" width="528" height="398" fill="none" xmlns:v="https://vecta.io/nano"><style><![CDATA[.B{fill:#f4f8fc}.C{color-interpolation-filters:sRGB}.D{flood-opacity:0}.E{opacity:.6}.F{stroke-width:.806}.G{stroke:#fff}.H{fill:#07080b}.I{fill:#15161a}.J{fill:#0f1014}.K{stroke:#0f1014}.L{stroke:#f4f8fc}.M{stroke-opacity:.02}.N{opacity:.2}.O{opacity:.12}.P{stroke-opacity:.03}.Q{stroke-width:.561}.R{fill-rule:evenodd}]]></style><g clip-path="url(#a)"><g clip-path="url(#b)"><rect x="69.793" y="137" width="390" height="266.676" rx="10" fill="url(#X)"/><rect x="92.793" y="252" width="344" height="197" rx="6.324" fill="url(#Y)"/><rect x="93.293" y="252.5" width="343" height="196" rx="5.824" class="G M"/><circle cx="264.793" cy="379" r="57" class="H"/><g filter="url(#A)" class="N B R"><use xlink:href="#e"/></g><g class="B"><use xlink:href="#e" class="R"/><rect x="92.982" y="191" width="228.73" height="11.595" rx="3.162"/><rect x="92.982" y="213" width="165.486" height="11.595" rx="3.162"/></g><g class="H"><circle cx="86.658" cy="152.81" r="4.216"/><circle cx="101.413" cy="152.81" r="4.216"/><circle cx="116.171" cy="152.81" r="4.216"/></g></g><rect x="70.293" y="137.5" width="389" height="265.676" rx="9.5" class="G P"/><g opacity=".7" filter="url(#B)"><rect x="-27.207" y="215.648" width="207.612" height="141.962" rx="5.619" transform="rotate(354.569 -27.207 215.648)" fill="#0a0b0f"/></g><rect x="-27.207" y="215.648" width="207.612" height="141.962" rx="8.477" transform="rotate(354.569 -27.207 215.648)" class="J"/><rect x="-26.662" y="216.099" width="206.612" height="140.962" rx="7.977" transform="rotate(354.569 -26.662 216.099)" class="G P"/><rect x="-13.271" y="231.805" width="50.5" height="113.345" rx="3.367" transform="rotate(354.569 -13.271 231.805)" class="I"/><rect x="-12.726" y="232.255" width="49.5" height="112.345" rx="2.867" transform="rotate(354.569 -12.726 232.255)" class="G M"/><rect x="49.365" y="256.289" width="122.884" height="17.395" rx="3.367" transform="rotate(354.569 49.365 256.289)" class="H"/><rect x="49.671" y="256.542" width="122.323" height="16.833" rx="3.086" transform="rotate(354.569 49.671 256.542)" class="G M Q"/><rect x="51.436" y="278.062" width="122.884" height="17.395" rx="3.367" transform="rotate(354.569 51.436 278.062)" class="H"/><rect x="51.741" y="278.315" width="122.323" height="16.833" rx="3.086" transform="rotate(354.569 51.741 278.315)" class="G M Q"/><rect x="53.508" y="299.852" width="122.884" height="17.395" rx="3.367" transform="rotate(354.569 53.508 299.852)" class="H"/><rect x="53.814" y="300.104" width="122.323" height="16.833" rx="3.086" transform="rotate(354.569 53.814 300.104)" class="G M Q"/><rect x="55.578" y="321.633" width="122.884" height="17.395" rx="3.367" transform="rotate(354.569 55.578 321.633)" class="H"/><rect x="55.884" y="321.886" width="122.323" height="16.833" rx="3.086" transform="rotate(354.569 55.884 321.886)" class="G M Q"/><g class="H"><rect x="46.869" y="230.023" width="78.556" height="6.172" rx="1.683" transform="rotate(354.569 46.869 230.023)"/><rect x="47.826" y="240.086" width="56.673" height="6.172" rx="1.683" transform="rotate(354.569 47.826 240.086)"/></g><g class="I"><rect x="71.787" y="260.914" width="63.967" height="3.928" rx="1.122" transform="rotate(354.569 71.787 260.914)"/><rect x="73.859" y="282.703" width="49.378" height="3.928" rx="1.122" transform="rotate(354.569 73.859 282.703)"/><rect x="75.93" y="304.484" width="79.678" height="3.928" rx="1.122" transform="rotate(354.569 75.93 304.484)"/><rect x="78.002" y="326.266" width="72.945" height="3.928" rx="1.122" transform="rotate(354.569 78.002 326.266)"/></g><g class="B"><circle cx="62.505" cy="264.052" r="4.489" transform="rotate(354.569 62.505 264.052)"/><circle cx="64.575" cy="285.833" r="4.489" transform="rotate(354.569 64.575 285.833)"/><circle cx="66.646" cy="307.614" r="4.489" transform="rotate(354.569 66.646 307.614)"/><circle cx="68.718" cy="329.411" r="4.489" transform="rotate(354.569 68.718 329.411)"/></g><g filter="url(#C)" class="E"><rect x="375.721" y="108" width="171.021" height="116.941" rx="5.619" transform="rotate(12.308 375.721 108)" fill="#0a0b0f"/></g><g clip-path="url(#c)"><rect x="375.721" y="108" width="171.021" height="116.941" rx="5.619" transform="rotate(12.308 375.721 108)" class="I"/><g filter="url(#D)"><g clip-path="url(#d)"><rect x="380.49" y="136.016" width="149.759" height="79.964" rx="4.923" transform="rotate(12.308 380.49 136.016)" class="H"/><path d="M391.227 197.459l-26.376-5.021a4.05 4.05 0 0 0-4.611 2.736l-4.911 15.228a4.05 4.05 0 0 0 2.611 5.097l148.02 47.733a4.05 4.05 0 0 0 5.097-2.611l7.883-24.443a4.05 4.05 0 0 0-2.931-5.186l-13.913-3.257a4.04 4.04 0 0 1-1.798-.945l-14.078-12.778a4.05 4.05 0 0 0-3.405-.993l-11.81 2.021-24.124 3.563c-1.028.151-2.074-.098-2.924-.696l-14.253-10.04a4.05 4.05 0 0 0-2.423-.738l-16.045.36c-.706.016-1.403-.153-2.023-.489l-16.812-9.123c-.367-.199-.763-.34-1.174-.418z" class="F K"/><circle cx="391.423" cy="197.821" r=".806" transform="rotate(12.308 391.423 197.821)" class="F J K"/><circle cx="444.884" cy="218.204" r=".806" transform="rotate(12.308 444.884 218.204)" class="F J K"/><circle cx="469.904" cy="215.423" r=".806" transform="rotate(12.308 469.904 215.423)" class="F J K"/><circle cx="484.534" cy="213.407" r=".806" transform="rotate(12.308 484.534 213.407)" class="F J K"/><circle cx="501.333" cy="227.477" r=".806" transform="rotate(12.308 501.333 227.477)" class="F J K"/><circle cx="410.113" cy="207.579" r=".806" transform="rotate(12.308 410.113 207.579)" class="F J K"/><path d="M387.6 204.939l-19.878-10.284c-.191-.099-.396-.168-.607-.205a2.11 2.11 0 0 0-2.439 1.716l-5.522 31.734a4.05 4.05 0 0 0 3.295 4.684l148.215 25.791a4.05 4.05 0 0 0 4.684-3.296l8.742-50.241c.508-2.915-2.181-5.373-5.039-4.606l-10.379 2.786a4.05 4.05 0 0 1-4.15-1.305l-12.006-14.278a4.05 4.05 0 0 0-4.193-1.293l-10.514 2.947a4.05 4.05 0 0 1-4.411-1.578l-13.078-18.693a4.05 4.05 0 0 0-6.318-.399l-21.791 24.034c-.813.898-1.986 1.384-3.196 1.325l-14.9-.722a4.06 4.06 0 0 0-2.152.499l-20.546 11.333c-1.184.654-2.616.673-3.817.051z" class="F L"/><circle cx="413.165" cy="192.774" r=".806" transform="rotate(12.308 413.165 192.774)" class="F I L"/><circle cx="457.685" cy="167.337" r=".806" transform="rotate(12.308 457.685 167.337)" class="F I L"/><circle cx="475.616" cy="189.22" r=".806" transform="rotate(12.308 475.616 189.22)" class="F I L"/><circle cx="490.445" cy="186.306" r=".806" transform="rotate(12.308 490.445 186.306)" class="F I L"/><circle cx="506.654" cy="203.095" r=".806" transform="rotate(12.308 506.654 203.095)" class="F I L"/><circle cx="389.747" cy="205.501" r=".806" transform="rotate(12.308 389.747 205.501)" class="F I L"/></g><rect x="380.798" y="136.495" width="148.953" height="79.158" rx="4.521" transform="rotate(12.308 380.798 136.495)" class="F G P"/></g><rect x="383.742" y="121.109" width="64.711" height="5.084" rx="1.387" transform="rotate(12.308 383.742 121.109)" class="H"/></g><rect x="376.103" y="108.595" width="170.021" height="115.941" rx="5.119" transform="rotate(12.308 376.103 108.595)" class="G P"/><g class="N"><g filter="url(#E)" class="E"><path d="M-80.293 155.278l67.646-228.383 85.389-27.698 209.656 73.552L483.654 97.69l-237.638-68.9L42.849-79.312 192.396 77.147 341.501 323.16 142.418 114.002 79.959 21.457l54.898 122.344 78.854 243.101-97.948-155.052L33.441 11.106l27.916 143.936 5.423 356.047-52.446-355.541L2.823-66.329-37.848 172.475-94.387 372.244l14.095-216.966z" fill="url(#Z)"/></g><g filter="url(#F)" class="E"><ellipse cx="50.383" cy="-59.361" rx="265.038" ry="123.815" transform="rotate(342.029 50.383 -59.361)" fill="#707585"/></g></g><circle cx="164.287" cy="146.781" r=".5" class="B O"/><g filter="url(#G)" class="E B"><circle cx="164.287" cy="146.781" r=".5"/></g><g filter="url(#H)" class="O B"><circle cx="106.696" cy="52.838" r=".5" transform="rotate(105 106.696 52.838)"/></g><g filter="url(#I)" class="E B"><circle cx="106.696" cy="52.838" r=".5" transform="rotate(105 106.696 52.838)"/></g><circle opacity=".72" cx="217.756" cy="121.231" r="1" transform="rotate(105 217.756 121.231)" class="B"/><g filter="url(#J)" class="E B"><circle cx="217.756" cy="121.231" r="1" transform="rotate(105 217.756 121.231)"/></g><circle cx="82.726" cy="118.785" r="1" transform="rotate(105 82.726 118.785)" class="B O"/><g filter="url(#K)" class="E B"><circle cx="82.726" cy="118.785" r="1" transform="rotate(105 82.726 118.785)"/></g><circle opacity=".72" cx="59.291" cy="35.563" r="1" class="B"/><g filter="url(#L)" class="E B"><circle cx="59.291" cy="35.563" r="1"/></g><g filter="url(#M)" class="O B"><circle cx="183.441" cy="47.93" r=".5"/></g><g filter="url(#N)" class="E B"><circle cx="183.441" cy="47.93" r=".5"/></g><circle cx="156.286" cy="74.947" r=".5" transform="rotate(105 156.286 74.947)" class="B O"/><g filter="url(#O)" class="E B"><circle cx="156.286" cy="74.947" r=".5" transform="rotate(105 156.286 74.947)"/></g><circle cx="235.433" cy="71.729" r=".5" transform="rotate(105 235.433 71.729)" class="B N"/><g filter="url(#P)" class="E B"><circle cx="235.433" cy="71.729" r=".5" transform="rotate(105 235.433 71.729)"/></g><g opacity=".42" filter="url(#Q)" class="B"><circle cx="159.516" cy="215.5" r=".5"/></g><g filter="url(#R)" class="E B"><circle cx="159.516" cy="215.5" r=".5"/></g><g opacity=".53" filter="url(#S)" class="B"><circle cx="120.893" cy="163.109" r="1"/></g><g filter="url(#T)" class="E B"><circle cx="120.893" cy="163.109" r="1"/></g><circle cx="40.5" cy="158.812" r=".5" class="B N"/><g filter="url(#U)" class="E B"><circle cx="40.5" cy="158.812" r=".5"/></g><circle cx="288.18" cy="60.871" r="1" transform="rotate(105 288.18 60.871)" class="B N"/><g filter="url(#V)" class="E B"><circle cx="288.18" cy="60.871" r="1" transform="rotate(105 288.18 60.871)"/></g><g filter="url(#W)" class="N"><ellipse cx="422.691" cy="194.515" rx="7.596" ry="63.365" transform="rotate(334.185 422.691 194.515)" fill="#a0a4b4"/></g></g><defs><filter id="A" x="238.28" y="352.65" width="52.863" height="52.865" filterUnits="userSpaceOnUse" class="C"><feFlood class="D"/><feBlend in="SourceGraphic"/><feGaussianBlur stdDeviation="3.175"/></filter><filter id="B" x="-35.807" y="187.4" width="237.315" height="178.177" filterUnits="userSpaceOnUse" class="C"><feFlood class="D"/><feBlend in="SourceGraphic"/><feGaussianBlur stdDeviation="4.3"/></filter><filter id="C" x="342.193" y="99.4" width="209.218" height="167.911" filterUnits="userSpaceOnUse" class="C"><feFlood class="D"/><feBlend in="SourceGraphic"/><feGaussianBlur stdDeviation="4.3"/></filter><filter id="D" x="351.672" y="124.242" width="186.908" height="133.594" filterUnits="userSpaceOnUse" class="C"><feFlood class="D"/><feGaussianBlur stdDeviation="5.887"/><feComposite in2="SourceAlpha" operator="in"/><feBlend in="SourceGraphic"/></filter><filter id="E" x="-160.039" y="-166.457" width="709.345" height="743.194" filterUnits="userSpaceOnUse" class="C"><feFlood class="D"/><feBlend in="SourceGraphic"/><feGaussianBlur stdDeviation="32.826"/></filter><filter id="F" x="-370.744" y="-368.857" width="842.254" height="618.996" filterUnits="userSpaceOnUse" class="C"><feFlood class="D"/><feBlend in="SourceGraphic"/><feGaussianBlur stdDeviation="83.054"/></filter><filter id="G" x="159.787" y="142.281" width="9" height="9" filterUnits="userSpaceOnUse" class="C"><feFlood class="D"/><feBlend in="SourceGraphic"/><feGaussianBlur stdDeviation="2"/></filter><filter id="H" x="105.795" y="51.936" width="1.802" height="1.8" filterUnits="userSpaceOnUse" class="C"><feFlood class="D"/><feBlend in="SourceGraphic"/><feGaussianBlur stdDeviation=".2"/></filter><filter id="I" x="102.195" y="48.336" width="9.002" height="9" filterUnits="userSpaceOnUse" class="C"><feFlood class="D"/><feBlend in="SourceGraphic"/><feGaussianBlur stdDeviation="2"/></filter><filter id="J" x="213.756" y="117.227" width="8" height="8.008" filterUnits="userSpaceOnUse" class="C"><feFlood class="D"/><feBlend in="SourceGraphic"/><feGaussianBlur stdDeviation="1.5"/></filter><filter id="K" x="77.727" y="113.781" width="10" height="10.008" filterUnits="userSpaceOnUse" class="C"><feFlood class="D"/><feBlend in="SourceGraphic"/><feGaussianBlur stdDeviation="2"/></filter><filter id="L" x="55.291" y="31.563" width="8" height="8" filterUnits="userSpaceOnUse" class="C"><feFlood class="D"/><feBlend in="SourceGraphic"/><feGaussianBlur stdDeviation="1.5"/></filter><filter id="M" x="182.541" y="47.03" width="1.8" height="1.8" filterUnits="userSpaceOnUse" class="C"><feFlood class="D"/><feBlend in="SourceGraphic"/><feGaussianBlur stdDeviation=".2"/></filter><filter id="N" x="178.941" y="43.43" width="9" height="9" filterUnits="userSpaceOnUse" class="C"><feFlood class="D"/><feBlend in="SourceGraphic"/><feGaussianBlur stdDeviation="2"/></filter><filter id="O" x="151.785" y="70.445" width="9.002" height="9" filterUnits="userSpaceOnUse" class="C"><feFlood class="D"/><feBlend in="SourceGraphic"/><feGaussianBlur stdDeviation="2"/></filter><filter id="P" x="231.932" y="68.227" width="7.002" height="7" filterUnits="userSpaceOnUse" class="C"><feFlood class="D"/><feBlend in="SourceGraphic"/><feGaussianBlur stdDeviation="1.5"/></filter><filter id="Q" x="158.016" y="214" width="3" height="3" filterUnits="userSpaceOnUse" class="C"><feFlood class="D"/><feBlend in="SourceGraphic"/><feGaussianBlur stdDeviation=".5"/></filter><filter id="R" x="155.016" y="211" width="9" height="9" filterUnits="userSpaceOnUse" class="C"><feFlood class="D"/><feBlend in="SourceGraphic"/><feGaussianBlur stdDeviation="2"/></filter><filter id="S" x="119.393" y="161.609" width="3" height="3" filterUnits="userSpaceOnUse" class="C"><feFlood class="D"/><feBlend in="SourceGraphic"/><feGaussianBlur stdDeviation=".25"/></filter><filter id="T" x="115.893" y="158.109" width="10" height="10" filterUnits="userSpaceOnUse" class="C"><feFlood class="D"/><feBlend in="SourceGraphic"/><feGaussianBlur stdDeviation="2"/></filter><filter id="U" x="37" y="155.312" width="7" height="7" filterUnits="userSpaceOnUse" class="C"><feFlood class="D"/><feBlend in="SourceGraphic"/><feGaussianBlur stdDeviation="1.5"/></filter><filter id="V" x="284.18" y="56.867" width="8" height="8.008" filterUnits="userSpaceOnUse" class="C"><feFlood class="D"/><feBlend in="SourceGraphic"/><feGaussianBlur stdDeviation="1.5"/></filter><filter id="W" x="358.556" y="101.675" width="128.269" height="185.681" filterUnits="userSpaceOnUse" class="C"><feFlood class="D"/><feBlend in="SourceGraphic"/><feGaussianBlur stdDeviation="17.85"/></filter><linearGradient id="X" x1="277.556" y1="44.601" x2="277.556" y2="284.751" gradientUnits="userSpaceOnUse"><stop stop-color="#1d1e23"/><stop offset="1" stop-color="#0f1013"/></linearGradient><radialGradient id="Y" cx="0" cy="0" r="1" gradientUnits="userSpaceOnUse" gradientTransform="translate(38.789 222.292) rotate(32.9704) scale(416.585 584.874)"><stop stop-color="#07080b"/><stop offset="1" stop-color="#15161a"/></radialGradient><linearGradient id="Z" x1="90.079" y1="-87.367" x2="271.311" y2="352.229" gradientUnits="userSpaceOnUse"><stop offset=".095" stop-color="#fff"/><stop offset=".409" stop-color="#a0a4b4" stop-opacity=".938"/><stop offset="1" stop-color="#707585" stop-opacity=".72"/></linearGradient><clipPath id="a"><path fill="#fff" transform="translate(.793)" d="M0 0h527v398H0z"/></clipPath><clipPath id="b"><rect x="69.793" y="137" width="390" height="266.676" rx="10" fill="#fff"/></clipPath><clipPath id="c"><rect x="375.721" y="108" width="171.021" height="116.941" rx="5.619" transform="rotate(12.308 375.721 108)" fill="#fff"/></clipPath><clipPath id="d"><rect x="380.49" y="136.016" width="149.759" height="79.964" rx="4.923" transform="rotate(12.308 380.49 136.016)" fill="#fff"/></clipPath><path id="e" d="M263.383 388.498l-8.073-8.077 2.649-4.552c2.919-5.076 5.768-10.031 8.44-12.609 7.251-7.254 17.182-3.046 17.182-3.046s4.203 9.935-3.045 17.19c-2.557 2.65-7.432 5.46-12.468 8.357l-4.685 2.737zm6.147-18.774a4.55 4.55 0 0 1 1.331-3.215c.853-.853 2.009-1.332 3.214-1.332s2.361.479 3.214 1.332a4.55 4.55 0 0 1 1.331 3.215 4.55 4.55 0 0 1-1.371 3.141 4.54 4.54 0 0 1-6.345 0 4.55 4.55 0 0 1-1.374-3.141zm-11.749-.667c-4.074-1.083-7.898.923-11.29 4.035-.157.148-.277.33-.35.532a1.37 1.37 0 0 0 .143 1.23 1.37 1.37 0 0 0 .462.437l5.473 3.3.006-.012 2.568-4.406 2.988-5.116zm7.432 22.533l3.297 5.475c.108.186.258.345.438.462a1.38 1.38 0 0 0 1.229.142c.202-.074.384-.194.531-.351 3.111-3.391 5.119-7.219 4.034-11.295l-4.634 2.71-.239.138-4.642 2.711-.014.008zm-13.106-5.737c1.161-.02 2.301.312 3.27.952s1.721 1.56 2.157 2.637a5.75 5.75 0 0 1-1.399 6.356c-.638.609-1.635 1.086-2.557 1.454-1.034.401-2.089.745-3.16 1.029a43.91 43.91 0 0 1-2.821.67c-.32.065-.642.122-.966.169-.127.016-.254.028-.382.038a1.54 1.54 0 0 1-.568-.064c-.269-.079-.51-.235-.693-.448a1.47 1.47 0 0 1-.316-.632c-.039-.166-.05-.337-.034-.506a5.55 5.55 0 0 1 .043-.368c.037-.253.095-.583.172-.96.152-.759.388-1.759.675-2.808s.638-2.167 1.032-3.147c.367-.923.844-1.917 1.453-2.552.526-.562 1.159-1.013 1.863-1.325s1.462-.481 2.231-.495z"/></defs></svg>