<svg xmlns="http://www.w3.org/2000/svg" width="218" height="129" fill="none" xmlns:v="https://vecta.io/nano"><g filter="url(#A)"><path fill-rule="evenodd" d="M39.862 77.29c.403-.74.86-1.386 1.362-1.919h.013c.127 5.258 2.31 8.586 5.513 8.586 2.996 0 4.641-2.675 5.297-6.11H58c-.937 8.713-4.735 14.903-11.3 14.903-3.794 0-6.906-2.568-8.695-6.772-.02-.873.014-1.743.101-2.595-.737-2.435-1.121-5.212-1.106-8.047 0-9.048 3.201-13.252 7.349-15.052l5.179-2.24c1.702-.843 3.093-1.861 4.202-3.114-.303-5.491-2.524-8.593-5.762-8.593-2.83 0-4.949 2.257-5.75 7.128H36c1.006-10.608 5.539-16.715 12.015-16.715 3.847 0 7.122 2.568 8.985 7.137 0 1.736-.097 3.306-.3 4.73.367-1.76.541-3.77.541-6.074 1.173 2.863 1.794 6.407 1.757 10.034 0 8.33-2.868 13.443-7.58 15.501l-5.275 2.327c-2.995 1.446-5.089 3.672-6.281 6.884zm31.366 15.46H71l.111-.552L61 44.289l4.109-7.014L65 36.75l.26.267.156-.267.111.542L79 51.137l-1.727 8.785-8.738-8.007 5.401 26.256 7.956-39.491H88L76.966 92.75h-5.738zM97 38.681v36.995l13-36.995h6V92.75h-6V58.587v-2.778L97.536 92.75H91V38.681h6zm42 28.966l15 14.87-.177.579H154l-2.981 9.655H130v-9.655h9.026 4.28L139 79.018V67.647zm6 5.793l-6-5.935V38.681h6V73.44zm-25 19.31h6V38.681h-6V92.75zm52-56v21.241h-6V36.75h6zm-6 23.172l9.828 32.828H182l-10.191-32.828H166zM156 92.75l9.951-32.828L169 70.252l-6.74 22.498H156z" fill="#0c0e13"/></g><defs><filter id="A" x="0" y=".75" width="218" height="128" filterUnits="userSpaceOnUse" color-interpolation-filters="sRGB"><feFlood flood-opacity="0"/><feBlend in="SourceGraphic"/><feGaussianBlur stdDeviation="18"/></filter></defs></svg>