<svg xmlns="http://www.w3.org/2000/svg" width="107" height="164" fill="none" xmlns:v="https://vecta.io/nano"><g filter="url(#A)"><path transform="matrix(1 0 0 -1 37.166 126.25)" fill="#0c0e13" d="M0 0h33v85H0z"/><path d="M45.315 36.714c4.673 0 8.465 6.686 8.465 14.924v14.924h-8.465c-4.673 0-8.465-6.686-8.465-14.924s3.792-14.924 8.465-14.924z" fill="#0c0e13"/><path d="M36.85 81.961c0 8.496 3.792 15.391 8.465 15.391h8.465V66.57h-8.465c-4.673 0-8.465 6.895-8.465 15.391z" fill="#232733"/><path d="M36.85 112.271c0 8.238 3.792 14.924 8.465 14.924h8.465V97.347h-8.465c-4.673 0-8.465 6.686-8.465 14.924z" fill="#07080b"/><path d="M53.779 127.195h7.967c4.398 0 7.967-6.686 7.967-14.924s-3.569-14.924-7.967-14.924h-7.967v29.848z" fill="#0c0e13"/><path d="M69.714 81.961c0-8.496-3.569-15.391-7.967-15.391s-7.967 6.895-7.967 15.391 3.569 15.391 7.967 15.391 7.967-6.895 7.967-15.391z" fill="#0c0e13"/></g><defs><filter id="A" x=".85" y=".711" width="105.316" height="162.484" filterUnits="userSpaceOnUse" color-interpolation-filters="sRGB"><feFlood flood-opacity="0"/><feBlend in="SourceGraphic"/><feGaussianBlur stdDeviation="18"/></filter></defs></svg>