<svg xmlns="http://www.w3.org/2000/svg" width="124" height="158" fill="none" xmlns:v="https://vecta.io/nano"><g filter="url(#A)"><path d="M36.166 121.25l4.642-76.503 20.827-8.497 20.885 8.509 4.646 76.491h-51zm41.319-18.156l-.291-4.756-.128-2.109H52.634l.584-9.608h23.267l-.156-2.52-1.5-24.702-.096-1.585-13.067-5.322v-.002l-.029-.012-13.078 5.336-.895 14.732h6.409l.454-7.483 7.111-2.821.006.002.022.01 7.099 2.815.741 12.169H47.379l-1.569 25.856-.153 2.518h31.981l-.153-2.518z" fill="#0c0e13"/></g><defs><filter id="A" x=".166" y=".25" width="123" height="157" filterUnits="userSpaceOnUse" color-interpolation-filters="sRGB"><feFlood flood-opacity="0"/><feBlend in="SourceGraphic"/><feGaussianBlur stdDeviation="18"/></filter></defs></svg>