<svg xmlns="http://www.w3.org/2000/svg" width="130" height="147" fill="none" xmlns:v="https://vecta.io/nano"><g filter="url(#A)"><path transform="matrix(1 0 0 -1 36.166 110.75)" fill="#0c0e13" d="M0 0h57v74H0z"/><path d="M61.218 83.265c.38-.854.57-1.834.546-2.815 0-1.391-.237-2.467-.736-3.257-.523-.791-1.187-1.391-1.947-1.676-.879-.38-1.805-.569-2.731-.569H55.09c-.285 0-.594.032-.926.063v10.626c.166.032.499.063.974.032.451.032.998.032 1.615.032.974.032 1.924-.158 2.803-.632.689-.348 1.259-.98 1.662-1.803z" fill="#0c0e13"/><path d="M83.068 110.742H46.256c-5.581 0-10.094-6.008-10.094-13.44v-47.12c0-7.432 4.512-13.44 10.094-13.44h36.813c5.581 0 10.094 6.009 10.094 13.44v47.12c0 7.432-4.512 13.44-10.094 13.44zM65.517 73.9c-.95-1.771-2.28-3.099-3.824-3.858-1.615-.791-3.396-1.075-5.344-1.075-.57 0-.95 0-1.187.032s-.57.032-1.021.032V58.879c.024-.221-.095-.411-.261-.443h-4.608c-.19 0-.285.127-.285.411v32.541c0 .221.071.348.238.348.404 0 .784 0 1.33.032.57.032 1.164.032 1.805.063s1.33.032 2.066.063 1.449.032 2.161.032c1.947 0 3.563-.316 4.892-.98 1.188-.538 2.28-1.423 3.182-2.593.76-1.012 1.354-2.245 1.734-3.605a15.75 15.75 0 0 0 .546-4.111c0-2.72-.475-4.965-1.425-6.736zm16.839-12.302c-.665-1.265-1.591-2.245-2.66-2.814-1.164-.664-2.589-1.012-4.299-1.012a12.44 12.44 0 0 0-3.23.411c-.831.19-1.663.538-2.422 1.012a.68.68 0 0 0-.261.601v5.503c0 .095.024.221.095.285s.142.032.214-.032c.926-.727 1.9-1.233 2.945-1.55.903-.316 1.853-.474 2.802-.474s1.544.158 1.971.443c.38.221.641.759.641 1.328 0 .443-.19.854-.57 1.265s-1.164.885-2.328 1.486c-1.211.569-2.328 1.328-3.373 2.277-.736.696-1.354 1.613-1.805 2.688-.38 1.012-.57 2.119-.546 3.226 0 1.36.285 2.656.807 3.826.594 1.265 1.473 2.277 2.494 2.909 1.116.759 2.517 1.107 4.204 1.107a15.49 15.49 0 0 0 2.945-.285c.712-.126 1.401-.379 2.042-.727.095-.032.19-.158.238-.285.024-.127.047-.253.047-.38v-5.155c0-.126-.047-.253-.119-.316-.214-.063-.332-.063-.427 0-.713.506-1.473.854-2.28 1.075-.879.253-1.758.411-2.66.411-.475.032-.974-.063-1.425-.221-.309-.095-.57-.316-.736-.632a2.1 2.1 0 0 1-.19-.854c0-.285.095-.569.237-.822a2.98 2.98 0 0 1 .808-.854c.546-.379 1.116-.727 1.686-1.044 1.282-.569 2.517-1.36 3.657-2.309.784-.664 1.425-1.549 1.876-2.625a8.75 8.75 0 0 0 .546-3.257c.024-1.486-.309-2.973-.926-4.206z" fill="#0c0e13"/></g><defs><filter id="A" x=".162" y=".742" width="129.004" height="146.008" filterUnits="userSpaceOnUse" color-interpolation-filters="sRGB"><feFlood flood-opacity="0"/><feBlend in="SourceGraphic"/><feGaussianBlur stdDeviation="18"/></filter></defs></svg>