<svg xmlns="http://www.w3.org/2000/svg" width="224" height="154" fill="none" xmlns:v="https://vecta.io/nano"><g filter="url(#A)"><path fill-rule="evenodd" d="M36 64.499s5.315 5.309 10.645 5.309l4.018 25.499c.151 1.233.59 2.071 1.086 2.071s.935-.838 1.086-2.071l4.018-25.499c6.312 0 10.645-5.309 10.645-5.309l-9.045 50.527c-.259 1.49-.697 2.451-1.286 2.451H46.333c-.59 0-1.009-.961-1.286-2.451L36 64.499zm10.245-16.404l-.002.003.024.178.043.338c.225 2.138 1.072 3.496 2.143 3.432 1.044-.062 1.598-1.146 1.759-3.565.06-.898.065-1.816.071-2.728l.002-.286c.014-2.069.274-3.98.822-5.709.519-1.638 1.2-2.883 2.132-3.738l-.025.171-.043.296c-.686 4.315-.192 7.282 1.634 9.812l.559.762a38.38 38.38 0 0 1 1.219 1.715c1.439 2.183 2.344 5.062 2.556 8.789.088 1.531.022 3.034-.228 4.524-.106-.133-.208-.265-.306-.393-.21-.273-.407-.53-.615-.74-2.669-2.692-5.49-3.026-8.363-2.135-1.861.577-3.657 1.6-4.954 4.829-.747-5.119-.224-12.185 1.57-15.55v-.001l.002-.002zm39.328 16.614c3.753 0 6.464 2.669 6.464 7.137v.124c-2.174.558-4.051.621-6.255.621-2.443 0-3.515-1.303-3.515-4.034 0-2.606.864-3.848 3.307-3.848zm.715 13.653c2.413 0 4.439-.372 5.779-.993v1.552c0 3.91-1.132 5.834-5.243 5.834-2.979 0-6.821-1.117-9.532-3.723-.209 3.351-.626 8.502-.924 11.047 3.128 1.924 7.239 3.227 10.932 3.227 8.579 0 11.32-5.958 11.32-15.329l-.045-6.312-.044-6.224c0-4.22.179-9.123.477-10.861h-5.481c-1.162 0-1.4.248-1.4 3.165 0 1.055.03 2.42.06 3.785h0-.179c-1.102-5.647-4.111-7.944-8.549-7.944-5.243 0-7.507 3.165-7.507 11.419 0 7.944 3.307 11.357 10.336 11.357zm20.82-9.123c-.745-.186-1.758-.186-2.801-.186-1.102 0-2.114.062-2.8.248 0-.248-.007-.512-.015-.776l-.014-.776c0-7.757 2.472-12.288 11.17-12.288 8.192 0 10.843 4.468 10.843 12.35 0 7.447-1.757 11.109-9.532 11.916-6.047.559-6.583 1.924-6.583 3.475 0 1.8.774 2.731 4.825 2.731 4.201 0 5.333-1.179 5.333-3.661v-.559c.595.062 1.668.124 2.77.124 1.043 0 2.174-.062 2.83-.186 0 .296.008.576.016.837v.001l.014.652c0 9.123-3.694 12.102-10.843 12.102-8.043 0-10.754-4.034-10.754-11.915 0-7.075 2.174-11.481 9.89-12.164 5.689-.372 6.315-1.676 6.315-3.475 0-1.924-.924-2.793-4.915-2.793-4.587 0-5.749 1.303-5.749 3.972v.372zm17.963 23.265c2.175 1.117 6.077 5.275 8.252 9.433h.208v-.035h0v-.001l-.089-7.907c2.681 0 5.928.062 8.817.186-.089-3.103-.149-7.758-.119-10.985-1.996.124-5.391.248-8.787.31l-.03-10.426c0-4.282 1.072-5.772 3.723-5.772 1.907 0 3.634.496 5.005 1.427.089-3.537.357-8.192.595-11.233-2.293-.993-4.14-1.614-6.91-1.614-6.584 0-8.699 6.206-8.699 14.46l.06 13.281-1.996.062-.03 8.813zm26.043-6.941l.089 8.626h-5.987l.089-18.804-.089-18.804h6.851c-.119 3.724-.149 9.992-.149 15.329 0 8.44 1.668 10.861 5.451 10.861 1.758 0 3.009-.434 4.111-1.241.03 3.165.328 9.309.507 12.04-1.132.683-2.384 1.117-3.903 1.117-3.247.062-5.63-2.669-6.732-9.185l-.238.062zm23.69-19.868c3.754 0 6.137 3.165 6.137 9.93s-2.413 9.557-6.137 9.557c-3.694 0-6.106-2.606-6.106-9.557s2.383-9.93 6.106-9.93zm0 29.727c7.239 0 12.362-6.02 12.362-19.487 0-13.405-4.766-20.604-12.391-20.604-7.567 0-12.184 7.199-12.184 20.604 0 13.467 4.945 19.487 12.213 19.487z" fill="#0c0e13"/></g><defs><filter id="A" x="0" y=".016" width="223.166" height="153.461" filterUnits="userSpaceOnUse" color-interpolation-filters="sRGB"><feFlood flood-opacity="0"/><feBlend in="SourceGraphic"/><feGaussianBlur stdDeviation="18"/></filter></defs></svg>