<svg xmlns="http://www.w3.org/2000/svg" width="131" height="154" fill="none" xmlns:v="https://vecta.io/nano"><style><![CDATA[.B{fill:#0c0e13}]]></style><g filter="url(#A)" class="B"><path transform="matrix(1 0 0 -1 37.166 116.75)" d="M0 0h57v80H0z"/><path d="M48.062 90.102l16.922-48.628-28.443 48.628h11.521z"/><path d="M81.907 90.102L64.985 41.473l28.442 48.628H81.907z"/><path d="M48.063 90.102h33.844L64.984 41.473 48.063 90.102z"/><path d="M64.984 117.055l-16.031-2.489-.891-24.461 16.922 26.95z"/><path d="M64.984 117.055l16.031-2.489.891-24.461-16.922 26.95z"/><path d="M93.428 90.101l-12.411 24.461.891-24.461h11.521z"/><path d="M36.541 90.101l12.411 24.461-.891-24.461H36.541z"/><path d="M64.984 117.055l-16.922-26.95h33.844l-16.922 26.95z"/></g><defs><filter id="A" x=".541" y=".75" width="129.625" height="152.305" filterUnits="userSpaceOnUse" color-interpolation-filters="sRGB"><feFlood flood-opacity="0"/><feBlend in="SourceGraphic"/><feGaussianBlur stdDeviation="18"/></filter></defs></svg>