<svg xmlns="http://www.w3.org/2000/svg" width="122" height="158" fill="none" xmlns:v="https://vecta.io/nano"><g filter="url(#A)"><path d="M36 120.229c0-.568.965-17.212 2.157-36.996l2.208-37.223.076-1.286 10.279-4.237 10.254-4.237 2.056.832 10.228 4.199c7.005 2.875 8.198 3.48 8.3 4.123.127.908 4.442 73.803 4.442 75.014v.832H36v-1.021zm40.787-16.077c-.102-.908-.761-11.651-1.472-23.946l-1.396-22.47c-.102-.189-12.564-5.334-12.919-5.334-.254 0-7.056 2.761-11.7 4.729l-1.294.567-.305 4.993-.457 7.414-.152 2.345h3.173c3.579 0 3.477.076 3.502-3.215 0-.832.076-2.118.152-2.875l.152-1.362 3.477-1.362L61 62.276l3.426 1.362 3.452 1.4c.025.038.178 2.27.33 4.956l.406 5.977.127 1.021H46.965l-.127.87c-.076.454-.229 2.648-.33 4.918l-.178 4.048h22.868l.152 2.572.33 4.766c.102 1.551.076 2.156-.127 1.967-.152-.113-5.558-.113-12.056.038l-11.802.227-.152 2.686-.305 4.69-.152 1.967h31.827l-.127-1.588z" fill="#0c0e13"/></g><defs><filter id="A" x="0" y=".25" width="122" height="157" filterUnits="userSpaceOnUse" color-interpolation-filters="sRGB"><feFlood flood-opacity="0"/><feBlend in="SourceGraphic"/><feGaussianBlur stdDeviation="18"/></filter></defs></svg>