<svg xmlns="http://www.w3.org/2000/svg" width="129" height="158" fill="none" xmlns:v="https://vecta.io/nano"><g filter="url(#A)"><path d="M36 121.25v-85h57v85H36zm30.536-66.027c0-8.274-3.278-12.308-8.022-12.308-4.285 0-6.773 3.309-8.035 7.303l4.361 3.937c.841-2.226 1.48-4.108 3.316-4.108 1.527 0 2.781 1.026 2.781 5.02v26.718h5.598V55.223zm12.64-12.118c-4.974 0-8.187 3.347-9.756 7.969l4.368 3.77c1.145-2.797 2.64-4.66 5.28-4.66 2.219 0 3.508 1.465 3.508 3.747 0 2.738-1.327 3.707-3.776 5.313l-1.338.858c-3.865 2.451-6.428 5.533-6.428 12.039 0 5.99 3.06 10.365 7.843 10.365 3.406 0 5.853-1.579 7.615-6.201l-4.178-4.005c-.919 2.453-1.909 3.415-3.443 3.415-1.569 0-2.564-1.484-2.564-3.415 0-2.396.995-3.366 3.29-4.849l1.338-.856c4.554-2.911 7.117-5.882 7.117-12.553.001-7.191-3.786-10.936-8.876-10.936z" fill="#0c0e13"/></g><defs><filter id="A" x="0" y=".25" width="129" height="157" filterUnits="userSpaceOnUse" color-interpolation-filters="sRGB"><feFlood flood-opacity="0"/><feBlend in="SourceGraphic"/><feGaussianBlur stdDeviation="18"/></filter></defs></svg>