<svg width="529" height="374" viewBox="0 0 529 374" fill="none" xmlns="http://www.w3.org/2000/svg">
<mask id="mask0_3065_4289" style="mask-type:alpha" maskUnits="userSpaceOnUse" x="0" y="0" width="529" height="374">
<rect width="529" height="374" fill="url(#paint0_linear_3065_4289)"/>
</mask>
<g mask="url(#mask0_3065_4289)">
<g filter="url(#filter0_f_3065_4289)">
<rect x="61" y="73" width="406" height="171" fill="#2B2C34"/>
</g>
<rect x="51" y="50" width="427" height="235" rx="10" fill="#121317"/>
<rect x="51.5" y="50.5" width="426" height="234" rx="9.5" stroke="white" stroke-opacity="0.03"/>
<circle cx="64" cy="64" r="3" fill="#17181C"/>
<circle cx="74" cy="64" r="3" fill="#17181C"/>
<circle cx="84" cy="64" r="3" fill="#17181C"/>
<g filter="url(#filter1_f_3065_4289)">
<rect x="77" y="37" width="374" height="182" fill="#07080B"/>
</g>
<rect x="76.5" y="9.5" width="376" height="248" rx="9.5" fill="url(#paint1_linear_3065_4289)"/>
<rect x="76.5" y="9.5" width="376" height="248" rx="9.5" stroke="url(#paint2_linear_3065_4289)"/>
<circle cx="89" cy="23" r="3" fill="#37393F"/>
<circle cx="99" cy="23" r="3" fill="#37393F"/>
<circle cx="109" cy="23" r="3" fill="#37393F"/>
<g clip-path="url(#clip0_3065_4289)">
<mask id="mask1_3065_4289" style="mask-type:alpha" maskUnits="userSpaceOnUse" x="134" y="101" width="122" height="65">
<path fill-rule="evenodd" clip-rule="evenodd" d="M188.114 101.305H172.75V141.054C172.75 143.252 172.262 145.212 171.288 146.933C170.313 148.654 168.955 150.002 167.213 150.976C165.492 151.951 163.481 152.438 161.179 152.438C158.878 152.438 156.856 151.951 155.114 150.976C153.372 150.002 152.014 148.654 151.04 146.933C150.086 145.212 149.609 143.252 149.609 141.054V101.305H134.213V142.392C134.213 147.14 135.333 151.277 137.572 154.802C139.811 158.306 142.953 161.023 146.996 162.951C151.04 164.859 155.767 165.812 161.179 165.812C166.529 165.812 171.226 164.859 175.269 162.951C179.312 161.023 182.464 158.306 184.724 154.802C186.984 151.277 188.114 147.14 188.114 142.392V101.305ZM224.98 121.428L213.347 101.305H195.992L215.245 133.154L195.494 165.004H213.036L224.98 144.662H225.477L237.421 165.004H255.088L235.244 133.154L254.466 101.305H237.234L225.477 121.428H224.98Z" fill="url(#paint3_linear_3065_4289)"/>
</mask>
<g mask="url(#mask1_3065_4289)">
<path fill-rule="evenodd" clip-rule="evenodd" d="M188.114 101.305H172.75V141.054C172.75 143.252 172.262 145.212 171.288 146.933C170.313 148.654 168.955 150.002 167.213 150.976C165.492 151.951 163.481 152.438 161.179 152.438C158.878 152.438 156.856 151.951 155.114 150.976C153.372 150.002 152.014 148.654 151.04 146.933C150.086 145.212 149.609 143.252 149.609 141.054V101.305H134.213V142.392C134.213 147.14 135.333 151.277 137.572 154.802C139.811 158.306 142.953 161.023 146.996 162.951C151.04 164.859 155.767 165.812 161.179 165.812C166.529 165.812 171.226 164.859 175.269 162.951C179.312 161.023 182.464 158.306 184.724 154.802C186.984 151.277 188.114 147.14 188.114 142.392V101.305ZM224.98 121.428L213.347 101.305H195.992L215.245 133.154L195.494 165.004H213.036L224.98 144.662H225.477L237.421 165.004H255.088L235.244 133.154L254.466 101.305H237.234L225.477 121.428H224.98Z" fill="url(#paint4_linear_3065_4289)"/>
<g opacity="0.4" filter="url(#filter2_f_3065_4289)">
<ellipse cx="185.234" cy="130.234" rx="44" ry="3" transform="rotate(45 185.234 130.234)" fill="#6F7382"/>
</g>
</g>
</g>
<g clip-path="url(#clip1_3065_4289)">
<mask id="mask2_3065_4289" style="mask-type:alpha" maskUnits="userSpaceOnUse" x="219" y="100" width="175" height="66">
<path fill-rule="evenodd" clip-rule="evenodd" d="M253.49 115.079C255.128 116.344 256.051 118.117 256.258 120.398H271.001C270.96 116.437 269.933 112.954 267.922 109.947C265.911 106.941 263.08 104.608 259.431 102.949C255.802 101.269 251.52 100.43 246.585 100.43C241.754 100.43 237.451 101.259 233.678 102.918C229.904 104.577 226.949 106.889 224.813 109.854C222.677 112.819 221.62 116.272 221.641 120.211C221.62 125.043 223.196 128.879 226.368 131.719C229.541 134.539 233.885 136.582 239.4 137.847L246.057 139.402C248.379 139.941 250.287 140.532 251.78 141.175C253.293 141.797 254.413 142.543 255.139 143.414C255.864 144.264 256.238 145.291 256.258 146.493C256.238 147.779 255.833 148.919 255.045 149.915C254.257 150.91 253.127 151.688 251.655 152.247C250.204 152.807 248.441 153.087 246.368 153.087C244.107 153.087 242.117 152.735 240.396 152.03C238.695 151.325 237.358 150.288 236.383 148.919C235.409 147.551 234.859 145.84 234.735 143.787H219.992C220.054 148.764 221.184 152.88 223.382 156.135C225.58 159.391 228.66 161.817 232.62 163.413C236.58 165.01 241.225 165.808 246.554 165.808C251.862 165.808 256.393 165.041 260.146 163.507C263.92 161.972 266.813 159.764 268.824 156.882C270.835 154 271.851 150.547 271.872 146.524C271.851 143.974 271.416 141.672 270.566 139.62C269.716 137.567 268.461 135.752 266.802 134.177C265.164 132.601 263.132 131.242 260.706 130.102C258.301 128.962 255.522 128.049 252.37 127.365L246.896 126.121C245.445 125.81 244.139 125.447 242.977 125.032C241.816 124.618 240.821 124.141 239.991 123.601C239.183 123.042 238.561 122.399 238.125 121.673C237.711 120.947 237.524 120.108 237.565 119.154C237.586 117.993 237.928 116.966 238.592 116.075C239.255 115.162 240.251 114.447 241.578 113.928C242.905 113.41 244.564 113.151 246.554 113.151C249.561 113.151 251.873 113.794 253.49 115.079ZM393.828 133.15C393.828 140.159 392.48 146.099 389.785 150.972C387.089 155.845 383.44 159.546 378.836 162.076C374.254 164.606 369.111 165.871 363.409 165.871C357.686 165.871 352.533 164.595 347.951 162.045C343.368 159.494 339.729 155.793 337.034 150.941C334.359 146.068 333.021 140.138 333.021 133.15C333.021 126.142 334.359 120.201 337.034 115.328C339.729 110.455 343.368 106.754 347.951 104.224C352.533 101.695 357.686 100.43 363.409 100.43C369.111 100.43 374.254 101.695 378.836 104.224C383.44 106.754 387.089 110.455 389.785 115.328C392.48 120.201 393.828 126.142 393.828 133.15ZM378.09 133.15C378.09 129.003 377.499 125.499 376.317 122.637C375.156 119.776 373.476 117.609 371.278 116.137C369.101 114.665 366.478 113.928 363.409 113.928C360.361 113.928 357.738 114.665 355.54 116.137C353.342 117.609 351.652 119.776 350.47 122.637C349.309 125.499 348.729 129.003 348.729 133.15C348.729 137.297 349.309 140.801 350.47 143.663C351.652 146.524 353.342 148.691 355.54 150.163C357.738 151.636 360.361 152.372 363.409 152.372C366.478 152.372 369.101 151.636 371.278 150.163C373.476 148.691 375.156 146.524 376.317 143.663C377.499 140.801 378.09 137.297 378.09 133.15ZM279.648 164.996V101.297H324.064V113.8H295.044V126.864H321.793V139.398H295.044V152.493H324.064V164.996H279.648Z" fill="url(#paint5_linear_3065_4289)"/>
</mask>
<g mask="url(#mask2_3065_4289)">
<path fill-rule="evenodd" clip-rule="evenodd" d="M253.49 115.079C255.128 116.344 256.051 118.117 256.258 120.398H271.001C270.96 116.437 269.933 112.954 267.922 109.947C265.911 106.941 263.08 104.608 259.431 102.949C255.802 101.269 251.52 100.43 246.585 100.43C241.754 100.43 237.451 101.259 233.678 102.918C229.904 104.577 226.949 106.889 224.813 109.854C222.677 112.819 221.62 116.272 221.641 120.211C221.62 125.043 223.196 128.879 226.368 131.719C229.541 134.539 233.885 136.582 239.4 137.847L246.057 139.402C248.379 139.941 250.287 140.532 251.78 141.175C253.293 141.797 254.413 142.543 255.139 143.414C255.864 144.264 256.238 145.291 256.258 146.493C256.238 147.779 255.833 148.919 255.045 149.915C254.257 150.91 253.127 151.688 251.655 152.247C250.204 152.807 248.441 153.087 246.368 153.087C244.107 153.087 242.117 152.735 240.396 152.03C238.695 151.325 237.358 150.288 236.383 148.919C235.409 147.551 234.859 145.84 234.735 143.787H219.992C220.054 148.764 221.184 152.88 223.382 156.135C225.58 159.391 228.66 161.817 232.62 163.413C236.58 165.01 241.225 165.808 246.554 165.808C251.862 165.808 256.393 165.041 260.146 163.507C263.92 161.972 266.813 159.764 268.824 156.882C270.835 154 271.851 150.547 271.872 146.524C271.851 143.974 271.416 141.672 270.566 139.62C269.716 137.567 268.461 135.752 266.802 134.177C265.164 132.601 263.132 131.242 260.706 130.102C258.301 128.962 255.522 128.049 252.37 127.365L246.896 126.121C245.445 125.81 244.139 125.447 242.977 125.032C241.816 124.618 240.821 124.141 239.991 123.601C239.183 123.042 238.561 122.399 238.125 121.673C237.711 120.947 237.524 120.108 237.565 119.154C237.586 117.993 237.928 116.966 238.592 116.075C239.255 115.162 240.251 114.447 241.578 113.928C242.905 113.41 244.564 113.151 246.554 113.151C249.561 113.151 251.873 113.794 253.49 115.079ZM393.828 133.15C393.828 140.159 392.48 146.099 389.785 150.972C387.089 155.845 383.44 159.546 378.836 162.076C374.254 164.606 369.111 165.871 363.409 165.871C357.686 165.871 352.533 164.595 347.951 162.045C343.368 159.494 339.729 155.793 337.034 150.941C334.359 146.068 333.021 140.138 333.021 133.15C333.021 126.142 334.359 120.201 337.034 115.328C339.729 110.455 343.368 106.754 347.951 104.224C352.533 101.695 357.686 100.43 363.409 100.43C369.111 100.43 374.254 101.695 378.836 104.224C383.44 106.754 387.089 110.455 389.785 115.328C392.48 120.201 393.828 126.142 393.828 133.15ZM378.09 133.15C378.09 129.003 377.499 125.499 376.317 122.637C375.156 119.776 373.476 117.609 371.278 116.137C369.101 114.665 366.478 113.928 363.409 113.928C360.361 113.928 357.738 114.665 355.54 116.137C353.342 117.609 351.652 119.776 350.47 122.637C349.309 125.499 348.729 129.003 348.729 133.15C348.729 137.297 349.309 140.801 350.47 143.663C351.652 146.524 353.342 148.691 355.54 150.163C357.738 151.636 360.361 152.372 363.409 152.372C366.478 152.372 369.101 151.636 371.278 150.163C373.476 148.691 375.156 146.524 376.317 143.663C377.499 140.801 378.09 137.297 378.09 133.15ZM279.648 164.996V101.297H324.064V113.8H295.044V126.864H321.793V139.398H295.044V152.493H324.064V164.996H279.648Z" fill="url(#paint6_linear_3065_4289)"/>
<g opacity="0.4" filter="url(#filter3_f_3065_4289)">
<ellipse cx="317.234" cy="123.234" rx="44" ry="3" transform="rotate(45 317.234 123.234)" fill="#6F7382"/>
</g>
</g>
</g>
<g opacity="0.4" filter="url(#filter4_f_3065_4289)">
<path d="M239 184L239 82" stroke="#F4F8FC" stroke-width="3" stroke-linecap="round"/>
</g>
<g opacity="0.45" filter="url(#filter5_f_3065_4289)">
<path d="M239.5 174L239.5 92" stroke="#F4F8FC" stroke-width="3" stroke-linecap="round"/>
</g>
<path fill-rule="evenodd" clip-rule="evenodd" d="M239.5 175.5C238.672 175.5 238 174.828 238 174L238 92C238 91.1716 238.672 90.5 239.5 90.5C240.328 90.5 241 91.1716 241 92L241 174C241 174.828 240.328 175.5 239.5 175.5Z" fill="#F4F8FC"/>
<g clip-path="url(#clip2_3065_4289)">
<rect x="217" y="18" width="82" height="9" rx="2" fill="#0A0B0E"/>
<g opacity="0.4" filter="url(#filter6_f_3065_4289)">
<ellipse cx="261.596" cy="22.5964" rx="21.8851" ry="3" transform="rotate(45 261.596 22.5964)" fill="#6F7382"/>
</g>
</g>
<rect x="302" y="18" width="9" height="9" rx="2" fill="#0A0B0E"/>
</g>
<defs>
<filter id="filter0_f_3065_4289" x="-1" y="11" width="530" height="295" filterUnits="userSpaceOnUse" color-interpolation-filters="sRGB">
<feFlood flood-opacity="0" result="BackgroundImageFix"/>
<feBlend mode="normal" in="SourceGraphic" in2="BackgroundImageFix" result="shape"/>
<feGaussianBlur stdDeviation="31" result="effect1_foregroundBlur_3065_4289"/>
</filter>
<filter id="filter1_f_3065_4289" x="54.8" y="14.8" width="418.4" height="226.4" filterUnits="userSpaceOnUse" color-interpolation-filters="sRGB">
<feFlood flood-opacity="0" result="BackgroundImageFix"/>
<feBlend mode="normal" in="SourceGraphic" in2="BackgroundImageFix" result="shape"/>
<feGaussianBlur stdDeviation="11.1" result="effect1_foregroundBlur_3065_4289"/>
</filter>
<filter id="filter2_f_3065_4289" x="129.047" y="74.0469" width="112.373" height="112.375" filterUnits="userSpaceOnUse" color-interpolation-filters="sRGB">
<feFlood flood-opacity="0" result="BackgroundImageFix"/>
<feBlend mode="normal" in="SourceGraphic" in2="BackgroundImageFix" result="shape"/>
<feGaussianBlur stdDeviation="12.5" result="effect1_foregroundBlur_3065_4289"/>
</filter>
<filter id="filter3_f_3065_4289" x="261.047" y="67.0469" width="112.373" height="112.375" filterUnits="userSpaceOnUse" color-interpolation-filters="sRGB">
<feFlood flood-opacity="0" result="BackgroundImageFix"/>
<feBlend mode="normal" in="SourceGraphic" in2="BackgroundImageFix" result="shape"/>
<feGaussianBlur stdDeviation="12.5" result="effect1_foregroundBlur_3065_4289"/>
</filter>
<filter id="filter4_f_3065_4289" x="217.5" y="60.5" width="43" height="145" filterUnits="userSpaceOnUse" color-interpolation-filters="sRGB">
<feFlood flood-opacity="0" result="BackgroundImageFix"/>
<feBlend mode="normal" in="SourceGraphic" in2="BackgroundImageFix" result="shape"/>
<feGaussianBlur stdDeviation="10" result="effect1_foregroundBlur_3065_4289"/>
</filter>
<filter id="filter5_f_3065_4289" x="234" y="86.5" width="11" height="93" filterUnits="userSpaceOnUse" color-interpolation-filters="sRGB">
<feFlood flood-opacity="0" result="BackgroundImageFix"/>
<feBlend mode="normal" in="SourceGraphic" in2="BackgroundImageFix" result="shape"/>
<feGaussianBlur stdDeviation="2" result="effect1_foregroundBlur_3065_4289"/>
</filter>
<filter id="filter6_f_3065_4289" x="220.975" y="-18.0234" width="81.2422" height="81.2422" filterUnits="userSpaceOnUse" color-interpolation-filters="sRGB">
<feFlood flood-opacity="0" result="BackgroundImageFix"/>
<feBlend mode="normal" in="SourceGraphic" in2="BackgroundImageFix" result="shape"/>
<feGaussianBlur stdDeviation="12.5" result="effect1_foregroundBlur_3065_4289"/>
</filter>
<linearGradient id="paint0_linear_3065_4289" x1="264" y1="121.224" x2="264" y2="273.977" gradientUnits="userSpaceOnUse">
<stop stop-color="#D9D9D9"/>
<stop offset="1" stop-color="#D9D9D9" stop-opacity="0"/>
</linearGradient>
<linearGradient id="paint1_linear_3065_4289" x1="264.5" y1="9" x2="264.5" y2="222.5" gradientUnits="userSpaceOnUse">
<stop stop-color="#1D1E23"/>
<stop offset="1" stop-color="#0F1013"/>
</linearGradient>
<linearGradient id="paint2_linear_3065_4289" x1="264.5" y1="5.64254" x2="264.5" y2="258" gradientUnits="userSpaceOnUse">
<stop stop-color="white" stop-opacity="0.1"/>
<stop offset="0.119792" stop-color="white" stop-opacity="0.06"/>
<stop offset="1" stop-color="white" stop-opacity="0.03"/>
</linearGradient>
<linearGradient id="paint3_linear_3065_4289" x1="193.499" y1="101.004" x2="255.489" y2="149.706" gradientUnits="userSpaceOnUse">
<stop stop-color="#07080B"/>
<stop offset="1" stop-color="#0C0D11"/>
</linearGradient>
<linearGradient id="paint4_linear_3065_4289" x1="193.499" y1="101.004" x2="255.489" y2="149.706" gradientUnits="userSpaceOnUse">
<stop stop-color="#07080B"/>
<stop offset="1" stop-color="#0C0D11"/>
</linearGradient>
<linearGradient id="paint5_linear_3065_4289" x1="307.501" y1="101" x2="371.001" y2="171" gradientUnits="userSpaceOnUse">
<stop stop-color="#07080B"/>
<stop offset="1" stop-color="#0C0D11"/>
</linearGradient>
<linearGradient id="paint6_linear_3065_4289" x1="307.501" y1="101" x2="371.001" y2="171" gradientUnits="userSpaceOnUse">
<stop stop-color="#07080B"/>
<stop offset="1" stop-color="#0C0D11"/>
</linearGradient>
<clipPath id="clip0_3065_4289">
<rect width="109" height="74" fill="white" transform="translate(129 97)"/>
</clipPath>
<clipPath id="clip1_3065_4289">
<rect width="158" height="74" fill="white" transform="translate(240 97)"/>
</clipPath>
<clipPath id="clip2_3065_4289">
<rect x="217" y="18" width="82" height="9" rx="2" fill="white"/>
</clipPath>
</defs>
</svg>
