<svg width="555" height="307" viewBox="0 0 555 307" fill="none" xmlns="http://www.w3.org/2000/svg">
<g clip-path="url(#clip0_3038_2859)">
<g filter="url(#filter0_f_3038_2859)">
<circle cx="280.605" cy="178.859" r="42.5" fill="#707585"/>
</g>
<path fill-rule="evenodd" clip-rule="evenodd" d="M265.543 175.672L92.8301 175.672L92.8301 173.672L265.543 173.672L265.543 175.672Z" fill="#111216"/>
<path d="M92.3301 175.672L92.3301 176.172L92.8301 176.172L265.543 176.172L266.043 176.172L266.043 175.672L266.043 173.672L266.043 173.172L265.543 173.172L92.8301 173.172L92.3301 173.172L92.3301 173.672L92.3301 175.672Z" stroke="white" stroke-opacity="0.02"/>
<path fill-rule="evenodd" clip-rule="evenodd" d="M265.543 207.68L91.3008 207.68L91.3008 205.68L265.543 205.68L265.543 207.68Z" fill="#111216"/>
<path d="M90.8008 207.68L90.8008 208.18L91.3008 208.18L265.543 208.18L266.043 208.18L266.043 207.68L266.043 205.68L266.043 205.18L265.543 205.18L91.3008 205.18L90.8008 205.18L90.8008 205.68L90.8008 207.68Z" stroke="white" stroke-opacity="0.02"/>
<path fill-rule="evenodd" clip-rule="evenodd" d="M107.105 206.68C107.105 206.127 107.553 205.68 108.105 205.68H157.105C157.658 205.68 158.105 206.127 158.105 206.68C158.105 207.232 157.658 207.68 157.105 207.68H108.105C107.553 207.68 107.105 207.232 107.105 206.68Z" fill="url(#paint0_linear_3038_2859)"/>
<path fill-rule="evenodd" clip-rule="evenodd" d="M69.1055 174.672C69.1055 174.12 69.5532 173.672 70.1055 173.672H119.105C119.658 173.672 120.105 174.12 120.105 174.672C120.105 175.224 119.658 175.672 119.105 175.672H70.1055C69.5532 175.672 69.1055 175.224 69.1055 174.672Z" fill="url(#paint1_linear_3038_2859)"/>
<path fill-rule="evenodd" clip-rule="evenodd" d="M265.543 191.68L94.2012 191.68L94.2012 189.68L265.543 189.68L265.543 191.68Z" fill="#111216"/>
<path d="M93.7012 191.68L93.7012 192.18L94.2012 192.18L265.543 192.18L266.043 192.18L266.043 191.68L266.043 189.68L266.043 189.18L265.543 189.18L94.2012 189.18L93.7012 189.18L93.7012 189.68L93.7012 191.68Z" stroke="white" stroke-opacity="0.02"/>
<path fill-rule="evenodd" clip-rule="evenodd" d="M145.105 190.68C145.105 190.127 145.553 189.68 146.105 189.68H195.105C195.658 189.68 196.105 190.127 196.105 190.68C196.105 191.232 195.658 191.68 195.105 191.68H146.105C145.553 191.68 145.105 191.232 145.105 190.68Z" fill="url(#paint2_linear_3038_2859)"/>
<g clip-path="url(#clip1_3038_2859)">
<rect x="203.105" y="118.359" width="352" height="189" rx="10" fill="url(#paint3_linear_3038_2859)"/>
<rect x="229" y="214.523" width="300.209" height="86.7656" rx="3.50291" fill="#0F1014"/>
<rect x="229" y="156.969" width="144.529" height="10.625" rx="3.50291" fill="#F4F8FC"/>
<rect x="229" y="175.164" width="118.359" height="10.625" rx="3.50291" fill="#F4F8FC"/>
<circle cx="219.604" cy="132.18" r="4" fill="#37393F"/>
<circle cx="234.965" cy="132.18" r="4" fill="#37393F"/>
<circle cx="249.965" cy="132.18" r="4" fill="#37393F"/>
<g filter="url(#filter1_f_3038_2859)">
<ellipse cx="334.732" cy="167.429" rx="9.27926" ry="59.4905" transform="rotate(-20.1758 334.732 167.429)" fill="#4D5359"/>
</g>
</g>
<rect x="203.605" y="118.859" width="351" height="188" rx="9.5" stroke="url(#paint4_linear_3038_2859)"/>
<circle cx="47.8359" cy="189.359" r="38.3359" fill="url(#paint5_linear_3038_2859)" stroke="url(#paint6_linear_3038_2859)"/>
<circle cx="47.8359" cy="189.357" r="46.248" stroke="#141519" stroke-width="2"/>
<path d="M51.5732 189.73C52.2324 189.406 53.0304 189.086 54.0215 189.086C55.0125 189.086 55.8107 189.406 56.4703 189.73C56.6892 189.838 56.8813 189.939 57.0577 190.031C57.4557 190.24 57.7737 190.406 58.139 190.517C58.3684 190.586 58.6011 190.657 58.7635 190.717C58.9052 190.77 59.1608 190.87 59.3577 191.078C59.532 191.262 59.6154 191.464 59.664 191.626C59.7045 191.761 59.7389 191.942 59.7641 192.076C60.4618 195.75 58.9265 199.288 55.1703 200.654C54.8248 200.78 54.4988 200.898 54.0232 200.898C53.5477 200.898 53.2217 200.78 52.8763 200.654C49.1199 199.288 47.583 195.751 48.2805 192.076C48.3059 191.942 48.3403 191.761 48.3808 191.626C48.4293 191.465 48.5126 191.262 48.6869 191.078C48.8838 190.87 49.1395 190.77 49.281 190.717C49.4436 190.657 49.6761 190.586 49.9055 190.517C50.2707 190.406 50.5884 190.24 50.9859 190.031C51.1622 189.939 51.3543 189.838 51.5732 189.73Z" fill="#F4F8FC"/>
<path d="M42.3059 177.82C43.4639 177.82 44.2646 177.819 44.9833 178.089C46.5533 178.678 47.2421 180.072 47.7732 181.146C47.9322 181.464 48.2214 182.042 48.3023 182.169C48.327 182.211 48.4053 182.296 48.5201 182.304C48.6699 182.319 48.8729 182.32 49.2285 182.32H53.2272C54.3736 182.32 55.298 182.32 56.0397 182.396C56.8054 182.474 57.4694 182.639 58.0567 183.031C58.5174 183.339 58.9128 183.735 59.2206 184.195C59.6132 184.783 59.7783 185.447 59.8563 186.212C59.9073 186.715 59.9239 187.469 59.9292 188.259C59.9327 188.785 59.9345 189.048 59.7905 189.149C59.6466 189.251 59.3918 189.159 58.8822 188.974C58.7997 188.944 58.7243 188.917 58.6619 188.895C58.2148 188.732 57.514 188.364 57.2195 188.2C56.4686 187.831 55.3959 187.383 54.0257 187.383C52.6555 187.383 51.583 187.831 50.8322 188.201L50.2119 188.518C49.7881 188.74 49.5771 188.839 49.3911 188.895C49.1846 188.958 48.8973 189.046 48.6843 189.125C48.5101 189.189 47.9409 189.401 47.466 189.902C47.0442 190.347 46.8595 190.823 46.7689 191.125C46.7019 191.348 46.6494 191.626 46.6269 191.746C46.1718 194.145 46.5286 196.574 47.7261 198.553C48.0736 199.128 48.2474 199.415 48.1502 199.587C48.053 199.759 47.74 199.758 47.1143 199.756C44.9705 199.75 42.8401 199.717 41.5533 199.544C39.928 199.326 38.6455 198.87 37.6388 197.863C36.6321 196.857 36.1761 195.574 35.9576 193.949C35.7441 192.361 35.7441 190.326 35.7441 187.729V184.187C35.7441 183.199 35.7441 182.401 35.8009 181.758C35.8594 181.094 35.9831 180.514 36.279 179.983C36.6602 179.3 37.2239 178.736 37.907 178.355C38.4373 178.059 39.0178 177.936 39.6813 177.877C40.3252 177.82 41.3173 177.82 42.3059 177.82Z" fill="#F4F8FC"/>
<g opacity="0.12" filter="url(#filter2_f_3038_2859)">
<circle cx="168.873" cy="132.859" r="0.5" fill="#F4F8FC"/>
</g>
<g opacity="0.6" filter="url(#filter3_f_3038_2859)">
<circle cx="168.873" cy="132.859" r="0.5" fill="#F4F8FC"/>
</g>
<circle opacity="0.12" cx="141.718" cy="159.877" r="0.5" transform="rotate(105 141.718 159.877)" fill="#F4F8FC"/>
<g opacity="0.6" filter="url(#filter4_f_3038_2859)">
<circle cx="141.718" cy="159.877" r="0.5" transform="rotate(105 141.718 159.877)" fill="#F4F8FC"/>
</g>
<circle opacity="0.2" cx="187.718" cy="158.971" r="0.5" transform="rotate(105 187.718 158.971)" fill="#F4F8FC"/>
<g opacity="0.6" filter="url(#filter5_f_3038_2859)">
<circle cx="187.718" cy="158.971" r="0.5" transform="rotate(105 187.718 158.971)" fill="#F4F8FC"/>
</g>
<circle opacity="0.2" cx="273.611" cy="145.801" r="1" transform="rotate(105 273.611 145.801)" fill="#F4F8FC"/>
<g opacity="0.6" filter="url(#filter6_f_3038_2859)">
<circle cx="273.611" cy="145.801" r="1" transform="rotate(105 273.611 145.801)" fill="#F4F8FC"/>
</g>
<circle opacity="0.72" cx="141.33" cy="137.582" r="1" transform="rotate(105 141.33 137.582)" fill="#F4F8FC"/>
<g opacity="0.6" filter="url(#filter7_f_3038_2859)">
<circle cx="141.33" cy="137.582" r="1" transform="rotate(105 141.33 137.582)" fill="#F4F8FC"/>
</g>
<g opacity="0.53" filter="url(#filter8_f_3038_2859)">
<circle cx="219.105" cy="189.359" r="1" fill="#F4F8FC"/>
</g>
<g opacity="0.6" filter="url(#filter9_f_3038_2859)">
<circle cx="219.105" cy="189.359" r="1" fill="#F4F8FC"/>
</g>
<g opacity="0.12" filter="url(#filter10_f_3038_2859)">
<circle cx="187.718" cy="235.971" r="0.5" transform="rotate(105 187.718 235.971)" fill="#F4F8FC"/>
</g>
<g opacity="0.6" filter="url(#filter11_f_3038_2859)">
<circle cx="187.718" cy="235.971" r="0.5" transform="rotate(105 187.718 235.971)" fill="#F4F8FC"/>
</g>
<circle opacity="0.12" cx="155.33" cy="223.918" r="1" transform="rotate(105 155.33 223.918)" fill="#F4F8FC"/>
<g opacity="0.6" filter="url(#filter12_f_3038_2859)">
<circle cx="155.33" cy="223.918" r="1" transform="rotate(105 155.33 223.918)" fill="#F4F8FC"/>
</g>
<circle opacity="0.72" cx="255.105" cy="227.359" r="1" fill="#F4F8FC"/>
<g opacity="0.6" filter="url(#filter13_f_3038_2859)">
<circle cx="255.105" cy="227.359" r="1" fill="#F4F8FC"/>
</g>
</g>
<defs>
<filter id="filter0_f_3038_2859" x="92.1055" y="-9.64062" width="377" height="377" filterUnits="userSpaceOnUse" color-interpolation-filters="sRGB">
<feFlood flood-opacity="0" result="BackgroundImageFix"/>
<feBlend mode="normal" in="SourceGraphic" in2="BackgroundImageFix" result="shape"/>
<feGaussianBlur stdDeviation="73" result="effect1_foregroundBlur_3038_2859"/>
</filter>
<filter id="filter1_f_3038_2859" x="249.436" y="48.4922" width="170.592" height="237.867" filterUnits="userSpaceOnUse" color-interpolation-filters="sRGB">
<feFlood flood-opacity="0" result="BackgroundImageFix"/>
<feBlend mode="normal" in="SourceGraphic" in2="BackgroundImageFix" result="shape"/>
<feGaussianBlur stdDeviation="31.5" result="effect1_foregroundBlur_3038_2859"/>
</filter>
<filter id="filter2_f_3038_2859" x="167.973" y="131.959" width="1.8" height="1.8" filterUnits="userSpaceOnUse" color-interpolation-filters="sRGB">
<feFlood flood-opacity="0" result="BackgroundImageFix"/>
<feBlend mode="normal" in="SourceGraphic" in2="BackgroundImageFix" result="shape"/>
<feGaussianBlur stdDeviation="0.2" result="effect1_foregroundBlur_3038_2859"/>
</filter>
<filter id="filter3_f_3038_2859" x="164.373" y="128.359" width="9" height="9" filterUnits="userSpaceOnUse" color-interpolation-filters="sRGB">
<feFlood flood-opacity="0" result="BackgroundImageFix"/>
<feBlend mode="normal" in="SourceGraphic" in2="BackgroundImageFix" result="shape"/>
<feGaussianBlur stdDeviation="2" result="effect1_foregroundBlur_3038_2859"/>
</filter>
<filter id="filter4_f_3038_2859" x="137.217" y="155.375" width="9.00195" height="9" filterUnits="userSpaceOnUse" color-interpolation-filters="sRGB">
<feFlood flood-opacity="0" result="BackgroundImageFix"/>
<feBlend mode="normal" in="SourceGraphic" in2="BackgroundImageFix" result="shape"/>
<feGaussianBlur stdDeviation="2" result="effect1_foregroundBlur_3038_2859"/>
</filter>
<filter id="filter5_f_3038_2859" x="184.217" y="155.469" width="7.00195" height="7" filterUnits="userSpaceOnUse" color-interpolation-filters="sRGB">
<feFlood flood-opacity="0" result="BackgroundImageFix"/>
<feBlend mode="normal" in="SourceGraphic" in2="BackgroundImageFix" result="shape"/>
<feGaussianBlur stdDeviation="1.5" result="effect1_foregroundBlur_3038_2859"/>
</filter>
<filter id="filter6_f_3038_2859" x="269.611" y="141.797" width="8" height="8.00781" filterUnits="userSpaceOnUse" color-interpolation-filters="sRGB">
<feFlood flood-opacity="0" result="BackgroundImageFix"/>
<feBlend mode="normal" in="SourceGraphic" in2="BackgroundImageFix" result="shape"/>
<feGaussianBlur stdDeviation="1.5" result="effect1_foregroundBlur_3038_2859"/>
</filter>
<filter id="filter7_f_3038_2859" x="137.33" y="133.578" width="8" height="8.00781" filterUnits="userSpaceOnUse" color-interpolation-filters="sRGB">
<feFlood flood-opacity="0" result="BackgroundImageFix"/>
<feBlend mode="normal" in="SourceGraphic" in2="BackgroundImageFix" result="shape"/>
<feGaussianBlur stdDeviation="1.5" result="effect1_foregroundBlur_3038_2859"/>
</filter>
<filter id="filter8_f_3038_2859" x="217.605" y="187.859" width="3" height="3" filterUnits="userSpaceOnUse" color-interpolation-filters="sRGB">
<feFlood flood-opacity="0" result="BackgroundImageFix"/>
<feBlend mode="normal" in="SourceGraphic" in2="BackgroundImageFix" result="shape"/>
<feGaussianBlur stdDeviation="0.25" result="effect1_foregroundBlur_3038_2859"/>
</filter>
<filter id="filter9_f_3038_2859" x="214.105" y="184.359" width="10" height="10" filterUnits="userSpaceOnUse" color-interpolation-filters="sRGB">
<feFlood flood-opacity="0" result="BackgroundImageFix"/>
<feBlend mode="normal" in="SourceGraphic" in2="BackgroundImageFix" result="shape"/>
<feGaussianBlur stdDeviation="2" result="effect1_foregroundBlur_3038_2859"/>
</filter>
<filter id="filter10_f_3038_2859" x="186.817" y="235.069" width="1.80195" height="1.8" filterUnits="userSpaceOnUse" color-interpolation-filters="sRGB">
<feFlood flood-opacity="0" result="BackgroundImageFix"/>
<feBlend mode="normal" in="SourceGraphic" in2="BackgroundImageFix" result="shape"/>
<feGaussianBlur stdDeviation="0.2" result="effect1_foregroundBlur_3038_2859"/>
</filter>
<filter id="filter11_f_3038_2859" x="183.217" y="231.469" width="9.00195" height="9" filterUnits="userSpaceOnUse" color-interpolation-filters="sRGB">
<feFlood flood-opacity="0" result="BackgroundImageFix"/>
<feBlend mode="normal" in="SourceGraphic" in2="BackgroundImageFix" result="shape"/>
<feGaussianBlur stdDeviation="2" result="effect1_foregroundBlur_3038_2859"/>
</filter>
<filter id="filter12_f_3038_2859" x="150.33" y="218.914" width="10" height="10.0078" filterUnits="userSpaceOnUse" color-interpolation-filters="sRGB">
<feFlood flood-opacity="0" result="BackgroundImageFix"/>
<feBlend mode="normal" in="SourceGraphic" in2="BackgroundImageFix" result="shape"/>
<feGaussianBlur stdDeviation="2" result="effect1_foregroundBlur_3038_2859"/>
</filter>
<filter id="filter13_f_3038_2859" x="251.105" y="223.359" width="8" height="8" filterUnits="userSpaceOnUse" color-interpolation-filters="sRGB">
<feFlood flood-opacity="0" result="BackgroundImageFix"/>
<feBlend mode="normal" in="SourceGraphic" in2="BackgroundImageFix" result="shape"/>
<feGaussianBlur stdDeviation="1.5" result="effect1_foregroundBlur_3038_2859"/>
</filter>
<linearGradient id="paint0_linear_3038_2859" x1="110.105" y1="207.68" x2="157.105" y2="207.68" gradientUnits="userSpaceOnUse">
<stop offset="0.114583" stop-color="#141820" stop-opacity="0"/>
<stop offset="1" stop-color="#EDEEF0"/>
</linearGradient>
<linearGradient id="paint1_linear_3038_2859" x1="72.1055" y1="175.672" x2="119.105" y2="175.672" gradientUnits="userSpaceOnUse">
<stop offset="0.114583" stop-color="#141820" stop-opacity="0"/>
<stop offset="1" stop-color="#EDEEF0"/>
</linearGradient>
<linearGradient id="paint2_linear_3038_2859" x1="148.105" y1="191.68" x2="195.105" y2="191.68" gradientUnits="userSpaceOnUse">
<stop offset="0.114583" stop-color="#141820" stop-opacity="0"/>
<stop offset="1" stop-color="#EDEEF0"/>
</linearGradient>
<linearGradient id="paint3_linear_3038_2859" x1="379.105" y1="118.359" x2="379.105" y2="280.414" gradientUnits="userSpaceOnUse">
<stop stop-color="#1D1E23"/>
<stop offset="1" stop-color="#0F1013"/>
</linearGradient>
<linearGradient id="paint4_linear_3038_2859" x1="379.105" y1="115.811" x2="379.105" y2="307.359" gradientUnits="userSpaceOnUse">
<stop stop-color="white" stop-opacity="0.1"/>
<stop offset="0.10087" stop-color="white" stop-opacity="0.06"/>
<stop offset="0.2148" stop-color="white" stop-opacity="0.03"/>
</linearGradient>
<linearGradient id="paint5_linear_3038_2859" x1="47.8359" y1="150.523" x2="47.8359" y2="217.122" gradientUnits="userSpaceOnUse">
<stop stop-color="#1D1E23"/>
<stop offset="1" stop-color="#0F1013"/>
</linearGradient>
<linearGradient id="paint6_linear_3038_2859" x1="47.8359" y1="149.476" x2="47.8359" y2="228.195" gradientUnits="userSpaceOnUse">
<stop stop-color="white" stop-opacity="0.1"/>
<stop offset="0.10087" stop-color="white" stop-opacity="0.06"/>
<stop offset="0.2148" stop-color="white" stop-opacity="0.03"/>
</linearGradient>
<clipPath id="clip0_3038_2859">
<rect width="555" height="307" fill="white"/>
</clipPath>
<clipPath id="clip1_3038_2859">
<rect x="203.105" y="118.359" width="352" height="189" rx="10" fill="white"/>
</clipPath>
</defs>
</svg>
