<svg width="26" height="24" viewBox="0 0 26 24" fill="none" xmlns="http://www.w3.org/2000/svg">
<path d="M12.7413 1.46353C12.8909 1.00287 13.5426 1.00287 13.6923 1.46353L16.0232 8.63729C16.0902 8.8433 16.2821 8.98278 16.4988 8.98278H24.0417C24.5261 8.98278 24.7274 9.60259 24.3356 9.88729L18.2332 14.3209C18.058 14.4482 17.9846 14.6739 18.0516 14.8799L20.3825 22.0537C20.5322 22.5143 20.0049 22.8974 19.6131 22.6127L13.5107 18.1791C13.3354 18.0518 13.0981 18.0518 12.9229 18.1791L6.82054 22.6127C6.42868 22.8974 5.90144 22.5143 6.05112 22.0537L8.38201 14.8799C8.44895 14.6739 8.37562 14.4482 8.20038 14.3209L2.09801 9.88729C1.70616 9.60259 1.90754 8.98278 2.3919 8.98278H9.93484C10.1515 8.98278 10.3434 8.8433 10.4104 8.63729L12.7413 1.46353Z" fill="#F4F8FC"/>
<path d="M13.9213 1.38913L14.1679 1.30902C13.8685 0.387701 12.5651 0.387713 12.2657 1.30902L9.93484 8.48278H2.3919C1.42318 8.48278 1.02041 9.7224 1.80412 10.2918L7.90649 14.7254L5.57559 21.8992C5.27624 22.8205 6.33072 23.5866 7.11443 23.0172L13.2168 18.5836L19.3192 23.0172C20.1029 23.5866 21.1574 22.8205 20.858 21.8992L18.5271 14.7254L24.6295 10.2918C25.4132 9.7224 25.0104 8.48278 24.0417 8.48278H16.4988L14.1679 1.30902L13.9213 1.38913Z" stroke="#F4F8FC" stroke-opacity="0.1"/>
</svg>
