<svg width="347" height="291" viewBox="0 0 347 291" fill="none" xmlns="http://www.w3.org/2000/svg">
<g clip-path="url(#clip0_2902_33629)">
<mask id="mask0_2902_33629" style="mask-type:alpha" maskUnits="userSpaceOnUse" x="-6" y="-14" width="347" height="291">
<rect x="-6" y="-14" width="347" height="291" fill="url(#paint0_radial_2902_33629)"/>
</mask>
<g mask="url(#mask0_2902_33629)">
<circle cx="174" cy="137" r="97.5" stroke="#F4F8FC" stroke-opacity="0.15"/>
<circle cx="174" cy="137" r="144.5" stroke="#F4F8FC" stroke-opacity="0.15"/>
<path fill-rule="evenodd" clip-rule="evenodd" d="M88.5484 196.527L92.6429 211.808C95.3846 222.105 94.9214 233.009 91.3367 243.083C87.744 253.159 81.1827 261.939 72.5042 268.291L69.079 270.798C68.4579 271.233 67.7719 271.556 67.043 271.751C66.3142 271.946 65.5912 272.001 64.8517 271.93L60.7133 271.451C50.2237 270.234 40.3296 265.864 32.3016 258.901C24.2736 251.939 18.4932 242.708 15.711 232.422L11.6186 217.149C11.2563 215.796 12.1851 214.436 13.5576 214.181C20.0492 212.98 26.1711 210.237 31.4165 206.167C36.5012 202.21 40.5989 197.128 43.3932 191.328C43.7391 190.61 44.3838 190.133 45.1008 189.959C45.117 189.954 45.1208 189.936 45.1186 189.928C45.1143 189.912 45.1261 189.891 45.1423 189.887C45.8447 189.69 46.623 189.776 47.277 190.209C52.7131 193.847 58.9389 196.189 65.4771 197.041C72.1947 197.914 79.0217 197.187 85.3937 194.924C86.7178 194.457 88.186 195.174 88.5484 196.527Z" fill="#E3E7ED"/>
<path fill-rule="evenodd" clip-rule="evenodd" d="M88.0263 197.581L92.032 212.53C94.7141 222.604 94.2609 233.271 90.7541 243.126C87.2394 252.983 80.8206 261.573 72.3306 267.787L68.9798 270.239C68.3722 270.665 67.7011 270.981 66.9881 271.172L45.5398 191.126C45.5398 191.126 45.5471 191.09 45.563 191.085C46.2501 190.893 47.0115 190.978 47.6513 191.4C52.9693 194.96 59.0599 197.251 65.4562 198.084C72.0279 198.938 78.7065 198.227 84.9401 196.013C86.2355 195.556 87.6718 196.258 88.0263 197.581Z" fill="#E4E9EE"/>
<path fill-rule="evenodd" clip-rule="evenodd" d="M63.5222 221.693C63.0954 220.618 62.328 219.73 61.3401 219.153C60.3441 218.578 59.1811 218.352 58.0472 218.525C56.5542 218.752 55.0008 219.012 53.4541 219.426C51.9074 219.841 50.4321 220.392 49.0259 220.942C47.9571 221.359 47.0632 222.137 46.4882 223.133C45.9212 224.126 45.7006 225.279 45.8765 226.421C46.1007 227.906 46.3726 229.439 46.7849 230.978C47.1971 232.516 47.7303 233.988 48.2785 235.386C48.6951 236.455 49.4646 237.351 50.4525 237.928C51.4485 238.503 52.6093 238.721 53.7454 238.556C55.2384 238.329 56.7896 238.061 58.3363 237.647C59.8831 237.232 61.3605 236.689 62.7667 236.139C63.8333 235.714 64.7294 234.944 65.3044 233.948C65.8714 232.954 66.0898 231.794 65.9243 230.658C65.6919 229.175 65.4178 227.634 65.0056 226.095C64.5933 224.557 64.0623 223.093 63.5222 221.693ZM56.9587 229.137L57.5858 231.477C57.6444 231.696 57.6139 231.938 57.5013 232.133C57.3827 232.339 57.1961 232.484 56.9693 232.545C56.7426 232.606 56.5081 232.573 56.3028 232.455C56.1077 232.342 55.96 232.147 55.9014 231.928L55.2743 229.588C54.1419 229.605 53.3353 228.927 52.9903 227.64C52.565 226.052 53.215 224.915 54.8103 224.487C56.4056 224.06 57.5372 224.72 57.9625 226.307C58.3076 227.595 57.948 228.585 56.9587 229.137Z" fill="#0F1014"/>
<path fill-rule="evenodd" clip-rule="evenodd" d="M347.55 239.06L339.64 252.76C334.297 261.98 326.259 269.363 316.601 273.951C306.936 278.536 296.088 280.105 285.459 278.46L281.265 277.81C280.518 277.679 279.805 277.422 279.151 277.045C278.498 276.668 277.948 276.195 277.475 275.622L274.888 272.357C268.331 264.079 264.425 253.992 263.672 243.393C262.918 232.793 265.358 222.178 270.664 212.937L278.57 199.244C279.27 198.031 280.889 197.727 282.039 198.517C287.479 202.258 293.747 204.647 300.334 205.478C306.728 206.275 313.219 205.579 319.296 203.454C320.048 203.191 320.841 203.31 321.472 203.693C321.486 203.702 321.502 203.691 321.506 203.684C321.515 203.67 321.537 203.664 321.552 203.672C322.188 204.029 322.677 204.641 322.834 205.409C324.105 211.826 326.851 217.884 330.872 223.109C335.005 228.477 340.346 232.79 346.452 235.696C347.719 236.302 348.25 237.847 347.55 239.06Z" fill="#E3E7ED"/>
<path fill-rule="evenodd" clip-rule="evenodd" d="M346.434 239.433L338.696 252.836C333.469 261.855 325.606 269.078 316.158 273.567C306.702 278.052 296.09 279.586 285.692 277.977L281.589 277.342C280.858 277.213 280.161 276.962 279.521 276.593L320.956 204.825C320.956 204.825 320.987 204.805 321.001 204.813C321.623 205.163 322.102 205.761 322.255 206.513C323.499 212.79 326.185 218.717 330.119 223.829C334.162 229.08 339.387 233.299 345.36 236.142C346.6 236.734 347.119 238.246 346.434 239.433Z" fill="#E4E9EE"/>
<path fill-rule="evenodd" clip-rule="evenodd" d="M312.057 239.157C312.516 238.095 312.601 236.925 312.31 235.818C312.013 234.707 311.351 233.724 310.426 233.045C309.21 232.15 307.928 231.235 306.541 230.435C305.154 229.634 303.721 228.981 302.338 228.376C301.287 227.914 300.105 227.832 298.995 228.13C297.891 228.432 296.92 229.091 296.237 230.023C295.345 231.231 294.454 232.507 293.657 233.887C292.861 235.266 292.197 236.684 291.596 238.06C291.135 239.11 291.046 240.288 291.336 241.395C291.634 242.506 292.3 243.481 293.22 244.167C294.436 245.063 295.723 245.97 297.109 246.771C298.496 247.572 299.925 248.232 301.309 248.837C302.363 249.291 303.541 249.38 304.652 249.083C305.755 248.781 306.731 248.115 307.417 247.194C308.301 245.982 309.197 244.698 309.993 243.319C310.79 241.939 311.449 240.529 312.057 239.157ZM302.153 239.779L300.941 241.878C300.828 242.074 300.635 242.224 300.418 242.282C300.188 242.343 299.954 242.314 299.75 242.197C299.547 242.079 299.404 241.89 299.343 241.661C299.285 241.444 299.318 241.202 299.431 241.006L300.643 238.907C299.83 238.119 299.739 237.069 300.405 235.915C301.227 234.491 302.491 234.147 303.921 234.972C305.352 235.798 305.685 237.065 304.863 238.488C304.197 239.643 303.242 240.089 302.153 239.779Z" fill="#0F1014"/>
<path fill-rule="evenodd" clip-rule="evenodd" d="M103.38 15.4047L97.9923 35.5113C94.3421 49.0485 86.6405 61.169 75.9282 70.29C65.2052 79.4082 51.9524 85.0962 37.8839 86.6256L32.3321 87.2279C31.3379 87.3155 30.3438 87.2319 29.3849 86.975C28.4259 86.718 27.5659 86.3048 26.77 85.7376L22.3697 82.4686C11.217 74.1812 2.81818 62.6916 -1.74927 49.4764C-6.31672 36.2612 -6.83038 21.9394 -3.23352 8.38793L2.15118 -11.708C2.62798 -13.4875 4.58108 -14.426 6.31275 -13.8135C14.5002 -10.9116 23.2805 -10.0093 31.9354 -11.1963C40.3331 -12.3608 48.3458 -15.4558 55.3458 -20.2268C56.212 -20.817 57.2602 -20.9358 58.1922 -20.6633C58.2135 -20.6575 58.2299 -20.676 58.2327 -20.6867C58.2384 -20.708 58.2654 -20.7236 58.2868 -20.7179C59.2166 -20.4801 60.0466 -19.8694 60.5073 -18.9466C64.3083 -11.2243 69.8619 -4.46004 76.7518 0.812212C83.832 6.22681 92.0896 9.88981 100.839 11.5034C102.656 11.8416 103.857 13.6252 103.38 15.4047Z" fill="#E3E7ED"/>
<path fill-rule="evenodd" clip-rule="evenodd" d="M102.093 16.2635L96.8223 35.9334C93.2515 49.1766 85.7171 61.0339 75.2375 69.9568C64.7474 78.8769 51.7824 84.4414 38.0194 85.9376L32.5881 86.5268C31.6155 86.6125 30.6431 86.5307 29.705 86.2794L57.9263 -19.044C57.9263 -19.044 57.9583 -19.0801 57.9791 -19.0745C58.8888 -18.842 59.7007 -18.2446 60.1515 -17.3417C63.8699 -9.78722 69.3029 -3.16982 76.0432 1.98793C82.9696 7.28493 91.0478 10.8684 99.6074 12.4469C101.385 12.7778 102.559 14.5227 102.093 16.2635Z" fill="#E4E9EE"/>
<path fill-rule="evenodd" clip-rule="evenodd" d="M58.3103 27.6142C58.5309 26.1087 58.2407 24.592 57.4947 23.2843C56.7381 21.9738 55.5619 20.9506 54.1556 20.4025C52.3054 19.6783 50.3642 18.9526 48.3291 18.4073C46.2939 17.862 44.2499 17.5199 42.2855 17.2219C40.7936 16.9934 39.2633 17.2915 37.9528 18.0481C36.653 18.8076 35.6433 19.976 35.0923 21.393C34.371 23.2325 33.6723 25.1581 33.1298 27.1826C32.5874 29.2071 32.2268 31.2347 31.9317 33.1884C31.7032 34.6804 31.9906 36.2078 32.7366 37.5154C33.4932 38.8259 34.6723 39.8385 36.0757 40.3973C37.9259 41.1215 39.8699 41.8365 41.9051 42.3818C43.9403 42.9271 45.9814 43.2799 47.9458 43.5779C49.4406 43.7957 50.968 43.5083 52.2785 42.7517C53.5783 41.9922 54.5909 40.8131 55.1497 39.4097C55.8603 37.5673 56.5619 35.631 57.1043 33.6065C57.6468 31.582 58.0045 29.5651 58.3103 27.6142ZM45.934 31.7783L45.1089 34.8577C45.0318 35.1454 44.8375 35.4017 44.5808 35.5499C44.3106 35.7059 44.0022 35.7489 43.7038 35.669C43.4055 35.589 43.1598 35.3976 43.0038 35.1274C42.8556 34.8707 42.8155 34.5516 42.8926 34.2639L43.7177 31.1845C42.4161 30.4588 41.943 29.1558 42.3969 27.4616C42.9565 25.3731 44.4455 24.5044 46.5446 25.0669C48.6437 25.6293 49.4989 27.1261 48.9393 29.2146C48.4853 30.9088 47.4241 31.8007 45.934 31.7783Z" fill="#0F1014"/>
</g>
<path d="M152.394 101.958L152.395 101.957C159.546 98.9373 165.899 94.3013 170.959 88.423C171.474 87.8247 172.217 87.5298 172.959 87.5466L172.959 87.5468H172.97C173.07 87.5468 173.156 87.5198 173.226 87.4806C173.899 87.5171 174.551 87.8028 175.025 88.3371C180.215 94.2648 186.729 98.9299 194.069 101.959L194.069 101.959C201.612 105.069 209.781 106.351 217.899 105.705C219.298 105.597 220.5 106.667 220.5 108.027V126.896C220.48 139.504 216.611 151.825 209.429 162.243C202.236 172.66 192.046 180.687 180.179 185.291L175.469 187.117C175.467 187.118 175.466 187.118 175.464 187.119C174.669 187.408 173.839 187.557 173 187.557C172.163 187.557 171.374 187.409 170.599 187.12C170.598 187.119 170.596 187.119 170.595 187.118L165.984 185.292C165.984 185.292 165.984 185.292 165.984 185.292C154.368 180.689 144.398 172.664 137.354 162.247C130.31 151.83 126.53 139.507 126.5 126.896V108.037C126.5 106.68 127.719 105.606 129.111 105.715C137.041 106.341 145.02 105.059 152.394 101.958ZM173.04 87.4768L173.046 87.4767L173.04 87.4768Z" fill="url(#paint1_linear_2902_33629)" stroke="url(#paint2_linear_2902_33629)"/>
<path fill-rule="evenodd" clip-rule="evenodd" d="M220.075 109.085V127.545C220.055 139.979 216.24 152.13 209.157 162.402C202.065 172.674 192.018 180.588 180.317 185.127L175.7 186.917C174.868 187.221 173.998 187.377 173.117 187.377V88.5315C173.117 88.5315 173.137 88.4924 173.156 88.4924C174.007 88.4826 174.859 88.8152 175.465 89.5C180.493 95.2425 186.803 99.7622 193.915 102.697C201.223 105.71 209.138 106.953 217.003 106.326C218.637 106.199 220.075 107.451 220.075 109.085Z" fill="url(#paint3_linear_2902_33629)"/>
<path fill-rule="evenodd" clip-rule="evenodd" d="M184.4 129.298C184.24 127.928 183.63 126.668 182.67 125.698C181.7 124.728 180.43 124.108 179.07 123.958C177.28 123.758 175.41 123.578 173.5 123.578C171.59 123.578 169.72 123.758 167.93 123.958C166.57 124.108 165.3 124.728 164.33 125.698C163.37 126.668 162.76 127.928 162.61 129.298C162.41 131.078 162.25 132.928 162.25 134.828C162.25 136.728 162.41 138.588 162.61 140.368C162.76 141.728 163.37 142.998 164.33 143.968C165.3 144.938 166.57 145.548 167.93 145.708C169.72 145.908 171.59 146.078 173.5 146.078C175.41 146.078 177.28 145.908 179.07 145.708C180.43 145.548 181.7 144.938 182.67 143.968C183.63 142.998 184.24 141.728 184.4 140.368C184.59 138.588 184.75 136.728 184.75 134.828C184.75 132.928 184.59 131.078 184.4 129.298ZM174.54 135.848V138.738C174.54 139.008 174.43 139.278 174.24 139.468C174.04 139.668 173.78 139.778 173.5 139.778C173.22 139.778 172.96 139.668 172.76 139.468C172.57 139.278 172.46 139.008 172.46 138.738V135.848C171.15 135.518 170.43 134.488 170.43 132.898C170.43 130.938 171.53 129.828 173.5 129.828C175.47 129.828 176.57 130.938 176.57 132.898C176.57 134.488 175.85 135.518 174.54 135.848Z" fill="#F4F8FC"/>
<g opacity="0.3">
<g filter="url(#filter0_f_2902_33629)">
<path d="M86.98 51.9303L147.931 -36.8516H188.517L268.421 24.0265L337.544 105.833L244.957 43.0521L172.663 -31.7794L215.151 56.3686L244.957 182.969L188.517 65.2468L174.565 16.7337L181.108 77.0074V192.555L160.614 112.21L156.004 5.79343L147.931 71.5884L100.595 225.466L127.638 65.2468L153.638 -31.7794L102.835 65.2468L50.6523 143.272L86.98 51.9303Z" fill="url(#paint4_linear_2902_33629)"/>
</g>
<g filter="url(#filter1_f_2902_33629)">
<ellipse cx="173.117" cy="-22.1385" rx="119.828" ry="55.9787" fill="#707585"/>
</g>
</g>
<circle opacity="0.72" cx="144.025" cy="84.1328" r="1" fill="#F4F8FC"/>
<g opacity="0.6" filter="url(#filter2_f_2902_33629)">
<circle cx="144.025" cy="84.1328" r="1" fill="#F4F8FC"/>
</g>
<g opacity="0.12" filter="url(#filter3_f_2902_33629)">
<circle cx="215.754" cy="60.0781" r="0.5" fill="#F4F8FC"/>
</g>
<g opacity="0.6" filter="url(#filter4_f_2902_33629)">
<circle cx="215.754" cy="60.0781" r="0.5" fill="#F4F8FC"/>
</g>
<g opacity="0.42" filter="url(#filter5_f_2902_33629)">
<circle cx="187.982" cy="86.4766" r="0.5" fill="#F4F8FC"/>
</g>
<g opacity="0.6" filter="url(#filter6_f_2902_33629)">
<circle cx="187.982" cy="86.4766" r="0.5" fill="#F4F8FC"/>
</g>
<circle opacity="0.12" cx="154.582" cy="44.9609" r="0.5" fill="#F4F8FC"/>
<g opacity="0.6" filter="url(#filter7_f_2902_33629)">
<circle cx="154.582" cy="44.9609" r="0.5" fill="#F4F8FC"/>
</g>
<g opacity="0.53" filter="url(#filter8_f_2902_33629)">
<circle cx="183.75" cy="66.8516" r="1" fill="#F4F8FC"/>
</g>
<g opacity="0.6" filter="url(#filter9_f_2902_33629)">
<circle cx="183.75" cy="66.8516" r="1" fill="#F4F8FC"/>
</g>
<circle opacity="0.2" cx="194.926" cy="37.3359" r="0.5" fill="#F4F8FC"/>
<g opacity="0.6" filter="url(#filter10_f_2902_33629)">
<circle cx="194.926" cy="37.3359" r="0.5" fill="#F4F8FC"/>
</g>
<g opacity="0.12" filter="url(#filter11_f_2902_33629)">
<circle cx="126.612" cy="19.7129" r="0.5" transform="rotate(105 126.612 19.7129)" fill="#F4F8FC"/>
</g>
<g opacity="0.6" filter="url(#filter12_f_2902_33629)">
<circle cx="126.612" cy="19.7129" r="0.5" transform="rotate(105 126.612 19.7129)" fill="#F4F8FC"/>
</g>
<circle opacity="0.72" cx="136.814" cy="26.0743" r="1" transform="rotate(105 136.814 26.0743)" fill="#F4F8FC"/>
<g opacity="0.6" filter="url(#filter13_f_2902_33629)">
<circle cx="136.814" cy="26.0743" r="1" transform="rotate(105 136.814 26.0743)" fill="#F4F8FC"/>
</g>
<circle opacity="0.12" cx="220.686" cy="80.8223" r="0.5" transform="rotate(105 220.686 80.8223)" fill="#F4F8FC"/>
<g opacity="0.6" filter="url(#filter14_f_2902_33629)">
<circle cx="220.686" cy="80.8223" r="0.5" transform="rotate(105 220.686 80.8223)" fill="#F4F8FC"/>
</g>
<g opacity="0.42" filter="url(#filter15_f_2902_33629)">
<circle cx="213.03" cy="19.7129" r="0.5" transform="rotate(105 213.03 19.7129)" fill="#F4F8FC"/>
</g>
<g opacity="0.6" filter="url(#filter16_f_2902_33629)">
<circle cx="213.03" cy="19.7129" r="0.5" transform="rotate(105 213.03 19.7129)" fill="#F4F8FC"/>
</g>
<circle opacity="0.2" cx="231.761" cy="85.8614" r="0.5" transform="rotate(105 231.761 85.8614)" fill="#F4F8FC"/>
<g opacity="0.6" filter="url(#filter17_f_2902_33629)">
<circle cx="231.761" cy="85.8614" r="0.5" transform="rotate(105 231.761 85.8614)" fill="#F4F8FC"/>
</g>
<circle opacity="0.12" cx="124.775" cy="54.3946" r="1" transform="rotate(105 124.775 54.3946)" fill="#F4F8FC"/>
<g opacity="0.6" filter="url(#filter18_f_2902_33629)">
<circle cx="124.775" cy="54.3946" r="1" transform="rotate(105 124.775 54.3946)" fill="#F4F8FC"/>
</g>
<circle opacity="0.2" cx="172.41" cy="18.4884" r="1" transform="rotate(105 172.41 18.4884)" fill="#F4F8FC"/>
<g opacity="0.6" filter="url(#filter19_f_2902_33629)">
<circle cx="172.41" cy="18.4884" r="1" transform="rotate(105 172.41 18.4884)" fill="#F4F8FC"/>
</g>
</g>
<defs>
<filter id="filter0_f_2902_33629" x="20.97" y="-66.534" width="346.255" height="321.685" filterUnits="userSpaceOnUse" color-interpolation-filters="sRGB">
<feFlood flood-opacity="0" result="BackgroundImageFix"/>
<feBlend mode="normal" in="SourceGraphic" in2="BackgroundImageFix" result="shape"/>
<feGaussianBlur stdDeviation="14.8412" result="effect1_foregroundBlur_2902_33629"/>
</filter>
<filter id="filter1_f_2902_33629" x="-21.8109" y="-153.217" width="389.856" height="262.161" filterUnits="userSpaceOnUse" color-interpolation-filters="sRGB">
<feFlood flood-opacity="0" result="BackgroundImageFix"/>
<feBlend mode="normal" in="SourceGraphic" in2="BackgroundImageFix" result="shape"/>
<feGaussianBlur stdDeviation="37.55" result="effect1_foregroundBlur_2902_33629"/>
</filter>
<filter id="filter2_f_2902_33629" x="140.025" y="80.1328" width="8" height="8" filterUnits="userSpaceOnUse" color-interpolation-filters="sRGB">
<feFlood flood-opacity="0" result="BackgroundImageFix"/>
<feBlend mode="normal" in="SourceGraphic" in2="BackgroundImageFix" result="shape"/>
<feGaussianBlur stdDeviation="1.5" result="effect1_foregroundBlur_2902_33629"/>
</filter>
<filter id="filter3_f_2902_33629" x="214.854" y="59.1781" width="1.8" height="1.8" filterUnits="userSpaceOnUse" color-interpolation-filters="sRGB">
<feFlood flood-opacity="0" result="BackgroundImageFix"/>
<feBlend mode="normal" in="SourceGraphic" in2="BackgroundImageFix" result="shape"/>
<feGaussianBlur stdDeviation="0.2" result="effect1_foregroundBlur_2902_33629"/>
</filter>
<filter id="filter4_f_2902_33629" x="211.254" y="55.5781" width="9" height="9" filterUnits="userSpaceOnUse" color-interpolation-filters="sRGB">
<feFlood flood-opacity="0" result="BackgroundImageFix"/>
<feBlend mode="normal" in="SourceGraphic" in2="BackgroundImageFix" result="shape"/>
<feGaussianBlur stdDeviation="2" result="effect1_foregroundBlur_2902_33629"/>
</filter>
<filter id="filter5_f_2902_33629" x="186.482" y="84.9766" width="3" height="3" filterUnits="userSpaceOnUse" color-interpolation-filters="sRGB">
<feFlood flood-opacity="0" result="BackgroundImageFix"/>
<feBlend mode="normal" in="SourceGraphic" in2="BackgroundImageFix" result="shape"/>
<feGaussianBlur stdDeviation="0.5" result="effect1_foregroundBlur_2902_33629"/>
</filter>
<filter id="filter6_f_2902_33629" x="183.482" y="81.9766" width="9" height="9" filterUnits="userSpaceOnUse" color-interpolation-filters="sRGB">
<feFlood flood-opacity="0" result="BackgroundImageFix"/>
<feBlend mode="normal" in="SourceGraphic" in2="BackgroundImageFix" result="shape"/>
<feGaussianBlur stdDeviation="2" result="effect1_foregroundBlur_2902_33629"/>
</filter>
<filter id="filter7_f_2902_33629" x="150.082" y="40.4609" width="9" height="9" filterUnits="userSpaceOnUse" color-interpolation-filters="sRGB">
<feFlood flood-opacity="0" result="BackgroundImageFix"/>
<feBlend mode="normal" in="SourceGraphic" in2="BackgroundImageFix" result="shape"/>
<feGaussianBlur stdDeviation="2" result="effect1_foregroundBlur_2902_33629"/>
</filter>
<filter id="filter8_f_2902_33629" x="182.25" y="65.3516" width="3" height="3" filterUnits="userSpaceOnUse" color-interpolation-filters="sRGB">
<feFlood flood-opacity="0" result="BackgroundImageFix"/>
<feBlend mode="normal" in="SourceGraphic" in2="BackgroundImageFix" result="shape"/>
<feGaussianBlur stdDeviation="0.25" result="effect1_foregroundBlur_2902_33629"/>
</filter>
<filter id="filter9_f_2902_33629" x="178.75" y="61.8516" width="10" height="10" filterUnits="userSpaceOnUse" color-interpolation-filters="sRGB">
<feFlood flood-opacity="0" result="BackgroundImageFix"/>
<feBlend mode="normal" in="SourceGraphic" in2="BackgroundImageFix" result="shape"/>
<feGaussianBlur stdDeviation="2" result="effect1_foregroundBlur_2902_33629"/>
</filter>
<filter id="filter10_f_2902_33629" x="191.426" y="33.8359" width="7" height="7" filterUnits="userSpaceOnUse" color-interpolation-filters="sRGB">
<feFlood flood-opacity="0" result="BackgroundImageFix"/>
<feBlend mode="normal" in="SourceGraphic" in2="BackgroundImageFix" result="shape"/>
<feGaussianBlur stdDeviation="1.5" result="effect1_foregroundBlur_2902_33629"/>
</filter>
<filter id="filter11_f_2902_33629" x="125.711" y="18.8109" width="1.80195" height="1.8" filterUnits="userSpaceOnUse" color-interpolation-filters="sRGB">
<feFlood flood-opacity="0" result="BackgroundImageFix"/>
<feBlend mode="normal" in="SourceGraphic" in2="BackgroundImageFix" result="shape"/>
<feGaussianBlur stdDeviation="0.2" result="effect1_foregroundBlur_2902_33629"/>
</filter>
<filter id="filter12_f_2902_33629" x="122.111" y="15.2109" width="9.00195" height="9" filterUnits="userSpaceOnUse" color-interpolation-filters="sRGB">
<feFlood flood-opacity="0" result="BackgroundImageFix"/>
<feBlend mode="normal" in="SourceGraphic" in2="BackgroundImageFix" result="shape"/>
<feGaussianBlur stdDeviation="2" result="effect1_foregroundBlur_2902_33629"/>
</filter>
<filter id="filter13_f_2902_33629" x="132.814" y="22.0703" width="8" height="8.00781" filterUnits="userSpaceOnUse" color-interpolation-filters="sRGB">
<feFlood flood-opacity="0" result="BackgroundImageFix"/>
<feBlend mode="normal" in="SourceGraphic" in2="BackgroundImageFix" result="shape"/>
<feGaussianBlur stdDeviation="1.5" result="effect1_foregroundBlur_2902_33629"/>
</filter>
<filter id="filter14_f_2902_33629" x="216.186" y="76.3203" width="9.00195" height="9" filterUnits="userSpaceOnUse" color-interpolation-filters="sRGB">
<feFlood flood-opacity="0" result="BackgroundImageFix"/>
<feBlend mode="normal" in="SourceGraphic" in2="BackgroundImageFix" result="shape"/>
<feGaussianBlur stdDeviation="2" result="effect1_foregroundBlur_2902_33629"/>
</filter>
<filter id="filter15_f_2902_33629" x="211.529" y="18.2109" width="3.00195" height="3" filterUnits="userSpaceOnUse" color-interpolation-filters="sRGB">
<feFlood flood-opacity="0" result="BackgroundImageFix"/>
<feBlend mode="normal" in="SourceGraphic" in2="BackgroundImageFix" result="shape"/>
<feGaussianBlur stdDeviation="0.5" result="effect1_foregroundBlur_2902_33629"/>
</filter>
<filter id="filter16_f_2902_33629" x="208.529" y="15.2109" width="9.00195" height="9" filterUnits="userSpaceOnUse" color-interpolation-filters="sRGB">
<feFlood flood-opacity="0" result="BackgroundImageFix"/>
<feBlend mode="normal" in="SourceGraphic" in2="BackgroundImageFix" result="shape"/>
<feGaussianBlur stdDeviation="2" result="effect1_foregroundBlur_2902_33629"/>
</filter>
<filter id="filter17_f_2902_33629" x="228.26" y="82.3594" width="7.00195" height="7" filterUnits="userSpaceOnUse" color-interpolation-filters="sRGB">
<feFlood flood-opacity="0" result="BackgroundImageFix"/>
<feBlend mode="normal" in="SourceGraphic" in2="BackgroundImageFix" result="shape"/>
<feGaussianBlur stdDeviation="1.5" result="effect1_foregroundBlur_2902_33629"/>
</filter>
<filter id="filter18_f_2902_33629" x="119.775" y="49.3906" width="10" height="10.0078" filterUnits="userSpaceOnUse" color-interpolation-filters="sRGB">
<feFlood flood-opacity="0" result="BackgroundImageFix"/>
<feBlend mode="normal" in="SourceGraphic" in2="BackgroundImageFix" result="shape"/>
<feGaussianBlur stdDeviation="2" result="effect1_foregroundBlur_2902_33629"/>
</filter>
<filter id="filter19_f_2902_33629" x="168.41" y="14.4844" width="8" height="8.00781" filterUnits="userSpaceOnUse" color-interpolation-filters="sRGB">
<feFlood flood-opacity="0" result="BackgroundImageFix"/>
<feBlend mode="normal" in="SourceGraphic" in2="BackgroundImageFix" result="shape"/>
<feGaussianBlur stdDeviation="1.5" result="effect1_foregroundBlur_2902_33629"/>
</filter>
<radialGradient id="paint0_radial_2902_33629" cx="0" cy="0" r="1" gradientUnits="userSpaceOnUse" gradientTransform="translate(167.5 121.343) rotate(90) scale(135.157 193.349)">
<stop stop-color="#D9D9D9" stop-opacity="0.22"/>
<stop offset="1" stop-color="#D9D9D9" stop-opacity="0"/>
</radialGradient>
<linearGradient id="paint1_linear_2902_33629" x1="173.5" y1="86.9768" x2="173.5" y2="188.057" gradientUnits="userSpaceOnUse">
<stop stop-color="#1D1E23"/>
<stop offset="1" stop-color="#0F1013"/>
</linearGradient>
<linearGradient id="paint2_linear_2902_33629" x1="173.5" y1="81.127" x2="173.5" y2="172.34" gradientUnits="userSpaceOnUse">
<stop stop-color="#B3B6C1"/>
<stop offset="0.216374" stop-color="#57595E"/>
<stop offset="0.728767" stop-color="#2E2F33" stop-opacity="0"/>
</linearGradient>
<linearGradient id="paint3_linear_2902_33629" x1="216.054" y1="126.8" x2="162.49" y2="124.857" gradientUnits="userSpaceOnUse">
<stop stop-color="#1D1E23"/>
<stop offset="1" stop-color="#0F1013"/>
</linearGradient>
<linearGradient id="paint4_linear_2902_33629" x1="194.098" y1="-28.6549" x2="210.716" y2="185.679" gradientUnits="userSpaceOnUse">
<stop offset="0.0954814" stop-color="white"/>
<stop offset="0.409379" stop-color="#A0A4B4" stop-opacity="0.938314"/>
<stop offset="1" stop-color="#707585" stop-opacity="0.72"/>
</linearGradient>
<clipPath id="clip0_2902_33629">
<rect width="347" height="291" fill="white"/>
</clipPath>
</defs>
</svg>
