<svg xmlns="http://www.w3.org/2000/svg" width="348" height="256" fill="none" xmlns:v="https://vecta.io/nano"><g opacity=".3"><g opacity=".6" filter="url(#A)"><path d="M90.81 52.399l60.951-88.782h40.586l79.904 60.878 69.123 81.807-92.587-62.781-72.294-74.831 42.488 88.148 29.806 126.6-56.44-117.721-13.952-48.513 6.543 60.274v115.547l-20.494-80.344-4.61-106.417-8.073 65.795-47.336 153.878 27.043-160.219 26-97.026-50.803 97.026-52.183 78.026L90.81 52.399z" fill="url(#C)"/></g><g opacity=".6" filter="url(#B)"><ellipse cx="176.947" cy="-21.67" rx="119.828" ry="55.979" fill="#707585"/></g></g><defs><filter id="A" x="24.8" y="-66.065" width="346.255" height="321.685" filterUnits="userSpaceOnUse" color-interpolation-filters="sRGB"><feFlood flood-opacity="0"/><feBlend in="SourceGraphic"/><feGaussianBlur stdDeviation="14.841"/></filter><filter id="B" x="-17.981" y="-152.748" width="389.856" height="262.161" filterUnits="userSpaceOnUse" color-interpolation-filters="sRGB"><feFlood flood-opacity="0"/><feBlend in="SourceGraphic"/><feGaussianBlur stdDeviation="37.55"/></filter><linearGradient id="C" x1="197.928" y1="-28.186" x2="214.546" y2="186.147" gradientUnits="userSpaceOnUse"><stop offset=".095" stop-color="#fff"/><stop offset=".409" stop-color="#a0a4b4" stop-opacity=".938"/><stop offset="1" stop-color="#707585" stop-opacity=".72"/></linearGradient></defs></svg>