<svg xmlns="http://www.w3.org/2000/svg" width="348" height="292" fill="none" xmlns:v="https://vecta.io/nano"><style><![CDATA[.B{fill:#f4f8fc}.C{color-interpolation-filters:sRGB}.D{flood-opacity:0}.E{opacity:.6}.F{fill-rule:evenodd}.G{opacity:.12}.H{fill:#e3e7ed}.I{fill:#e4e9ee}.J{fill:#0f1014}.K{stroke-opacity:.15}]]></style><g clip-path="url(#X)"><mask id="A" maskUnits="userSpaceOnUse" x="-6" y="-14" width="348" height="292" mask-type="alpha"><path fill="url(#T)" d="M-5.17-13.531h347v291h-347z"/></mask><g mask="url(#A)"><circle cx="174.83" cy="137.469" r="97.5" stroke="#f4f8fc" class="K"/><circle cx="174.83" cy="137.469" r="144.5" stroke="#f4f8fc" class="K"/><path d="M89.378 196.995l4.095 15.281c2.742 10.297 2.278 21.202-1.306 31.276-3.593 10.076-10.154 18.856-18.833 25.208l-3.425 2.506c-.621.436-1.307.759-2.036.954s-1.452.25-2.191.179l-4.138-.479c-10.49-1.217-20.384-5.588-28.412-12.55s-13.808-16.194-16.591-26.48l-4.092-15.273c-.362-1.352.566-2.712 1.939-2.967 6.492-1.201 12.614-3.944 17.859-8.014 5.085-3.958 9.182-9.039 11.977-14.84a2.56 2.56 0 0 1 1.708-1.369c.016-.004.02-.022.018-.03-.004-.017.008-.037.024-.041.702-.197 1.481-.111 2.135.322 5.436 3.638 11.662 5.98 18.2 6.832 6.718.873 13.545.146 19.917-2.117 1.324-.468 2.792.25 3.155 1.602z" class="F H"/><path d="M88.856 198.05l4.006 14.949c2.682 10.073 2.229 20.741-1.278 30.596-3.515 9.857-9.933 18.446-18.423 24.661l-3.351 2.452c-.608.426-1.279.741-1.992.932L46.37 191.594s.007-.036.023-.04c.687-.192 1.449-.108 2.088.315 5.318 3.559 11.409 5.85 17.805 6.684a42.04 42.04 0 0 0 19.484-2.071c1.295-.457 2.732.245 3.086 1.568z" class="F I"/><path d="M64.352 222.162c-.427-1.075-1.194-1.963-2.182-2.54a5.06 5.06 0 0 0-3.293-.628l-4.593.901c-1.547.414-3.022.966-4.428 1.516-1.069.417-1.963 1.194-2.538 2.19a5.07 5.07 0 0 0-.612 3.289l.908 4.556c.412 1.539.946 3.01 1.494 4.409.417 1.068 1.186 1.964 2.174 2.542.996.575 2.157.793 3.293.628l4.591-.909c1.547-.415 3.024-.958 4.43-1.509 1.067-.424 1.963-1.194 2.538-2.19a5.15 5.15 0 0 0 .62-3.291l-.919-4.562c-.412-1.539-.943-3.002-1.483-4.402zm-6.563 7.444l.627 2.34c.059.219.028.461-.084.656a.87.87 0 0 1-1.199.321c-.195-.112-.343-.307-.401-.526l-.627-2.34c-1.132.017-1.939-.661-2.284-1.949-.425-1.587.225-2.724 1.82-3.152s2.727.233 3.152 1.82c.345 1.288-.014 2.278-1.004 2.83z" class="F J"/><path d="M348.38 239.528l-7.91 13.701c-5.343 9.22-13.381 16.603-23.039 21.191-9.665 4.585-20.513 6.153-31.142 4.509l-4.194-.65c-.747-.131-1.46-.388-2.114-.765s-1.203-.85-1.676-1.423l-2.587-3.266c-6.557-8.277-10.463-18.364-11.216-28.964s1.686-21.214 6.992-30.455l7.906-13.693c.7-1.213 2.319-1.518 3.47-.727 5.439 3.741 11.707 6.13 18.294 6.961 6.394.797 12.885.101 18.962-2.024a2.56 2.56 0 0 1 2.176.239c.014.009.03-.002.034-.009.009-.015.032-.021.046-.012.636.357 1.125.969 1.282 1.737 1.271 6.416 4.017 12.474 8.038 17.7 4.133 5.368 9.474 9.681 15.58 12.587 1.267.605 1.798 2.151 1.098 3.363z" class="F H"/><path d="M347.264 239.901l-7.738 13.403c-5.227 9.02-13.09 16.242-22.538 20.731-9.456 4.485-20.068 6.02-30.466 4.411l-4.103-.636c-.731-.128-1.428-.379-2.068-.748l41.435-71.768s.031-.02.045-.012a2.53 2.53 0 0 1 1.254 1.7 41.69 41.69 0 0 0 7.864 17.316c4.043 5.251 9.268 9.47 15.241 12.313 1.24.592 1.759 2.104 1.074 3.29z" class="F I"/><path d="M312.887 239.626c.459-1.062.544-2.233.253-3.339-.297-1.111-.959-2.094-1.884-2.773l-3.885-2.611c-1.387-.8-2.82-1.453-4.203-2.059a5.06 5.06 0 0 0-3.343-.245 5.07 5.07 0 0 0-2.758 1.892l-2.58 3.865c-.796 1.379-1.46 2.797-2.061 4.173-.461 1.05-.55 2.228-.26 3.335a5.11 5.11 0 0 0 1.884 2.772l3.89 2.604c1.386.8 2.815 1.461 4.199 2.066 1.054.454 2.232.543 3.343.246a5.15 5.15 0 0 0 2.765-1.889l2.577-3.876c.796-1.379 1.455-2.789 2.063-4.161zm-9.904.622l-1.212 2.098a.88.88 0 0 1-.523.405.87.87 0 0 1-.668-.086c-.203-.117-.346-.306-.407-.535a.88.88 0 0 1 .088-.656l1.212-2.098c-.813-.789-.904-1.838-.238-2.993.822-1.423 2.086-1.768 3.516-.942s1.764 2.093.942 3.516c-.666 1.155-1.621 1.601-2.71 1.291z" class="F J"/><path d="M104.21 15.873L98.822 35.98c-3.65 13.537-11.352 25.658-22.064 34.779-10.723 9.118-23.976 14.806-38.044 16.336l-5.552.602c-.994.088-1.988.004-2.947-.253s-1.819-.67-2.615-1.237l-4.4-3.269C12.047 74.65 3.648 63.16-.919 49.945S-6 22.408-2.403 8.857l5.385-20.096c.477-1.779 2.43-2.718 4.162-2.105 8.187 2.902 16.968 3.804 25.623 2.617 8.398-1.164 16.41-4.259 23.41-9.03.866-.59 1.914-.709 2.846-.436.021.006.038-.013.041-.023.006-.021.033-.037.054-.031.93.238 1.76.848 2.221 1.771 3.801 7.722 9.355 14.487 16.245 19.759a56.54 56.54 0 0 0 24.087 10.691c1.817.338 3.018 2.122 2.541 3.901z" class="F H"/><path d="M102.923 16.732l-5.271 19.67c-3.571 13.243-11.105 25.1-21.585 34.023-10.49 8.92-23.455 14.485-37.218 15.981l-5.431.589c-.973.086-1.945.004-2.883-.248L58.756-18.575s.032-.036.053-.03c.91.233 1.722.83 2.172 1.733C64.7-9.318 70.133-2.701 76.873 2.457c6.926 5.297 15.005 8.88 23.564 10.459 1.778.331 2.952 2.076 2.486 3.817z" class="F I"/><path d="M59.14 28.083c.221-1.505-.07-3.022-.816-4.33-.757-1.311-1.933-2.334-3.339-2.882l-5.827-1.995c-2.035-.545-4.079-.887-6.044-1.185-1.492-.229-3.022.07-4.333.826-1.3.759-2.31 1.928-2.86 3.345l-1.963 5.79c-.542 2.024-.903 4.052-1.198 6.006-.229 1.492.059 3.019.805 4.327.757 1.31 1.936 2.323 3.339 2.882l5.829 1.985c2.035.545 4.076.898 6.041 1.196 1.495.218 3.022-.07 4.333-.826 1.3-.759 2.312-1.938 2.871-3.342l1.955-5.803c.543-2.024.9-4.041 1.206-5.992zm-12.376 4.164l-.825 3.079c-.077.288-.271.544-.528.692-.27.156-.579.199-.877.119s-.544-.271-.7-.542c-.148-.257-.188-.576-.111-.864l.825-3.079c-1.302-.726-1.775-2.029-1.321-3.723.56-2.088 2.049-2.957 4.148-2.395s2.954 2.059 2.395 4.148c-.454 1.694-1.515 2.586-3.005 2.564z" class="F J"/></g><path d="M153.224 102.426L153.225 102.426C160.376 99.4061 166.729 94.77 171.789 88.8918C172.304 88.2934 173.047 87.9985 173.789 88.0154L173.789 88.0155H173.8C173.9 88.0155 173.986 87.9885 174.056 87.9493C174.729 87.9859 175.381 88.2715 175.855 88.8059C181.046 94.7336 187.559 99.3986 194.899 102.428L194.899 102.428C202.442 105.538 210.611 106.82 218.729 106.174C220.128 106.065 221.33 107.136 221.33 108.496V127.365C221.31 139.973 217.442 152.294 210.259 162.711C203.066 173.128 192.876 181.155 181.009 185.759L176.299 187.586C176.297 187.586 176.296 187.587 176.294 187.588C175.499 187.877 174.669 188.026 173.83 188.026C172.993 188.026 172.204 187.877 171.429 187.589C171.428 187.588 171.426 187.588 171.425 187.587L166.814 185.761C166.814 185.761 166.814 185.761 166.814 185.761C155.198 181.158 145.228 173.133 138.184 162.715C131.14 152.298 127.36 139.976 127.33 127.365V108.506C127.33 107.149 128.549 106.075 129.941 106.184C137.871 106.81 145.851 105.527 153.224 102.426ZM173.87 87.9456L173.876 87.9455L173.87 87.9456Z" fill="url(#U)" stroke="url(#V)"/><g class="F"><path d="M220.905 109.554v18.46c-.02 12.434-3.835 24.584-10.918 34.856-7.092 10.272-17.139 18.187-28.84 22.726l-4.617 1.79c-.832.303-1.702.46-2.583.46V89s.02-.039.039-.039c.852-.01 1.703.323 2.309 1.008 5.029 5.742 11.338 10.262 18.451 13.197 7.307 3.013 15.222 4.255 23.087 3.629 1.634-.127 3.072 1.125 3.072 2.759z" fill="url(#W)"/><g class="B"><path d="M185.23 129.767c-.16-1.37-.77-2.63-1.73-3.6a6.04 6.04 0 0 0-3.6-1.74l-5.57-.38c-1.91 0-3.78.18-5.57.38a6.04 6.04 0 0 0-3.6 1.74c-.96.97-1.57 2.23-1.72 3.6l-.36 5.53c0 1.9.16 3.76.36 5.54a6.07 6.07 0 0 0 1.72 3.6c.97.97 2.24 1.58 3.6 1.74l5.57.37c1.91 0 3.78-.17 5.57-.37 1.36-.16 2.63-.77 3.6-1.74a6.14 6.14 0 0 0 1.73-3.6l.35-5.54c0-1.9-.16-3.75-.35-5.53zm-9.86 6.55v2.89c0 .27-.11.54-.3.73-.2.2-.46.31-.74.31s-.54-.11-.74-.31c-.19-.19-.3-.46-.3-.73v-2.89c-1.31-.33-2.03-1.36-2.03-2.95 0-1.96 1.1-3.07 3.07-3.07s3.07 1.11 3.07 3.07c0 1.59-.72 2.62-2.03 2.95z"/></g></g><circle opacity=".72" cx="143.355" cy="84.602" r="1" class="B"/><g filter="url(#B)" class="E B"><circle cx="143.355" cy="84.602" r="1"/></g><g filter="url(#C)" class="G B"><circle cx="215.084" cy="60.547" r=".5"/></g><g filter="url(#D)" class="E B"><circle cx="215.084" cy="60.547" r=".5"/></g><g opacity=".42" filter="url(#E)" class="B"><circle cx="187.312" cy="86.945" r=".5"/></g><g filter="url(#F)" class="E B"><circle cx="187.312" cy="86.945" r=".5"/></g><circle cx="153.912" cy="45.43" r=".5" class="B G"/><g filter="url(#G)" class="E B"><circle cx="153.912" cy="45.43" r=".5"/></g><g opacity=".53" filter="url(#H)" class="B"><circle cx="183.08" cy="67.32" r="1"/></g><g filter="url(#I)" class="E B"><circle cx="183.08" cy="67.32" r="1"/></g><circle opacity=".2" cx="194.256" cy="37.805" r=".5" class="B"/><g filter="url(#J)" class="E B"><circle cx="194.256" cy="37.805" r=".5"/></g><g filter="url(#K)" class="G B"><circle cx="125.942" cy="20.182" r=".5" transform="rotate(105 125.942 20.182)"/></g><g filter="url(#L)" class="E B"><circle cx="125.942" cy="20.182" r=".5" transform="rotate(105 125.942 20.182)"/></g><circle opacity=".72" cx="136.144" cy="26.543" r="1" transform="rotate(105 136.144 26.543)" class="B"/><g filter="url(#M)" class="E B"><circle cx="136.144" cy="26.543" r="1" transform="rotate(105 136.144 26.543)"/></g><circle cx="220.017" cy="81.291" r=".5" transform="rotate(105 220.017 81.291)" class="B G"/><g filter="url(#N)" class="E B"><circle cx="220.017" cy="81.291" r=".5" transform="rotate(105 220.017 81.291)"/></g><g opacity=".42" filter="url(#O)" class="B"><circle cx="212.36" cy="20.182" r=".5" transform="rotate(105 212.36 20.182)"/></g><g filter="url(#P)" class="E B"><circle cx="212.36" cy="20.182" r=".5" transform="rotate(105 212.36 20.182)"/></g><circle opacity=".2" cx="231.091" cy="86.33" r=".5" transform="rotate(105 231.091 86.33)" class="B"/><g filter="url(#Q)" class="E B"><circle cx="231.091" cy="86.33" r=".5" transform="rotate(105 231.091 86.33)"/></g><circle cx="124.105" cy="54.863" r="1" transform="rotate(105 124.105 54.863)" class="B G"/><g filter="url(#R)" class="E B"><circle cx="124.105" cy="54.863" r="1" transform="rotate(105 124.105 54.863)"/></g><circle opacity=".2" cx="171.74" cy="18.957" r="1" transform="rotate(105 171.74 18.957)" class="B"/><g filter="url(#S)" class="E B"><circle cx="171.74" cy="18.957" r="1" transform="rotate(105 171.74 18.957)"/></g></g><defs><filter id="B" x="139.355" y="80.602" width="8" height="8" filterUnits="userSpaceOnUse" class="C"><feFlood class="D"/><feBlend in="SourceGraphic"/><feGaussianBlur stdDeviation="1.5"/></filter><filter id="C" x="214.184" y="59.647" width="1.8" height="1.8" filterUnits="userSpaceOnUse" class="C"><feFlood class="D"/><feBlend in="SourceGraphic"/><feGaussianBlur stdDeviation=".2"/></filter><filter id="D" x="210.584" y="56.047" width="9" height="9" filterUnits="userSpaceOnUse" class="C"><feFlood class="D"/><feBlend in="SourceGraphic"/><feGaussianBlur stdDeviation="2"/></filter><filter id="E" x="185.812" y="85.445" width="3" height="3" filterUnits="userSpaceOnUse" class="C"><feFlood class="D"/><feBlend in="SourceGraphic"/><feGaussianBlur stdDeviation=".5"/></filter><filter id="F" x="182.812" y="82.445" width="9" height="9" filterUnits="userSpaceOnUse" class="C"><feFlood class="D"/><feBlend in="SourceGraphic"/><feGaussianBlur stdDeviation="2"/></filter><filter id="G" x="149.412" y="40.93" width="9" height="9" filterUnits="userSpaceOnUse" class="C"><feFlood class="D"/><feBlend in="SourceGraphic"/><feGaussianBlur stdDeviation="2"/></filter><filter id="H" x="181.58" y="65.82" width="3" height="3" filterUnits="userSpaceOnUse" class="C"><feFlood class="D"/><feBlend in="SourceGraphic"/><feGaussianBlur stdDeviation=".25"/></filter><filter id="I" x="178.08" y="62.32" width="10" height="10" filterUnits="userSpaceOnUse" class="C"><feFlood class="D"/><feBlend in="SourceGraphic"/><feGaussianBlur stdDeviation="2"/></filter><filter id="J" x="190.756" y="34.305" width="7" height="7" filterUnits="userSpaceOnUse" class="C"><feFlood class="D"/><feBlend in="SourceGraphic"/><feGaussianBlur stdDeviation="1.5"/></filter><filter id="K" x="125.041" y="19.28" width="1.802" height="1.8" filterUnits="userSpaceOnUse" class="C"><feFlood class="D"/><feBlend in="SourceGraphic"/><feGaussianBlur stdDeviation=".2"/></filter><filter id="L" x="121.441" y="15.68" width="9.002" height="9" filterUnits="userSpaceOnUse" class="C"><feFlood class="D"/><feBlend in="SourceGraphic"/><feGaussianBlur stdDeviation="2"/></filter><filter id="M" x="132.145" y="22.539" width="8" height="8.008" filterUnits="userSpaceOnUse" class="C"><feFlood class="D"/><feBlend in="SourceGraphic"/><feGaussianBlur stdDeviation="1.5"/></filter><filter id="N" x="215.516" y="76.789" width="9.002" height="9" filterUnits="userSpaceOnUse" class="C"><feFlood class="D"/><feBlend in="SourceGraphic"/><feGaussianBlur stdDeviation="2"/></filter><filter id="O" x="210.859" y="18.68" width="3.002" height="3" filterUnits="userSpaceOnUse" class="C"><feFlood class="D"/><feBlend in="SourceGraphic"/><feGaussianBlur stdDeviation=".5"/></filter><filter id="P" x="207.859" y="15.68" width="9.002" height="9" filterUnits="userSpaceOnUse" class="C"><feFlood class="D"/><feBlend in="SourceGraphic"/><feGaussianBlur stdDeviation="2"/></filter><filter id="Q" x="227.59" y="82.828" width="7.002" height="7" filterUnits="userSpaceOnUse" class="C"><feFlood class="D"/><feBlend in="SourceGraphic"/><feGaussianBlur stdDeviation="1.5"/></filter><filter id="R" x="119.105" y="49.859" width="10" height="10.008" filterUnits="userSpaceOnUse" class="C"><feFlood class="D"/><feBlend in="SourceGraphic"/><feGaussianBlur stdDeviation="2"/></filter><filter id="S" x="167.74" y="14.953" width="8" height="8.008" filterUnits="userSpaceOnUse" class="C"><feFlood class="D"/><feBlend in="SourceGraphic"/><feGaussianBlur stdDeviation="1.5"/></filter><radialGradient id="T" cx="0" cy="0" r="1" gradientUnits="userSpaceOnUse" gradientTransform="translate(168.33 121.812) rotate(90) scale(135.157 193.349)"><stop stop-color="#d9d9d9" stop-opacity=".22"/><stop offset="1" stop-color="#d9d9d9" stop-opacity="0"/></radialGradient><linearGradient id="U" x1="174.33" y1="87.446" x2="174.33" y2="188.526" gradientUnits="userSpaceOnUse"><stop stop-color="#1d1e23"/><stop offset="1" stop-color="#0f1013"/></linearGradient><linearGradient id="V" x1="174.33" y1="81.596" x2="174.33" y2="172.808" gradientUnits="userSpaceOnUse"><stop stop-color="#b3b6c1"/><stop offset=".216" stop-color="#57595e"/><stop offset=".729" stop-color="#2e2f33" stop-opacity="0"/></linearGradient><linearGradient id="W" x1="216.884" y1="127.269" x2="163.32" y2="125.325" gradientUnits="userSpaceOnUse"><stop stop-color="#1d1e23"/><stop offset="1" stop-color="#0f1013"/></linearGradient><clipPath id="X"><path fill="#fff" transform="translate(.83 .469)" d="M0 0h347v291H0z"/></clipPath></defs></svg>